M48
;GenerationSoftware,Autodesk,EAGLE,9.6.2*%
;CreationDate,2022-03-31T15:29:08Z*%
FMAT,2
ICI,OFF
METRIC,TZ,000.000
T2C0.350
T1C0.914
%
G90
M71
T1
X2540Y12700
X45720Y25400
X40640Y48768
X43180Y48768
X2540Y35560
X2549Y33029
X5080Y12700
X5080Y15240
X5080Y17780
X5080Y20320
X5080Y22860
X5080Y25400
X5080Y27940
X5080Y30480
X5080Y33020
X5080Y35560
X2551Y30471
X45720Y35560
X45720Y33020
X45720Y30480
X45720Y27940
X45720Y22860
X45720Y20320
X45720Y17780
X45720Y15240
X45720Y12700
X2547Y27946
X48260Y12700
X48260Y15240
X48260Y17780
X48260Y20320
X48260Y22860
X48260Y25400
X48260Y27940
X48260Y30480
X48260Y33020
X48260Y35560
X2540Y25400
X2540Y22860
X2540Y20320
X2540Y17780
X2540Y15240
T2
X36036Y18449
X8382Y54356
X25400Y3556
X7874Y60706
X2540Y61468
X2540Y57658
X26162Y29464
X35560Y29210
X33020Y11684
X44958Y10160
X36068Y33020
X40014Y36939
X24892Y27940
X16256Y61722
X34290Y61214
X43180Y12954
X18542Y32004
X44867Y24130
X36322Y21336
X34544Y42164
X25400Y51816
X16002Y15040
X16256Y16558
X6096Y3810
X44704Y3556
X37592Y38354
X18438Y34496
X42116Y32712
X38199Y34855
X40640Y16411
X29718Y12446
X8890Y37423
X9398Y35905
X12906Y50800
X12954Y36458
X7874Y22606
X7465Y25301
X31359Y33899
X38199Y33642
X17526Y8328
X25400Y5334
X25908Y11938
X18542Y15040
X17272Y16863
X34798Y7274
X23876Y14986
X19772Y15040
X30480Y27178
X6858Y22352
X37338Y54455
X42458Y43942
X43188Y27948
X30927Y21336
X41148Y20729
X25146Y14224
X8489Y35814
X31287Y32256
X43688Y31750
X7362Y35810
X30378Y32256
X43634Y30734
X35306Y45974
X35814Y59182
X34544Y44704
X34544Y58420
X29718Y40640
X19050Y19558
X15494Y44704
X16002Y52324
X17526Y41910
X18691Y26162
X17272Y47244
X16911Y52324
X31638Y23510
X31750Y22098
X41148Y18288
X28448Y16863
X40640Y43970
X39540Y47166
X40287Y28702
X38354Y37338
X41549Y43970
X40640Y47437
X21991Y48514
X14732Y53144
X33881Y29210
X31242Y36068
X21082Y48514
X14732Y52235
X32004Y30889
X32002Y33257
X43354Y32700
X42164Y7366
X16510Y34496
X35546Y34249
X43430Y3684
X9398Y14986
X13208Y3810
X10414Y20320
X9398Y23114
X9398Y33528
X17018Y26670
X2540Y37084
X43434Y35306
X44196Y33782
X28448Y54864
X23368Y55118
X26816Y59112
X20828Y58166
X34544Y63500
X46990Y58928
X46990Y46736
X10668Y50038
X18181Y16863
X3810Y43180
X35052Y14478
X30226Y18796
X47009Y55742
X45974Y50038
X43348Y39087
X38213Y3627
X7366Y3810
X43688Y29718
X43180Y26670
X41810Y47592
X31750Y28702
X46990Y19050
X7620Y44958
X44958Y7620
X28194Y13716
X22615Y12596
X16764Y9398
X5080Y8890
X2286Y9652
X25400Y38354
X39843Y7201
M30