G04 EAGLE Gerber RS-274X export*
G75*
%MOMM*%
%FSLAX34Y34*%
%LPD*%
%INSilkscreen Bottom*%
%IPPOS*%
%AMOC8*
5,1,8,0,0,1.08239X$1,22.5*%
G01*
%ADD10C,0.152400*%
%ADD11C,0.076200*%
%ADD12C,0.203200*%
%ADD13C,0.177800*%
%ADD14C,0.127000*%
%ADD15C,0.025400*%

G36*
X452510Y407420D02*
X452510Y407420D01*
X452512Y407422D01*
X452513Y407421D01*
X453184Y407656D01*
X453185Y407657D01*
X453186Y407657D01*
X453788Y408035D01*
X453789Y408037D01*
X453791Y408037D01*
X454293Y408539D01*
X454293Y408541D01*
X454295Y408542D01*
X454673Y409144D01*
X454673Y409145D01*
X454674Y409146D01*
X454909Y409817D01*
X454909Y409819D01*
X454910Y409820D01*
X454944Y410120D01*
X454944Y410121D01*
X454945Y410132D01*
X454981Y410455D01*
X454983Y410467D01*
X454989Y410526D01*
X454989Y410527D01*
X454988Y410528D01*
X454989Y410529D01*
X454910Y411235D01*
X454908Y411237D01*
X454909Y411238D01*
X454674Y411909D01*
X454673Y411910D01*
X454673Y411911D01*
X454295Y412513D01*
X454293Y412514D01*
X454293Y412516D01*
X453791Y413018D01*
X453789Y413018D01*
X453788Y413020D01*
X453186Y413398D01*
X453185Y413398D01*
X453184Y413399D01*
X452513Y413634D01*
X452511Y413634D01*
X452510Y413635D01*
X451804Y413714D01*
X451802Y413713D01*
X451801Y413714D01*
X451095Y413635D01*
X451093Y413633D01*
X451092Y413634D01*
X450421Y413399D01*
X450420Y413398D01*
X450419Y413398D01*
X449817Y413020D01*
X449816Y413018D01*
X449814Y413018D01*
X449312Y412516D01*
X449312Y412514D01*
X449310Y412513D01*
X448932Y411911D01*
X448932Y411910D01*
X448931Y411909D01*
X448696Y411238D01*
X448697Y411236D01*
X448695Y411235D01*
X448682Y411114D01*
X448680Y411102D01*
X448644Y410780D01*
X448643Y410768D01*
X448616Y410529D01*
X448617Y410527D01*
X448616Y410526D01*
X448695Y409820D01*
X448697Y409818D01*
X448696Y409817D01*
X448931Y409146D01*
X448932Y409145D01*
X448932Y409144D01*
X449310Y408542D01*
X449312Y408541D01*
X449312Y408539D01*
X449814Y408037D01*
X449816Y408037D01*
X449817Y408035D01*
X450419Y407657D01*
X450420Y407657D01*
X450421Y407656D01*
X451092Y407421D01*
X451094Y407422D01*
X451095Y407420D01*
X451801Y407341D01*
X451803Y407342D01*
X451804Y407341D01*
X452510Y407420D01*
G37*
G36*
X492527Y47931D02*
X492527Y47931D01*
X492553Y47928D01*
X492636Y47950D01*
X492721Y47965D01*
X492744Y47979D01*
X492770Y47986D01*
X492840Y48036D01*
X492914Y48080D01*
X492931Y48100D01*
X492953Y48116D01*
X493001Y48187D01*
X493055Y48254D01*
X493064Y48279D01*
X493079Y48301D01*
X493100Y48385D01*
X493127Y48466D01*
X493127Y48493D01*
X493133Y48519D01*
X493123Y48605D01*
X493121Y48691D01*
X493111Y48715D01*
X493108Y48742D01*
X493051Y48862D01*
X493036Y48898D01*
X493031Y48904D01*
X493028Y48912D01*
X490488Y52722D01*
X490434Y52778D01*
X490386Y52840D01*
X490361Y52856D01*
X490348Y52870D01*
X490343Y52872D01*
X490332Y52884D01*
X490262Y52917D01*
X490196Y52959D01*
X490162Y52966D01*
X490130Y52981D01*
X490053Y52988D01*
X489976Y53004D01*
X489941Y52999D01*
X489907Y53002D01*
X489831Y52982D01*
X489754Y52970D01*
X489737Y52960D01*
X489736Y52960D01*
X489731Y52957D01*
X489724Y52953D01*
X489690Y52944D01*
X489626Y52899D01*
X489558Y52861D01*
X489547Y52848D01*
X489543Y52846D01*
X489531Y52831D01*
X489507Y52814D01*
X489481Y52775D01*
X489432Y52722D01*
X486892Y48912D01*
X486882Y48887D01*
X486865Y48866D01*
X486837Y48785D01*
X486803Y48706D01*
X486801Y48679D01*
X486793Y48654D01*
X486795Y48568D01*
X486791Y48482D01*
X486799Y48456D01*
X486799Y48429D01*
X486832Y48350D01*
X486857Y48268D01*
X486874Y48246D01*
X486884Y48222D01*
X486942Y48158D01*
X486994Y48090D01*
X487017Y48076D01*
X487035Y48056D01*
X487112Y48017D01*
X487184Y47971D01*
X487211Y47966D01*
X487235Y47953D01*
X487365Y47934D01*
X487404Y47926D01*
X487411Y47927D01*
X487420Y47926D01*
X492500Y47926D01*
X492527Y47931D01*
G37*
G36*
X192807Y47931D02*
X192807Y47931D01*
X192833Y47928D01*
X192916Y47950D01*
X193001Y47965D01*
X193024Y47979D01*
X193050Y47986D01*
X193120Y48036D01*
X193194Y48080D01*
X193211Y48100D01*
X193233Y48116D01*
X193281Y48187D01*
X193335Y48254D01*
X193344Y48279D01*
X193359Y48301D01*
X193380Y48385D01*
X193407Y48466D01*
X193407Y48493D01*
X193413Y48519D01*
X193403Y48605D01*
X193401Y48691D01*
X193391Y48715D01*
X193388Y48742D01*
X193331Y48862D01*
X193316Y48898D01*
X193311Y48904D01*
X193308Y48912D01*
X190768Y52722D01*
X190714Y52778D01*
X190666Y52840D01*
X190641Y52856D01*
X190628Y52870D01*
X190623Y52872D01*
X190612Y52884D01*
X190542Y52917D01*
X190476Y52959D01*
X190442Y52966D01*
X190410Y52981D01*
X190333Y52988D01*
X190256Y53004D01*
X190221Y52999D01*
X190187Y53002D01*
X190111Y52982D01*
X190034Y52970D01*
X190017Y52960D01*
X190016Y52960D01*
X190011Y52957D01*
X190004Y52953D01*
X189970Y52944D01*
X189906Y52899D01*
X189838Y52861D01*
X189827Y52848D01*
X189823Y52846D01*
X189811Y52831D01*
X189787Y52814D01*
X189761Y52775D01*
X189712Y52722D01*
X187172Y48912D01*
X187162Y48887D01*
X187145Y48866D01*
X187117Y48785D01*
X187083Y48706D01*
X187081Y48679D01*
X187073Y48654D01*
X187075Y48568D01*
X187071Y48482D01*
X187079Y48456D01*
X187079Y48429D01*
X187112Y48350D01*
X187137Y48268D01*
X187154Y48246D01*
X187164Y48222D01*
X187222Y48158D01*
X187274Y48090D01*
X187297Y48076D01*
X187315Y48056D01*
X187392Y48017D01*
X187464Y47971D01*
X187491Y47966D01*
X187515Y47953D01*
X187645Y47934D01*
X187684Y47926D01*
X187691Y47927D01*
X187700Y47926D01*
X192780Y47926D01*
X192807Y47931D01*
G37*
G36*
X211669Y607401D02*
X211669Y607401D01*
X211703Y607398D01*
X211779Y607418D01*
X211856Y607430D01*
X211886Y607447D01*
X211920Y607456D01*
X211984Y607501D01*
X212052Y607539D01*
X212078Y607569D01*
X212103Y607586D01*
X212129Y607625D01*
X212178Y607678D01*
X214718Y611488D01*
X214728Y611511D01*
X214742Y611529D01*
X214743Y611531D01*
X214745Y611534D01*
X214773Y611615D01*
X214807Y611694D01*
X214809Y611721D01*
X214817Y611746D01*
X214815Y611832D01*
X214819Y611918D01*
X214811Y611944D01*
X214811Y611971D01*
X214778Y612050D01*
X214753Y612132D01*
X214736Y612154D01*
X214726Y612178D01*
X214668Y612242D01*
X214616Y612310D01*
X214593Y612324D01*
X214575Y612344D01*
X214498Y612383D01*
X214426Y612429D01*
X214399Y612434D01*
X214375Y612447D01*
X214245Y612466D01*
X214206Y612474D01*
X214199Y612473D01*
X214190Y612474D01*
X209110Y612474D01*
X209084Y612470D01*
X209057Y612472D01*
X208974Y612450D01*
X208889Y612435D01*
X208866Y612421D01*
X208840Y612414D01*
X208770Y612364D01*
X208696Y612320D01*
X208679Y612300D01*
X208657Y612284D01*
X208609Y612213D01*
X208555Y612146D01*
X208546Y612121D01*
X208531Y612099D01*
X208510Y612015D01*
X208483Y611934D01*
X208484Y611907D01*
X208477Y611881D01*
X208487Y611795D01*
X208489Y611709D01*
X208499Y611685D01*
X208502Y611658D01*
X208559Y611538D01*
X208574Y611502D01*
X208576Y611499D01*
X208577Y611497D01*
X208580Y611494D01*
X208582Y611488D01*
X211122Y607678D01*
X211176Y607622D01*
X211224Y607560D01*
X211254Y607542D01*
X211278Y607516D01*
X211348Y607483D01*
X211414Y607441D01*
X211449Y607434D01*
X211480Y607419D01*
X211557Y607412D01*
X211634Y607396D01*
X211669Y607401D01*
G37*
G36*
X418579Y607401D02*
X418579Y607401D01*
X418613Y607398D01*
X418689Y607418D01*
X418766Y607430D01*
X418796Y607447D01*
X418830Y607456D01*
X418894Y607501D01*
X418962Y607539D01*
X418988Y607569D01*
X419013Y607586D01*
X419039Y607625D01*
X419088Y607678D01*
X421628Y611488D01*
X421638Y611511D01*
X421652Y611529D01*
X421653Y611531D01*
X421655Y611534D01*
X421683Y611615D01*
X421717Y611694D01*
X421719Y611721D01*
X421727Y611746D01*
X421725Y611832D01*
X421729Y611918D01*
X421721Y611944D01*
X421721Y611971D01*
X421688Y612050D01*
X421663Y612132D01*
X421646Y612154D01*
X421636Y612178D01*
X421578Y612242D01*
X421526Y612310D01*
X421503Y612324D01*
X421485Y612344D01*
X421408Y612383D01*
X421336Y612429D01*
X421309Y612434D01*
X421285Y612447D01*
X421155Y612466D01*
X421116Y612474D01*
X421109Y612473D01*
X421100Y612474D01*
X416020Y612474D01*
X415994Y612470D01*
X415967Y612472D01*
X415884Y612450D01*
X415799Y612435D01*
X415776Y612421D01*
X415750Y612414D01*
X415680Y612364D01*
X415606Y612320D01*
X415589Y612300D01*
X415567Y612284D01*
X415519Y612213D01*
X415465Y612146D01*
X415456Y612121D01*
X415441Y612099D01*
X415420Y612015D01*
X415393Y611934D01*
X415394Y611907D01*
X415387Y611881D01*
X415397Y611795D01*
X415399Y611709D01*
X415409Y611685D01*
X415412Y611658D01*
X415469Y611538D01*
X415484Y611502D01*
X415486Y611499D01*
X415487Y611497D01*
X415490Y611494D01*
X415492Y611488D01*
X418032Y607678D01*
X418086Y607622D01*
X418134Y607560D01*
X418164Y607542D01*
X418188Y607516D01*
X418258Y607483D01*
X418324Y607441D01*
X418359Y607434D01*
X418390Y607419D01*
X418467Y607412D01*
X418544Y607396D01*
X418579Y607401D01*
G37*
G36*
X296669Y102201D02*
X296669Y102201D01*
X296671Y102200D01*
X296714Y102220D01*
X296758Y102239D01*
X296758Y102241D01*
X296760Y102242D01*
X296793Y102326D01*
X296793Y106136D01*
X296792Y106138D01*
X296793Y106140D01*
X296773Y106184D01*
X296755Y106227D01*
X296753Y106228D01*
X296752Y106230D01*
X296667Y106263D01*
X294127Y106263D01*
X294125Y106262D01*
X294123Y106263D01*
X294080Y106243D01*
X294036Y106224D01*
X294035Y106222D01*
X294033Y106221D01*
X294001Y106136D01*
X294001Y102326D01*
X294002Y102324D01*
X294001Y102322D01*
X294021Y102279D01*
X294039Y102236D01*
X294041Y102235D01*
X294042Y102233D01*
X294127Y102200D01*
X296667Y102200D01*
X296669Y102201D01*
G37*
D10*
X436880Y581660D02*
X436880Y533400D01*
X477520Y533400D01*
X477520Y581660D01*
X436880Y581660D01*
X426720Y581660D02*
X386080Y581660D01*
X426720Y581660D02*
X426720Y533400D01*
X386080Y533400D01*
X386080Y581660D01*
D11*
X380619Y553850D02*
X378982Y551804D01*
X380619Y553850D02*
X373253Y553850D01*
X373253Y551804D02*
X373253Y555896D01*
X376936Y559120D02*
X377089Y559122D01*
X377242Y559128D01*
X377394Y559137D01*
X377547Y559151D01*
X377699Y559168D01*
X377850Y559189D01*
X378001Y559214D01*
X378151Y559243D01*
X378301Y559275D01*
X378449Y559312D01*
X378597Y559352D01*
X378744Y559395D01*
X378889Y559443D01*
X379033Y559494D01*
X379176Y559548D01*
X379318Y559607D01*
X379457Y559668D01*
X379596Y559734D01*
X379666Y559760D01*
X379736Y559790D01*
X379803Y559823D01*
X379869Y559859D01*
X379933Y559898D01*
X379995Y559941D01*
X380054Y559987D01*
X380112Y560035D01*
X380166Y560086D01*
X380219Y560140D01*
X380268Y560197D01*
X380315Y560256D01*
X380358Y560317D01*
X380399Y560380D01*
X380436Y560445D01*
X380471Y560512D01*
X380501Y560581D01*
X380529Y560651D01*
X380552Y560722D01*
X380573Y560794D01*
X380589Y560867D01*
X380602Y560941D01*
X380612Y561016D01*
X380617Y561091D01*
X380619Y561166D01*
X380617Y561241D01*
X380612Y561316D01*
X380602Y561391D01*
X380589Y561465D01*
X380573Y561538D01*
X380552Y561610D01*
X380529Y561681D01*
X380501Y561751D01*
X380471Y561820D01*
X380436Y561887D01*
X380399Y561952D01*
X380358Y562015D01*
X380315Y562076D01*
X380268Y562135D01*
X380219Y562192D01*
X380166Y562246D01*
X380112Y562297D01*
X380054Y562346D01*
X379995Y562391D01*
X379933Y562434D01*
X379869Y562473D01*
X379803Y562510D01*
X379735Y562542D01*
X379666Y562572D01*
X379596Y562598D01*
X379458Y562663D01*
X379318Y562725D01*
X379176Y562783D01*
X379033Y562838D01*
X378889Y562889D01*
X378744Y562937D01*
X378597Y562980D01*
X378450Y563020D01*
X378301Y563057D01*
X378151Y563089D01*
X378001Y563118D01*
X377850Y563143D01*
X377699Y563164D01*
X377547Y563181D01*
X377394Y563195D01*
X377242Y563204D01*
X377089Y563210D01*
X376936Y563212D01*
X376936Y559119D02*
X376783Y559121D01*
X376630Y559127D01*
X376477Y559136D01*
X376325Y559150D01*
X376173Y559167D01*
X376022Y559188D01*
X375871Y559213D01*
X375720Y559242D01*
X375571Y559274D01*
X375422Y559311D01*
X375275Y559351D01*
X375128Y559394D01*
X374983Y559442D01*
X374838Y559493D01*
X374696Y559548D01*
X374554Y559606D01*
X374414Y559668D01*
X374276Y559733D01*
X374276Y559734D02*
X374205Y559760D01*
X374136Y559790D01*
X374069Y559823D01*
X374003Y559859D01*
X373939Y559898D01*
X373877Y559941D01*
X373818Y559987D01*
X373760Y560035D01*
X373706Y560086D01*
X373653Y560140D01*
X373604Y560197D01*
X373557Y560256D01*
X373514Y560317D01*
X373473Y560380D01*
X373436Y560445D01*
X373401Y560512D01*
X373371Y560581D01*
X373343Y560651D01*
X373320Y560722D01*
X373299Y560794D01*
X373283Y560867D01*
X373270Y560941D01*
X373260Y561016D01*
X373255Y561091D01*
X373253Y561166D01*
X374276Y562597D02*
X374414Y562662D01*
X374554Y562724D01*
X374696Y562782D01*
X374839Y562837D01*
X374983Y562888D01*
X375128Y562936D01*
X375275Y562979D01*
X375423Y563019D01*
X375571Y563056D01*
X375721Y563088D01*
X375871Y563117D01*
X376022Y563142D01*
X376173Y563163D01*
X376325Y563180D01*
X376478Y563194D01*
X376630Y563203D01*
X376783Y563209D01*
X376936Y563211D01*
X374276Y562598D02*
X374206Y562572D01*
X374136Y562542D01*
X374069Y562510D01*
X374003Y562473D01*
X373939Y562434D01*
X373877Y562391D01*
X373818Y562345D01*
X373760Y562297D01*
X373706Y562246D01*
X373653Y562192D01*
X373604Y562135D01*
X373557Y562076D01*
X373514Y562015D01*
X373473Y561952D01*
X373436Y561887D01*
X373401Y561820D01*
X373371Y561751D01*
X373343Y561681D01*
X373320Y561610D01*
X373299Y561538D01*
X373283Y561465D01*
X373270Y561391D01*
X373260Y561316D01*
X373255Y561241D01*
X373253Y561166D01*
X374890Y559529D02*
X378982Y562802D01*
X376936Y566435D02*
X377089Y566437D01*
X377242Y566443D01*
X377394Y566452D01*
X377547Y566466D01*
X377699Y566483D01*
X377850Y566504D01*
X378001Y566529D01*
X378151Y566558D01*
X378301Y566590D01*
X378449Y566627D01*
X378597Y566667D01*
X378744Y566710D01*
X378889Y566758D01*
X379033Y566809D01*
X379176Y566863D01*
X379318Y566922D01*
X379457Y566983D01*
X379596Y567049D01*
X379666Y567075D01*
X379736Y567105D01*
X379803Y567138D01*
X379869Y567174D01*
X379933Y567213D01*
X379995Y567256D01*
X380054Y567302D01*
X380112Y567350D01*
X380166Y567401D01*
X380219Y567455D01*
X380268Y567512D01*
X380315Y567571D01*
X380358Y567632D01*
X380399Y567695D01*
X380436Y567760D01*
X380471Y567827D01*
X380501Y567896D01*
X380529Y567966D01*
X380552Y568037D01*
X380573Y568109D01*
X380589Y568182D01*
X380602Y568256D01*
X380612Y568331D01*
X380617Y568406D01*
X380619Y568481D01*
X380617Y568556D01*
X380612Y568631D01*
X380602Y568706D01*
X380589Y568780D01*
X380573Y568853D01*
X380552Y568925D01*
X380529Y568996D01*
X380501Y569066D01*
X380471Y569135D01*
X380436Y569202D01*
X380399Y569267D01*
X380358Y569330D01*
X380315Y569391D01*
X380268Y569450D01*
X380219Y569507D01*
X380166Y569561D01*
X380112Y569612D01*
X380054Y569661D01*
X379995Y569706D01*
X379933Y569749D01*
X379869Y569788D01*
X379803Y569825D01*
X379735Y569857D01*
X379666Y569887D01*
X379596Y569913D01*
X379458Y569978D01*
X379318Y570040D01*
X379176Y570098D01*
X379033Y570153D01*
X378889Y570204D01*
X378744Y570252D01*
X378597Y570295D01*
X378450Y570335D01*
X378301Y570372D01*
X378151Y570404D01*
X378001Y570433D01*
X377850Y570458D01*
X377699Y570479D01*
X377547Y570496D01*
X377394Y570510D01*
X377242Y570519D01*
X377089Y570525D01*
X376936Y570527D01*
X376936Y566434D02*
X376783Y566436D01*
X376630Y566442D01*
X376477Y566451D01*
X376325Y566465D01*
X376173Y566482D01*
X376022Y566503D01*
X375871Y566528D01*
X375720Y566557D01*
X375571Y566589D01*
X375422Y566626D01*
X375275Y566666D01*
X375128Y566709D01*
X374983Y566757D01*
X374838Y566808D01*
X374696Y566863D01*
X374554Y566921D01*
X374414Y566983D01*
X374276Y567048D01*
X374276Y567049D02*
X374205Y567075D01*
X374136Y567105D01*
X374069Y567138D01*
X374003Y567174D01*
X373939Y567213D01*
X373877Y567256D01*
X373818Y567302D01*
X373760Y567350D01*
X373706Y567401D01*
X373653Y567455D01*
X373604Y567512D01*
X373557Y567571D01*
X373514Y567632D01*
X373473Y567695D01*
X373436Y567760D01*
X373401Y567827D01*
X373371Y567896D01*
X373343Y567966D01*
X373320Y568037D01*
X373299Y568109D01*
X373283Y568182D01*
X373270Y568256D01*
X373260Y568331D01*
X373255Y568406D01*
X373253Y568481D01*
X374276Y569913D02*
X374414Y569978D01*
X374554Y570040D01*
X374696Y570098D01*
X374839Y570153D01*
X374983Y570204D01*
X375128Y570252D01*
X375275Y570295D01*
X375423Y570335D01*
X375571Y570372D01*
X375721Y570404D01*
X375871Y570433D01*
X376022Y570458D01*
X376173Y570479D01*
X376325Y570496D01*
X376478Y570510D01*
X376630Y570519D01*
X376783Y570525D01*
X376936Y570527D01*
X374276Y569913D02*
X374206Y569887D01*
X374136Y569857D01*
X374069Y569825D01*
X374003Y569788D01*
X373939Y569749D01*
X373877Y569706D01*
X373818Y569660D01*
X373760Y569612D01*
X373706Y569561D01*
X373653Y569507D01*
X373604Y569450D01*
X373557Y569391D01*
X373514Y569330D01*
X373473Y569267D01*
X373436Y569202D01*
X373401Y569135D01*
X373371Y569066D01*
X373343Y568996D01*
X373320Y568925D01*
X373299Y568853D01*
X373283Y568780D01*
X373270Y568706D01*
X373260Y568631D01*
X373255Y568556D01*
X373253Y568481D01*
X374890Y566844D02*
X378982Y570118D01*
X378164Y573829D02*
X378260Y573831D01*
X378357Y573837D01*
X378453Y573846D01*
X378548Y573859D01*
X378643Y573876D01*
X378737Y573897D01*
X378830Y573921D01*
X378923Y573949D01*
X379014Y573981D01*
X379103Y574016D01*
X379192Y574055D01*
X379279Y574097D01*
X379364Y574142D01*
X379447Y574191D01*
X379528Y574243D01*
X379607Y574298D01*
X379684Y574356D01*
X379758Y574417D01*
X379830Y574481D01*
X379900Y574548D01*
X379967Y574618D01*
X380031Y574690D01*
X380092Y574764D01*
X380150Y574841D01*
X380205Y574920D01*
X380257Y575001D01*
X380306Y575084D01*
X380351Y575169D01*
X380393Y575256D01*
X380432Y575345D01*
X380467Y575434D01*
X380499Y575525D01*
X380527Y575618D01*
X380551Y575711D01*
X380572Y575805D01*
X380589Y575900D01*
X380602Y575995D01*
X380611Y576091D01*
X380617Y576188D01*
X380619Y576284D01*
X378164Y573828D02*
X377345Y573828D01*
X377252Y573830D01*
X377160Y573835D01*
X377067Y573845D01*
X376975Y573858D01*
X376884Y573874D01*
X376793Y573895D01*
X376704Y573918D01*
X376615Y573946D01*
X376527Y573977D01*
X376441Y574011D01*
X376357Y574049D01*
X376273Y574090D01*
X376192Y574135D01*
X376112Y574183D01*
X376035Y574234D01*
X375959Y574288D01*
X375886Y574345D01*
X375815Y574404D01*
X375746Y574467D01*
X375680Y574532D01*
X375617Y574600D01*
X375557Y574671D01*
X375499Y574743D01*
X375444Y574818D01*
X375393Y574896D01*
X375344Y574975D01*
X375299Y575056D01*
X373253Y575056D01*
X373253Y573828D01*
X378164Y578739D02*
X378260Y578737D01*
X378357Y578731D01*
X378453Y578722D01*
X378548Y578709D01*
X378643Y578692D01*
X378737Y578671D01*
X378830Y578647D01*
X378923Y578619D01*
X379014Y578587D01*
X379103Y578552D01*
X379192Y578513D01*
X379279Y578471D01*
X379364Y578426D01*
X379447Y578377D01*
X379528Y578325D01*
X379607Y578270D01*
X379684Y578212D01*
X379758Y578151D01*
X379830Y578087D01*
X379900Y578020D01*
X379967Y577950D01*
X380031Y577878D01*
X380092Y577804D01*
X380150Y577727D01*
X380205Y577648D01*
X380257Y577567D01*
X380306Y577484D01*
X380351Y577399D01*
X380393Y577312D01*
X380432Y577223D01*
X380467Y577134D01*
X380499Y577043D01*
X380527Y576950D01*
X380551Y576857D01*
X380572Y576763D01*
X380589Y576668D01*
X380602Y576573D01*
X380611Y576477D01*
X380617Y576380D01*
X380619Y576284D01*
X378164Y578739D02*
X377345Y578739D01*
X377252Y578737D01*
X377160Y578732D01*
X377067Y578722D01*
X376975Y578709D01*
X376884Y578693D01*
X376793Y578672D01*
X376704Y578649D01*
X376615Y578621D01*
X376527Y578590D01*
X376441Y578556D01*
X376357Y578518D01*
X376273Y578477D01*
X376192Y578432D01*
X376112Y578384D01*
X376035Y578333D01*
X375959Y578279D01*
X375886Y578222D01*
X375815Y578163D01*
X375746Y578100D01*
X375680Y578035D01*
X375617Y577967D01*
X375557Y577896D01*
X375499Y577824D01*
X375444Y577749D01*
X375393Y577671D01*
X375344Y577592D01*
X375299Y577511D01*
X373253Y577511D01*
X373253Y578739D01*
X482473Y541512D02*
X482473Y539056D01*
X482473Y541512D02*
X482475Y541592D01*
X482481Y541672D01*
X482491Y541752D01*
X482504Y541831D01*
X482522Y541910D01*
X482543Y541987D01*
X482569Y542063D01*
X482598Y542138D01*
X482630Y542212D01*
X482666Y542284D01*
X482706Y542354D01*
X482749Y542421D01*
X482795Y542487D01*
X482845Y542550D01*
X482897Y542611D01*
X482952Y542670D01*
X483011Y542725D01*
X483071Y542777D01*
X483135Y542827D01*
X483201Y542873D01*
X483268Y542916D01*
X483338Y542956D01*
X483410Y542992D01*
X483484Y543024D01*
X483558Y543053D01*
X483635Y543079D01*
X483712Y543100D01*
X483791Y543118D01*
X483870Y543131D01*
X483950Y543141D01*
X484030Y543147D01*
X484110Y543149D01*
X484928Y543149D01*
X485006Y543147D01*
X485084Y543142D01*
X485161Y543132D01*
X485238Y543119D01*
X485314Y543103D01*
X485389Y543083D01*
X485463Y543059D01*
X485536Y543032D01*
X485608Y543001D01*
X485678Y542967D01*
X485747Y542930D01*
X485813Y542889D01*
X485878Y542845D01*
X485940Y542799D01*
X486000Y542749D01*
X486058Y542697D01*
X486113Y542642D01*
X486165Y542584D01*
X486215Y542524D01*
X486261Y542462D01*
X486305Y542397D01*
X486346Y542331D01*
X486383Y542262D01*
X486417Y542192D01*
X486448Y542120D01*
X486475Y542047D01*
X486499Y541973D01*
X486519Y541898D01*
X486535Y541822D01*
X486548Y541745D01*
X486558Y541668D01*
X486563Y541590D01*
X486565Y541512D01*
X486565Y539056D01*
X489839Y539056D01*
X489839Y543149D01*
X486565Y546372D02*
X486565Y548827D01*
X486563Y548905D01*
X486558Y548983D01*
X486548Y549060D01*
X486535Y549137D01*
X486519Y549213D01*
X486499Y549288D01*
X486475Y549362D01*
X486448Y549435D01*
X486417Y549507D01*
X486383Y549577D01*
X486346Y549646D01*
X486305Y549712D01*
X486261Y549777D01*
X486215Y549839D01*
X486165Y549899D01*
X486113Y549957D01*
X486058Y550012D01*
X486000Y550064D01*
X485940Y550114D01*
X485878Y550160D01*
X485813Y550204D01*
X485747Y550245D01*
X485678Y550282D01*
X485608Y550316D01*
X485536Y550347D01*
X485463Y550374D01*
X485389Y550398D01*
X485314Y550418D01*
X485238Y550434D01*
X485161Y550447D01*
X485084Y550457D01*
X485006Y550462D01*
X484928Y550464D01*
X484519Y550464D01*
X484430Y550462D01*
X484341Y550456D01*
X484252Y550446D01*
X484164Y550433D01*
X484076Y550416D01*
X483989Y550394D01*
X483904Y550369D01*
X483819Y550341D01*
X483736Y550308D01*
X483654Y550272D01*
X483574Y550233D01*
X483496Y550190D01*
X483420Y550144D01*
X483345Y550094D01*
X483273Y550041D01*
X483204Y549985D01*
X483137Y549926D01*
X483072Y549865D01*
X483011Y549800D01*
X482952Y549733D01*
X482896Y549664D01*
X482843Y549592D01*
X482793Y549517D01*
X482747Y549441D01*
X482704Y549363D01*
X482665Y549283D01*
X482629Y549201D01*
X482596Y549118D01*
X482568Y549033D01*
X482543Y548948D01*
X482521Y548861D01*
X482504Y548773D01*
X482491Y548685D01*
X482481Y548596D01*
X482475Y548507D01*
X482473Y548418D01*
X482475Y548329D01*
X482481Y548240D01*
X482491Y548151D01*
X482504Y548063D01*
X482521Y547975D01*
X482543Y547888D01*
X482568Y547803D01*
X482596Y547718D01*
X482629Y547635D01*
X482665Y547553D01*
X482704Y547473D01*
X482747Y547395D01*
X482793Y547319D01*
X482843Y547244D01*
X482896Y547172D01*
X482952Y547103D01*
X483011Y547036D01*
X483072Y546971D01*
X483137Y546910D01*
X483204Y546851D01*
X483273Y546795D01*
X483345Y546742D01*
X483420Y546692D01*
X483496Y546646D01*
X483574Y546603D01*
X483654Y546564D01*
X483736Y546528D01*
X483819Y546495D01*
X483904Y546467D01*
X483989Y546442D01*
X484076Y546420D01*
X484164Y546403D01*
X484252Y546390D01*
X484341Y546380D01*
X484430Y546374D01*
X484519Y546372D01*
X486565Y546372D01*
X486565Y546371D02*
X486679Y546373D01*
X486793Y546379D01*
X486907Y546389D01*
X487021Y546403D01*
X487134Y546421D01*
X487246Y546443D01*
X487357Y546468D01*
X487467Y546498D01*
X487577Y546531D01*
X487685Y546568D01*
X487791Y546609D01*
X487897Y546654D01*
X488000Y546702D01*
X488102Y546754D01*
X488202Y546810D01*
X488300Y546868D01*
X488396Y546931D01*
X488489Y546996D01*
X488581Y547065D01*
X488669Y547137D01*
X488756Y547212D01*
X488839Y547290D01*
X488920Y547371D01*
X488998Y547454D01*
X489073Y547541D01*
X489145Y547629D01*
X489214Y547721D01*
X489279Y547814D01*
X489341Y547910D01*
X489400Y548008D01*
X489456Y548108D01*
X489508Y548210D01*
X489556Y548313D01*
X489601Y548419D01*
X489642Y548525D01*
X489679Y548633D01*
X489712Y548743D01*
X489742Y548853D01*
X489767Y548964D01*
X489789Y549076D01*
X489807Y549189D01*
X489821Y549303D01*
X489831Y549417D01*
X489837Y549531D01*
X489839Y549645D01*
X488816Y554301D02*
X488677Y554235D01*
X488538Y554174D01*
X488396Y554115D01*
X488253Y554061D01*
X488109Y554010D01*
X487964Y553962D01*
X487817Y553919D01*
X487669Y553879D01*
X487521Y553842D01*
X487371Y553810D01*
X487221Y553781D01*
X487070Y553756D01*
X486919Y553735D01*
X486767Y553718D01*
X486614Y553704D01*
X486462Y553695D01*
X486309Y553689D01*
X486156Y553687D01*
X488816Y554301D02*
X488886Y554327D01*
X488956Y554357D01*
X489023Y554390D01*
X489089Y554426D01*
X489153Y554465D01*
X489215Y554508D01*
X489274Y554554D01*
X489332Y554602D01*
X489386Y554653D01*
X489439Y554707D01*
X489488Y554764D01*
X489535Y554823D01*
X489578Y554884D01*
X489619Y554947D01*
X489656Y555012D01*
X489691Y555079D01*
X489721Y555148D01*
X489749Y555218D01*
X489772Y555289D01*
X489793Y555361D01*
X489809Y555434D01*
X489822Y555508D01*
X489832Y555583D01*
X489837Y555658D01*
X489839Y555733D01*
X489837Y555808D01*
X489832Y555883D01*
X489822Y555958D01*
X489809Y556032D01*
X489793Y556105D01*
X489772Y556177D01*
X489749Y556248D01*
X489721Y556318D01*
X489691Y556387D01*
X489656Y556454D01*
X489619Y556519D01*
X489578Y556582D01*
X489535Y556643D01*
X489488Y556702D01*
X489439Y556759D01*
X489386Y556813D01*
X489332Y556864D01*
X489274Y556913D01*
X489215Y556958D01*
X489153Y557001D01*
X489089Y557040D01*
X489023Y557077D01*
X488955Y557109D01*
X488886Y557139D01*
X488816Y557165D01*
X488678Y557230D01*
X488538Y557292D01*
X488396Y557350D01*
X488253Y557405D01*
X488109Y557456D01*
X487964Y557504D01*
X487817Y557547D01*
X487670Y557587D01*
X487521Y557624D01*
X487371Y557656D01*
X487221Y557685D01*
X487070Y557710D01*
X486919Y557731D01*
X486767Y557748D01*
X486614Y557762D01*
X486462Y557771D01*
X486309Y557777D01*
X486156Y557779D01*
X486156Y553686D02*
X486003Y553688D01*
X485850Y553694D01*
X485697Y553703D01*
X485545Y553717D01*
X485393Y553734D01*
X485242Y553755D01*
X485091Y553780D01*
X484940Y553809D01*
X484791Y553841D01*
X484642Y553878D01*
X484495Y553918D01*
X484348Y553961D01*
X484203Y554009D01*
X484058Y554060D01*
X483916Y554115D01*
X483774Y554173D01*
X483634Y554235D01*
X483496Y554300D01*
X483496Y554301D02*
X483425Y554327D01*
X483356Y554357D01*
X483289Y554390D01*
X483223Y554426D01*
X483159Y554465D01*
X483097Y554508D01*
X483038Y554554D01*
X482980Y554602D01*
X482926Y554653D01*
X482873Y554707D01*
X482824Y554764D01*
X482777Y554823D01*
X482734Y554884D01*
X482693Y554947D01*
X482656Y555012D01*
X482621Y555079D01*
X482591Y555148D01*
X482563Y555218D01*
X482540Y555289D01*
X482519Y555361D01*
X482503Y555434D01*
X482490Y555508D01*
X482480Y555583D01*
X482475Y555658D01*
X482473Y555733D01*
X483496Y557165D02*
X483634Y557230D01*
X483774Y557292D01*
X483916Y557350D01*
X484059Y557405D01*
X484203Y557456D01*
X484348Y557504D01*
X484495Y557547D01*
X484643Y557587D01*
X484791Y557624D01*
X484941Y557656D01*
X485091Y557685D01*
X485242Y557710D01*
X485393Y557731D01*
X485545Y557748D01*
X485698Y557762D01*
X485850Y557771D01*
X486003Y557777D01*
X486156Y557779D01*
X483496Y557165D02*
X483426Y557139D01*
X483356Y557109D01*
X483289Y557077D01*
X483223Y557040D01*
X483159Y557001D01*
X483097Y556958D01*
X483038Y556912D01*
X482980Y556864D01*
X482926Y556813D01*
X482873Y556759D01*
X482824Y556702D01*
X482777Y556643D01*
X482734Y556582D01*
X482693Y556519D01*
X482656Y556454D01*
X482621Y556387D01*
X482591Y556318D01*
X482563Y556248D01*
X482540Y556177D01*
X482519Y556105D01*
X482503Y556032D01*
X482490Y555958D01*
X482480Y555883D01*
X482475Y555808D01*
X482473Y555733D01*
X484110Y554096D02*
X488202Y557370D01*
X487384Y561208D02*
X480018Y561208D01*
X487384Y561208D02*
X487384Y563254D01*
X487382Y563323D01*
X487376Y563391D01*
X487367Y563460D01*
X487353Y563527D01*
X487336Y563594D01*
X487315Y563660D01*
X487291Y563724D01*
X487262Y563787D01*
X487231Y563848D01*
X487196Y563907D01*
X487158Y563965D01*
X487116Y564020D01*
X487072Y564072D01*
X487024Y564122D01*
X486974Y564170D01*
X486922Y564214D01*
X486867Y564256D01*
X486809Y564294D01*
X486750Y564329D01*
X486689Y564360D01*
X486626Y564389D01*
X486562Y564413D01*
X486496Y564434D01*
X486429Y564451D01*
X486362Y564465D01*
X486293Y564474D01*
X486225Y564480D01*
X486156Y564482D01*
X483701Y564482D01*
X483632Y564480D01*
X483564Y564474D01*
X483495Y564465D01*
X483428Y564451D01*
X483361Y564434D01*
X483295Y564413D01*
X483231Y564389D01*
X483168Y564360D01*
X483107Y564329D01*
X483048Y564294D01*
X482990Y564256D01*
X482935Y564214D01*
X482883Y564170D01*
X482833Y564122D01*
X482785Y564072D01*
X482741Y564020D01*
X482700Y563965D01*
X482661Y563907D01*
X482626Y563848D01*
X482595Y563787D01*
X482566Y563724D01*
X482542Y563660D01*
X482521Y563594D01*
X482504Y563527D01*
X482490Y563460D01*
X482481Y563392D01*
X482475Y563323D01*
X482473Y563254D01*
X482473Y561208D01*
X482473Y567845D02*
X489839Y567845D01*
X489839Y571119D01*
X486565Y571119D02*
X486565Y567845D01*
D10*
X86360Y500380D02*
X15240Y500380D01*
X86360Y500380D02*
X86360Y459740D01*
X15240Y459740D01*
X15240Y500380D01*
D11*
X96838Y472077D02*
X96923Y472075D01*
X97008Y472069D01*
X97092Y472059D01*
X97176Y472046D01*
X97260Y472028D01*
X97342Y472007D01*
X97423Y471982D01*
X97503Y471953D01*
X97582Y471920D01*
X97659Y471884D01*
X97734Y471844D01*
X97808Y471801D01*
X97879Y471755D01*
X97948Y471705D01*
X98015Y471652D01*
X98079Y471596D01*
X98140Y471537D01*
X98199Y471476D01*
X98255Y471412D01*
X98308Y471345D01*
X98358Y471276D01*
X98404Y471205D01*
X98447Y471131D01*
X98487Y471056D01*
X98523Y470979D01*
X98556Y470900D01*
X98585Y470820D01*
X98610Y470739D01*
X98631Y470657D01*
X98649Y470573D01*
X98662Y470489D01*
X98672Y470405D01*
X98678Y470320D01*
X98680Y470235D01*
X98679Y470235D02*
X98677Y470139D01*
X98671Y470043D01*
X98661Y469948D01*
X98648Y469853D01*
X98630Y469758D01*
X98609Y469665D01*
X98584Y469572D01*
X98555Y469481D01*
X98523Y469390D01*
X98487Y469301D01*
X98447Y469214D01*
X98404Y469128D01*
X98358Y469044D01*
X98308Y468962D01*
X98254Y468882D01*
X98198Y468805D01*
X98138Y468730D01*
X98076Y468657D01*
X98010Y468587D01*
X97942Y468519D01*
X97871Y468454D01*
X97798Y468393D01*
X97722Y468334D01*
X97643Y468278D01*
X97563Y468226D01*
X97480Y468177D01*
X97396Y468131D01*
X97310Y468089D01*
X97222Y468051D01*
X97133Y468016D01*
X97042Y467984D01*
X95406Y471463D02*
X95465Y471523D01*
X95527Y471580D01*
X95591Y471635D01*
X95658Y471686D01*
X95727Y471735D01*
X95797Y471781D01*
X95870Y471824D01*
X95944Y471864D01*
X96020Y471900D01*
X96098Y471933D01*
X96177Y471963D01*
X96257Y471990D01*
X96338Y472013D01*
X96420Y472032D01*
X96502Y472048D01*
X96586Y472061D01*
X96670Y472070D01*
X96754Y472075D01*
X96838Y472077D01*
X95405Y471463D02*
X91313Y467984D01*
X91313Y472076D01*
X96838Y479392D02*
X96923Y479390D01*
X97008Y479384D01*
X97092Y479374D01*
X97176Y479361D01*
X97260Y479343D01*
X97342Y479322D01*
X97423Y479297D01*
X97503Y479268D01*
X97582Y479235D01*
X97659Y479199D01*
X97734Y479159D01*
X97808Y479116D01*
X97879Y479070D01*
X97948Y479020D01*
X98015Y478967D01*
X98079Y478911D01*
X98140Y478852D01*
X98199Y478791D01*
X98255Y478727D01*
X98308Y478660D01*
X98358Y478591D01*
X98404Y478520D01*
X98447Y478446D01*
X98487Y478371D01*
X98523Y478294D01*
X98556Y478215D01*
X98585Y478135D01*
X98610Y478054D01*
X98631Y477972D01*
X98649Y477888D01*
X98662Y477804D01*
X98672Y477720D01*
X98678Y477635D01*
X98680Y477550D01*
X98679Y477550D02*
X98677Y477454D01*
X98671Y477358D01*
X98661Y477263D01*
X98648Y477168D01*
X98630Y477073D01*
X98609Y476980D01*
X98584Y476887D01*
X98555Y476796D01*
X98523Y476705D01*
X98487Y476616D01*
X98447Y476529D01*
X98404Y476443D01*
X98358Y476359D01*
X98308Y476277D01*
X98254Y476197D01*
X98198Y476120D01*
X98138Y476045D01*
X98076Y475972D01*
X98010Y475902D01*
X97942Y475834D01*
X97871Y475769D01*
X97798Y475708D01*
X97722Y475649D01*
X97643Y475593D01*
X97563Y475541D01*
X97480Y475492D01*
X97396Y475446D01*
X97310Y475404D01*
X97222Y475366D01*
X97133Y475331D01*
X97042Y475299D01*
X95406Y478778D02*
X95465Y478838D01*
X95527Y478895D01*
X95591Y478950D01*
X95658Y479001D01*
X95727Y479050D01*
X95797Y479096D01*
X95870Y479139D01*
X95944Y479179D01*
X96020Y479215D01*
X96098Y479248D01*
X96177Y479278D01*
X96257Y479305D01*
X96338Y479328D01*
X96420Y479347D01*
X96502Y479363D01*
X96586Y479376D01*
X96670Y479385D01*
X96754Y479390D01*
X96838Y479392D01*
X95405Y478778D02*
X91313Y475299D01*
X91313Y479392D01*
X94996Y482615D02*
X95149Y482617D01*
X95302Y482623D01*
X95454Y482632D01*
X95607Y482646D01*
X95759Y482663D01*
X95910Y482684D01*
X96061Y482709D01*
X96211Y482738D01*
X96361Y482770D01*
X96509Y482807D01*
X96657Y482847D01*
X96804Y482890D01*
X96949Y482938D01*
X97093Y482989D01*
X97236Y483043D01*
X97378Y483102D01*
X97517Y483163D01*
X97656Y483229D01*
X97726Y483255D01*
X97796Y483285D01*
X97863Y483318D01*
X97929Y483354D01*
X97993Y483393D01*
X98055Y483436D01*
X98114Y483482D01*
X98172Y483530D01*
X98226Y483581D01*
X98279Y483635D01*
X98328Y483692D01*
X98375Y483751D01*
X98418Y483812D01*
X98459Y483875D01*
X98496Y483940D01*
X98531Y484007D01*
X98561Y484076D01*
X98589Y484146D01*
X98612Y484217D01*
X98633Y484289D01*
X98649Y484362D01*
X98662Y484436D01*
X98672Y484511D01*
X98677Y484586D01*
X98679Y484661D01*
X98677Y484736D01*
X98672Y484811D01*
X98662Y484886D01*
X98649Y484960D01*
X98633Y485033D01*
X98612Y485105D01*
X98589Y485176D01*
X98561Y485246D01*
X98531Y485315D01*
X98496Y485382D01*
X98459Y485447D01*
X98418Y485510D01*
X98375Y485571D01*
X98328Y485630D01*
X98279Y485687D01*
X98226Y485741D01*
X98172Y485792D01*
X98114Y485841D01*
X98055Y485886D01*
X97993Y485929D01*
X97929Y485968D01*
X97863Y486005D01*
X97795Y486037D01*
X97726Y486067D01*
X97656Y486093D01*
X97518Y486158D01*
X97378Y486220D01*
X97236Y486278D01*
X97093Y486333D01*
X96949Y486384D01*
X96804Y486432D01*
X96657Y486475D01*
X96510Y486515D01*
X96361Y486552D01*
X96211Y486584D01*
X96061Y486613D01*
X95910Y486638D01*
X95759Y486659D01*
X95607Y486676D01*
X95454Y486690D01*
X95302Y486699D01*
X95149Y486705D01*
X94996Y486707D01*
X94996Y482614D02*
X94843Y482616D01*
X94690Y482622D01*
X94537Y482631D01*
X94385Y482645D01*
X94233Y482662D01*
X94082Y482683D01*
X93931Y482708D01*
X93780Y482737D01*
X93631Y482769D01*
X93482Y482806D01*
X93335Y482846D01*
X93188Y482889D01*
X93043Y482937D01*
X92898Y482988D01*
X92756Y483043D01*
X92614Y483101D01*
X92474Y483163D01*
X92336Y483228D01*
X92336Y483229D02*
X92265Y483255D01*
X92196Y483285D01*
X92129Y483318D01*
X92063Y483354D01*
X91999Y483393D01*
X91937Y483436D01*
X91878Y483482D01*
X91820Y483530D01*
X91766Y483581D01*
X91713Y483635D01*
X91664Y483692D01*
X91617Y483751D01*
X91574Y483812D01*
X91533Y483875D01*
X91496Y483940D01*
X91461Y484007D01*
X91431Y484076D01*
X91403Y484146D01*
X91380Y484217D01*
X91359Y484289D01*
X91343Y484362D01*
X91330Y484436D01*
X91320Y484511D01*
X91315Y484586D01*
X91313Y484661D01*
X92336Y486093D02*
X92474Y486158D01*
X92614Y486220D01*
X92756Y486278D01*
X92899Y486333D01*
X93043Y486384D01*
X93188Y486432D01*
X93335Y486475D01*
X93483Y486515D01*
X93631Y486552D01*
X93781Y486584D01*
X93931Y486613D01*
X94082Y486638D01*
X94233Y486659D01*
X94385Y486676D01*
X94538Y486690D01*
X94690Y486699D01*
X94843Y486705D01*
X94996Y486707D01*
X92336Y486093D02*
X92266Y486067D01*
X92196Y486037D01*
X92129Y486005D01*
X92063Y485968D01*
X91999Y485929D01*
X91937Y485886D01*
X91878Y485840D01*
X91820Y485792D01*
X91766Y485741D01*
X91713Y485687D01*
X91664Y485630D01*
X91617Y485571D01*
X91574Y485510D01*
X91533Y485447D01*
X91496Y485382D01*
X91461Y485315D01*
X91431Y485246D01*
X91403Y485176D01*
X91380Y485105D01*
X91359Y485033D01*
X91343Y484960D01*
X91330Y484886D01*
X91320Y484811D01*
X91315Y484736D01*
X91313Y484661D01*
X92950Y483024D02*
X97042Y486298D01*
X96224Y490009D02*
X96320Y490011D01*
X96417Y490017D01*
X96513Y490026D01*
X96608Y490039D01*
X96703Y490056D01*
X96797Y490077D01*
X96890Y490101D01*
X96983Y490129D01*
X97074Y490161D01*
X97163Y490196D01*
X97252Y490235D01*
X97339Y490277D01*
X97424Y490322D01*
X97507Y490371D01*
X97588Y490423D01*
X97667Y490478D01*
X97744Y490536D01*
X97818Y490597D01*
X97890Y490661D01*
X97960Y490728D01*
X98027Y490798D01*
X98091Y490870D01*
X98152Y490944D01*
X98210Y491021D01*
X98265Y491100D01*
X98317Y491181D01*
X98366Y491264D01*
X98411Y491349D01*
X98453Y491436D01*
X98492Y491525D01*
X98527Y491614D01*
X98559Y491705D01*
X98587Y491798D01*
X98611Y491891D01*
X98632Y491985D01*
X98649Y492080D01*
X98662Y492175D01*
X98671Y492271D01*
X98677Y492368D01*
X98679Y492464D01*
X96224Y490008D02*
X95405Y490008D01*
X95312Y490010D01*
X95220Y490015D01*
X95127Y490025D01*
X95035Y490038D01*
X94944Y490054D01*
X94853Y490075D01*
X94764Y490098D01*
X94675Y490126D01*
X94587Y490157D01*
X94501Y490191D01*
X94417Y490229D01*
X94333Y490270D01*
X94252Y490315D01*
X94172Y490363D01*
X94095Y490414D01*
X94019Y490468D01*
X93946Y490525D01*
X93875Y490584D01*
X93806Y490647D01*
X93740Y490712D01*
X93677Y490780D01*
X93617Y490851D01*
X93559Y490923D01*
X93504Y490998D01*
X93453Y491076D01*
X93404Y491155D01*
X93359Y491236D01*
X91313Y491236D01*
X91313Y490008D01*
X96224Y494919D02*
X96320Y494917D01*
X96417Y494911D01*
X96513Y494902D01*
X96608Y494889D01*
X96703Y494872D01*
X96797Y494851D01*
X96890Y494827D01*
X96983Y494799D01*
X97074Y494767D01*
X97163Y494732D01*
X97252Y494693D01*
X97339Y494651D01*
X97424Y494606D01*
X97507Y494557D01*
X97588Y494505D01*
X97667Y494450D01*
X97744Y494392D01*
X97818Y494331D01*
X97890Y494267D01*
X97960Y494200D01*
X98027Y494130D01*
X98091Y494058D01*
X98152Y493984D01*
X98210Y493907D01*
X98265Y493828D01*
X98317Y493747D01*
X98366Y493664D01*
X98411Y493579D01*
X98453Y493492D01*
X98492Y493403D01*
X98527Y493314D01*
X98559Y493223D01*
X98587Y493130D01*
X98611Y493037D01*
X98632Y492943D01*
X98649Y492848D01*
X98662Y492753D01*
X98671Y492657D01*
X98677Y492560D01*
X98679Y492464D01*
X96224Y494919D02*
X95405Y494919D01*
X95312Y494917D01*
X95220Y494912D01*
X95127Y494902D01*
X95035Y494889D01*
X94944Y494873D01*
X94853Y494852D01*
X94764Y494829D01*
X94675Y494801D01*
X94587Y494770D01*
X94501Y494736D01*
X94417Y494698D01*
X94333Y494657D01*
X94252Y494612D01*
X94172Y494564D01*
X94095Y494513D01*
X94019Y494459D01*
X93946Y494402D01*
X93875Y494343D01*
X93806Y494280D01*
X93740Y494215D01*
X93677Y494147D01*
X93617Y494076D01*
X93559Y494004D01*
X93504Y493929D01*
X93453Y493851D01*
X93404Y493772D01*
X93359Y493691D01*
X91313Y493691D01*
X91313Y494919D01*
X415471Y338201D02*
X417559Y338201D01*
X417648Y338203D01*
X417736Y338209D01*
X417824Y338218D01*
X417912Y338231D01*
X417999Y338248D01*
X418085Y338268D01*
X418170Y338293D01*
X418255Y338320D01*
X418338Y338352D01*
X418419Y338386D01*
X418499Y338425D01*
X418577Y338466D01*
X418654Y338511D01*
X418728Y338559D01*
X418801Y338610D01*
X418871Y338664D01*
X418938Y338722D01*
X419004Y338782D01*
X419066Y338844D01*
X419126Y338910D01*
X419184Y338977D01*
X419238Y339047D01*
X419289Y339120D01*
X419337Y339194D01*
X419382Y339271D01*
X419423Y339349D01*
X419462Y339429D01*
X419496Y339510D01*
X419528Y339593D01*
X419555Y339678D01*
X419580Y339763D01*
X419600Y339849D01*
X419617Y339936D01*
X419630Y340024D01*
X419639Y340112D01*
X419645Y340200D01*
X419647Y340289D01*
X419648Y340289D02*
X419648Y345511D01*
X419647Y345511D02*
X419645Y345600D01*
X419639Y345688D01*
X419630Y345776D01*
X419617Y345864D01*
X419600Y345951D01*
X419580Y346037D01*
X419555Y346122D01*
X419528Y346207D01*
X419496Y346290D01*
X419462Y346371D01*
X419423Y346451D01*
X419382Y346529D01*
X419337Y346606D01*
X419289Y346680D01*
X419238Y346753D01*
X419184Y346823D01*
X419126Y346890D01*
X419066Y346956D01*
X419004Y347018D01*
X418938Y347078D01*
X418871Y347136D01*
X418801Y347190D01*
X418728Y347241D01*
X418654Y347289D01*
X418577Y347334D01*
X418499Y347375D01*
X418419Y347414D01*
X418338Y347448D01*
X418255Y347480D01*
X418170Y347507D01*
X418085Y347532D01*
X417999Y347552D01*
X417912Y347569D01*
X417824Y347582D01*
X417736Y347591D01*
X417648Y347597D01*
X417559Y347599D01*
X415471Y347599D01*
X412002Y345511D02*
X409392Y347599D01*
X409392Y338201D01*
X412002Y338201D02*
X406781Y338201D01*
D12*
X435910Y647685D02*
X473410Y647685D01*
X482785Y616435D02*
X482785Y603934D01*
X467160Y603934D01*
X442160Y603934D02*
X426535Y603934D01*
X426535Y616435D01*
D13*
X400469Y605207D02*
X400469Y603344D01*
X400471Y603260D01*
X400476Y603177D01*
X400486Y603094D01*
X400499Y603011D01*
X400516Y602929D01*
X400536Y602848D01*
X400560Y602768D01*
X400588Y602689D01*
X400619Y602612D01*
X400653Y602536D01*
X400691Y602461D01*
X400733Y602388D01*
X400777Y602318D01*
X400825Y602249D01*
X400875Y602182D01*
X400929Y602118D01*
X400985Y602057D01*
X401045Y601997D01*
X401106Y601941D01*
X401170Y601887D01*
X401237Y601837D01*
X401306Y601789D01*
X401376Y601745D01*
X401449Y601703D01*
X401524Y601665D01*
X401600Y601631D01*
X401677Y601600D01*
X401756Y601572D01*
X401836Y601548D01*
X401917Y601528D01*
X401999Y601511D01*
X402082Y601498D01*
X402165Y601488D01*
X402248Y601483D01*
X402332Y601481D01*
X402332Y601482D02*
X406988Y601482D01*
X406988Y601481D02*
X407074Y601483D01*
X407160Y601489D01*
X407245Y601499D01*
X407330Y601513D01*
X407415Y601530D01*
X407498Y601552D01*
X407580Y601578D01*
X407661Y601607D01*
X407740Y601640D01*
X407818Y601676D01*
X407895Y601716D01*
X407969Y601760D01*
X408041Y601807D01*
X408111Y601857D01*
X408178Y601911D01*
X408243Y601967D01*
X408305Y602027D01*
X408365Y602089D01*
X408421Y602154D01*
X408475Y602221D01*
X408525Y602291D01*
X408572Y602363D01*
X408616Y602437D01*
X408656Y602514D01*
X408692Y602591D01*
X408725Y602671D01*
X408754Y602752D01*
X408780Y602834D01*
X408802Y602917D01*
X408819Y603002D01*
X408833Y603087D01*
X408843Y603172D01*
X408849Y603258D01*
X408851Y603344D01*
X408851Y605207D01*
X408851Y611472D02*
X400469Y608678D01*
X400469Y614266D02*
X408851Y611472D01*
X402565Y609377D02*
X402565Y613568D01*
X400469Y618593D02*
X408851Y618593D01*
X400469Y623249D01*
X408851Y623249D01*
X405126Y628562D02*
X405126Y630891D01*
X405125Y630891D02*
X405123Y630986D01*
X405117Y631081D01*
X405108Y631175D01*
X405094Y631269D01*
X405077Y631363D01*
X405056Y631455D01*
X405031Y631547D01*
X405002Y631637D01*
X404970Y631727D01*
X404934Y631815D01*
X404894Y631901D01*
X404852Y631986D01*
X404805Y632069D01*
X404755Y632150D01*
X404702Y632228D01*
X404646Y632305D01*
X404587Y632379D01*
X404525Y632451D01*
X404460Y632520D01*
X404392Y632587D01*
X404322Y632650D01*
X404248Y632711D01*
X404173Y632769D01*
X404095Y632823D01*
X404015Y632875D01*
X403933Y632923D01*
X403850Y632967D01*
X403764Y633009D01*
X403677Y633046D01*
X403588Y633080D01*
X403498Y633111D01*
X403407Y633138D01*
X403315Y633161D01*
X403222Y633180D01*
X403128Y633195D01*
X403034Y633207D01*
X402939Y633215D01*
X402844Y633219D01*
X402750Y633219D01*
X402655Y633215D01*
X402560Y633207D01*
X402466Y633195D01*
X402372Y633180D01*
X402279Y633161D01*
X402187Y633138D01*
X402096Y633111D01*
X402006Y633080D01*
X401917Y633046D01*
X401830Y633009D01*
X401744Y632967D01*
X401661Y632923D01*
X401579Y632875D01*
X401499Y632823D01*
X401421Y632769D01*
X401346Y632711D01*
X401272Y632650D01*
X401202Y632587D01*
X401134Y632520D01*
X401069Y632451D01*
X401007Y632379D01*
X400948Y632305D01*
X400892Y632228D01*
X400839Y632150D01*
X400789Y632069D01*
X400742Y631986D01*
X400700Y631901D01*
X400660Y631815D01*
X400624Y631727D01*
X400592Y631637D01*
X400563Y631547D01*
X400538Y631455D01*
X400517Y631363D01*
X400500Y631269D01*
X400486Y631175D01*
X400477Y631081D01*
X400471Y630986D01*
X400469Y630891D01*
X400469Y628562D01*
X408851Y628562D01*
X408851Y630891D01*
X408849Y630976D01*
X408843Y631060D01*
X408834Y631145D01*
X408820Y631228D01*
X408803Y631311D01*
X408782Y631394D01*
X408757Y631475D01*
X408729Y631555D01*
X408697Y631633D01*
X408661Y631710D01*
X408622Y631786D01*
X408580Y631859D01*
X408534Y631930D01*
X408485Y632000D01*
X408433Y632067D01*
X408378Y632131D01*
X408320Y632193D01*
X408260Y632253D01*
X408196Y632309D01*
X408131Y632363D01*
X408062Y632413D01*
X407992Y632460D01*
X407920Y632504D01*
X407845Y632545D01*
X407769Y632582D01*
X407691Y632616D01*
X407612Y632646D01*
X407531Y632673D01*
X407450Y632696D01*
X407367Y632715D01*
X407284Y632730D01*
X407200Y632742D01*
X407115Y632750D01*
X407030Y632754D01*
X406946Y632754D01*
X406861Y632750D01*
X406776Y632742D01*
X406692Y632730D01*
X406609Y632715D01*
X406526Y632696D01*
X406445Y632673D01*
X406364Y632646D01*
X406285Y632616D01*
X406207Y632582D01*
X406131Y632545D01*
X406057Y632504D01*
X405984Y632460D01*
X405914Y632413D01*
X405845Y632363D01*
X405780Y632309D01*
X405716Y632253D01*
X405656Y632193D01*
X405598Y632131D01*
X405543Y632067D01*
X405491Y632000D01*
X405442Y631930D01*
X405396Y631859D01*
X405354Y631786D01*
X405315Y631710D01*
X405279Y631633D01*
X405247Y631555D01*
X405219Y631475D01*
X405194Y631394D01*
X405173Y631311D01*
X405156Y631228D01*
X405142Y631145D01*
X405133Y631060D01*
X405127Y630976D01*
X405125Y630891D01*
X402797Y637490D02*
X408851Y637490D01*
X402797Y637491D02*
X402702Y637493D01*
X402607Y637499D01*
X402513Y637508D01*
X402419Y637522D01*
X402325Y637539D01*
X402233Y637560D01*
X402141Y637585D01*
X402051Y637614D01*
X401961Y637646D01*
X401873Y637682D01*
X401787Y637722D01*
X401702Y637764D01*
X401619Y637811D01*
X401538Y637861D01*
X401460Y637914D01*
X401383Y637970D01*
X401309Y638029D01*
X401237Y638091D01*
X401168Y638156D01*
X401101Y638224D01*
X401038Y638294D01*
X400977Y638368D01*
X400919Y638443D01*
X400865Y638521D01*
X400813Y638601D01*
X400765Y638683D01*
X400721Y638766D01*
X400679Y638852D01*
X400642Y638939D01*
X400608Y639028D01*
X400577Y639118D01*
X400550Y639209D01*
X400527Y639301D01*
X400508Y639394D01*
X400493Y639488D01*
X400481Y639582D01*
X400473Y639677D01*
X400469Y639772D01*
X400469Y639866D01*
X400473Y639961D01*
X400481Y640056D01*
X400493Y640150D01*
X400508Y640244D01*
X400527Y640337D01*
X400550Y640429D01*
X400577Y640520D01*
X400608Y640610D01*
X400642Y640699D01*
X400679Y640786D01*
X400721Y640872D01*
X400765Y640955D01*
X400813Y641037D01*
X400865Y641117D01*
X400919Y641195D01*
X400977Y641270D01*
X401038Y641344D01*
X401101Y641414D01*
X401168Y641482D01*
X401237Y641547D01*
X401309Y641609D01*
X401383Y641668D01*
X401460Y641724D01*
X401538Y641777D01*
X401619Y641827D01*
X401702Y641874D01*
X401787Y641916D01*
X401873Y641956D01*
X401961Y641992D01*
X402051Y642024D01*
X402141Y642053D01*
X402233Y642078D01*
X402325Y642099D01*
X402419Y642116D01*
X402513Y642130D01*
X402607Y642139D01*
X402702Y642145D01*
X402797Y642147D01*
X408851Y642147D01*
X400469Y649428D02*
X400471Y649514D01*
X400477Y649600D01*
X400487Y649685D01*
X400501Y649770D01*
X400518Y649855D01*
X400540Y649938D01*
X400566Y650020D01*
X400595Y650101D01*
X400628Y650181D01*
X400664Y650258D01*
X400704Y650335D01*
X400748Y650409D01*
X400795Y650481D01*
X400845Y650551D01*
X400899Y650618D01*
X400955Y650683D01*
X401015Y650745D01*
X401077Y650805D01*
X401142Y650861D01*
X401209Y650915D01*
X401279Y650965D01*
X401351Y651012D01*
X401425Y651056D01*
X401502Y651096D01*
X401580Y651132D01*
X401659Y651165D01*
X401740Y651194D01*
X401822Y651220D01*
X401905Y651242D01*
X401990Y651259D01*
X402075Y651273D01*
X402160Y651283D01*
X402246Y651289D01*
X402332Y651291D01*
X400469Y649428D02*
X400471Y649304D01*
X400477Y649180D01*
X400487Y649056D01*
X400500Y648932D01*
X400518Y648809D01*
X400539Y648687D01*
X400565Y648565D01*
X400594Y648444D01*
X400627Y648324D01*
X400664Y648206D01*
X400704Y648088D01*
X400748Y647972D01*
X400796Y647857D01*
X400847Y647744D01*
X400902Y647633D01*
X400961Y647523D01*
X401023Y647415D01*
X401088Y647309D01*
X401157Y647206D01*
X401228Y647104D01*
X401303Y647005D01*
X401381Y646909D01*
X401462Y646814D01*
X401546Y646723D01*
X401633Y646634D01*
X406988Y646867D02*
X407072Y646869D01*
X407155Y646874D01*
X407238Y646884D01*
X407321Y646897D01*
X407403Y646914D01*
X407484Y646934D01*
X407564Y646958D01*
X407643Y646986D01*
X407720Y647017D01*
X407796Y647051D01*
X407871Y647089D01*
X407944Y647131D01*
X408014Y647175D01*
X408083Y647223D01*
X408150Y647273D01*
X408214Y647327D01*
X408275Y647383D01*
X408335Y647443D01*
X408391Y647504D01*
X408445Y647568D01*
X408495Y647635D01*
X408543Y647704D01*
X408587Y647774D01*
X408629Y647847D01*
X408667Y647922D01*
X408701Y647998D01*
X408732Y648075D01*
X408760Y648154D01*
X408784Y648234D01*
X408804Y648315D01*
X408821Y648397D01*
X408834Y648480D01*
X408844Y648563D01*
X408849Y648646D01*
X408851Y648730D01*
X408852Y648730D02*
X408850Y648842D01*
X408845Y648955D01*
X408836Y649067D01*
X408823Y649178D01*
X408807Y649290D01*
X408787Y649400D01*
X408764Y649510D01*
X408737Y649619D01*
X408707Y649727D01*
X408673Y649835D01*
X408636Y649941D01*
X408595Y650045D01*
X408551Y650149D01*
X408504Y650251D01*
X408453Y650351D01*
X408399Y650450D01*
X408342Y650547D01*
X408282Y650642D01*
X408219Y650735D01*
X408153Y650826D01*
X405358Y647798D02*
X405403Y647726D01*
X405451Y647655D01*
X405503Y647587D01*
X405557Y647521D01*
X405614Y647458D01*
X405674Y647397D01*
X405737Y647339D01*
X405803Y647284D01*
X405870Y647232D01*
X405940Y647184D01*
X406012Y647138D01*
X406087Y647096D01*
X406163Y647057D01*
X406240Y647021D01*
X406319Y646989D01*
X406400Y646961D01*
X406482Y646936D01*
X406565Y646915D01*
X406648Y646898D01*
X406733Y646884D01*
X406817Y646875D01*
X406903Y646869D01*
X406988Y646867D01*
X403962Y650360D02*
X403917Y650432D01*
X403869Y650503D01*
X403817Y650571D01*
X403763Y650637D01*
X403706Y650700D01*
X403646Y650761D01*
X403583Y650819D01*
X403517Y650874D01*
X403450Y650926D01*
X403380Y650974D01*
X403308Y651020D01*
X403233Y651062D01*
X403157Y651101D01*
X403080Y651137D01*
X403001Y651169D01*
X402920Y651197D01*
X402838Y651222D01*
X402755Y651243D01*
X402672Y651260D01*
X402587Y651274D01*
X402503Y651283D01*
X402417Y651289D01*
X402332Y651291D01*
X403962Y650360D02*
X405359Y647799D01*
D11*
X496961Y520367D02*
X496961Y510969D01*
X496961Y520367D02*
X494351Y520367D01*
X494351Y520368D02*
X494250Y520366D01*
X494149Y520360D01*
X494048Y520350D01*
X493948Y520337D01*
X493848Y520319D01*
X493749Y520298D01*
X493651Y520272D01*
X493554Y520243D01*
X493458Y520211D01*
X493364Y520174D01*
X493271Y520134D01*
X493179Y520090D01*
X493090Y520043D01*
X493002Y519992D01*
X492916Y519938D01*
X492833Y519881D01*
X492751Y519821D01*
X492673Y519757D01*
X492596Y519691D01*
X492523Y519621D01*
X492452Y519549D01*
X492384Y519474D01*
X492319Y519396D01*
X492257Y519316D01*
X492198Y519234D01*
X492142Y519149D01*
X492090Y519063D01*
X492041Y518974D01*
X491995Y518883D01*
X491954Y518791D01*
X491915Y518697D01*
X491881Y518602D01*
X491850Y518506D01*
X491823Y518408D01*
X491799Y518310D01*
X491780Y518210D01*
X491764Y518110D01*
X491752Y518010D01*
X491744Y517909D01*
X491740Y517808D01*
X491740Y517706D01*
X491744Y517605D01*
X491752Y517504D01*
X491764Y517404D01*
X491780Y517304D01*
X491799Y517204D01*
X491823Y517106D01*
X491850Y517008D01*
X491881Y516912D01*
X491915Y516817D01*
X491954Y516723D01*
X491995Y516631D01*
X492041Y516540D01*
X492090Y516452D01*
X492142Y516365D01*
X492198Y516280D01*
X492257Y516198D01*
X492319Y516118D01*
X492384Y516040D01*
X492452Y515965D01*
X492523Y515893D01*
X492596Y515823D01*
X492673Y515757D01*
X492751Y515693D01*
X492833Y515633D01*
X492916Y515576D01*
X493002Y515522D01*
X493090Y515471D01*
X493179Y515424D01*
X493271Y515380D01*
X493364Y515340D01*
X493458Y515303D01*
X493554Y515271D01*
X493651Y515242D01*
X493749Y515216D01*
X493848Y515195D01*
X493948Y515177D01*
X494048Y515164D01*
X494149Y515154D01*
X494250Y515148D01*
X494351Y515146D01*
X496961Y515146D01*
X493829Y515146D02*
X491740Y510969D01*
X487874Y518279D02*
X485264Y520367D01*
X485264Y510969D01*
X487874Y510969D02*
X482653Y510969D01*
X381889Y513461D02*
X381889Y522859D01*
X379278Y522859D01*
X379177Y522857D01*
X379076Y522851D01*
X378975Y522841D01*
X378875Y522828D01*
X378775Y522810D01*
X378676Y522789D01*
X378578Y522763D01*
X378481Y522734D01*
X378385Y522702D01*
X378291Y522665D01*
X378198Y522625D01*
X378106Y522581D01*
X378017Y522534D01*
X377929Y522483D01*
X377843Y522429D01*
X377760Y522372D01*
X377678Y522312D01*
X377600Y522248D01*
X377523Y522182D01*
X377450Y522112D01*
X377379Y522040D01*
X377311Y521965D01*
X377246Y521887D01*
X377184Y521807D01*
X377125Y521725D01*
X377069Y521640D01*
X377017Y521554D01*
X376968Y521465D01*
X376922Y521374D01*
X376881Y521282D01*
X376842Y521188D01*
X376808Y521093D01*
X376777Y520997D01*
X376750Y520899D01*
X376726Y520801D01*
X376707Y520701D01*
X376691Y520601D01*
X376679Y520501D01*
X376671Y520400D01*
X376667Y520299D01*
X376667Y520197D01*
X376671Y520096D01*
X376679Y519995D01*
X376691Y519895D01*
X376707Y519795D01*
X376726Y519695D01*
X376750Y519597D01*
X376777Y519499D01*
X376808Y519403D01*
X376842Y519308D01*
X376881Y519214D01*
X376922Y519122D01*
X376968Y519031D01*
X377017Y518943D01*
X377069Y518856D01*
X377125Y518771D01*
X377184Y518689D01*
X377246Y518609D01*
X377311Y518531D01*
X377379Y518456D01*
X377450Y518384D01*
X377523Y518314D01*
X377600Y518248D01*
X377678Y518184D01*
X377760Y518124D01*
X377843Y518067D01*
X377929Y518013D01*
X378017Y517962D01*
X378106Y517915D01*
X378198Y517871D01*
X378291Y517831D01*
X378385Y517794D01*
X378481Y517762D01*
X378578Y517733D01*
X378676Y517707D01*
X378775Y517686D01*
X378875Y517668D01*
X378975Y517655D01*
X379076Y517645D01*
X379177Y517639D01*
X379278Y517637D01*
X379278Y517638D02*
X381889Y517638D01*
X378756Y517638D02*
X376668Y513461D01*
X372802Y515549D02*
X370714Y522859D01*
X372802Y515549D02*
X367581Y515549D01*
X369147Y517638D02*
X369147Y513461D01*
D12*
X398272Y453803D02*
X445008Y453803D01*
X394462Y418687D02*
X394446Y418574D01*
X394435Y418460D01*
X394428Y418346D01*
X394424Y418232D01*
X394425Y418117D01*
X394429Y418003D01*
X394437Y417889D01*
X394449Y417775D01*
X394465Y417662D01*
X394485Y417550D01*
X394509Y417438D01*
X394536Y417327D01*
X394568Y417217D01*
X394603Y417108D01*
X394641Y417000D01*
X394684Y416894D01*
X394730Y416790D01*
X394779Y416686D01*
X394832Y416585D01*
X394888Y416486D01*
X394948Y416388D01*
X395011Y416293D01*
X395078Y416200D01*
X395147Y416109D01*
X395219Y416021D01*
X395295Y415935D01*
X395373Y415851D01*
X395454Y415771D01*
X395538Y415693D01*
X395625Y415618D01*
X395714Y415547D01*
X395805Y415478D01*
X395899Y415412D01*
X395994Y415350D01*
X396092Y415291D01*
X396192Y415235D01*
X396294Y415183D01*
X396397Y415134D01*
X396502Y415089D01*
X396609Y415048D01*
X396717Y415010D01*
X396826Y414975D01*
X396936Y414945D01*
X397047Y414918D01*
X397159Y414896D01*
X397272Y414877D01*
X445008Y453803D02*
X445138Y453786D01*
X445267Y453765D01*
X445396Y453740D01*
X445524Y453712D01*
X445651Y453679D01*
X445777Y453643D01*
X445902Y453602D01*
X446025Y453558D01*
X446147Y453511D01*
X446268Y453459D01*
X446387Y453405D01*
X446504Y453346D01*
X446619Y453284D01*
X446733Y453219D01*
X446845Y453150D01*
X446954Y453077D01*
X447061Y453002D01*
X447166Y452923D01*
X447268Y452841D01*
X447368Y452756D01*
X447465Y452669D01*
X447560Y452578D01*
X447652Y452484D01*
X447741Y452388D01*
X447827Y452289D01*
X447909Y452188D01*
X447989Y452084D01*
X448066Y451977D01*
X448139Y451869D01*
X448209Y451758D01*
X448276Y451645D01*
X448339Y451530D01*
X448399Y451414D01*
X448455Y451295D01*
X448508Y451175D01*
X448557Y451054D01*
X448602Y450931D01*
X448644Y450806D01*
X448682Y450681D01*
X448715Y450554D01*
X448746Y450427D01*
X448772Y450298D01*
X448794Y450169D01*
X448813Y450039D01*
X448827Y449909D01*
X448838Y449778D01*
X448844Y449647D01*
X448847Y449516D01*
X448846Y449385D01*
X448840Y449254D01*
X448831Y449124D01*
X448818Y448993D01*
X398272Y453803D02*
X398150Y453801D01*
X398028Y453795D01*
X397906Y453785D01*
X397785Y453772D01*
X397664Y453754D01*
X397544Y453733D01*
X397424Y453708D01*
X397305Y453679D01*
X397188Y453646D01*
X397071Y453609D01*
X396956Y453569D01*
X396842Y453525D01*
X396730Y453477D01*
X396619Y453426D01*
X396510Y453371D01*
X396402Y453313D01*
X396297Y453251D01*
X396193Y453186D01*
X396092Y453118D01*
X395993Y453047D01*
X395896Y452972D01*
X395802Y452894D01*
X395710Y452814D01*
X395621Y452730D01*
X395535Y452644D01*
X395451Y452555D01*
X395371Y452463D01*
X395293Y452369D01*
X395218Y452272D01*
X395147Y452173D01*
X395079Y452072D01*
X395014Y451968D01*
X394952Y451863D01*
X394894Y451755D01*
X394839Y451646D01*
X394788Y451535D01*
X394740Y451423D01*
X394696Y451309D01*
X394656Y451194D01*
X394619Y451077D01*
X394586Y450960D01*
X394557Y450841D01*
X394532Y450721D01*
X394511Y450601D01*
X394493Y450480D01*
X394480Y450359D01*
X394470Y450237D01*
X394464Y450115D01*
X394462Y449993D01*
X445007Y414877D02*
X445121Y414862D01*
X445235Y414850D01*
X445349Y414843D01*
X445463Y414839D01*
X445577Y414840D01*
X445692Y414844D01*
X445806Y414852D01*
X445919Y414864D01*
X446032Y414880D01*
X446145Y414900D01*
X446257Y414924D01*
X446368Y414951D01*
X446478Y414982D01*
X446587Y415017D01*
X446694Y415056D01*
X446801Y415098D01*
X446905Y415144D01*
X447008Y415194D01*
X447110Y415247D01*
X447209Y415303D01*
X447307Y415363D01*
X447402Y415426D01*
X447495Y415492D01*
X447586Y415562D01*
X447674Y415634D01*
X447760Y415710D01*
X447843Y415788D01*
X447924Y415869D01*
X448002Y415953D01*
X448076Y416039D01*
X448148Y416128D01*
X448217Y416220D01*
X448283Y416313D01*
X448345Y416409D01*
X448404Y416507D01*
X448460Y416607D01*
X448512Y416709D01*
X448560Y416812D01*
X448606Y416917D01*
X448647Y417024D01*
X448685Y417132D01*
X448719Y417241D01*
X448749Y417351D01*
X448776Y417462D01*
X448799Y417574D01*
X448818Y417687D01*
X445008Y414877D02*
X397272Y414877D01*
X394462Y418687D02*
X394462Y449993D01*
X448310Y440436D02*
X448152Y440434D01*
X447993Y440428D01*
X447835Y440418D01*
X447678Y440404D01*
X447520Y440387D01*
X447364Y440365D01*
X447207Y440340D01*
X447052Y440310D01*
X446897Y440277D01*
X446743Y440240D01*
X446590Y440199D01*
X446438Y440154D01*
X446288Y440105D01*
X446138Y440053D01*
X445990Y439997D01*
X445843Y439937D01*
X445698Y439874D01*
X445555Y439807D01*
X445413Y439737D01*
X445273Y439663D01*
X445135Y439585D01*
X444999Y439504D01*
X444865Y439420D01*
X444733Y439333D01*
X444603Y439242D01*
X444476Y439148D01*
X444351Y439051D01*
X444228Y438950D01*
X444108Y438847D01*
X443991Y438741D01*
X443876Y438632D01*
X443764Y438520D01*
X443655Y438405D01*
X443549Y438288D01*
X443446Y438168D01*
X443345Y438045D01*
X443248Y437920D01*
X443154Y437793D01*
X443063Y437663D01*
X442976Y437531D01*
X442892Y437397D01*
X442811Y437261D01*
X442733Y437123D01*
X442659Y436983D01*
X442589Y436841D01*
X442522Y436698D01*
X442459Y436553D01*
X442399Y436406D01*
X442343Y436258D01*
X442291Y436108D01*
X442242Y435958D01*
X442197Y435806D01*
X442156Y435653D01*
X442119Y435499D01*
X442086Y435344D01*
X442056Y435189D01*
X442031Y435032D01*
X442009Y434876D01*
X441992Y434718D01*
X441978Y434561D01*
X441968Y434403D01*
X441962Y434244D01*
X441960Y434086D01*
X441962Y433928D01*
X441968Y433769D01*
X441978Y433611D01*
X441992Y433454D01*
X442009Y433296D01*
X442031Y433140D01*
X442056Y432983D01*
X442086Y432828D01*
X442119Y432673D01*
X442156Y432519D01*
X442197Y432366D01*
X442242Y432214D01*
X442291Y432064D01*
X442343Y431914D01*
X442399Y431766D01*
X442459Y431619D01*
X442522Y431474D01*
X442589Y431331D01*
X442659Y431189D01*
X442733Y431049D01*
X442811Y430911D01*
X442892Y430775D01*
X442976Y430641D01*
X443063Y430509D01*
X443154Y430379D01*
X443248Y430252D01*
X443345Y430127D01*
X443446Y430004D01*
X443549Y429884D01*
X443655Y429767D01*
X443764Y429652D01*
X443876Y429540D01*
X443991Y429431D01*
X444108Y429325D01*
X444228Y429222D01*
X444351Y429121D01*
X444476Y429024D01*
X444603Y428930D01*
X444733Y428839D01*
X444865Y428752D01*
X444999Y428668D01*
X445135Y428587D01*
X445273Y428509D01*
X445413Y428435D01*
X445555Y428365D01*
X445698Y428298D01*
X445843Y428235D01*
X445990Y428175D01*
X446138Y428119D01*
X446288Y428067D01*
X446438Y428018D01*
X446590Y427973D01*
X446743Y427932D01*
X446897Y427895D01*
X447052Y427862D01*
X447207Y427832D01*
X447364Y427807D01*
X447520Y427785D01*
X447678Y427768D01*
X447835Y427754D01*
X447993Y427744D01*
X448152Y427738D01*
X448310Y427736D01*
X448818Y440436D02*
X448818Y448866D01*
X448818Y427736D02*
X448818Y417687D01*
D14*
X455366Y430165D02*
X458851Y430165D01*
X455366Y430164D02*
X455295Y430166D01*
X455223Y430172D01*
X455153Y430181D01*
X455083Y430194D01*
X455013Y430211D01*
X454945Y430232D01*
X454878Y430256D01*
X454812Y430284D01*
X454748Y430315D01*
X454685Y430350D01*
X454625Y430388D01*
X454566Y430429D01*
X454510Y430473D01*
X454456Y430520D01*
X454405Y430569D01*
X454357Y430622D01*
X454311Y430677D01*
X454269Y430734D01*
X454229Y430794D01*
X454193Y430855D01*
X454160Y430919D01*
X454131Y430984D01*
X454105Y431050D01*
X454082Y431118D01*
X454063Y431187D01*
X454048Y431257D01*
X454037Y431327D01*
X454029Y431398D01*
X454025Y431469D01*
X454025Y431541D01*
X454029Y431612D01*
X454037Y431683D01*
X454048Y431753D01*
X454063Y431823D01*
X454082Y431892D01*
X454105Y431960D01*
X454131Y432026D01*
X454160Y432091D01*
X454193Y432155D01*
X454229Y432216D01*
X454269Y432276D01*
X454311Y432333D01*
X454357Y432388D01*
X454405Y432441D01*
X454456Y432490D01*
X454510Y432537D01*
X454566Y432581D01*
X454625Y432622D01*
X454685Y432660D01*
X454748Y432695D01*
X454812Y432726D01*
X454878Y432754D01*
X454945Y432778D01*
X455013Y432799D01*
X455083Y432816D01*
X455153Y432829D01*
X455223Y432838D01*
X455295Y432844D01*
X455366Y432846D01*
X458851Y432846D01*
X457779Y435834D02*
X458851Y437175D01*
X454025Y437175D01*
X454025Y438515D02*
X454025Y435834D01*
D12*
X172890Y12715D02*
X35390Y12715D01*
X26015Y43965D02*
X26015Y56466D01*
X41640Y56466D01*
X166640Y56466D02*
X182265Y56466D01*
X182265Y43965D01*
D13*
X38404Y64977D02*
X38404Y68703D01*
X38402Y68798D01*
X38396Y68893D01*
X38387Y68987D01*
X38373Y69081D01*
X38356Y69175D01*
X38335Y69267D01*
X38310Y69359D01*
X38281Y69449D01*
X38249Y69539D01*
X38213Y69627D01*
X38173Y69713D01*
X38131Y69798D01*
X38084Y69881D01*
X38034Y69962D01*
X37981Y70040D01*
X37925Y70117D01*
X37866Y70191D01*
X37804Y70263D01*
X37739Y70332D01*
X37671Y70399D01*
X37601Y70462D01*
X37527Y70523D01*
X37452Y70581D01*
X37374Y70635D01*
X37294Y70687D01*
X37212Y70735D01*
X37129Y70779D01*
X37043Y70821D01*
X36956Y70858D01*
X36867Y70892D01*
X36777Y70923D01*
X36686Y70950D01*
X36594Y70973D01*
X36501Y70992D01*
X36407Y71007D01*
X36313Y71019D01*
X36218Y71027D01*
X36123Y71031D01*
X36029Y71031D01*
X35934Y71027D01*
X35839Y71019D01*
X35745Y71007D01*
X35651Y70992D01*
X35558Y70973D01*
X35466Y70950D01*
X35375Y70923D01*
X35285Y70892D01*
X35196Y70858D01*
X35109Y70821D01*
X35023Y70779D01*
X34940Y70735D01*
X34858Y70687D01*
X34778Y70635D01*
X34700Y70581D01*
X34625Y70523D01*
X34551Y70462D01*
X34481Y70399D01*
X34413Y70332D01*
X34348Y70263D01*
X34286Y70191D01*
X34227Y70117D01*
X34171Y70040D01*
X34118Y69962D01*
X34068Y69881D01*
X34021Y69798D01*
X33979Y69713D01*
X33939Y69627D01*
X33903Y69539D01*
X33871Y69449D01*
X33842Y69359D01*
X33817Y69267D01*
X33796Y69175D01*
X33779Y69081D01*
X33765Y68987D01*
X33756Y68893D01*
X33750Y68798D01*
X33748Y68703D01*
X33747Y68703D02*
X33747Y64977D01*
X33748Y64977D02*
X33750Y64882D01*
X33756Y64787D01*
X33765Y64693D01*
X33779Y64599D01*
X33796Y64505D01*
X33817Y64413D01*
X33842Y64321D01*
X33871Y64231D01*
X33903Y64141D01*
X33939Y64053D01*
X33979Y63967D01*
X34021Y63882D01*
X34068Y63799D01*
X34118Y63718D01*
X34171Y63640D01*
X34227Y63563D01*
X34286Y63489D01*
X34348Y63417D01*
X34413Y63348D01*
X34481Y63281D01*
X34551Y63218D01*
X34625Y63157D01*
X34700Y63099D01*
X34778Y63045D01*
X34858Y62993D01*
X34940Y62945D01*
X35023Y62901D01*
X35109Y62859D01*
X35196Y62822D01*
X35285Y62788D01*
X35375Y62757D01*
X35466Y62730D01*
X35558Y62707D01*
X35651Y62688D01*
X35745Y62673D01*
X35839Y62661D01*
X35934Y62653D01*
X36029Y62649D01*
X36123Y62649D01*
X36218Y62653D01*
X36313Y62661D01*
X36407Y62673D01*
X36501Y62688D01*
X36594Y62707D01*
X36686Y62730D01*
X36777Y62757D01*
X36867Y62788D01*
X36956Y62822D01*
X37043Y62859D01*
X37129Y62901D01*
X37212Y62945D01*
X37294Y62993D01*
X37374Y63045D01*
X37452Y63099D01*
X37527Y63157D01*
X37601Y63218D01*
X37671Y63281D01*
X37739Y63348D01*
X37804Y63417D01*
X37866Y63489D01*
X37925Y63563D01*
X37981Y63640D01*
X38034Y63718D01*
X38084Y63799D01*
X38131Y63882D01*
X38173Y63967D01*
X38213Y64053D01*
X38249Y64141D01*
X38281Y64231D01*
X38310Y64321D01*
X38335Y64413D01*
X38356Y64505D01*
X38373Y64599D01*
X38387Y64693D01*
X38396Y64787D01*
X38402Y64882D01*
X38404Y64977D01*
X34679Y64512D02*
X32816Y62649D01*
X29805Y66840D02*
X29803Y67005D01*
X29797Y67170D01*
X29787Y67334D01*
X29774Y67499D01*
X29756Y67663D01*
X29734Y67826D01*
X29709Y67989D01*
X29679Y68151D01*
X29646Y68313D01*
X29609Y68473D01*
X29568Y68633D01*
X29523Y68792D01*
X29475Y68949D01*
X29423Y69106D01*
X29367Y69261D01*
X29307Y69415D01*
X29244Y69567D01*
X29177Y69718D01*
X29107Y69867D01*
X29078Y69944D01*
X29046Y70020D01*
X29011Y70094D01*
X28971Y70166D01*
X28929Y70236D01*
X28883Y70304D01*
X28834Y70370D01*
X28781Y70434D01*
X28726Y70495D01*
X28668Y70553D01*
X28608Y70608D01*
X28544Y70661D01*
X28478Y70710D01*
X28410Y70756D01*
X28340Y70799D01*
X28268Y70839D01*
X28194Y70875D01*
X28119Y70907D01*
X28042Y70936D01*
X27964Y70961D01*
X27884Y70982D01*
X27804Y71000D01*
X27723Y71013D01*
X27641Y71023D01*
X27559Y71029D01*
X27477Y71031D01*
X27395Y71029D01*
X27313Y71023D01*
X27231Y71013D01*
X27150Y71000D01*
X27070Y70982D01*
X26990Y70961D01*
X26912Y70936D01*
X26835Y70907D01*
X26760Y70875D01*
X26686Y70839D01*
X26614Y70799D01*
X26544Y70756D01*
X26476Y70710D01*
X26410Y70661D01*
X26347Y70608D01*
X26286Y70553D01*
X26228Y70495D01*
X26173Y70434D01*
X26120Y70370D01*
X26071Y70304D01*
X26025Y70236D01*
X25983Y70166D01*
X25944Y70094D01*
X25908Y70020D01*
X25876Y69944D01*
X25847Y69867D01*
X25777Y69718D01*
X25710Y69567D01*
X25647Y69415D01*
X25587Y69261D01*
X25531Y69106D01*
X25479Y68949D01*
X25431Y68792D01*
X25386Y68633D01*
X25345Y68473D01*
X25308Y68313D01*
X25275Y68151D01*
X25245Y67989D01*
X25220Y67826D01*
X25198Y67663D01*
X25180Y67499D01*
X25167Y67334D01*
X25157Y67170D01*
X25151Y67005D01*
X25149Y66840D01*
X29806Y66840D02*
X29804Y66675D01*
X29798Y66510D01*
X29788Y66346D01*
X29775Y66181D01*
X29757Y66017D01*
X29735Y65854D01*
X29710Y65691D01*
X29680Y65529D01*
X29647Y65367D01*
X29610Y65206D01*
X29569Y65047D01*
X29524Y64888D01*
X29476Y64730D01*
X29424Y64574D01*
X29368Y64419D01*
X29308Y64265D01*
X29245Y64113D01*
X29178Y63962D01*
X29107Y63813D01*
X29078Y63736D01*
X29046Y63660D01*
X29010Y63586D01*
X28971Y63514D01*
X28929Y63444D01*
X28883Y63376D01*
X28834Y63310D01*
X28781Y63246D01*
X28726Y63185D01*
X28668Y63127D01*
X28608Y63072D01*
X28544Y63019D01*
X28478Y62970D01*
X28410Y62924D01*
X28340Y62881D01*
X28268Y62841D01*
X28194Y62805D01*
X28119Y62773D01*
X28042Y62744D01*
X27964Y62719D01*
X27884Y62698D01*
X27804Y62680D01*
X27723Y62667D01*
X27641Y62657D01*
X27559Y62651D01*
X27477Y62649D01*
X25848Y63813D02*
X25777Y63962D01*
X25710Y64113D01*
X25647Y64265D01*
X25587Y64419D01*
X25531Y64574D01*
X25479Y64730D01*
X25431Y64888D01*
X25386Y65047D01*
X25345Y65206D01*
X25308Y65367D01*
X25275Y65529D01*
X25245Y65691D01*
X25220Y65854D01*
X25198Y66017D01*
X25180Y66181D01*
X25167Y66346D01*
X25157Y66510D01*
X25151Y66675D01*
X25149Y66840D01*
X25847Y63813D02*
X25876Y63736D01*
X25908Y63660D01*
X25944Y63586D01*
X25983Y63514D01*
X26025Y63444D01*
X26071Y63376D01*
X26120Y63310D01*
X26173Y63246D01*
X26228Y63185D01*
X26286Y63127D01*
X26347Y63072D01*
X26410Y63019D01*
X26476Y62970D01*
X26544Y62924D01*
X26614Y62881D01*
X26686Y62841D01*
X26760Y62805D01*
X26835Y62773D01*
X26912Y62744D01*
X26990Y62719D01*
X27070Y62698D01*
X27150Y62680D01*
X27231Y62667D01*
X27313Y62657D01*
X27395Y62651D01*
X27477Y62649D01*
X29340Y64512D02*
X25615Y69168D01*
D12*
X335110Y12715D02*
X472610Y12715D01*
X325735Y43965D02*
X325735Y56466D01*
X341360Y56466D01*
X466360Y56466D02*
X481985Y56466D01*
X481985Y43965D01*
D13*
X482851Y68457D02*
X482851Y72183D01*
X482849Y72278D01*
X482843Y72373D01*
X482834Y72467D01*
X482820Y72561D01*
X482803Y72655D01*
X482782Y72747D01*
X482757Y72839D01*
X482728Y72929D01*
X482696Y73019D01*
X482660Y73107D01*
X482620Y73193D01*
X482578Y73278D01*
X482531Y73361D01*
X482481Y73442D01*
X482428Y73520D01*
X482372Y73597D01*
X482313Y73671D01*
X482251Y73743D01*
X482186Y73812D01*
X482118Y73879D01*
X482048Y73942D01*
X481974Y74003D01*
X481899Y74061D01*
X481821Y74115D01*
X481741Y74167D01*
X481659Y74215D01*
X481576Y74259D01*
X481490Y74301D01*
X481403Y74338D01*
X481314Y74372D01*
X481224Y74403D01*
X481133Y74430D01*
X481041Y74453D01*
X480948Y74472D01*
X480854Y74487D01*
X480760Y74499D01*
X480665Y74507D01*
X480570Y74511D01*
X480476Y74511D01*
X480381Y74507D01*
X480286Y74499D01*
X480192Y74487D01*
X480098Y74472D01*
X480005Y74453D01*
X479913Y74430D01*
X479822Y74403D01*
X479732Y74372D01*
X479643Y74338D01*
X479556Y74301D01*
X479470Y74259D01*
X479387Y74215D01*
X479305Y74167D01*
X479225Y74115D01*
X479147Y74061D01*
X479072Y74003D01*
X478998Y73942D01*
X478928Y73879D01*
X478860Y73812D01*
X478795Y73743D01*
X478733Y73671D01*
X478674Y73597D01*
X478618Y73520D01*
X478565Y73442D01*
X478515Y73361D01*
X478468Y73278D01*
X478426Y73193D01*
X478386Y73107D01*
X478350Y73019D01*
X478318Y72929D01*
X478289Y72839D01*
X478264Y72747D01*
X478243Y72655D01*
X478226Y72561D01*
X478212Y72467D01*
X478203Y72373D01*
X478197Y72278D01*
X478195Y72183D01*
X478194Y72183D02*
X478194Y68457D01*
X478195Y68457D02*
X478197Y68362D01*
X478203Y68267D01*
X478212Y68173D01*
X478226Y68079D01*
X478243Y67985D01*
X478264Y67893D01*
X478289Y67801D01*
X478318Y67711D01*
X478350Y67621D01*
X478386Y67533D01*
X478426Y67447D01*
X478468Y67362D01*
X478515Y67279D01*
X478565Y67198D01*
X478618Y67120D01*
X478674Y67043D01*
X478733Y66969D01*
X478795Y66897D01*
X478860Y66828D01*
X478928Y66761D01*
X478998Y66698D01*
X479072Y66637D01*
X479147Y66579D01*
X479225Y66525D01*
X479305Y66473D01*
X479387Y66425D01*
X479470Y66381D01*
X479556Y66339D01*
X479643Y66302D01*
X479732Y66268D01*
X479822Y66237D01*
X479913Y66210D01*
X480005Y66187D01*
X480098Y66168D01*
X480192Y66153D01*
X480286Y66141D01*
X480381Y66133D01*
X480476Y66129D01*
X480570Y66129D01*
X480665Y66133D01*
X480760Y66141D01*
X480854Y66153D01*
X480948Y66168D01*
X481041Y66187D01*
X481133Y66210D01*
X481224Y66237D01*
X481314Y66268D01*
X481403Y66302D01*
X481490Y66339D01*
X481576Y66381D01*
X481659Y66425D01*
X481741Y66473D01*
X481821Y66525D01*
X481899Y66579D01*
X481974Y66637D01*
X482048Y66698D01*
X482118Y66761D01*
X482186Y66828D01*
X482251Y66897D01*
X482313Y66969D01*
X482372Y67043D01*
X482428Y67120D01*
X482481Y67198D01*
X482531Y67279D01*
X482578Y67362D01*
X482620Y67447D01*
X482660Y67533D01*
X482696Y67621D01*
X482728Y67711D01*
X482757Y67801D01*
X482782Y67893D01*
X482803Y67985D01*
X482820Y68079D01*
X482834Y68173D01*
X482843Y68267D01*
X482849Y68362D01*
X482851Y68457D01*
X479126Y67992D02*
X477263Y66129D01*
X474253Y72648D02*
X471924Y74511D01*
X471924Y66129D01*
X469596Y66129D02*
X474253Y66129D01*
D12*
X279000Y647685D02*
X229000Y647685D01*
X288375Y616435D02*
X288375Y603934D01*
X272750Y603934D01*
X235250Y603934D02*
X219625Y603934D01*
X219625Y616435D01*
D13*
X309029Y607591D02*
X317411Y607591D01*
X317411Y609920D01*
X317409Y610015D01*
X317403Y610110D01*
X317394Y610204D01*
X317380Y610298D01*
X317363Y610392D01*
X317342Y610484D01*
X317317Y610576D01*
X317288Y610666D01*
X317256Y610756D01*
X317220Y610844D01*
X317180Y610930D01*
X317138Y611015D01*
X317091Y611098D01*
X317041Y611179D01*
X316988Y611257D01*
X316932Y611334D01*
X316873Y611408D01*
X316811Y611480D01*
X316746Y611549D01*
X316678Y611616D01*
X316608Y611679D01*
X316534Y611740D01*
X316459Y611798D01*
X316381Y611852D01*
X316301Y611904D01*
X316219Y611952D01*
X316136Y611996D01*
X316050Y612038D01*
X315963Y612075D01*
X315874Y612109D01*
X315784Y612140D01*
X315693Y612167D01*
X315601Y612190D01*
X315508Y612209D01*
X315414Y612224D01*
X315320Y612236D01*
X315225Y612244D01*
X315130Y612248D01*
X315036Y612248D01*
X314941Y612244D01*
X314846Y612236D01*
X314752Y612224D01*
X314658Y612209D01*
X314565Y612190D01*
X314473Y612167D01*
X314382Y612140D01*
X314292Y612109D01*
X314203Y612075D01*
X314116Y612038D01*
X314030Y611996D01*
X313947Y611952D01*
X313865Y611904D01*
X313785Y611852D01*
X313707Y611798D01*
X313632Y611740D01*
X313558Y611679D01*
X313488Y611616D01*
X313420Y611549D01*
X313355Y611480D01*
X313293Y611408D01*
X313234Y611334D01*
X313178Y611257D01*
X313125Y611179D01*
X313075Y611098D01*
X313028Y611015D01*
X312986Y610930D01*
X312946Y610844D01*
X312910Y610756D01*
X312878Y610666D01*
X312849Y610576D01*
X312824Y610484D01*
X312803Y610392D01*
X312786Y610298D01*
X312772Y610204D01*
X312763Y610110D01*
X312757Y610015D01*
X312755Y609920D01*
X312754Y609920D02*
X312754Y607591D01*
X311357Y616215D02*
X315083Y616215D01*
X315178Y616217D01*
X315273Y616223D01*
X315367Y616232D01*
X315461Y616246D01*
X315555Y616263D01*
X315647Y616284D01*
X315739Y616309D01*
X315829Y616338D01*
X315919Y616370D01*
X316007Y616406D01*
X316093Y616446D01*
X316178Y616488D01*
X316261Y616535D01*
X316342Y616585D01*
X316420Y616638D01*
X316497Y616694D01*
X316571Y616753D01*
X316643Y616815D01*
X316712Y616880D01*
X316779Y616948D01*
X316842Y617018D01*
X316903Y617092D01*
X316961Y617167D01*
X317015Y617245D01*
X317067Y617325D01*
X317115Y617407D01*
X317159Y617490D01*
X317201Y617576D01*
X317238Y617663D01*
X317272Y617752D01*
X317303Y617842D01*
X317330Y617933D01*
X317353Y618025D01*
X317372Y618118D01*
X317387Y618212D01*
X317399Y618306D01*
X317407Y618401D01*
X317411Y618496D01*
X317411Y618590D01*
X317407Y618685D01*
X317399Y618780D01*
X317387Y618874D01*
X317372Y618968D01*
X317353Y619061D01*
X317330Y619153D01*
X317303Y619244D01*
X317272Y619334D01*
X317238Y619423D01*
X317201Y619510D01*
X317159Y619596D01*
X317115Y619679D01*
X317067Y619761D01*
X317015Y619841D01*
X316961Y619919D01*
X316903Y619994D01*
X316842Y620068D01*
X316779Y620138D01*
X316712Y620206D01*
X316643Y620271D01*
X316571Y620333D01*
X316497Y620392D01*
X316420Y620448D01*
X316342Y620501D01*
X316261Y620551D01*
X316178Y620598D01*
X316093Y620640D01*
X316007Y620680D01*
X315919Y620716D01*
X315829Y620748D01*
X315739Y620777D01*
X315647Y620802D01*
X315555Y620823D01*
X315461Y620840D01*
X315367Y620854D01*
X315273Y620863D01*
X315178Y620869D01*
X315083Y620871D01*
X311357Y620871D01*
X311262Y620869D01*
X311167Y620863D01*
X311073Y620854D01*
X310979Y620840D01*
X310885Y620823D01*
X310793Y620802D01*
X310701Y620777D01*
X310611Y620748D01*
X310521Y620716D01*
X310433Y620680D01*
X310347Y620640D01*
X310262Y620598D01*
X310179Y620551D01*
X310098Y620501D01*
X310020Y620448D01*
X309943Y620392D01*
X309869Y620333D01*
X309797Y620271D01*
X309728Y620206D01*
X309661Y620138D01*
X309598Y620068D01*
X309537Y619994D01*
X309479Y619919D01*
X309425Y619841D01*
X309373Y619761D01*
X309325Y619679D01*
X309281Y619596D01*
X309239Y619510D01*
X309202Y619423D01*
X309168Y619334D01*
X309137Y619244D01*
X309110Y619153D01*
X309087Y619061D01*
X309068Y618968D01*
X309053Y618874D01*
X309041Y618780D01*
X309033Y618685D01*
X309029Y618590D01*
X309029Y618496D01*
X309033Y618401D01*
X309041Y618306D01*
X309053Y618212D01*
X309068Y618118D01*
X309087Y618025D01*
X309110Y617933D01*
X309137Y617842D01*
X309168Y617752D01*
X309202Y617663D01*
X309239Y617576D01*
X309281Y617490D01*
X309325Y617407D01*
X309373Y617325D01*
X309425Y617245D01*
X309479Y617167D01*
X309537Y617092D01*
X309598Y617018D01*
X309661Y616948D01*
X309728Y616880D01*
X309797Y616815D01*
X309869Y616753D01*
X309943Y616694D01*
X310020Y616638D01*
X310098Y616585D01*
X310179Y616535D01*
X310262Y616488D01*
X310347Y616446D01*
X310433Y616406D01*
X310521Y616370D01*
X310611Y616338D01*
X310701Y616309D01*
X310793Y616284D01*
X310885Y616263D01*
X310979Y616246D01*
X311073Y616232D01*
X311167Y616223D01*
X311262Y616217D01*
X311357Y616215D01*
X317411Y625181D02*
X309029Y627043D01*
X314617Y628906D01*
X309029Y630769D01*
X317411Y632631D01*
X309029Y637275D02*
X309029Y641000D01*
X309029Y637275D02*
X317411Y637275D01*
X317411Y641000D01*
X313686Y640069D02*
X313686Y637275D01*
X317411Y645264D02*
X309029Y645264D01*
X317411Y645264D02*
X317411Y647593D01*
X317409Y647688D01*
X317403Y647783D01*
X317394Y647877D01*
X317380Y647971D01*
X317363Y648065D01*
X317342Y648157D01*
X317317Y648249D01*
X317288Y648339D01*
X317256Y648429D01*
X317220Y648517D01*
X317180Y648603D01*
X317138Y648688D01*
X317091Y648771D01*
X317041Y648852D01*
X316988Y648930D01*
X316932Y649007D01*
X316873Y649081D01*
X316811Y649153D01*
X316746Y649222D01*
X316678Y649289D01*
X316608Y649352D01*
X316534Y649413D01*
X316459Y649471D01*
X316381Y649525D01*
X316301Y649577D01*
X316219Y649625D01*
X316136Y649669D01*
X316050Y649711D01*
X315963Y649748D01*
X315874Y649782D01*
X315784Y649813D01*
X315693Y649840D01*
X315601Y649863D01*
X315508Y649882D01*
X315414Y649897D01*
X315320Y649909D01*
X315225Y649917D01*
X315130Y649921D01*
X315036Y649921D01*
X314941Y649917D01*
X314846Y649909D01*
X314752Y649897D01*
X314658Y649882D01*
X314565Y649863D01*
X314473Y649840D01*
X314382Y649813D01*
X314292Y649782D01*
X314203Y649748D01*
X314116Y649711D01*
X314030Y649669D01*
X313947Y649625D01*
X313865Y649577D01*
X313785Y649525D01*
X313707Y649471D01*
X313632Y649413D01*
X313558Y649352D01*
X313488Y649289D01*
X313420Y649222D01*
X313355Y649153D01*
X313293Y649081D01*
X313234Y649007D01*
X313178Y648930D01*
X313125Y648852D01*
X313075Y648771D01*
X313028Y648688D01*
X312986Y648603D01*
X312946Y648517D01*
X312910Y648429D01*
X312878Y648339D01*
X312849Y648249D01*
X312824Y648157D01*
X312803Y648065D01*
X312786Y647971D01*
X312772Y647877D01*
X312763Y647783D01*
X312757Y647688D01*
X312755Y647593D01*
X312754Y647593D02*
X312754Y645264D01*
X312754Y648058D02*
X309029Y649921D01*
D10*
X193774Y598287D02*
X172946Y598287D01*
X172946Y552059D02*
X193774Y552059D01*
X193774Y591683D02*
X172946Y591683D01*
X172946Y545455D02*
X193774Y545455D01*
D11*
X203313Y626008D02*
X207293Y626008D01*
X210277Y623687D01*
X207293Y626008D02*
X210277Y628329D01*
X207293Y626008D02*
X205966Y622360D01*
X207293Y626008D02*
X205966Y629656D01*
X131816Y619407D02*
X131816Y610785D01*
X131814Y610671D01*
X131808Y610556D01*
X131798Y610442D01*
X131784Y610329D01*
X131767Y610215D01*
X131745Y610103D01*
X131720Y609991D01*
X131690Y609881D01*
X131657Y609771D01*
X131620Y609663D01*
X131580Y609556D01*
X131535Y609450D01*
X131488Y609346D01*
X131436Y609244D01*
X131381Y609144D01*
X131323Y609045D01*
X131261Y608949D01*
X131196Y608854D01*
X131128Y608763D01*
X131056Y608673D01*
X130982Y608586D01*
X130905Y608502D01*
X130824Y608420D01*
X130741Y608341D01*
X130656Y608265D01*
X130567Y608192D01*
X130477Y608123D01*
X130384Y608056D01*
X130288Y607993D01*
X130191Y607933D01*
X130091Y607876D01*
X129990Y607823D01*
X129887Y607773D01*
X129782Y607727D01*
X129676Y607684D01*
X129568Y607646D01*
X129459Y607611D01*
X129349Y607580D01*
X129238Y607552D01*
X129126Y607529D01*
X129013Y607509D01*
X128900Y607493D01*
X128786Y607481D01*
X128672Y607473D01*
X128557Y607469D01*
X128443Y607469D01*
X128328Y607473D01*
X128214Y607481D01*
X128100Y607493D01*
X127987Y607509D01*
X127874Y607529D01*
X127762Y607552D01*
X127651Y607580D01*
X127541Y607611D01*
X127432Y607646D01*
X127324Y607684D01*
X127218Y607727D01*
X127113Y607773D01*
X127010Y607823D01*
X126909Y607876D01*
X126809Y607933D01*
X126712Y607993D01*
X126616Y608056D01*
X126523Y608123D01*
X126433Y608192D01*
X126344Y608265D01*
X126259Y608341D01*
X126176Y608420D01*
X126095Y608502D01*
X126018Y608586D01*
X125944Y608673D01*
X125872Y608763D01*
X125804Y608854D01*
X125739Y608949D01*
X125677Y609045D01*
X125619Y609144D01*
X125564Y609244D01*
X125512Y609346D01*
X125465Y609450D01*
X125420Y609556D01*
X125380Y609663D01*
X125343Y609771D01*
X125310Y609881D01*
X125280Y609991D01*
X125255Y610103D01*
X125233Y610215D01*
X125216Y610329D01*
X125202Y610442D01*
X125192Y610556D01*
X125186Y610671D01*
X125184Y610785D01*
X125184Y619407D01*
X120005Y619407D02*
X120005Y618080D01*
X120005Y619407D02*
X113373Y619407D01*
X116689Y607469D01*
X49320Y583040D02*
X38520Y583040D01*
X39920Y581640D01*
X38520Y583140D02*
X39820Y584440D01*
D15*
X49403Y609727D02*
X49403Y613537D01*
X48345Y613537D01*
X48281Y613535D01*
X48217Y613529D01*
X48154Y613520D01*
X48092Y613506D01*
X48030Y613489D01*
X47970Y613468D01*
X47911Y613444D01*
X47853Y613416D01*
X47798Y613384D01*
X47744Y613350D01*
X47693Y613312D01*
X47643Y613271D01*
X47597Y613227D01*
X47553Y613181D01*
X47512Y613131D01*
X47474Y613080D01*
X47440Y613026D01*
X47408Y612971D01*
X47380Y612913D01*
X47356Y612854D01*
X47335Y612794D01*
X47318Y612732D01*
X47304Y612670D01*
X47295Y612607D01*
X47289Y612543D01*
X47287Y612479D01*
X47289Y612415D01*
X47295Y612351D01*
X47304Y612288D01*
X47318Y612226D01*
X47335Y612164D01*
X47356Y612104D01*
X47380Y612045D01*
X47408Y611987D01*
X47440Y611932D01*
X47474Y611878D01*
X47512Y611827D01*
X47553Y611777D01*
X47597Y611731D01*
X47643Y611687D01*
X47693Y611646D01*
X47744Y611608D01*
X47798Y611574D01*
X47853Y611542D01*
X47911Y611514D01*
X47970Y611490D01*
X48030Y611469D01*
X48092Y611452D01*
X48154Y611438D01*
X48217Y611429D01*
X48281Y611423D01*
X48345Y611421D01*
X48345Y611420D02*
X49403Y611420D01*
X48133Y611420D02*
X47286Y609727D01*
X45638Y609727D02*
X43945Y609727D01*
X45638Y609727D02*
X45638Y613537D01*
X43945Y613537D01*
X44368Y611844D02*
X45638Y611844D01*
X42475Y613537D02*
X42475Y609727D01*
X42475Y613537D02*
X41416Y613537D01*
X41352Y613535D01*
X41288Y613529D01*
X41225Y613520D01*
X41163Y613506D01*
X41101Y613489D01*
X41041Y613468D01*
X40982Y613444D01*
X40924Y613416D01*
X40869Y613384D01*
X40815Y613350D01*
X40764Y613312D01*
X40714Y613271D01*
X40668Y613227D01*
X40624Y613181D01*
X40583Y613132D01*
X40545Y613080D01*
X40511Y613026D01*
X40479Y612971D01*
X40451Y612913D01*
X40427Y612854D01*
X40406Y612794D01*
X40389Y612732D01*
X40375Y612670D01*
X40366Y612607D01*
X40360Y612543D01*
X40358Y612479D01*
X40358Y610785D01*
X40360Y610721D01*
X40366Y610657D01*
X40375Y610594D01*
X40389Y610532D01*
X40406Y610470D01*
X40427Y610410D01*
X40451Y610351D01*
X40479Y610293D01*
X40511Y610238D01*
X40545Y610184D01*
X40583Y610133D01*
X40624Y610083D01*
X40668Y610037D01*
X40714Y609993D01*
X40764Y609952D01*
X40815Y609914D01*
X40869Y609880D01*
X40924Y609848D01*
X40982Y609820D01*
X41041Y609796D01*
X41101Y609775D01*
X41163Y609758D01*
X41225Y609744D01*
X41289Y609735D01*
X41352Y609729D01*
X41416Y609727D01*
X42475Y609727D01*
D11*
X38520Y547480D02*
X49320Y547480D01*
X39920Y546080D02*
X38520Y547480D01*
X38520Y547580D02*
X39820Y548880D01*
D15*
X48345Y573744D02*
X49403Y573744D01*
X48345Y573743D02*
X48281Y573741D01*
X48217Y573735D01*
X48154Y573726D01*
X48092Y573712D01*
X48030Y573695D01*
X47970Y573674D01*
X47911Y573650D01*
X47853Y573622D01*
X47798Y573590D01*
X47744Y573556D01*
X47693Y573518D01*
X47643Y573477D01*
X47597Y573433D01*
X47553Y573387D01*
X47512Y573337D01*
X47474Y573286D01*
X47440Y573232D01*
X47408Y573177D01*
X47380Y573119D01*
X47356Y573060D01*
X47335Y573000D01*
X47318Y572938D01*
X47304Y572876D01*
X47295Y572813D01*
X47289Y572749D01*
X47287Y572685D01*
X47289Y572621D01*
X47295Y572557D01*
X47304Y572494D01*
X47318Y572432D01*
X47335Y572370D01*
X47356Y572310D01*
X47380Y572251D01*
X47408Y572193D01*
X47440Y572138D01*
X47474Y572084D01*
X47512Y572033D01*
X47553Y571983D01*
X47597Y571937D01*
X47643Y571893D01*
X47693Y571852D01*
X47744Y571814D01*
X47798Y571780D01*
X47853Y571748D01*
X47911Y571720D01*
X47970Y571696D01*
X48030Y571675D01*
X48092Y571658D01*
X48154Y571644D01*
X48217Y571635D01*
X48281Y571629D01*
X48345Y571627D01*
X49403Y571627D01*
X49403Y575437D01*
X48345Y575437D01*
X48288Y575435D01*
X48232Y575429D01*
X48176Y575420D01*
X48121Y575407D01*
X48067Y575390D01*
X48014Y575370D01*
X47963Y575346D01*
X47913Y575319D01*
X47866Y575288D01*
X47820Y575255D01*
X47777Y575218D01*
X47736Y575179D01*
X47698Y575137D01*
X47663Y575092D01*
X47631Y575046D01*
X47602Y574997D01*
X47577Y574947D01*
X47555Y574894D01*
X47536Y574841D01*
X47521Y574786D01*
X47510Y574731D01*
X47502Y574675D01*
X47498Y574618D01*
X47498Y574562D01*
X47502Y574505D01*
X47510Y574449D01*
X47521Y574394D01*
X47536Y574339D01*
X47555Y574286D01*
X47577Y574233D01*
X47602Y574183D01*
X47631Y574134D01*
X47663Y574088D01*
X47698Y574043D01*
X47736Y574001D01*
X47777Y573962D01*
X47820Y573925D01*
X47866Y573892D01*
X47913Y573861D01*
X47963Y573834D01*
X48014Y573810D01*
X48067Y573790D01*
X48121Y573773D01*
X48176Y573760D01*
X48232Y573751D01*
X48288Y573745D01*
X48345Y573743D01*
X45787Y575437D02*
X45787Y571627D01*
X44094Y571627D01*
X42624Y572685D02*
X42624Y575437D01*
X42623Y572685D02*
X42621Y572621D01*
X42615Y572557D01*
X42606Y572494D01*
X42592Y572432D01*
X42575Y572370D01*
X42554Y572310D01*
X42530Y572251D01*
X42502Y572193D01*
X42470Y572138D01*
X42436Y572084D01*
X42398Y572033D01*
X42357Y571983D01*
X42313Y571937D01*
X42267Y571893D01*
X42217Y571852D01*
X42166Y571814D01*
X42112Y571780D01*
X42057Y571748D01*
X41999Y571720D01*
X41940Y571696D01*
X41880Y571675D01*
X41818Y571658D01*
X41756Y571644D01*
X41693Y571635D01*
X41629Y571629D01*
X41565Y571627D01*
X41501Y571629D01*
X41437Y571635D01*
X41374Y571644D01*
X41312Y571658D01*
X41250Y571675D01*
X41190Y571696D01*
X41131Y571720D01*
X41073Y571748D01*
X41018Y571780D01*
X40964Y571814D01*
X40913Y571852D01*
X40863Y571893D01*
X40817Y571937D01*
X40773Y571983D01*
X40732Y572033D01*
X40694Y572084D01*
X40660Y572138D01*
X40628Y572193D01*
X40600Y572251D01*
X40576Y572310D01*
X40555Y572370D01*
X40538Y572432D01*
X40524Y572494D01*
X40515Y572557D01*
X40509Y572621D01*
X40507Y572685D01*
X40507Y575437D01*
X38716Y571627D02*
X37023Y571627D01*
X38716Y571627D02*
X38716Y575437D01*
X37023Y575437D01*
X37446Y573744D02*
X38716Y573744D01*
D11*
X38520Y511920D02*
X49320Y511920D01*
X39920Y510520D02*
X38520Y511920D01*
X38520Y512020D02*
X39820Y513320D01*
D15*
X49826Y538184D02*
X50461Y538184D01*
X49826Y538184D02*
X49826Y536067D01*
X51096Y536067D01*
X51151Y536069D01*
X51207Y536074D01*
X51261Y536083D01*
X51315Y536096D01*
X51368Y536112D01*
X51420Y536131D01*
X51471Y536154D01*
X51520Y536180D01*
X51567Y536210D01*
X51612Y536242D01*
X51654Y536277D01*
X51695Y536315D01*
X51733Y536356D01*
X51768Y536398D01*
X51800Y536443D01*
X51830Y536491D01*
X51856Y536539D01*
X51879Y536590D01*
X51898Y536642D01*
X51914Y536695D01*
X51927Y536749D01*
X51936Y536803D01*
X51941Y536859D01*
X51943Y536914D01*
X51943Y539030D01*
X51941Y539088D01*
X51935Y539145D01*
X51925Y539202D01*
X51912Y539259D01*
X51894Y539314D01*
X51873Y539367D01*
X51848Y539420D01*
X51820Y539470D01*
X51788Y539518D01*
X51753Y539565D01*
X51715Y539608D01*
X51674Y539649D01*
X51631Y539687D01*
X51584Y539722D01*
X51536Y539754D01*
X51486Y539782D01*
X51433Y539807D01*
X51380Y539828D01*
X51325Y539846D01*
X51268Y539859D01*
X51211Y539869D01*
X51154Y539875D01*
X51096Y539877D01*
X49826Y539877D01*
X48021Y539877D02*
X48021Y536067D01*
X48021Y539877D02*
X46962Y539877D01*
X46898Y539875D01*
X46834Y539869D01*
X46771Y539860D01*
X46709Y539846D01*
X46647Y539829D01*
X46587Y539808D01*
X46528Y539784D01*
X46470Y539756D01*
X46415Y539724D01*
X46361Y539690D01*
X46310Y539652D01*
X46260Y539611D01*
X46214Y539567D01*
X46170Y539521D01*
X46129Y539471D01*
X46091Y539420D01*
X46057Y539366D01*
X46025Y539311D01*
X45997Y539253D01*
X45973Y539194D01*
X45952Y539134D01*
X45935Y539072D01*
X45921Y539010D01*
X45912Y538947D01*
X45906Y538883D01*
X45904Y538819D01*
X45906Y538755D01*
X45912Y538691D01*
X45921Y538628D01*
X45935Y538566D01*
X45952Y538504D01*
X45973Y538444D01*
X45997Y538385D01*
X46025Y538327D01*
X46057Y538272D01*
X46091Y538218D01*
X46129Y538167D01*
X46170Y538117D01*
X46214Y538071D01*
X46260Y538027D01*
X46310Y537986D01*
X46361Y537948D01*
X46415Y537914D01*
X46470Y537882D01*
X46528Y537854D01*
X46587Y537830D01*
X46647Y537809D01*
X46709Y537792D01*
X46771Y537778D01*
X46834Y537769D01*
X46898Y537763D01*
X46962Y537761D01*
X46962Y537760D02*
X48021Y537760D01*
X46751Y537760D02*
X45904Y536067D01*
X44256Y536067D02*
X42562Y536067D01*
X44256Y536067D02*
X44256Y539877D01*
X42562Y539877D01*
X42986Y538184D02*
X44256Y538184D01*
X41086Y536067D02*
X39392Y536067D01*
X41086Y536067D02*
X41086Y539877D01*
X39392Y539877D01*
X39816Y538184D02*
X41086Y538184D01*
X37922Y539877D02*
X37922Y536067D01*
X35806Y536067D02*
X37922Y539877D01*
X35806Y539877D02*
X35806Y536067D01*
D10*
X246121Y122519D02*
X267965Y122519D01*
X267965Y22443D02*
X260091Y22443D01*
X253995Y22443D01*
X246121Y22443D01*
X253995Y22443D02*
X253997Y22552D01*
X254003Y22660D01*
X254012Y22769D01*
X254026Y22877D01*
X254043Y22984D01*
X254065Y23091D01*
X254090Y23197D01*
X254118Y23302D01*
X254151Y23406D01*
X254187Y23508D01*
X254227Y23609D01*
X254270Y23709D01*
X254317Y23807D01*
X254368Y23904D01*
X254422Y23998D01*
X254479Y24091D01*
X254539Y24181D01*
X254603Y24270D01*
X254670Y24356D01*
X254739Y24439D01*
X254812Y24520D01*
X254888Y24598D01*
X254966Y24674D01*
X255047Y24747D01*
X255130Y24816D01*
X255216Y24883D01*
X255305Y24947D01*
X255395Y25007D01*
X255488Y25064D01*
X255582Y25118D01*
X255679Y25169D01*
X255777Y25216D01*
X255877Y25259D01*
X255978Y25299D01*
X256080Y25335D01*
X256184Y25368D01*
X256289Y25396D01*
X256395Y25421D01*
X256502Y25443D01*
X256609Y25460D01*
X256717Y25474D01*
X256826Y25483D01*
X256934Y25489D01*
X257043Y25491D01*
X257152Y25489D01*
X257260Y25483D01*
X257369Y25474D01*
X257477Y25460D01*
X257584Y25443D01*
X257691Y25421D01*
X257797Y25396D01*
X257902Y25368D01*
X258006Y25335D01*
X258108Y25299D01*
X258209Y25259D01*
X258309Y25216D01*
X258407Y25169D01*
X258504Y25118D01*
X258598Y25064D01*
X258691Y25007D01*
X258781Y24947D01*
X258870Y24883D01*
X258956Y24816D01*
X259039Y24747D01*
X259120Y24674D01*
X259198Y24598D01*
X259274Y24520D01*
X259347Y24439D01*
X259416Y24356D01*
X259483Y24270D01*
X259547Y24181D01*
X259607Y24091D01*
X259664Y23998D01*
X259718Y23904D01*
X259769Y23807D01*
X259816Y23709D01*
X259859Y23609D01*
X259899Y23508D01*
X259935Y23406D01*
X259968Y23302D01*
X259996Y23197D01*
X260021Y23091D01*
X260043Y22984D01*
X260060Y22877D01*
X260074Y22769D01*
X260083Y22660D01*
X260089Y22552D01*
X260091Y22443D01*
D11*
X229068Y18690D02*
X229068Y14711D01*
X229068Y18690D02*
X231389Y21674D01*
X229068Y18690D02*
X226746Y21674D01*
X229068Y18690D02*
X232715Y17363D01*
X229068Y18690D02*
X225420Y17363D01*
D15*
X271603Y13808D02*
X271605Y13738D01*
X271611Y13668D01*
X271620Y13598D01*
X271633Y13529D01*
X271650Y13461D01*
X271671Y13394D01*
X271695Y13328D01*
X271723Y13263D01*
X271754Y13200D01*
X271789Y13139D01*
X271827Y13080D01*
X271868Y13022D01*
X271912Y12968D01*
X271959Y12915D01*
X272008Y12866D01*
X272061Y12819D01*
X272115Y12775D01*
X272173Y12734D01*
X272232Y12696D01*
X272293Y12661D01*
X272356Y12630D01*
X272421Y12602D01*
X272487Y12578D01*
X272554Y12557D01*
X272622Y12540D01*
X272691Y12527D01*
X272761Y12518D01*
X272831Y12512D01*
X272901Y12510D01*
X273004Y12512D01*
X273107Y12518D01*
X273210Y12527D01*
X273312Y12541D01*
X273413Y12558D01*
X273514Y12579D01*
X273614Y12604D01*
X273713Y12633D01*
X273811Y12665D01*
X273908Y12702D01*
X274003Y12741D01*
X274097Y12784D01*
X274189Y12831D01*
X274279Y12881D01*
X274367Y12935D01*
X274453Y12991D01*
X274537Y13051D01*
X274618Y13114D01*
X274697Y13180D01*
X274774Y13249D01*
X274848Y13321D01*
X274686Y17053D02*
X274684Y17123D01*
X274678Y17193D01*
X274669Y17263D01*
X274656Y17332D01*
X274639Y17400D01*
X274618Y17467D01*
X274594Y17533D01*
X274566Y17598D01*
X274535Y17661D01*
X274500Y17722D01*
X274462Y17781D01*
X274421Y17839D01*
X274377Y17893D01*
X274330Y17946D01*
X274281Y17995D01*
X274228Y18042D01*
X274174Y18086D01*
X274116Y18127D01*
X274057Y18165D01*
X273996Y18200D01*
X273933Y18231D01*
X273868Y18259D01*
X273802Y18283D01*
X273735Y18304D01*
X273667Y18321D01*
X273598Y18334D01*
X273528Y18343D01*
X273458Y18349D01*
X273388Y18351D01*
X273290Y18349D01*
X273192Y18343D01*
X273095Y18333D01*
X272998Y18320D01*
X272902Y18302D01*
X272806Y18280D01*
X272712Y18255D01*
X272618Y18226D01*
X272526Y18193D01*
X272435Y18157D01*
X272346Y18117D01*
X272258Y18073D01*
X272173Y18026D01*
X272089Y17975D01*
X272007Y17921D01*
X271928Y17864D01*
X274037Y15917D02*
X274095Y15954D01*
X274151Y15993D01*
X274205Y16035D01*
X274257Y16080D01*
X274306Y16127D01*
X274353Y16177D01*
X274397Y16229D01*
X274438Y16284D01*
X274477Y16341D01*
X274512Y16399D01*
X274545Y16459D01*
X274574Y16521D01*
X274600Y16584D01*
X274623Y16649D01*
X274642Y16715D01*
X274658Y16781D01*
X274670Y16849D01*
X274679Y16916D01*
X274684Y16985D01*
X274686Y17053D01*
X272251Y14944D02*
X272193Y14908D01*
X272137Y14869D01*
X272083Y14827D01*
X272031Y14782D01*
X271982Y14734D01*
X271935Y14684D01*
X271891Y14632D01*
X271850Y14578D01*
X271811Y14521D01*
X271776Y14462D01*
X271743Y14402D01*
X271714Y14340D01*
X271688Y14277D01*
X271665Y14212D01*
X271646Y14147D01*
X271630Y14080D01*
X271618Y14013D01*
X271609Y13945D01*
X271604Y13876D01*
X271602Y13808D01*
X272252Y14944D02*
X274037Y15917D01*
X269362Y18352D02*
X269362Y12510D01*
X266116Y12510D02*
X269362Y18352D01*
X266116Y18352D02*
X266116Y12510D01*
X263693Y17702D02*
X263693Y18352D01*
X260447Y18352D01*
X262070Y12510D01*
X258206Y12510D02*
X256259Y12510D01*
X256189Y12512D01*
X256119Y12518D01*
X256049Y12527D01*
X255980Y12540D01*
X255912Y12557D01*
X255845Y12578D01*
X255779Y12602D01*
X255714Y12630D01*
X255651Y12661D01*
X255590Y12696D01*
X255531Y12734D01*
X255473Y12775D01*
X255419Y12819D01*
X255366Y12866D01*
X255317Y12915D01*
X255270Y12968D01*
X255226Y13022D01*
X255185Y13080D01*
X255147Y13139D01*
X255112Y13200D01*
X255081Y13263D01*
X255053Y13328D01*
X255029Y13394D01*
X255008Y13461D01*
X254991Y13529D01*
X254978Y13598D01*
X254969Y13668D01*
X254963Y13738D01*
X254961Y13808D01*
X254961Y14457D01*
X254963Y14527D01*
X254969Y14597D01*
X254978Y14667D01*
X254991Y14736D01*
X255008Y14804D01*
X255029Y14871D01*
X255053Y14937D01*
X255081Y15002D01*
X255112Y15065D01*
X255147Y15126D01*
X255185Y15185D01*
X255226Y15243D01*
X255270Y15297D01*
X255317Y15350D01*
X255366Y15399D01*
X255419Y15446D01*
X255473Y15490D01*
X255531Y15531D01*
X255590Y15569D01*
X255651Y15604D01*
X255714Y15635D01*
X255779Y15663D01*
X255845Y15687D01*
X255912Y15708D01*
X255980Y15725D01*
X256049Y15738D01*
X256119Y15747D01*
X256189Y15753D01*
X256259Y15755D01*
X258206Y15755D01*
X258206Y18352D01*
X254961Y18352D01*
X252720Y17053D02*
X251097Y18352D01*
X251097Y12510D01*
X249475Y12510D02*
X252720Y12510D01*
X247234Y17702D02*
X247234Y18352D01*
X243988Y18352D01*
X245611Y12510D01*
X241747Y12510D02*
X239800Y12510D01*
X239730Y12512D01*
X239660Y12518D01*
X239590Y12527D01*
X239521Y12540D01*
X239453Y12557D01*
X239386Y12578D01*
X239320Y12602D01*
X239255Y12630D01*
X239192Y12661D01*
X239131Y12696D01*
X239072Y12734D01*
X239014Y12775D01*
X238960Y12819D01*
X238907Y12866D01*
X238858Y12915D01*
X238811Y12968D01*
X238767Y13022D01*
X238726Y13080D01*
X238688Y13139D01*
X238653Y13200D01*
X238622Y13263D01*
X238594Y13328D01*
X238570Y13394D01*
X238549Y13461D01*
X238532Y13529D01*
X238519Y13598D01*
X238510Y13668D01*
X238504Y13738D01*
X238502Y13808D01*
X238502Y14457D01*
X238504Y14527D01*
X238510Y14597D01*
X238519Y14667D01*
X238532Y14736D01*
X238549Y14804D01*
X238570Y14871D01*
X238594Y14937D01*
X238622Y15002D01*
X238653Y15065D01*
X238688Y15126D01*
X238726Y15185D01*
X238767Y15243D01*
X238811Y15297D01*
X238858Y15350D01*
X238907Y15399D01*
X238960Y15446D01*
X239014Y15490D01*
X239072Y15531D01*
X239131Y15569D01*
X239192Y15604D01*
X239255Y15635D01*
X239320Y15663D01*
X239386Y15687D01*
X239453Y15708D01*
X239521Y15725D01*
X239590Y15738D01*
X239660Y15747D01*
X239730Y15753D01*
X239800Y15755D01*
X241747Y15755D01*
X241747Y18352D01*
X238502Y18352D01*
X236078Y18352D02*
X236078Y12510D01*
X236078Y18352D02*
X234455Y18352D01*
X234375Y18350D01*
X234296Y18344D01*
X234217Y18334D01*
X234138Y18321D01*
X234061Y18303D01*
X233984Y18282D01*
X233908Y18257D01*
X233834Y18228D01*
X233761Y18196D01*
X233690Y18160D01*
X233621Y18121D01*
X233553Y18078D01*
X233488Y18033D01*
X233425Y17984D01*
X233365Y17932D01*
X233307Y17877D01*
X233252Y17819D01*
X233200Y17759D01*
X233151Y17696D01*
X233106Y17631D01*
X233063Y17563D01*
X233024Y17494D01*
X232988Y17423D01*
X232956Y17350D01*
X232927Y17276D01*
X232902Y17200D01*
X232881Y17123D01*
X232863Y17046D01*
X232850Y16967D01*
X232840Y16888D01*
X232834Y16809D01*
X232832Y16729D01*
X232833Y16729D02*
X232833Y14132D01*
X232832Y14132D02*
X232834Y14052D01*
X232840Y13973D01*
X232850Y13894D01*
X232863Y13815D01*
X232881Y13738D01*
X232902Y13661D01*
X232927Y13585D01*
X232956Y13511D01*
X232988Y13438D01*
X233024Y13367D01*
X233063Y13298D01*
X233106Y13230D01*
X233151Y13165D01*
X233200Y13102D01*
X233252Y13042D01*
X233307Y12984D01*
X233365Y12929D01*
X233425Y12877D01*
X233488Y12828D01*
X233553Y12783D01*
X233621Y12740D01*
X233690Y12701D01*
X233761Y12665D01*
X233834Y12633D01*
X233908Y12604D01*
X233984Y12579D01*
X234061Y12558D01*
X234138Y12540D01*
X234217Y12527D01*
X234296Y12517D01*
X234375Y12511D01*
X234455Y12509D01*
X234455Y12510D02*
X236078Y12510D01*
M02*
