G04 EAGLE Gerber RS-274X export*
G75*
%MOMM*%
%FSLAX34Y34*%
%LPD*%
%INSoldermask Bottom*%
%IPPOS*%
%AMOC8*
5,1,8,0,0,1.08239X$1,22.5*%
G01*
%ADD10R,1.703200X1.503200*%
%ADD11R,1.503200X1.703200*%
%ADD12R,1.003200X1.803200*%
%ADD13R,2.303200X3.203200*%
%ADD14P,1.951982X8X112.500000*%
%ADD15P,1.951982X8X22.500000*%
%ADD16R,0.803200X1.403200*%
%ADD17R,1.905000X0.914400*%
%ADD18R,6.426200X6.756400*%
%ADD19C,0.959600*%


D10*
X416560Y382880D03*
X416560Y363880D03*
D11*
X447700Y571500D03*
X466700Y571500D03*
X447700Y543560D03*
X466700Y543560D03*
D12*
X448410Y607060D03*
X460910Y607060D03*
D13*
X422810Y634560D03*
X486510Y634560D03*
D14*
X406400Y487680D03*
X431800Y487680D03*
D15*
X25400Y355600D03*
X25486Y330289D03*
X50800Y127000D03*
X50800Y152400D03*
X50800Y177800D03*
X50800Y203200D03*
X50800Y228600D03*
X50800Y254000D03*
X50800Y279400D03*
X50800Y304800D03*
X50800Y330200D03*
X50800Y355600D03*
X25509Y304711D03*
X457200Y355600D03*
X457200Y330200D03*
X457200Y304800D03*
X457200Y279400D03*
X457200Y254000D03*
X457200Y228600D03*
X457200Y203200D03*
X457200Y177800D03*
X457200Y152400D03*
X457200Y127000D03*
X25474Y279461D03*
X482600Y127000D03*
X482600Y152400D03*
X482600Y177800D03*
X482600Y203200D03*
X482600Y228600D03*
X482600Y254000D03*
X482600Y279400D03*
X482600Y304800D03*
X482600Y330200D03*
X482600Y355600D03*
X25400Y254000D03*
X25400Y228600D03*
X25400Y203200D03*
X25400Y177800D03*
X25400Y152400D03*
X25400Y127000D03*
D11*
X466700Y515620D03*
X447700Y515620D03*
X415900Y571500D03*
X396900Y571500D03*
X415900Y543560D03*
X396900Y543560D03*
X415900Y515620D03*
X396900Y515620D03*
D16*
X440690Y406340D03*
X427990Y406340D03*
X415290Y406340D03*
X402590Y406340D03*
X402590Y462340D03*
X415290Y462340D03*
X427990Y462340D03*
X440690Y462340D03*
D12*
X160390Y53340D03*
X147890Y53340D03*
X135390Y53340D03*
X122890Y53340D03*
X110390Y53340D03*
X97890Y53340D03*
X85390Y53340D03*
X72890Y53340D03*
X60390Y53340D03*
X47890Y53340D03*
D13*
X185990Y25840D03*
X22290Y25840D03*
D12*
X460110Y53340D03*
X447610Y53340D03*
X435110Y53340D03*
X422610Y53340D03*
X410110Y53340D03*
X397610Y53340D03*
X385110Y53340D03*
X372610Y53340D03*
X360110Y53340D03*
X347610Y53340D03*
D13*
X485710Y25840D03*
X322010Y25840D03*
D12*
X241500Y607060D03*
X254000Y607060D03*
X266500Y607060D03*
D13*
X215900Y634560D03*
X292100Y634560D03*
D17*
X205966Y594871D03*
D18*
X138402Y571871D03*
D17*
X205966Y548871D03*
D19*
X413032Y319302D03*
X445219Y319283D03*
X434340Y38100D03*
X93980Y149860D03*
X132080Y38100D03*
X93980Y220980D03*
X93980Y241300D03*
X93980Y276860D03*
X93980Y297180D03*
X20320Y370840D03*
X386080Y337820D03*
X431800Y350520D03*
X441960Y332740D03*
X284480Y548640D03*
X233680Y551180D03*
X270701Y593664D03*
X208280Y581660D03*
X345440Y635000D03*
X469900Y589280D03*
X469900Y467360D03*
X38100Y586740D03*
X96520Y589280D03*
X68580Y515620D03*
X106680Y500380D03*
X38100Y431800D03*
X335280Y238760D03*
X335280Y185420D03*
X350520Y144780D03*
X302260Y259080D03*
X302260Y187960D03*
X470088Y557421D03*
X459740Y500380D03*
X431800Y391160D03*
X383540Y35560D03*
X73660Y38100D03*
X431800Y289560D03*
X431800Y266700D03*
X418102Y475925D03*
X358140Y309880D03*
X317500Y287020D03*
X469900Y190500D03*
X76200Y449580D03*
X449580Y76200D03*
X281940Y137160D03*
X254000Y73660D03*
X182880Y88900D03*
X50800Y88900D03*
X22860Y96520D03*
X254000Y383540D03*
X93980Y535940D03*
X448666Y241300D03*
X318356Y221684D03*
X345440Y421640D03*
X254000Y518160D03*
X365760Y345440D03*
X160020Y150396D03*
X162560Y165580D03*
X60960Y38100D03*
X447040Y35560D03*
X407942Y251920D03*
X442598Y251780D03*
X213360Y132080D03*
X426720Y162560D03*
X320040Y93980D03*
X330200Y337820D03*
X314960Y335280D03*
X129060Y508000D03*
X129540Y364582D03*
X68580Y223520D03*
X373380Y544548D03*
X424576Y439420D03*
X421716Y279476D03*
X403860Y208280D03*
X441960Y198120D03*
X314348Y213360D03*
X403860Y198120D03*
X320040Y119380D03*
X320040Y68580D03*
X353060Y459740D03*
X358140Y591820D03*
X345440Y447040D03*
X345440Y584200D03*
X93980Y195580D03*
X297180Y406400D03*
X154940Y447040D03*
X160020Y523240D03*
X109220Y340360D03*
X175260Y419100D03*
X172720Y472440D03*
X169108Y523240D03*
X316381Y235101D03*
X313525Y199192D03*
X359692Y175260D03*
X373380Y175260D03*
X406400Y439702D03*
X395404Y471658D03*
X193040Y233680D03*
X411404Y264084D03*
X418160Y257988D03*
X153662Y227289D03*
X358140Y271780D03*
X416560Y271780D03*
X415488Y439702D03*
X406400Y474373D03*
X180340Y255369D03*
X315885Y267439D03*
X159657Y255293D03*
X318404Y318392D03*
X152824Y283273D03*
X414354Y310214D03*
X198120Y287020D03*
X409039Y302677D03*
X323061Y351001D03*
X219908Y485140D03*
X147320Y531436D03*
X211205Y288983D03*
X228101Y293561D03*
X208761Y312901D03*
X210820Y485140D03*
X147320Y522348D03*
X201834Y298354D03*
X314960Y305697D03*
X401320Y68580D03*
X421640Y73660D03*
M02*
