G04 EAGLE Gerber RS-274X export*
G75*
%MOMM*%
%FSLAX34Y34*%
%LPD*%
%INBottom Copper*%
%IPPOS*%
%AMOC8*
5,1,8,0,0,1.08239X$1,22.5*%
G01*
%ADD10R,1.500000X1.300000*%
%ADD11R,1.300000X1.500000*%
%ADD12R,0.800000X1.600000*%
%ADD13R,2.100000X3.000000*%
%ADD14P,1.732040X8X112.500000*%
%ADD15P,1.732040X8X22.500000*%
%ADD16R,0.600000X1.200000*%
%ADD17R,1.701800X0.711200*%
%ADD18R,6.223000X6.553200*%
%ADD19C,0.152400*%
%ADD20C,0.756400*%

G36*
X173224Y10164D02*
X173224Y10164D01*
X173243Y10162D01*
X173345Y10184D01*
X173447Y10200D01*
X173464Y10210D01*
X173484Y10214D01*
X173573Y10267D01*
X173664Y10316D01*
X173678Y10330D01*
X173695Y10340D01*
X173762Y10419D01*
X173834Y10494D01*
X173842Y10512D01*
X173855Y10527D01*
X173894Y10623D01*
X173937Y10717D01*
X173939Y10737D01*
X173947Y10755D01*
X173965Y10922D01*
X173965Y41472D01*
X174858Y42365D01*
X197122Y42365D01*
X198015Y41472D01*
X198015Y10922D01*
X198018Y10902D01*
X198016Y10883D01*
X198038Y10781D01*
X198054Y10679D01*
X198064Y10662D01*
X198068Y10642D01*
X198121Y10553D01*
X198170Y10462D01*
X198184Y10448D01*
X198194Y10431D01*
X198273Y10364D01*
X198348Y10292D01*
X198366Y10284D01*
X198381Y10271D01*
X198477Y10232D01*
X198571Y10189D01*
X198591Y10187D01*
X198609Y10179D01*
X198776Y10161D01*
X309224Y10161D01*
X309244Y10164D01*
X309263Y10162D01*
X309365Y10184D01*
X309467Y10200D01*
X309484Y10210D01*
X309504Y10214D01*
X309593Y10267D01*
X309684Y10316D01*
X309698Y10330D01*
X309715Y10340D01*
X309782Y10419D01*
X309854Y10494D01*
X309862Y10512D01*
X309875Y10527D01*
X309914Y10623D01*
X309957Y10717D01*
X309959Y10737D01*
X309967Y10755D01*
X309985Y10922D01*
X309985Y41472D01*
X310878Y42365D01*
X333142Y42365D01*
X334035Y41472D01*
X334035Y10922D01*
X334038Y10902D01*
X334036Y10883D01*
X334058Y10781D01*
X334074Y10679D01*
X334084Y10662D01*
X334088Y10642D01*
X334141Y10553D01*
X334190Y10462D01*
X334204Y10448D01*
X334214Y10431D01*
X334293Y10364D01*
X334368Y10292D01*
X334386Y10284D01*
X334401Y10271D01*
X334497Y10232D01*
X334591Y10189D01*
X334611Y10187D01*
X334629Y10179D01*
X334796Y10161D01*
X472924Y10161D01*
X472944Y10164D01*
X472963Y10162D01*
X473065Y10184D01*
X473167Y10200D01*
X473184Y10210D01*
X473204Y10214D01*
X473293Y10267D01*
X473384Y10316D01*
X473398Y10330D01*
X473415Y10340D01*
X473482Y10419D01*
X473554Y10494D01*
X473562Y10512D01*
X473575Y10527D01*
X473614Y10623D01*
X473657Y10717D01*
X473659Y10737D01*
X473667Y10755D01*
X473685Y10922D01*
X473685Y41472D01*
X474578Y42365D01*
X496895Y42365D01*
X496914Y42368D01*
X496934Y42366D01*
X497035Y42388D01*
X497137Y42404D01*
X497155Y42414D01*
X497174Y42418D01*
X497263Y42471D01*
X497355Y42520D01*
X497368Y42534D01*
X497385Y42544D01*
X497453Y42623D01*
X497524Y42698D01*
X497532Y42716D01*
X497545Y42731D01*
X497584Y42827D01*
X497628Y42921D01*
X497630Y42941D01*
X497637Y42959D01*
X497656Y43126D01*
X497877Y617274D01*
X497873Y617294D01*
X497876Y617313D01*
X497854Y617415D01*
X497837Y617516D01*
X497828Y617534D01*
X497823Y617554D01*
X497770Y617643D01*
X497722Y617734D01*
X497708Y617748D01*
X497697Y617765D01*
X497619Y617832D01*
X497544Y617903D01*
X497526Y617912D01*
X497510Y617925D01*
X497414Y617964D01*
X497321Y618007D01*
X497301Y618009D01*
X497282Y618017D01*
X497115Y618035D01*
X475378Y618035D01*
X474485Y618928D01*
X474485Y649480D01*
X474482Y649500D01*
X474484Y649519D01*
X474462Y649621D01*
X474446Y649723D01*
X474436Y649740D01*
X474432Y649760D01*
X474379Y649849D01*
X474330Y649940D01*
X474316Y649954D01*
X474306Y649971D01*
X474227Y650038D01*
X474152Y650110D01*
X474134Y650118D01*
X474119Y650131D01*
X474023Y650170D01*
X473929Y650213D01*
X473909Y650215D01*
X473891Y650223D01*
X473724Y650241D01*
X435596Y650241D01*
X435576Y650238D01*
X435557Y650240D01*
X435455Y650218D01*
X435353Y650202D01*
X435336Y650192D01*
X435316Y650188D01*
X435227Y650135D01*
X435136Y650086D01*
X435122Y650072D01*
X435105Y650062D01*
X435038Y649983D01*
X434966Y649908D01*
X434958Y649890D01*
X434945Y649875D01*
X434906Y649779D01*
X434863Y649685D01*
X434861Y649665D01*
X434853Y649647D01*
X434835Y649480D01*
X434835Y618928D01*
X433942Y618035D01*
X411678Y618035D01*
X410785Y618928D01*
X410785Y649480D01*
X410782Y649500D01*
X410784Y649519D01*
X410762Y649621D01*
X410746Y649723D01*
X410736Y649740D01*
X410732Y649760D01*
X410679Y649849D01*
X410630Y649940D01*
X410616Y649954D01*
X410606Y649971D01*
X410527Y650038D01*
X410452Y650110D01*
X410434Y650118D01*
X410419Y650131D01*
X410323Y650170D01*
X410229Y650213D01*
X410209Y650215D01*
X410191Y650223D01*
X410024Y650241D01*
X304886Y650241D01*
X304866Y650238D01*
X304847Y650240D01*
X304745Y650218D01*
X304643Y650202D01*
X304626Y650192D01*
X304606Y650188D01*
X304517Y650135D01*
X304426Y650086D01*
X304412Y650072D01*
X304395Y650062D01*
X304328Y649983D01*
X304256Y649908D01*
X304248Y649890D01*
X304235Y649875D01*
X304196Y649779D01*
X304153Y649685D01*
X304151Y649665D01*
X304143Y649647D01*
X304125Y649480D01*
X304125Y618928D01*
X303232Y618035D01*
X280968Y618035D01*
X280075Y618928D01*
X280075Y649480D01*
X280072Y649500D01*
X280074Y649519D01*
X280052Y649621D01*
X280036Y649723D01*
X280026Y649740D01*
X280022Y649760D01*
X279969Y649849D01*
X279920Y649940D01*
X279906Y649954D01*
X279896Y649971D01*
X279817Y650038D01*
X279742Y650110D01*
X279724Y650118D01*
X279709Y650131D01*
X279613Y650170D01*
X279519Y650213D01*
X279499Y650215D01*
X279481Y650223D01*
X279314Y650241D01*
X228686Y650241D01*
X228666Y650238D01*
X228647Y650240D01*
X228545Y650218D01*
X228443Y650202D01*
X228426Y650192D01*
X228406Y650188D01*
X228317Y650135D01*
X228226Y650086D01*
X228212Y650072D01*
X228195Y650062D01*
X228128Y649983D01*
X228056Y649908D01*
X228048Y649890D01*
X228035Y649875D01*
X227996Y649779D01*
X227953Y649685D01*
X227951Y649665D01*
X227943Y649647D01*
X227925Y649480D01*
X227925Y618928D01*
X227032Y618035D01*
X204768Y618035D01*
X203875Y618928D01*
X203875Y649480D01*
X203872Y649500D01*
X203874Y649519D01*
X203852Y649621D01*
X203836Y649723D01*
X203826Y649740D01*
X203822Y649760D01*
X203769Y649849D01*
X203720Y649940D01*
X203706Y649954D01*
X203696Y649971D01*
X203617Y650038D01*
X203542Y650110D01*
X203524Y650118D01*
X203509Y650131D01*
X203413Y650170D01*
X203319Y650213D01*
X203299Y650215D01*
X203281Y650223D01*
X203114Y650241D01*
X10922Y650241D01*
X10902Y650238D01*
X10883Y650240D01*
X10781Y650218D01*
X10679Y650202D01*
X10662Y650192D01*
X10642Y650188D01*
X10553Y650135D01*
X10462Y650086D01*
X10448Y650072D01*
X10431Y650062D01*
X10364Y649983D01*
X10292Y649908D01*
X10284Y649890D01*
X10271Y649875D01*
X10232Y649779D01*
X10189Y649685D01*
X10187Y649665D01*
X10179Y649647D01*
X10161Y649480D01*
X10161Y43126D01*
X10164Y43106D01*
X10162Y43087D01*
X10184Y42985D01*
X10200Y42883D01*
X10210Y42866D01*
X10214Y42846D01*
X10267Y42757D01*
X10316Y42666D01*
X10330Y42652D01*
X10340Y42635D01*
X10419Y42568D01*
X10494Y42496D01*
X10512Y42488D01*
X10527Y42475D01*
X10623Y42436D01*
X10717Y42393D01*
X10737Y42391D01*
X10755Y42383D01*
X10922Y42365D01*
X33422Y42365D01*
X34315Y41472D01*
X34315Y10922D01*
X34318Y10902D01*
X34316Y10883D01*
X34338Y10781D01*
X34354Y10679D01*
X34364Y10662D01*
X34368Y10642D01*
X34421Y10553D01*
X34470Y10462D01*
X34484Y10448D01*
X34494Y10431D01*
X34573Y10364D01*
X34648Y10292D01*
X34666Y10284D01*
X34681Y10271D01*
X34777Y10232D01*
X34871Y10189D01*
X34891Y10187D01*
X34909Y10179D01*
X35076Y10161D01*
X173204Y10161D01*
X173224Y10164D01*
G37*
%LPC*%
G36*
X444842Y30253D02*
X444842Y30253D01*
X441733Y33362D01*
X441733Y37758D01*
X444530Y40555D01*
X444583Y40629D01*
X444643Y40699D01*
X444655Y40729D01*
X444674Y40755D01*
X444701Y40842D01*
X444735Y40927D01*
X444739Y40968D01*
X444746Y40990D01*
X444745Y41022D01*
X444753Y41093D01*
X444753Y43054D01*
X444750Y43074D01*
X444752Y43093D01*
X444730Y43195D01*
X444714Y43297D01*
X444704Y43314D01*
X444700Y43334D01*
X444647Y43423D01*
X444598Y43514D01*
X444584Y43528D01*
X444574Y43545D01*
X444495Y43612D01*
X444420Y43684D01*
X444402Y43692D01*
X444387Y43705D01*
X444291Y43744D01*
X444197Y43787D01*
X444177Y43789D01*
X444159Y43797D01*
X443992Y43815D01*
X442978Y43815D01*
X442529Y44264D01*
X442433Y44334D01*
X442337Y44404D01*
X442333Y44406D01*
X442330Y44408D01*
X442217Y44443D01*
X442103Y44479D01*
X442098Y44479D01*
X442094Y44480D01*
X441976Y44477D01*
X441857Y44475D01*
X441853Y44474D01*
X441849Y44474D01*
X441737Y44433D01*
X441625Y44394D01*
X441621Y44391D01*
X441618Y44390D01*
X441525Y44315D01*
X441431Y44242D01*
X441428Y44238D01*
X441426Y44236D01*
X441418Y44224D01*
X441332Y44107D01*
X441143Y43780D01*
X440670Y43307D01*
X440091Y42972D01*
X439444Y42799D01*
X436633Y42799D01*
X436633Y52578D01*
X436630Y52598D01*
X436632Y52617D01*
X436610Y52719D01*
X436593Y52821D01*
X436584Y52838D01*
X436580Y52858D01*
X436527Y52947D01*
X436478Y53038D01*
X436464Y53052D01*
X436454Y53069D01*
X436375Y53136D01*
X436300Y53207D01*
X436282Y53216D01*
X436267Y53229D01*
X436171Y53268D01*
X436077Y53311D01*
X436057Y53313D01*
X436039Y53321D01*
X435872Y53339D01*
X434348Y53339D01*
X434328Y53336D01*
X434309Y53338D01*
X434207Y53316D01*
X434105Y53299D01*
X434088Y53290D01*
X434068Y53286D01*
X433979Y53233D01*
X433888Y53184D01*
X433874Y53170D01*
X433857Y53160D01*
X433790Y53081D01*
X433719Y53006D01*
X433710Y52988D01*
X433697Y52973D01*
X433658Y52877D01*
X433615Y52783D01*
X433613Y52763D01*
X433605Y52745D01*
X433587Y52578D01*
X433587Y42799D01*
X430776Y42799D01*
X430129Y42972D01*
X429550Y43307D01*
X429077Y43780D01*
X428888Y44107D01*
X428814Y44198D01*
X428739Y44292D01*
X428735Y44294D01*
X428732Y44297D01*
X428633Y44360D01*
X428532Y44425D01*
X428528Y44426D01*
X428524Y44428D01*
X428409Y44456D01*
X428293Y44485D01*
X428289Y44484D01*
X428285Y44485D01*
X428166Y44475D01*
X428048Y44466D01*
X428044Y44464D01*
X428040Y44464D01*
X427931Y44416D01*
X427822Y44369D01*
X427818Y44366D01*
X427815Y44365D01*
X427805Y44356D01*
X427691Y44264D01*
X427242Y43815D01*
X417978Y43815D01*
X416898Y44895D01*
X416882Y44907D01*
X416870Y44923D01*
X416782Y44979D01*
X416699Y45039D01*
X416680Y45045D01*
X416663Y45056D01*
X416562Y45081D01*
X416463Y45111D01*
X416444Y45111D01*
X416424Y45116D01*
X416321Y45108D01*
X416218Y45105D01*
X416199Y45098D01*
X416179Y45097D01*
X416084Y45056D01*
X415987Y45021D01*
X415971Y45008D01*
X415953Y45000D01*
X415822Y44895D01*
X414742Y43815D01*
X405478Y43815D01*
X404398Y44895D01*
X404382Y44907D01*
X404370Y44923D01*
X404282Y44979D01*
X404199Y45039D01*
X404180Y45045D01*
X404163Y45056D01*
X404062Y45081D01*
X403963Y45111D01*
X403944Y45111D01*
X403924Y45116D01*
X403821Y45108D01*
X403718Y45105D01*
X403699Y45098D01*
X403679Y45097D01*
X403584Y45056D01*
X403487Y45021D01*
X403471Y45008D01*
X403453Y45000D01*
X403322Y44895D01*
X402242Y43815D01*
X392978Y43815D01*
X391898Y44895D01*
X391882Y44907D01*
X391870Y44923D01*
X391782Y44979D01*
X391699Y45039D01*
X391680Y45045D01*
X391663Y45056D01*
X391562Y45081D01*
X391463Y45111D01*
X391444Y45111D01*
X391424Y45116D01*
X391321Y45108D01*
X391218Y45105D01*
X391199Y45098D01*
X391179Y45097D01*
X391084Y45056D01*
X390987Y45021D01*
X390971Y45008D01*
X390953Y45000D01*
X390822Y44895D01*
X389742Y43815D01*
X380478Y43815D01*
X379398Y44895D01*
X379382Y44907D01*
X379370Y44923D01*
X379282Y44979D01*
X379199Y45039D01*
X379180Y45045D01*
X379163Y45056D01*
X379062Y45081D01*
X378963Y45111D01*
X378944Y45111D01*
X378924Y45116D01*
X378821Y45108D01*
X378718Y45105D01*
X378699Y45098D01*
X378679Y45097D01*
X378584Y45056D01*
X378487Y45021D01*
X378471Y45008D01*
X378453Y45000D01*
X378322Y44895D01*
X377242Y43815D01*
X367978Y43815D01*
X366898Y44895D01*
X366882Y44907D01*
X366870Y44923D01*
X366782Y44979D01*
X366699Y45039D01*
X366680Y45045D01*
X366663Y45056D01*
X366562Y45081D01*
X366463Y45111D01*
X366444Y45111D01*
X366424Y45116D01*
X366321Y45108D01*
X366218Y45105D01*
X366199Y45098D01*
X366179Y45097D01*
X366084Y45056D01*
X365987Y45021D01*
X365971Y45008D01*
X365953Y45000D01*
X365822Y44895D01*
X364742Y43815D01*
X355478Y43815D01*
X354398Y44895D01*
X354382Y44907D01*
X354370Y44923D01*
X354282Y44979D01*
X354199Y45039D01*
X354180Y45045D01*
X354163Y45056D01*
X354062Y45081D01*
X353963Y45111D01*
X353944Y45111D01*
X353924Y45116D01*
X353821Y45108D01*
X353718Y45105D01*
X353699Y45098D01*
X353679Y45097D01*
X353584Y45056D01*
X353487Y45021D01*
X353471Y45008D01*
X353453Y45000D01*
X353322Y44895D01*
X352242Y43815D01*
X342978Y43815D01*
X342085Y44708D01*
X342085Y61972D01*
X342978Y62865D01*
X352242Y62865D01*
X353322Y61785D01*
X353338Y61773D01*
X353350Y61757D01*
X353438Y61701D01*
X353521Y61641D01*
X353540Y61635D01*
X353557Y61624D01*
X353658Y61599D01*
X353757Y61569D01*
X353776Y61569D01*
X353796Y61564D01*
X353899Y61572D01*
X354002Y61575D01*
X354021Y61582D01*
X354041Y61583D01*
X354136Y61624D01*
X354233Y61659D01*
X354249Y61672D01*
X354267Y61680D01*
X354398Y61785D01*
X355478Y62865D01*
X363356Y62865D01*
X363426Y62876D01*
X363498Y62878D01*
X363547Y62896D01*
X363598Y62904D01*
X363662Y62938D01*
X363729Y62963D01*
X363770Y62995D01*
X363816Y63020D01*
X363865Y63072D01*
X363921Y63116D01*
X363949Y63160D01*
X363985Y63198D01*
X364015Y63263D01*
X364054Y63323D01*
X364067Y63374D01*
X364089Y63421D01*
X364097Y63492D01*
X364114Y63562D01*
X364110Y63614D01*
X364116Y63665D01*
X364101Y63736D01*
X364095Y63807D01*
X364075Y63855D01*
X364064Y63906D01*
X364027Y63967D01*
X363999Y64033D01*
X363954Y64089D01*
X363937Y64117D01*
X363920Y64132D01*
X363894Y64164D01*
X362496Y65562D01*
X362422Y65615D01*
X362352Y65675D01*
X362322Y65687D01*
X362296Y65706D01*
X362209Y65733D01*
X362124Y65767D01*
X362083Y65771D01*
X362061Y65778D01*
X362029Y65777D01*
X361957Y65785D01*
X333687Y65785D01*
X333596Y65771D01*
X333506Y65763D01*
X333476Y65751D01*
X333444Y65746D01*
X333363Y65703D01*
X333279Y65667D01*
X333247Y65641D01*
X333226Y65630D01*
X333204Y65607D01*
X333148Y65562D01*
X324763Y57177D01*
X315317Y57177D01*
X252040Y120454D01*
X251966Y120507D01*
X251896Y120567D01*
X251866Y120579D01*
X251840Y120598D01*
X251753Y120625D01*
X251668Y120659D01*
X251627Y120663D01*
X251605Y120670D01*
X251573Y120669D01*
X251501Y120677D01*
X152757Y120677D01*
X54583Y218851D01*
X54509Y218904D01*
X54439Y218964D01*
X54409Y218976D01*
X54383Y218995D01*
X54296Y219022D01*
X54211Y219056D01*
X54170Y219060D01*
X54148Y219067D01*
X54116Y219066D01*
X54044Y219074D01*
X46854Y219074D01*
X41274Y224654D01*
X41274Y232546D01*
X46854Y238126D01*
X54746Y238126D01*
X58204Y234667D01*
X58263Y234625D01*
X58315Y234576D01*
X58362Y234554D01*
X58404Y234524D01*
X58473Y234502D01*
X58538Y234472D01*
X58589Y234467D01*
X58639Y234451D01*
X58711Y234453D01*
X58782Y234445D01*
X58833Y234456D01*
X58885Y234458D01*
X58952Y234482D01*
X59022Y234497D01*
X59067Y234524D01*
X59116Y234542D01*
X59172Y234587D01*
X59234Y234624D01*
X59267Y234663D01*
X59308Y234696D01*
X59347Y234756D01*
X59393Y234810D01*
X59413Y234859D01*
X59441Y234903D01*
X59459Y234972D01*
X59485Y235039D01*
X59493Y235110D01*
X59501Y235141D01*
X59499Y235164D01*
X59504Y235205D01*
X59504Y241747D01*
X59489Y241837D01*
X59482Y241928D01*
X59469Y241958D01*
X59464Y241990D01*
X59421Y242070D01*
X59386Y242154D01*
X59360Y242186D01*
X59349Y242207D01*
X59326Y242229D01*
X59281Y242285D01*
X56457Y245109D01*
X56441Y245121D01*
X56428Y245136D01*
X56341Y245192D01*
X56257Y245253D01*
X56238Y245258D01*
X56222Y245269D01*
X56121Y245295D01*
X56022Y245325D01*
X56002Y245324D01*
X55983Y245329D01*
X55880Y245321D01*
X55776Y245319D01*
X55758Y245312D01*
X55738Y245310D01*
X55643Y245270D01*
X55545Y245234D01*
X55530Y245222D01*
X55511Y245214D01*
X55380Y245109D01*
X54746Y244474D01*
X46854Y244474D01*
X41274Y250054D01*
X41274Y257946D01*
X46854Y263526D01*
X54746Y263526D01*
X60326Y257946D01*
X60326Y250054D01*
X59691Y249420D01*
X59679Y249403D01*
X59664Y249391D01*
X59608Y249304D01*
X59547Y249220D01*
X59542Y249201D01*
X59531Y249184D01*
X59505Y249083D01*
X59475Y248985D01*
X59476Y248965D01*
X59471Y248945D01*
X59479Y248842D01*
X59481Y248739D01*
X59488Y248720D01*
X59490Y248700D01*
X59530Y248605D01*
X59566Y248508D01*
X59578Y248492D01*
X59586Y248474D01*
X59691Y248343D01*
X62515Y245519D01*
X64077Y243957D01*
X64077Y228360D01*
X64089Y228289D01*
X64091Y228218D01*
X64109Y228169D01*
X64117Y228117D01*
X64151Y228054D01*
X64175Y227987D01*
X64208Y227946D01*
X64232Y227900D01*
X64284Y227851D01*
X64329Y227795D01*
X64373Y227766D01*
X64411Y227730D01*
X64476Y227700D01*
X64536Y227662D01*
X64586Y227649D01*
X64634Y227627D01*
X64705Y227619D01*
X64774Y227601D01*
X64826Y227606D01*
X64878Y227600D01*
X64948Y227615D01*
X65020Y227621D01*
X65067Y227641D01*
X65118Y227652D01*
X65180Y227689D01*
X65246Y227717D01*
X65302Y227762D01*
X65330Y227778D01*
X65345Y227796D01*
X65377Y227822D01*
X66070Y228515D01*
X66124Y228589D01*
X66183Y228659D01*
X66195Y228689D01*
X66214Y228715D01*
X66241Y228802D01*
X66275Y228887D01*
X66279Y228928D01*
X66286Y228950D01*
X66285Y228982D01*
X66293Y229053D01*
X66293Y346717D01*
X66279Y346808D01*
X66271Y346898D01*
X66259Y346928D01*
X66254Y346960D01*
X66211Y347041D01*
X66175Y347125D01*
X66149Y347157D01*
X66138Y347178D01*
X66115Y347200D01*
X66070Y347256D01*
X61537Y351789D01*
X61521Y351801D01*
X61508Y351816D01*
X61421Y351872D01*
X61337Y351933D01*
X61318Y351938D01*
X61301Y351949D01*
X61201Y351975D01*
X61102Y352005D01*
X61082Y352004D01*
X61063Y352009D01*
X60960Y352001D01*
X60856Y351999D01*
X60838Y351992D01*
X60818Y351990D01*
X60723Y351950D01*
X60625Y351914D01*
X60610Y351902D01*
X60591Y351894D01*
X60460Y351789D01*
X54746Y346074D01*
X46854Y346074D01*
X41274Y351654D01*
X41274Y359546D01*
X46854Y365126D01*
X54746Y365126D01*
X60326Y359546D01*
X60326Y358648D01*
X60329Y358628D01*
X60327Y358609D01*
X60349Y358507D01*
X60365Y358405D01*
X60375Y358388D01*
X60379Y358368D01*
X60432Y358279D01*
X60481Y358188D01*
X60495Y358174D01*
X60505Y358157D01*
X60584Y358090D01*
X60659Y358018D01*
X60677Y358010D01*
X60692Y357997D01*
X60788Y357958D01*
X60882Y357915D01*
X60902Y357913D01*
X60920Y357905D01*
X61087Y357887D01*
X61907Y357887D01*
X70867Y348927D01*
X70867Y229053D01*
X70881Y228963D01*
X70889Y228872D01*
X70901Y228843D01*
X70906Y228811D01*
X70949Y228730D01*
X70985Y228646D01*
X71011Y228614D01*
X71022Y228593D01*
X71045Y228571D01*
X71090Y228515D01*
X73887Y225718D01*
X73887Y221322D01*
X70778Y218213D01*
X67837Y218213D01*
X67766Y218202D01*
X67695Y218200D01*
X67646Y218182D01*
X67594Y218174D01*
X67531Y218140D01*
X67464Y218115D01*
X67423Y218083D01*
X67377Y218058D01*
X67328Y218007D01*
X67271Y217962D01*
X67243Y217918D01*
X67207Y217880D01*
X67177Y217815D01*
X67138Y217755D01*
X67126Y217704D01*
X67104Y217657D01*
X67096Y217586D01*
X67078Y217516D01*
X67082Y217464D01*
X67077Y217413D01*
X67092Y217342D01*
X67098Y217271D01*
X67118Y217223D01*
X67129Y217172D01*
X67166Y217111D01*
X67194Y217045D01*
X67239Y216989D01*
X67255Y216961D01*
X67273Y216946D01*
X67299Y216914D01*
X82774Y201439D01*
X82832Y201397D01*
X82884Y201347D01*
X82931Y201325D01*
X82973Y201295D01*
X83042Y201274D01*
X83107Y201244D01*
X83159Y201238D01*
X83209Y201223D01*
X83280Y201225D01*
X83351Y201217D01*
X83402Y201228D01*
X83454Y201229D01*
X83522Y201254D01*
X83592Y201269D01*
X83636Y201296D01*
X83685Y201314D01*
X83741Y201358D01*
X83803Y201395D01*
X83837Y201435D01*
X83877Y201467D01*
X83916Y201528D01*
X83963Y201582D01*
X83982Y201630D01*
X84010Y201674D01*
X84028Y201744D01*
X84055Y201810D01*
X84063Y201882D01*
X84071Y201913D01*
X84069Y201936D01*
X84073Y201977D01*
X84073Y308287D01*
X109540Y333754D01*
X109582Y333812D01*
X109631Y333864D01*
X109653Y333911D01*
X109683Y333953D01*
X109704Y334022D01*
X109735Y334087D01*
X109740Y334139D01*
X109756Y334189D01*
X109754Y334260D01*
X109762Y334331D01*
X109751Y334382D01*
X109749Y334434D01*
X109725Y334502D01*
X109710Y334572D01*
X109683Y334617D01*
X109665Y334665D01*
X109620Y334721D01*
X109583Y334783D01*
X109544Y334817D01*
X109511Y334857D01*
X109451Y334896D01*
X109396Y334943D01*
X109348Y334962D01*
X109304Y334990D01*
X109235Y335008D01*
X109168Y335035D01*
X109097Y335043D01*
X109066Y335051D01*
X109042Y335049D01*
X109002Y335053D01*
X107022Y335053D01*
X103913Y338162D01*
X103913Y342558D01*
X107022Y345667D01*
X110977Y345667D01*
X111068Y345681D01*
X111158Y345689D01*
X111188Y345701D01*
X111220Y345706D01*
X111301Y345749D01*
X111385Y345785D01*
X111417Y345811D01*
X111438Y345822D01*
X111460Y345845D01*
X111516Y345890D01*
X124864Y359238D01*
X125583Y359957D01*
X125595Y359973D01*
X125611Y359986D01*
X125667Y360073D01*
X125727Y360157D01*
X125733Y360176D01*
X125744Y360193D01*
X125769Y360293D01*
X125799Y360392D01*
X125799Y360412D01*
X125804Y360431D01*
X125796Y360534D01*
X125793Y360638D01*
X125786Y360657D01*
X125784Y360677D01*
X125744Y360771D01*
X125708Y360869D01*
X125696Y360885D01*
X125688Y360903D01*
X125583Y361034D01*
X124233Y362384D01*
X124233Y366780D01*
X126550Y369097D01*
X126603Y369171D01*
X126663Y369241D01*
X126675Y369271D01*
X126694Y369297D01*
X126721Y369384D01*
X126755Y369469D01*
X126759Y369510D01*
X126766Y369532D01*
X126765Y369564D01*
X126773Y369635D01*
X126773Y502467D01*
X126759Y502557D01*
X126751Y502648D01*
X126739Y502677D01*
X126734Y502709D01*
X126691Y502790D01*
X126655Y502874D01*
X126629Y502906D01*
X126618Y502927D01*
X126595Y502949D01*
X126550Y503005D01*
X123753Y505802D01*
X123753Y510198D01*
X126862Y513307D01*
X131258Y513307D01*
X134367Y510198D01*
X134367Y505802D01*
X131570Y503005D01*
X131517Y502931D01*
X131457Y502861D01*
X131445Y502831D01*
X131426Y502805D01*
X131399Y502718D01*
X131365Y502633D01*
X131361Y502592D01*
X131354Y502570D01*
X131355Y502538D01*
X131347Y502467D01*
X131347Y370595D01*
X131361Y370505D01*
X131369Y370414D01*
X131381Y370385D01*
X131386Y370353D01*
X131429Y370272D01*
X131465Y370188D01*
X131491Y370156D01*
X131502Y370135D01*
X131525Y370113D01*
X131570Y370057D01*
X134847Y366780D01*
X134847Y366379D01*
X134858Y366308D01*
X134860Y366237D01*
X134878Y366188D01*
X134886Y366136D01*
X134920Y366073D01*
X134945Y366006D01*
X134977Y365965D01*
X135002Y365919D01*
X135054Y365869D01*
X135098Y365813D01*
X135142Y365785D01*
X135180Y365749D01*
X135245Y365719D01*
X135305Y365680D01*
X135356Y365668D01*
X135403Y365646D01*
X135474Y365638D01*
X135544Y365620D01*
X135596Y365624D01*
X135647Y365619D01*
X135718Y365634D01*
X135789Y365640D01*
X135837Y365660D01*
X135888Y365671D01*
X135949Y365708D01*
X136015Y365736D01*
X136071Y365781D01*
X136099Y365797D01*
X136114Y365815D01*
X136146Y365841D01*
X172750Y402445D01*
X172795Y402507D01*
X172824Y402538D01*
X172830Y402549D01*
X172863Y402588D01*
X172875Y402618D01*
X172894Y402644D01*
X172921Y402731D01*
X172955Y402816D01*
X172959Y402857D01*
X172966Y402880D01*
X172965Y402912D01*
X172973Y402983D01*
X172973Y413567D01*
X172959Y413657D01*
X172951Y413748D01*
X172939Y413777D01*
X172934Y413809D01*
X172891Y413890D01*
X172855Y413974D01*
X172829Y414006D01*
X172818Y414027D01*
X172795Y414049D01*
X172750Y414105D01*
X169953Y416902D01*
X169953Y421298D01*
X173062Y424407D01*
X177458Y424407D01*
X180567Y421298D01*
X180567Y416902D01*
X177770Y414105D01*
X177717Y414031D01*
X177657Y413961D01*
X177645Y413931D01*
X177626Y413905D01*
X177599Y413818D01*
X177565Y413733D01*
X177561Y413692D01*
X177554Y413670D01*
X177555Y413638D01*
X177547Y413567D01*
X177547Y403598D01*
X177558Y403528D01*
X177560Y403456D01*
X177578Y403407D01*
X177586Y403356D01*
X177620Y403292D01*
X177645Y403225D01*
X177677Y403184D01*
X177702Y403138D01*
X177754Y403089D01*
X177798Y403033D01*
X177842Y403005D01*
X177880Y402969D01*
X177945Y402939D01*
X178005Y402900D01*
X178056Y402887D01*
X178103Y402865D01*
X178174Y402857D01*
X178244Y402840D01*
X178296Y402844D01*
X178347Y402838D01*
X178418Y402853D01*
X178489Y402859D01*
X178537Y402879D01*
X178588Y402890D01*
X178649Y402927D01*
X178715Y402955D01*
X178771Y403000D01*
X178799Y403017D01*
X178814Y403034D01*
X178846Y403060D01*
X187482Y411696D01*
X189045Y413259D01*
X247150Y413259D01*
X247220Y413270D01*
X247292Y413272D01*
X247341Y413290D01*
X247392Y413298D01*
X247456Y413332D01*
X247523Y413357D01*
X247564Y413389D01*
X247610Y413414D01*
X247659Y413466D01*
X247715Y413510D01*
X247743Y413554D01*
X247779Y413592D01*
X247809Y413657D01*
X247848Y413717D01*
X247861Y413768D01*
X247883Y413815D01*
X247891Y413886D01*
X247908Y413956D01*
X247904Y414008D01*
X247910Y414059D01*
X247895Y414130D01*
X247889Y414201D01*
X247869Y414249D01*
X247858Y414300D01*
X247821Y414361D01*
X247793Y414427D01*
X247748Y414483D01*
X247731Y414511D01*
X247714Y414526D01*
X247688Y414558D01*
X245463Y416783D01*
X245463Y512857D01*
X248470Y515864D01*
X248514Y515925D01*
X248551Y515964D01*
X248558Y515978D01*
X248583Y516008D01*
X248595Y516038D01*
X248614Y516064D01*
X248641Y516151D01*
X248675Y516236D01*
X248679Y516277D01*
X248686Y516299D01*
X248685Y516331D01*
X248693Y516402D01*
X248693Y518748D01*
X248679Y518838D01*
X248671Y518929D01*
X248659Y518958D01*
X248654Y518990D01*
X248611Y519071D01*
X248575Y519155D01*
X248549Y519187D01*
X248538Y519208D01*
X248515Y519230D01*
X248470Y519286D01*
X247026Y520730D01*
X221395Y546361D01*
X221321Y546414D01*
X221252Y546474D01*
X221221Y546486D01*
X221195Y546505D01*
X221108Y546531D01*
X221023Y546566D01*
X220982Y546570D01*
X220960Y546577D01*
X220928Y546576D01*
X220857Y546584D01*
X216761Y546584D01*
X216741Y546581D01*
X216722Y546583D01*
X216620Y546561D01*
X216518Y546544D01*
X216501Y546535D01*
X216481Y546531D01*
X216392Y546478D01*
X216301Y546429D01*
X216287Y546415D01*
X216270Y546405D01*
X216203Y546326D01*
X216132Y546251D01*
X216123Y546233D01*
X216110Y546218D01*
X216071Y546122D01*
X216028Y546028D01*
X216026Y546008D01*
X216018Y545990D01*
X216000Y545823D01*
X216000Y544683D01*
X215107Y543790D01*
X196825Y543790D01*
X195932Y544683D01*
X195932Y553058D01*
X196825Y553952D01*
X215107Y553952D01*
X216000Y553058D01*
X216000Y551919D01*
X216003Y551899D01*
X216001Y551879D01*
X216023Y551778D01*
X216040Y551676D01*
X216049Y551659D01*
X216053Y551639D01*
X216106Y551550D01*
X216155Y551459D01*
X216169Y551445D01*
X216179Y551428D01*
X216258Y551361D01*
X216333Y551289D01*
X216351Y551281D01*
X216366Y551268D01*
X216462Y551229D01*
X216556Y551186D01*
X216576Y551184D01*
X216594Y551176D01*
X216761Y551158D01*
X223066Y551158D01*
X244164Y530060D01*
X244222Y530018D01*
X244274Y529969D01*
X244321Y529947D01*
X244363Y529917D01*
X244432Y529896D01*
X244497Y529865D01*
X244549Y529860D01*
X244599Y529844D01*
X244670Y529846D01*
X244741Y529838D01*
X244792Y529849D01*
X244844Y529851D01*
X244912Y529875D01*
X244982Y529890D01*
X245027Y529917D01*
X245075Y529935D01*
X245131Y529980D01*
X245193Y530017D01*
X245227Y530056D01*
X245267Y530089D01*
X245306Y530149D01*
X245353Y530204D01*
X245372Y530252D01*
X245400Y530296D01*
X245418Y530365D01*
X245445Y530432D01*
X245453Y530503D01*
X245461Y530534D01*
X245459Y530558D01*
X245463Y530598D01*
X245463Y578897D01*
X251490Y584924D01*
X251543Y584998D01*
X251603Y585068D01*
X251615Y585098D01*
X251634Y585124D01*
X251661Y585211D01*
X251695Y585296D01*
X251699Y585337D01*
X251706Y585359D01*
X251705Y585391D01*
X251713Y585463D01*
X251713Y596774D01*
X251710Y596794D01*
X251712Y596813D01*
X251690Y596915D01*
X251674Y597017D01*
X251664Y597034D01*
X251660Y597054D01*
X251607Y597143D01*
X251558Y597234D01*
X251544Y597248D01*
X251534Y597265D01*
X251455Y597332D01*
X251380Y597404D01*
X251362Y597412D01*
X251347Y597425D01*
X251251Y597464D01*
X251157Y597507D01*
X251137Y597509D01*
X251119Y597517D01*
X250952Y597535D01*
X249368Y597535D01*
X248288Y598615D01*
X248272Y598627D01*
X248260Y598643D01*
X248172Y598699D01*
X248089Y598759D01*
X248070Y598765D01*
X248053Y598776D01*
X247952Y598801D01*
X247853Y598831D01*
X247834Y598831D01*
X247814Y598836D01*
X247711Y598828D01*
X247608Y598825D01*
X247589Y598818D01*
X247569Y598817D01*
X247474Y598776D01*
X247377Y598741D01*
X247361Y598728D01*
X247343Y598720D01*
X247212Y598615D01*
X246132Y597535D01*
X244548Y597535D01*
X244528Y597532D01*
X244509Y597534D01*
X244407Y597512D01*
X244305Y597496D01*
X244288Y597486D01*
X244268Y597482D01*
X244179Y597429D01*
X244088Y597380D01*
X244074Y597366D01*
X244057Y597356D01*
X243990Y597277D01*
X243918Y597202D01*
X243910Y597184D01*
X243897Y597169D01*
X243858Y597073D01*
X243815Y596979D01*
X243813Y596959D01*
X243805Y596941D01*
X243787Y596774D01*
X243787Y596153D01*
X240218Y592584D01*
X216761Y592584D01*
X216741Y592581D01*
X216722Y592583D01*
X216620Y592561D01*
X216518Y592544D01*
X216501Y592535D01*
X216481Y592531D01*
X216392Y592478D01*
X216301Y592429D01*
X216287Y592415D01*
X216270Y592405D01*
X216203Y592326D01*
X216132Y592251D01*
X216123Y592233D01*
X216110Y592218D01*
X216071Y592122D01*
X216028Y592028D01*
X216026Y592008D01*
X216018Y591990D01*
X216000Y591823D01*
X216000Y590683D01*
X215107Y589790D01*
X196825Y589790D01*
X195932Y590683D01*
X195932Y599058D01*
X196825Y599952D01*
X215107Y599952D01*
X216000Y599058D01*
X216000Y597919D01*
X216003Y597899D01*
X216001Y597879D01*
X216023Y597778D01*
X216040Y597676D01*
X216049Y597659D01*
X216053Y597639D01*
X216106Y597550D01*
X216155Y597459D01*
X216169Y597445D01*
X216179Y597428D01*
X216258Y597361D01*
X216333Y597289D01*
X216351Y597281D01*
X216366Y597268D01*
X216462Y597229D01*
X216556Y597186D01*
X216576Y597184D01*
X216594Y597176D01*
X216761Y597158D01*
X235408Y597158D01*
X235479Y597169D01*
X235551Y597171D01*
X235600Y597189D01*
X235651Y597197D01*
X235714Y597231D01*
X235782Y597255D01*
X235823Y597288D01*
X235868Y597312D01*
X235918Y597364D01*
X235974Y597409D01*
X236002Y597453D01*
X236038Y597491D01*
X236068Y597556D01*
X236107Y597616D01*
X236120Y597667D01*
X236141Y597714D01*
X236149Y597785D01*
X236167Y597855D01*
X236163Y597907D01*
X236169Y597958D01*
X236153Y598028D01*
X236148Y598100D01*
X236127Y598148D01*
X236116Y598199D01*
X236079Y598260D01*
X236051Y598326D01*
X236007Y598382D01*
X235990Y598410D01*
X235975Y598422D01*
X235975Y615692D01*
X236868Y616585D01*
X246132Y616585D01*
X247212Y615505D01*
X247228Y615493D01*
X247240Y615477D01*
X247328Y615421D01*
X247411Y615361D01*
X247430Y615355D01*
X247447Y615344D01*
X247548Y615319D01*
X247647Y615289D01*
X247666Y615289D01*
X247686Y615284D01*
X247789Y615292D01*
X247892Y615295D01*
X247911Y615302D01*
X247931Y615303D01*
X248026Y615344D01*
X248123Y615379D01*
X248139Y615392D01*
X248157Y615400D01*
X248288Y615505D01*
X249368Y616585D01*
X258632Y616585D01*
X259081Y616136D01*
X259177Y616066D01*
X259273Y615996D01*
X259277Y615994D01*
X259280Y615992D01*
X259393Y615957D01*
X259507Y615921D01*
X259512Y615921D01*
X259516Y615920D01*
X259634Y615923D01*
X259753Y615925D01*
X259757Y615926D01*
X259761Y615926D01*
X259873Y615967D01*
X259985Y616006D01*
X259989Y616009D01*
X259992Y616010D01*
X260085Y616085D01*
X260179Y616158D01*
X260182Y616162D01*
X260184Y616164D01*
X260192Y616176D01*
X260278Y616293D01*
X260467Y616620D01*
X260940Y617093D01*
X261519Y617428D01*
X262166Y617601D01*
X264977Y617601D01*
X264977Y607822D01*
X264980Y607802D01*
X264978Y607783D01*
X265000Y607681D01*
X265017Y607579D01*
X265026Y607562D01*
X265030Y607542D01*
X265083Y607453D01*
X265132Y607362D01*
X265146Y607348D01*
X265156Y607331D01*
X265235Y607264D01*
X265310Y607193D01*
X265328Y607184D01*
X265343Y607171D01*
X265439Y607132D01*
X265533Y607089D01*
X265553Y607087D01*
X265571Y607079D01*
X265738Y607061D01*
X266501Y607061D01*
X266501Y607059D01*
X265738Y607059D01*
X265718Y607056D01*
X265699Y607058D01*
X265597Y607036D01*
X265495Y607019D01*
X265478Y607010D01*
X265458Y607006D01*
X265369Y606953D01*
X265278Y606904D01*
X265264Y606890D01*
X265247Y606880D01*
X265180Y606801D01*
X265109Y606726D01*
X265100Y606708D01*
X265087Y606693D01*
X265048Y606597D01*
X265005Y606503D01*
X265003Y606483D01*
X264995Y606465D01*
X264977Y606298D01*
X264977Y596519D01*
X262166Y596519D01*
X261519Y596692D01*
X260940Y597027D01*
X260467Y597500D01*
X260278Y597827D01*
X260204Y597917D01*
X260129Y598012D01*
X260125Y598014D01*
X260122Y598017D01*
X260023Y598080D01*
X259922Y598145D01*
X259918Y598146D01*
X259914Y598148D01*
X259799Y598176D01*
X259683Y598205D01*
X259679Y598204D01*
X259675Y598205D01*
X259556Y598195D01*
X259438Y598186D01*
X259434Y598184D01*
X259430Y598184D01*
X259321Y598136D01*
X259212Y598089D01*
X259208Y598086D01*
X259205Y598085D01*
X259195Y598076D01*
X259081Y597984D01*
X258632Y597535D01*
X257048Y597535D01*
X257028Y597532D01*
X257009Y597534D01*
X256907Y597512D01*
X256805Y597496D01*
X256788Y597486D01*
X256768Y597482D01*
X256679Y597429D01*
X256588Y597380D01*
X256574Y597366D01*
X256557Y597356D01*
X256490Y597277D01*
X256418Y597202D01*
X256410Y597184D01*
X256397Y597169D01*
X256358Y597073D01*
X256315Y596979D01*
X256313Y596959D01*
X256305Y596941D01*
X256287Y596774D01*
X256287Y583253D01*
X250260Y577226D01*
X250207Y577152D01*
X250147Y577082D01*
X250135Y577052D01*
X250116Y577026D01*
X250089Y576939D01*
X250055Y576854D01*
X250051Y576813D01*
X250044Y576791D01*
X250045Y576759D01*
X250037Y576687D01*
X250037Y524503D01*
X250051Y524413D01*
X250059Y524322D01*
X250071Y524292D01*
X250076Y524260D01*
X250119Y524179D01*
X250155Y524095D01*
X250181Y524063D01*
X250192Y524042D01*
X250215Y524020D01*
X250260Y523964D01*
X250741Y523483D01*
X250757Y523471D01*
X250770Y523455D01*
X250857Y523400D01*
X250941Y523339D01*
X250960Y523333D01*
X250977Y523322D01*
X251077Y523297D01*
X251176Y523267D01*
X251196Y523267D01*
X251215Y523262D01*
X251318Y523270D01*
X251422Y523273D01*
X251441Y523280D01*
X251461Y523282D01*
X251555Y523322D01*
X251653Y523358D01*
X251669Y523370D01*
X251687Y523378D01*
X251798Y523467D01*
X256198Y523467D01*
X259307Y520358D01*
X259307Y515962D01*
X256198Y512853D01*
X252242Y512853D01*
X252152Y512839D01*
X252061Y512831D01*
X252032Y512819D01*
X252000Y512814D01*
X251919Y512771D01*
X251835Y512735D01*
X251803Y512709D01*
X251782Y512698D01*
X251760Y512675D01*
X251704Y512630D01*
X250260Y511186D01*
X250207Y511112D01*
X250147Y511042D01*
X250135Y511012D01*
X250116Y510986D01*
X250089Y510899D01*
X250055Y510814D01*
X250051Y510773D01*
X250044Y510751D01*
X250045Y510719D01*
X250037Y510647D01*
X250037Y418993D01*
X250051Y418902D01*
X250059Y418812D01*
X250071Y418782D01*
X250076Y418750D01*
X250119Y418669D01*
X250155Y418585D01*
X250181Y418553D01*
X250192Y418532D01*
X250215Y418510D01*
X250260Y418454D01*
X252184Y416530D01*
X252258Y416477D01*
X252328Y416417D01*
X252358Y416405D01*
X252384Y416386D01*
X252471Y416359D01*
X252556Y416325D01*
X252597Y416321D01*
X252619Y416314D01*
X252651Y416315D01*
X252723Y416307D01*
X341431Y416307D01*
X341501Y416318D01*
X341573Y416320D01*
X341622Y416338D01*
X341673Y416346D01*
X341737Y416380D01*
X341804Y416405D01*
X341845Y416437D01*
X341891Y416462D01*
X341940Y416514D01*
X341996Y416558D01*
X342024Y416602D01*
X342060Y416640D01*
X342090Y416705D01*
X342129Y416765D01*
X342142Y416816D01*
X342164Y416863D01*
X342172Y416934D01*
X342189Y417004D01*
X342185Y417056D01*
X342191Y417107D01*
X342176Y417178D01*
X342170Y417249D01*
X342150Y417297D01*
X342139Y417348D01*
X342102Y417409D01*
X342074Y417475D01*
X342029Y417531D01*
X342012Y417559D01*
X341995Y417574D01*
X341969Y417606D01*
X340133Y419442D01*
X340133Y423838D01*
X343242Y426947D01*
X347638Y426947D01*
X350747Y423838D01*
X350747Y419442D01*
X348911Y417606D01*
X348869Y417548D01*
X348820Y417496D01*
X348798Y417449D01*
X348768Y417407D01*
X348746Y417338D01*
X348716Y417273D01*
X348711Y417221D01*
X348695Y417171D01*
X348697Y417100D01*
X348689Y417029D01*
X348700Y416978D01*
X348702Y416926D01*
X348726Y416858D01*
X348741Y416788D01*
X348768Y416743D01*
X348786Y416695D01*
X348831Y416639D01*
X348868Y416577D01*
X348907Y416543D01*
X348940Y416503D01*
X349000Y416464D01*
X349055Y416417D01*
X349103Y416398D01*
X349147Y416370D01*
X349216Y416352D01*
X349283Y416325D01*
X349354Y416317D01*
X349385Y416309D01*
X349408Y416311D01*
X349449Y416307D01*
X381947Y416307D01*
X385827Y412427D01*
X385827Y389882D01*
X385841Y389792D01*
X385849Y389701D01*
X385861Y389672D01*
X385866Y389640D01*
X385909Y389559D01*
X385945Y389475D01*
X385971Y389443D01*
X385982Y389422D01*
X386005Y389400D01*
X386050Y389344D01*
X389344Y386050D01*
X390004Y385390D01*
X390078Y385336D01*
X390148Y385277D01*
X390178Y385265D01*
X390204Y385246D01*
X390291Y385219D01*
X390376Y385185D01*
X390417Y385181D01*
X390439Y385174D01*
X390471Y385175D01*
X390542Y385167D01*
X406774Y385167D01*
X406794Y385170D01*
X406813Y385168D01*
X406915Y385190D01*
X407017Y385206D01*
X407034Y385216D01*
X407054Y385220D01*
X407143Y385273D01*
X407234Y385322D01*
X407248Y385336D01*
X407265Y385346D01*
X407332Y385425D01*
X407404Y385500D01*
X407412Y385518D01*
X407425Y385533D01*
X407464Y385629D01*
X407507Y385723D01*
X407509Y385743D01*
X407517Y385761D01*
X407535Y385928D01*
X407535Y390012D01*
X408428Y390905D01*
X412242Y390905D01*
X412262Y390908D01*
X412281Y390906D01*
X412383Y390928D01*
X412485Y390944D01*
X412502Y390954D01*
X412522Y390958D01*
X412611Y391011D01*
X412702Y391060D01*
X412716Y391074D01*
X412733Y391084D01*
X412800Y391163D01*
X412872Y391238D01*
X412880Y391256D01*
X412893Y391271D01*
X412932Y391367D01*
X412975Y391461D01*
X412977Y391481D01*
X412985Y391499D01*
X413003Y391666D01*
X413003Y398054D01*
X413000Y398074D01*
X413002Y398093D01*
X412980Y398195D01*
X412964Y398297D01*
X412954Y398314D01*
X412950Y398334D01*
X412897Y398423D01*
X412848Y398514D01*
X412834Y398528D01*
X412824Y398545D01*
X412745Y398612D01*
X412670Y398684D01*
X412652Y398692D01*
X412637Y398705D01*
X412541Y398744D01*
X412447Y398787D01*
X412427Y398789D01*
X412409Y398797D01*
X412242Y398815D01*
X411658Y398815D01*
X410765Y399708D01*
X410765Y408976D01*
X410754Y409047D01*
X410752Y409119D01*
X410734Y409168D01*
X410726Y409219D01*
X410692Y409282D01*
X410667Y409350D01*
X410635Y409391D01*
X410610Y409437D01*
X410559Y409486D01*
X410514Y409542D01*
X410470Y409570D01*
X410432Y409606D01*
X410367Y409636D01*
X410307Y409675D01*
X410256Y409688D01*
X410209Y409710D01*
X410138Y409717D01*
X410068Y409735D01*
X410016Y409731D01*
X409965Y409737D01*
X409894Y409721D01*
X409823Y409716D01*
X409775Y409695D01*
X409724Y409684D01*
X409663Y409648D01*
X409597Y409620D01*
X409541Y409575D01*
X409513Y409558D01*
X409498Y409540D01*
X409466Y409515D01*
X407338Y407387D01*
X407285Y407313D01*
X407225Y407243D01*
X407213Y407213D01*
X407194Y407187D01*
X407167Y407100D01*
X407133Y407015D01*
X407129Y406974D01*
X407122Y406952D01*
X407123Y406920D01*
X407115Y406848D01*
X407115Y399708D01*
X406222Y398815D01*
X398958Y398815D01*
X398065Y399708D01*
X398065Y412972D01*
X398958Y413865D01*
X406222Y413865D01*
X406246Y413840D01*
X406263Y413828D01*
X406275Y413813D01*
X406340Y413771D01*
X406384Y413734D01*
X406408Y413724D01*
X406446Y413696D01*
X406465Y413690D01*
X406482Y413680D01*
X406577Y413656D01*
X406612Y413642D01*
X406630Y413640D01*
X406681Y413624D01*
X406701Y413624D01*
X406721Y413620D01*
X406774Y413624D01*
X406778Y413623D01*
X406791Y413623D01*
X406813Y413627D01*
X406824Y413628D01*
X406927Y413630D01*
X406946Y413637D01*
X406966Y413639D01*
X407016Y413660D01*
X407034Y413663D01*
X407072Y413683D01*
X407158Y413715D01*
X407174Y413727D01*
X407192Y413735D01*
X407235Y413770D01*
X407251Y413778D01*
X407268Y413796D01*
X407323Y413840D01*
X411373Y417890D01*
X412936Y419453D01*
X430665Y419453D01*
X436118Y414000D01*
X436134Y413989D01*
X436146Y413973D01*
X436234Y413917D01*
X436317Y413857D01*
X436336Y413851D01*
X436353Y413840D01*
X436454Y413815D01*
X436552Y413784D01*
X436572Y413785D01*
X436592Y413780D01*
X436695Y413788D01*
X436798Y413791D01*
X436817Y413798D01*
X436837Y413799D01*
X436932Y413840D01*
X437000Y413865D01*
X444322Y413865D01*
X445215Y412972D01*
X445215Y399708D01*
X444305Y398798D01*
X444265Y398784D01*
X444214Y398776D01*
X444150Y398742D01*
X444083Y398717D01*
X444042Y398685D01*
X443996Y398660D01*
X443947Y398608D01*
X443891Y398564D01*
X443863Y398520D01*
X443827Y398482D01*
X443797Y398417D01*
X443758Y398357D01*
X443745Y398306D01*
X443723Y398259D01*
X443715Y398188D01*
X443698Y398118D01*
X443702Y398066D01*
X443696Y398015D01*
X443711Y397944D01*
X443717Y397873D01*
X443737Y397825D01*
X443748Y397774D01*
X443785Y397713D01*
X443813Y397647D01*
X443858Y397591D01*
X443875Y397563D01*
X443892Y397548D01*
X443918Y397516D01*
X473037Y368397D01*
X474600Y366834D01*
X474600Y362909D01*
X474611Y362838D01*
X474613Y362767D01*
X474631Y362718D01*
X474639Y362666D01*
X474673Y362603D01*
X474698Y362536D01*
X474730Y362495D01*
X474755Y362449D01*
X474807Y362399D01*
X474851Y362343D01*
X474895Y362315D01*
X474933Y362279D01*
X474998Y362249D01*
X475058Y362210D01*
X475109Y362198D01*
X475156Y362176D01*
X475227Y362168D01*
X475297Y362150D01*
X475349Y362154D01*
X475400Y362149D01*
X475471Y362164D01*
X475542Y362170D01*
X475590Y362190D01*
X475641Y362201D01*
X475702Y362238D01*
X475768Y362266D01*
X475824Y362311D01*
X475852Y362327D01*
X475867Y362345D01*
X475899Y362371D01*
X478654Y365126D01*
X486546Y365126D01*
X492126Y359546D01*
X492126Y351654D01*
X486546Y346074D01*
X478654Y346074D01*
X475899Y348829D01*
X475841Y348871D01*
X475789Y348921D01*
X475742Y348942D01*
X475700Y348973D01*
X475631Y348994D01*
X475566Y349024D01*
X475514Y349030D01*
X475464Y349045D01*
X475393Y349043D01*
X475322Y349051D01*
X475271Y349040D01*
X475219Y349039D01*
X475151Y349014D01*
X475081Y348999D01*
X475036Y348972D01*
X474988Y348954D01*
X474932Y348910D01*
X474870Y348873D01*
X474836Y348833D01*
X474796Y348801D01*
X474757Y348740D01*
X474710Y348686D01*
X474691Y348638D01*
X474663Y348594D01*
X474645Y348524D01*
X474618Y348458D01*
X474610Y348386D01*
X474602Y348355D01*
X474604Y348332D01*
X474600Y348291D01*
X474600Y344732D01*
X474598Y344728D01*
X474593Y344687D01*
X474586Y344664D01*
X474587Y344632D01*
X474579Y344561D01*
X474579Y339083D01*
X474594Y338993D01*
X474601Y338902D01*
X474614Y338872D01*
X474619Y338840D01*
X474662Y338759D01*
X474698Y338675D01*
X474723Y338643D01*
X474734Y338622D01*
X474758Y338600D01*
X474802Y338544D01*
X475599Y337747D01*
X475615Y337736D01*
X475628Y337720D01*
X475715Y337664D01*
X475799Y337604D01*
X475818Y337598D01*
X475835Y337587D01*
X475935Y337562D01*
X476034Y337531D01*
X476054Y337532D01*
X476073Y337527D01*
X476176Y337535D01*
X476280Y337538D01*
X476299Y337545D01*
X476319Y337546D01*
X476413Y337587D01*
X476511Y337622D01*
X476527Y337635D01*
X476545Y337642D01*
X476676Y337747D01*
X478654Y339726D01*
X486546Y339726D01*
X492126Y334146D01*
X492126Y326254D01*
X486546Y320674D01*
X478654Y320674D01*
X473074Y326254D01*
X473074Y333489D01*
X473060Y333579D01*
X473052Y333670D01*
X473040Y333700D01*
X473035Y333732D01*
X472992Y333813D01*
X472956Y333897D01*
X472930Y333929D01*
X472919Y333949D01*
X472900Y333968D01*
X472899Y333970D01*
X472893Y333976D01*
X472851Y334027D01*
X472831Y334048D01*
X472773Y334090D01*
X472721Y334139D01*
X472673Y334161D01*
X472631Y334191D01*
X472563Y334212D01*
X472498Y334243D01*
X472446Y334248D01*
X472396Y334264D01*
X472324Y334262D01*
X472253Y334270D01*
X472202Y334259D01*
X472150Y334257D01*
X472083Y334233D01*
X472013Y334218D01*
X471968Y334191D01*
X471919Y334173D01*
X471863Y334128D01*
X471802Y334091D01*
X471768Y334052D01*
X471727Y334019D01*
X471688Y333959D01*
X471642Y333904D01*
X471622Y333856D01*
X471594Y333812D01*
X471577Y333743D01*
X471550Y333676D01*
X471542Y333605D01*
X471534Y333574D01*
X471536Y333550D01*
X471531Y333510D01*
X471531Y217818D01*
X471546Y217728D01*
X471553Y217637D01*
X471566Y217607D01*
X471571Y217575D01*
X471614Y217494D01*
X471650Y217411D01*
X471675Y217378D01*
X471686Y217358D01*
X471710Y217336D01*
X471754Y217280D01*
X476943Y212091D01*
X476959Y212079D01*
X476972Y212064D01*
X477048Y212014D01*
X477062Y212002D01*
X477071Y211999D01*
X477143Y211947D01*
X477162Y211942D01*
X477178Y211931D01*
X477279Y211905D01*
X477378Y211875D01*
X477398Y211876D01*
X477417Y211871D01*
X477520Y211879D01*
X477624Y211881D01*
X477642Y211888D01*
X477662Y211890D01*
X477757Y211930D01*
X477855Y211966D01*
X477870Y211978D01*
X477889Y211986D01*
X477962Y212045D01*
X477965Y212047D01*
X477969Y212050D01*
X478020Y212091D01*
X478654Y212726D01*
X486546Y212726D01*
X492126Y207146D01*
X492126Y199254D01*
X486546Y193674D01*
X478654Y193674D01*
X473074Y199254D01*
X473074Y207146D01*
X473709Y207780D01*
X473721Y207797D01*
X473736Y207809D01*
X473792Y207896D01*
X473853Y207980D01*
X473858Y207999D01*
X473869Y208016D01*
X473895Y208117D01*
X473925Y208215D01*
X473924Y208235D01*
X473929Y208255D01*
X473921Y208358D01*
X473919Y208461D01*
X473912Y208480D01*
X473910Y208500D01*
X473870Y208595D01*
X473834Y208692D01*
X473822Y208708D01*
X473814Y208726D01*
X473709Y208857D01*
X466958Y215608D01*
X466958Y223049D01*
X466946Y223119D01*
X466945Y223191D01*
X466927Y223240D01*
X466918Y223291D01*
X466885Y223355D01*
X466860Y223422D01*
X466828Y223463D01*
X466803Y223509D01*
X466751Y223558D01*
X466706Y223614D01*
X466663Y223642D01*
X466625Y223678D01*
X466560Y223708D01*
X466499Y223747D01*
X466449Y223760D01*
X466402Y223782D01*
X466330Y223790D01*
X466261Y223807D01*
X466209Y223803D01*
X466157Y223809D01*
X466087Y223794D01*
X466016Y223788D01*
X465968Y223768D01*
X465917Y223757D01*
X465855Y223720D01*
X465789Y223692D01*
X465733Y223647D01*
X465706Y223631D01*
X465691Y223613D01*
X465658Y223587D01*
X461146Y219074D01*
X453254Y219074D01*
X447674Y224654D01*
X447674Y232546D01*
X449822Y234694D01*
X449864Y234752D01*
X449914Y234804D01*
X449935Y234851D01*
X449966Y234893D01*
X449987Y234962D01*
X450017Y235027D01*
X450023Y235079D01*
X450038Y235129D01*
X450036Y235200D01*
X450044Y235271D01*
X450033Y235322D01*
X450032Y235374D01*
X450007Y235442D01*
X449992Y235512D01*
X449965Y235557D01*
X449947Y235605D01*
X449903Y235661D01*
X449866Y235723D01*
X449826Y235757D01*
X449794Y235797D01*
X449733Y235836D01*
X449679Y235883D01*
X449631Y235902D01*
X449587Y235930D01*
X449517Y235948D01*
X449451Y235975D01*
X449379Y235983D01*
X449348Y235991D01*
X449325Y235989D01*
X449284Y235993D01*
X446908Y235993D01*
X446818Y235979D01*
X446727Y235971D01*
X446697Y235959D01*
X446665Y235954D01*
X446585Y235911D01*
X446501Y235875D01*
X446469Y235849D01*
X446448Y235838D01*
X446426Y235815D01*
X446370Y235770D01*
X444470Y233870D01*
X444417Y233796D01*
X444357Y233727D01*
X444345Y233697D01*
X444326Y233670D01*
X444299Y233584D01*
X444265Y233499D01*
X444261Y233458D01*
X444254Y233435D01*
X444255Y233403D01*
X444247Y233332D01*
X444247Y210381D01*
X442907Y209041D01*
X436110Y209041D01*
X436040Y209030D01*
X435968Y209028D01*
X435919Y209010D01*
X435868Y209002D01*
X435804Y208968D01*
X435737Y208943D01*
X435696Y208911D01*
X435650Y208886D01*
X435601Y208834D01*
X435545Y208790D01*
X435517Y208746D01*
X435481Y208708D01*
X435451Y208643D01*
X435412Y208583D01*
X435399Y208532D01*
X435377Y208485D01*
X435369Y208414D01*
X435352Y208344D01*
X435356Y208292D01*
X435350Y208241D01*
X435365Y208170D01*
X435371Y208099D01*
X435391Y208051D01*
X435402Y208000D01*
X435439Y207939D01*
X435467Y207873D01*
X435512Y207817D01*
X435529Y207789D01*
X435546Y207774D01*
X435572Y207742D01*
X439664Y203650D01*
X439738Y203597D01*
X439808Y203537D01*
X439838Y203525D01*
X439864Y203506D01*
X439951Y203479D01*
X440036Y203445D01*
X440077Y203441D01*
X440099Y203434D01*
X440131Y203435D01*
X440203Y203427D01*
X444158Y203427D01*
X446375Y201210D01*
X446433Y201168D01*
X446485Y201119D01*
X446532Y201097D01*
X446574Y201067D01*
X446643Y201045D01*
X446708Y201015D01*
X446760Y201010D01*
X446810Y200994D01*
X446881Y200996D01*
X446952Y200988D01*
X447003Y200999D01*
X447055Y201001D01*
X447123Y201025D01*
X447193Y201040D01*
X447238Y201067D01*
X447286Y201085D01*
X447342Y201130D01*
X447404Y201167D01*
X447438Y201206D01*
X447478Y201239D01*
X447517Y201299D01*
X447564Y201354D01*
X447583Y201402D01*
X447611Y201446D01*
X447629Y201515D01*
X447656Y201582D01*
X447664Y201653D01*
X447672Y201684D01*
X447670Y201707D01*
X447674Y201748D01*
X447674Y207146D01*
X453254Y212726D01*
X461146Y212726D01*
X466726Y207146D01*
X466726Y199254D01*
X461146Y193674D01*
X453254Y193674D01*
X448566Y198362D01*
X448508Y198404D01*
X448456Y198454D01*
X448409Y198475D01*
X448367Y198506D01*
X448298Y198527D01*
X448233Y198557D01*
X448181Y198563D01*
X448131Y198578D01*
X448060Y198576D01*
X447989Y198584D01*
X447938Y198573D01*
X447886Y198572D01*
X447818Y198547D01*
X447748Y198532D01*
X447703Y198505D01*
X447655Y198487D01*
X447599Y198443D01*
X447537Y198406D01*
X447503Y198366D01*
X447463Y198334D01*
X447424Y198273D01*
X447377Y198219D01*
X447358Y198171D01*
X447330Y198127D01*
X447312Y198057D01*
X447285Y197991D01*
X447277Y197919D01*
X447269Y197888D01*
X447271Y197865D01*
X447267Y197824D01*
X447267Y195922D01*
X444158Y192813D01*
X439762Y192813D01*
X436653Y195922D01*
X436653Y199877D01*
X436639Y199968D01*
X436631Y200058D01*
X436619Y200088D01*
X436614Y200120D01*
X436571Y200201D01*
X436535Y200285D01*
X436509Y200317D01*
X436498Y200338D01*
X436475Y200360D01*
X436430Y200416D01*
X431076Y205770D01*
X431002Y205823D01*
X430932Y205883D01*
X430902Y205895D01*
X430876Y205914D01*
X430789Y205941D01*
X430704Y205975D01*
X430663Y205979D01*
X430641Y205986D01*
X430609Y205985D01*
X430537Y205993D01*
X409393Y205993D01*
X409303Y205979D01*
X409212Y205971D01*
X409183Y205959D01*
X409151Y205954D01*
X409070Y205911D01*
X408986Y205875D01*
X408954Y205849D01*
X408933Y205838D01*
X408911Y205815D01*
X408855Y205770D01*
X406823Y203738D01*
X406812Y203722D01*
X406796Y203710D01*
X406740Y203622D01*
X406680Y203539D01*
X406674Y203520D01*
X406663Y203503D01*
X406638Y203402D01*
X406607Y203303D01*
X406608Y203284D01*
X406603Y203264D01*
X406611Y203161D01*
X406614Y203058D01*
X406620Y203039D01*
X406622Y203019D01*
X406662Y202924D01*
X406698Y202827D01*
X406711Y202811D01*
X406718Y202793D01*
X406823Y202662D01*
X409167Y200318D01*
X409167Y195922D01*
X406058Y192813D01*
X401662Y192813D01*
X398553Y195922D01*
X398553Y199877D01*
X398539Y199968D01*
X398531Y200058D01*
X398519Y200088D01*
X398514Y200120D01*
X398471Y200201D01*
X398435Y200285D01*
X398409Y200317D01*
X398398Y200338D01*
X398375Y200360D01*
X398330Y200416D01*
X393260Y205486D01*
X393186Y205539D01*
X393117Y205598D01*
X393087Y205611D01*
X393060Y205629D01*
X392973Y205656D01*
X392889Y205690D01*
X392848Y205695D01*
X392825Y205702D01*
X392793Y205701D01*
X392722Y205709D01*
X319975Y205709D01*
X317627Y208057D01*
X317611Y208069D01*
X317598Y208085D01*
X317511Y208141D01*
X317427Y208201D01*
X317408Y208207D01*
X317391Y208218D01*
X317291Y208243D01*
X317192Y208273D01*
X317172Y208273D01*
X317153Y208278D01*
X317050Y208270D01*
X316946Y208267D01*
X316927Y208260D01*
X316907Y208259D01*
X316812Y208218D01*
X316715Y208182D01*
X316700Y208170D01*
X316681Y208162D01*
X316550Y208057D01*
X316546Y208053D01*
X312150Y208053D01*
X311866Y208337D01*
X311808Y208379D01*
X311756Y208428D01*
X311709Y208450D01*
X311667Y208480D01*
X311598Y208502D01*
X311533Y208532D01*
X311481Y208537D01*
X311431Y208553D01*
X311360Y208551D01*
X311289Y208559D01*
X311238Y208548D01*
X311186Y208546D01*
X311118Y208522D01*
X311048Y208507D01*
X311003Y208480D01*
X310955Y208462D01*
X310899Y208417D01*
X310837Y208380D01*
X310803Y208341D01*
X310763Y208308D01*
X310724Y208248D01*
X310677Y208193D01*
X310658Y208145D01*
X310630Y208101D01*
X310612Y208032D01*
X310585Y207965D01*
X310577Y207894D01*
X310569Y207863D01*
X310571Y207840D01*
X310567Y207799D01*
X310567Y205260D01*
X310570Y205240D01*
X310568Y205221D01*
X310590Y205119D01*
X310606Y205017D01*
X310616Y205000D01*
X310620Y204980D01*
X310673Y204891D01*
X310722Y204800D01*
X310736Y204786D01*
X310746Y204769D01*
X310825Y204702D01*
X310900Y204630D01*
X310918Y204622D01*
X310933Y204609D01*
X311029Y204570D01*
X311123Y204527D01*
X311143Y204525D01*
X311161Y204517D01*
X311328Y204499D01*
X315723Y204499D01*
X318831Y201390D01*
X318831Y196994D01*
X315723Y193885D01*
X311326Y193885D01*
X308218Y196994D01*
X308218Y199739D01*
X308216Y199748D01*
X308217Y199751D01*
X308213Y199769D01*
X308203Y199829D01*
X308196Y199920D01*
X308183Y199950D01*
X308178Y199982D01*
X308135Y200063D01*
X308100Y200147D01*
X308074Y200179D01*
X308063Y200199D01*
X308040Y200222D01*
X307995Y200278D01*
X305993Y202279D01*
X305993Y224441D01*
X312226Y230674D01*
X312238Y230690D01*
X312254Y230702D01*
X312310Y230790D01*
X312370Y230874D01*
X312376Y230892D01*
X312387Y230909D01*
X312412Y231010D01*
X312442Y231109D01*
X312442Y231129D01*
X312447Y231148D01*
X312439Y231251D01*
X312436Y231354D01*
X312429Y231373D01*
X312427Y231393D01*
X312387Y231488D01*
X312351Y231585D01*
X312339Y231601D01*
X312331Y231619D01*
X312226Y231750D01*
X311074Y232903D01*
X311074Y237299D01*
X314183Y240407D01*
X318579Y240407D01*
X321687Y237299D01*
X321687Y232903D01*
X318579Y229794D01*
X318130Y229794D01*
X318040Y229779D01*
X317949Y229772D01*
X317919Y229759D01*
X317887Y229754D01*
X317807Y229712D01*
X317722Y229676D01*
X317690Y229650D01*
X317670Y229639D01*
X317648Y229616D01*
X317591Y229571D01*
X316310Y228290D01*
X316268Y228232D01*
X316219Y228180D01*
X316197Y228132D01*
X316167Y228090D01*
X316146Y228022D01*
X316115Y227957D01*
X316110Y227905D01*
X316094Y227855D01*
X316096Y227783D01*
X316088Y227712D01*
X316099Y227661D01*
X316101Y227609D01*
X316125Y227542D01*
X316141Y227472D01*
X316167Y227427D01*
X316185Y227378D01*
X316230Y227322D01*
X316267Y227261D01*
X316306Y227227D01*
X316339Y227186D01*
X316399Y227147D01*
X316454Y227101D01*
X316502Y227081D01*
X316546Y227053D01*
X316615Y227036D01*
X316682Y227009D01*
X316753Y227001D01*
X316784Y226993D01*
X316808Y226995D01*
X316849Y226990D01*
X320554Y226990D01*
X323663Y223882D01*
X323663Y220495D01*
X323677Y220405D01*
X323685Y220314D01*
X323697Y220284D01*
X323702Y220252D01*
X323745Y220171D01*
X323781Y220088D01*
X323807Y220055D01*
X323818Y220035D01*
X323841Y220013D01*
X323886Y219957D01*
X326985Y216858D01*
X327059Y216805D01*
X327128Y216745D01*
X327158Y216733D01*
X327184Y216714D01*
X327271Y216687D01*
X327356Y216653D01*
X327397Y216649D01*
X327419Y216642D01*
X327452Y216643D01*
X327523Y216635D01*
X407321Y216635D01*
X410118Y213838D01*
X410192Y213785D01*
X410261Y213725D01*
X410291Y213713D01*
X410317Y213694D01*
X410404Y213667D01*
X410489Y213633D01*
X410530Y213629D01*
X410553Y213622D01*
X410585Y213623D01*
X410656Y213615D01*
X438912Y213615D01*
X438932Y213618D01*
X438951Y213616D01*
X439053Y213638D01*
X439155Y213654D01*
X439172Y213664D01*
X439192Y213668D01*
X439281Y213721D01*
X439372Y213770D01*
X439386Y213784D01*
X439403Y213794D01*
X439470Y213873D01*
X439542Y213948D01*
X439550Y213966D01*
X439563Y213981D01*
X439602Y214077D01*
X439645Y214171D01*
X439647Y214191D01*
X439655Y214209D01*
X439673Y214376D01*
X439673Y235542D01*
X443136Y239004D01*
X443189Y239078D01*
X443248Y239148D01*
X443261Y239178D01*
X443279Y239204D01*
X443306Y239291D01*
X443340Y239376D01*
X443345Y239417D01*
X443352Y239439D01*
X443351Y239471D01*
X443359Y239543D01*
X443359Y243498D01*
X445034Y245174D01*
X445076Y245232D01*
X445126Y245284D01*
X445148Y245331D01*
X445178Y245373D01*
X445199Y245442D01*
X445229Y245507D01*
X445235Y245559D01*
X445250Y245609D01*
X445249Y245680D01*
X445256Y245752D01*
X445245Y245802D01*
X445244Y245854D01*
X445219Y245922D01*
X445204Y245992D01*
X445177Y246037D01*
X445160Y246085D01*
X445115Y246142D01*
X445078Y246203D01*
X445038Y246237D01*
X445006Y246278D01*
X444946Y246316D01*
X444891Y246363D01*
X444843Y246382D01*
X444799Y246411D01*
X444729Y246428D01*
X444663Y246455D01*
X444592Y246463D01*
X444560Y246471D01*
X444537Y246469D01*
X444496Y246473D01*
X440399Y246473D01*
X437463Y249410D01*
X437389Y249463D01*
X437319Y249523D01*
X437289Y249535D01*
X437263Y249554D01*
X437176Y249580D01*
X437091Y249615D01*
X437050Y249619D01*
X437028Y249626D01*
X436996Y249625D01*
X436924Y249633D01*
X413475Y249633D01*
X413385Y249618D01*
X413294Y249611D01*
X413264Y249599D01*
X413232Y249593D01*
X413152Y249551D01*
X413068Y249515D01*
X413036Y249489D01*
X413015Y249478D01*
X412993Y249455D01*
X412937Y249410D01*
X410140Y246613D01*
X405744Y246613D01*
X402635Y249722D01*
X402635Y254118D01*
X402919Y254401D01*
X402961Y254460D01*
X403010Y254512D01*
X403032Y254559D01*
X403062Y254601D01*
X403083Y254670D01*
X403114Y254735D01*
X403119Y254786D01*
X403135Y254836D01*
X403133Y254908D01*
X403141Y254979D01*
X403130Y255030D01*
X403128Y255082D01*
X403104Y255149D01*
X403088Y255220D01*
X403062Y255264D01*
X403044Y255313D01*
X402999Y255369D01*
X402962Y255431D01*
X402923Y255465D01*
X402890Y255505D01*
X402830Y255544D01*
X402775Y255591D01*
X402727Y255610D01*
X402683Y255638D01*
X402614Y255656D01*
X402547Y255683D01*
X402476Y255690D01*
X402445Y255698D01*
X402421Y255696D01*
X402380Y255701D01*
X329333Y255701D01*
X329243Y255686D01*
X329152Y255679D01*
X329122Y255666D01*
X329090Y255661D01*
X329010Y255619D01*
X328926Y255583D01*
X328893Y255557D01*
X328873Y255546D01*
X328851Y255523D01*
X328795Y255478D01*
X328376Y255059D01*
X326813Y253496D01*
X313191Y253496D01*
X302771Y263916D01*
X302771Y263917D01*
X302101Y264586D01*
X302101Y269052D01*
X302087Y269142D01*
X302079Y269233D01*
X302067Y269263D01*
X302062Y269295D01*
X302019Y269375D01*
X301983Y269459D01*
X301957Y269491D01*
X301947Y269512D01*
X301923Y269534D01*
X301878Y269590D01*
X286542Y284927D01*
X286468Y284980D01*
X286398Y285039D01*
X286368Y285052D01*
X286342Y285070D01*
X286255Y285097D01*
X286170Y285131D01*
X286129Y285136D01*
X286107Y285143D01*
X286075Y285142D01*
X286003Y285150D01*
X246520Y285150D01*
X246430Y285135D01*
X246339Y285128D01*
X246309Y285115D01*
X246277Y285110D01*
X246197Y285067D01*
X246113Y285032D01*
X246081Y285006D01*
X246060Y284995D01*
X246038Y284972D01*
X245982Y284927D01*
X201618Y240563D01*
X201571Y240497D01*
X201560Y240486D01*
X201558Y240481D01*
X201505Y240419D01*
X201493Y240389D01*
X201474Y240363D01*
X201447Y240276D01*
X201413Y240191D01*
X201409Y240150D01*
X201402Y240128D01*
X201403Y240096D01*
X201395Y240024D01*
X201395Y230219D01*
X196178Y225003D01*
X159196Y225003D01*
X159106Y224988D01*
X159015Y224981D01*
X158985Y224968D01*
X158953Y224963D01*
X158872Y224920D01*
X158789Y224884D01*
X158756Y224859D01*
X158736Y224848D01*
X158714Y224824D01*
X158658Y224780D01*
X155861Y221983D01*
X151464Y221983D01*
X148356Y225091D01*
X148356Y229488D01*
X151464Y232596D01*
X155861Y232596D01*
X158658Y229799D01*
X158731Y229746D01*
X158801Y229687D01*
X158831Y229674D01*
X158857Y229656D01*
X158944Y229629D01*
X159029Y229595D01*
X159070Y229590D01*
X159092Y229583D01*
X159125Y229584D01*
X159196Y229576D01*
X187801Y229576D01*
X187872Y229588D01*
X187944Y229590D01*
X187993Y229607D01*
X188044Y229616D01*
X188107Y229649D01*
X188175Y229674D01*
X188215Y229707D01*
X188261Y229731D01*
X188311Y229783D01*
X188367Y229828D01*
X188395Y229872D01*
X188431Y229909D01*
X188461Y229974D01*
X188500Y230035D01*
X188512Y230085D01*
X188534Y230132D01*
X188542Y230204D01*
X188560Y230273D01*
X188556Y230325D01*
X188561Y230377D01*
X188546Y230447D01*
X188541Y230518D01*
X188520Y230566D01*
X188509Y230617D01*
X188472Y230679D01*
X188444Y230745D01*
X188400Y230801D01*
X188383Y230828D01*
X188365Y230844D01*
X188340Y230876D01*
X187733Y231482D01*
X187733Y235878D01*
X190530Y238675D01*
X190583Y238749D01*
X190643Y238819D01*
X190655Y238849D01*
X190674Y238875D01*
X190701Y238962D01*
X190735Y239047D01*
X190739Y239088D01*
X190746Y239110D01*
X190745Y239142D01*
X190753Y239213D01*
X190753Y240477D01*
X193926Y243650D01*
X193968Y243708D01*
X194018Y243760D01*
X194040Y243807D01*
X194070Y243849D01*
X194091Y243918D01*
X194121Y243983D01*
X194127Y244035D01*
X194142Y244085D01*
X194140Y244156D01*
X194148Y244227D01*
X194137Y244278D01*
X194136Y244330D01*
X194111Y244398D01*
X194096Y244468D01*
X194069Y244513D01*
X194051Y244561D01*
X194007Y244617D01*
X193970Y244679D01*
X193930Y244713D01*
X193898Y244753D01*
X193837Y244792D01*
X193783Y244839D01*
X193735Y244858D01*
X193691Y244886D01*
X193621Y244904D01*
X193555Y244931D01*
X193483Y244939D01*
X193452Y244947D01*
X193429Y244945D01*
X193388Y244949D01*
X163419Y244949D01*
X158605Y249763D01*
X158531Y249816D01*
X158461Y249876D01*
X158431Y249888D01*
X158405Y249907D01*
X158318Y249933D01*
X158233Y249968D01*
X158192Y249972D01*
X158170Y249979D01*
X158138Y249978D01*
X158067Y249986D01*
X157459Y249986D01*
X154350Y253095D01*
X154350Y257491D01*
X157459Y260600D01*
X161855Y260600D01*
X164964Y257491D01*
X164964Y253095D01*
X163891Y252022D01*
X163879Y252006D01*
X163863Y251993D01*
X163808Y251908D01*
X163806Y251905D01*
X163805Y251902D01*
X163747Y251822D01*
X163741Y251803D01*
X163730Y251786D01*
X163706Y251690D01*
X163702Y251682D01*
X163701Y251674D01*
X163675Y251587D01*
X163675Y251567D01*
X163670Y251548D01*
X163677Y251457D01*
X163675Y251438D01*
X163679Y251420D01*
X163681Y251341D01*
X163688Y251322D01*
X163689Y251303D01*
X163720Y251230D01*
X163727Y251197D01*
X163743Y251171D01*
X163765Y251110D01*
X163778Y251094D01*
X163786Y251076D01*
X163841Y251007D01*
X163854Y250986D01*
X163867Y250974D01*
X163891Y250945D01*
X165090Y249746D01*
X165164Y249693D01*
X165234Y249633D01*
X165264Y249621D01*
X165290Y249602D01*
X165377Y249575D01*
X165462Y249541D01*
X165503Y249537D01*
X165525Y249530D01*
X165557Y249531D01*
X165628Y249523D01*
X176844Y249523D01*
X176914Y249534D01*
X176986Y249536D01*
X177035Y249554D01*
X177086Y249562D01*
X177150Y249596D01*
X177217Y249621D01*
X177258Y249653D01*
X177304Y249678D01*
X177353Y249730D01*
X177409Y249774D01*
X177437Y249818D01*
X177473Y249856D01*
X177503Y249921D01*
X177542Y249981D01*
X177555Y250032D01*
X177577Y250079D01*
X177585Y250150D01*
X177602Y250220D01*
X177598Y250272D01*
X177604Y250323D01*
X177589Y250394D01*
X177583Y250465D01*
X177563Y250513D01*
X177552Y250564D01*
X177515Y250625D01*
X177487Y250691D01*
X177442Y250747D01*
X177425Y250775D01*
X177408Y250790D01*
X177382Y250822D01*
X175033Y253171D01*
X175033Y257567D01*
X178142Y260676D01*
X182538Y260676D01*
X185335Y257879D01*
X185409Y257826D01*
X185479Y257766D01*
X185509Y257754D01*
X185535Y257735D01*
X185622Y257708D01*
X185707Y257674D01*
X185748Y257670D01*
X185770Y257663D01*
X185802Y257664D01*
X185873Y257656D01*
X198226Y257656D01*
X198317Y257670D01*
X198407Y257678D01*
X198437Y257690D01*
X198469Y257695D01*
X198550Y257738D01*
X198634Y257774D01*
X198666Y257800D01*
X198687Y257811D01*
X198709Y257834D01*
X198765Y257879D01*
X227840Y286954D01*
X227882Y287012D01*
X227932Y287065D01*
X227954Y287112D01*
X227984Y287154D01*
X228005Y287222D01*
X228035Y287288D01*
X228041Y287339D01*
X228056Y287389D01*
X228054Y287461D01*
X228062Y287532D01*
X228051Y287583D01*
X228050Y287635D01*
X228025Y287702D01*
X228010Y287772D01*
X227983Y287817D01*
X227965Y287866D01*
X227921Y287922D01*
X227884Y287984D01*
X227844Y288017D01*
X227812Y288058D01*
X227751Y288097D01*
X227697Y288143D01*
X227649Y288163D01*
X227605Y288191D01*
X227535Y288209D01*
X227469Y288235D01*
X227397Y288243D01*
X227366Y288251D01*
X227343Y288249D01*
X227302Y288254D01*
X226343Y288254D01*
X226253Y288239D01*
X226162Y288232D01*
X226133Y288219D01*
X226101Y288214D01*
X226020Y288171D01*
X225936Y288136D01*
X225904Y288110D01*
X225883Y288099D01*
X225861Y288076D01*
X225805Y288031D01*
X224471Y286696D01*
X216738Y286696D01*
X216648Y286682D01*
X216557Y286675D01*
X216527Y286662D01*
X216495Y286657D01*
X216415Y286614D01*
X216331Y286578D01*
X216299Y286553D01*
X216278Y286542D01*
X216256Y286518D01*
X216200Y286474D01*
X213403Y283676D01*
X209007Y283676D01*
X205898Y286785D01*
X205898Y287186D01*
X205886Y287257D01*
X205885Y287329D01*
X205867Y287378D01*
X205858Y287429D01*
X205825Y287492D01*
X205800Y287560D01*
X205768Y287600D01*
X205743Y287646D01*
X205691Y287696D01*
X205646Y287752D01*
X205603Y287780D01*
X205565Y287816D01*
X205500Y287846D01*
X205439Y287885D01*
X205389Y287897D01*
X205342Y287919D01*
X205270Y287927D01*
X205201Y287945D01*
X205149Y287941D01*
X205097Y287946D01*
X205027Y287931D01*
X204956Y287926D01*
X204908Y287905D01*
X204857Y287894D01*
X204795Y287857D01*
X204729Y287829D01*
X204673Y287785D01*
X204646Y287768D01*
X204631Y287750D01*
X204598Y287725D01*
X203650Y286776D01*
X203597Y286702D01*
X203537Y286632D01*
X203525Y286602D01*
X203506Y286576D01*
X203479Y286489D01*
X203445Y286404D01*
X203441Y286363D01*
X203434Y286341D01*
X203435Y286309D01*
X203427Y286237D01*
X203427Y284822D01*
X200318Y281713D01*
X195922Y281713D01*
X192813Y284822D01*
X192813Y289218D01*
X195922Y292327D01*
X198519Y292327D01*
X198589Y292338D01*
X198661Y292340D01*
X198710Y292358D01*
X198761Y292366D01*
X198825Y292400D01*
X198892Y292425D01*
X198933Y292457D01*
X198979Y292482D01*
X199028Y292534D01*
X199084Y292578D01*
X199112Y292622D01*
X199148Y292660D01*
X199178Y292725D01*
X199217Y292785D01*
X199230Y292836D01*
X199252Y292883D01*
X199260Y292954D01*
X199277Y293024D01*
X199273Y293076D01*
X199279Y293127D01*
X199264Y293198D01*
X199258Y293269D01*
X199238Y293317D01*
X199227Y293368D01*
X199190Y293429D01*
X199162Y293495D01*
X199117Y293551D01*
X199100Y293579D01*
X199083Y293594D01*
X199057Y293626D01*
X196527Y296156D01*
X196527Y300552D01*
X198113Y302138D01*
X198155Y302197D01*
X198205Y302249D01*
X198227Y302296D01*
X198257Y302338D01*
X198278Y302407D01*
X198308Y302472D01*
X198314Y302523D01*
X198329Y302573D01*
X198327Y302645D01*
X198335Y302716D01*
X198324Y302767D01*
X198323Y302819D01*
X198298Y302886D01*
X198283Y302956D01*
X198256Y303001D01*
X198239Y303050D01*
X198194Y303106D01*
X198157Y303168D01*
X198117Y303201D01*
X198085Y303242D01*
X198025Y303281D01*
X197970Y303327D01*
X197922Y303347D01*
X197878Y303375D01*
X197808Y303393D01*
X197742Y303419D01*
X197671Y303427D01*
X197639Y303435D01*
X197616Y303433D01*
X197575Y303438D01*
X176538Y303438D01*
X176448Y303423D01*
X176357Y303416D01*
X176327Y303403D01*
X176295Y303398D01*
X176214Y303355D01*
X176130Y303320D01*
X176098Y303294D01*
X176078Y303283D01*
X176055Y303260D01*
X175999Y303215D01*
X158354Y285569D01*
X158301Y285495D01*
X158241Y285426D01*
X158229Y285396D01*
X158210Y285369D01*
X158184Y285283D01*
X158149Y285198D01*
X158145Y285157D01*
X158138Y285134D01*
X158139Y285102D01*
X158131Y285031D01*
X158131Y281075D01*
X155022Y277967D01*
X150626Y277967D01*
X147517Y281075D01*
X147517Y285472D01*
X150626Y288580D01*
X154582Y288580D01*
X154672Y288595D01*
X154763Y288602D01*
X154792Y288615D01*
X154824Y288620D01*
X154905Y288663D01*
X154989Y288698D01*
X155021Y288724D01*
X155042Y288735D01*
X155064Y288758D01*
X155120Y288803D01*
X174328Y308011D01*
X204308Y308011D01*
X204378Y308023D01*
X204450Y308025D01*
X204499Y308043D01*
X204550Y308051D01*
X204614Y308085D01*
X204681Y308109D01*
X204722Y308142D01*
X204768Y308166D01*
X204817Y308218D01*
X204873Y308263D01*
X204901Y308307D01*
X204937Y308344D01*
X204967Y308409D01*
X205006Y308470D01*
X205019Y308520D01*
X205041Y308568D01*
X205049Y308639D01*
X205066Y308708D01*
X205062Y308760D01*
X205068Y308812D01*
X205053Y308882D01*
X205047Y308954D01*
X205027Y309001D01*
X205016Y309052D01*
X204979Y309114D01*
X204951Y309180D01*
X204906Y309236D01*
X204889Y309263D01*
X204872Y309279D01*
X204846Y309311D01*
X203454Y310703D01*
X203454Y315099D01*
X206563Y318207D01*
X210959Y318207D01*
X214067Y315099D01*
X214067Y311821D01*
X214071Y311801D01*
X214069Y311781D01*
X214091Y311680D01*
X214107Y311578D01*
X214117Y311560D01*
X214121Y311541D01*
X214174Y311452D01*
X214222Y311360D01*
X214237Y311347D01*
X214247Y311330D01*
X214326Y311262D01*
X214401Y311191D01*
X214419Y311183D01*
X214434Y311170D01*
X214530Y311131D01*
X214624Y311087D01*
X214643Y311085D01*
X214662Y311078D01*
X214829Y311059D01*
X298457Y311059D01*
X298548Y311074D01*
X298638Y311081D01*
X298668Y311094D01*
X298700Y311099D01*
X298781Y311142D01*
X298865Y311177D01*
X298897Y311203D01*
X298918Y311214D01*
X298940Y311237D01*
X298996Y311282D01*
X316387Y328674D01*
X316429Y328732D01*
X316478Y328784D01*
X316500Y328831D01*
X316531Y328873D01*
X316552Y328942D01*
X316582Y329007D01*
X316588Y329059D01*
X316603Y329109D01*
X316601Y329180D01*
X316609Y329251D01*
X316598Y329302D01*
X316597Y329354D01*
X316572Y329422D01*
X316557Y329492D01*
X316530Y329537D01*
X316512Y329585D01*
X316467Y329641D01*
X316431Y329703D01*
X316391Y329737D01*
X316359Y329777D01*
X316298Y329816D01*
X316244Y329863D01*
X316196Y329882D01*
X316152Y329910D01*
X316082Y329928D01*
X316016Y329955D01*
X315944Y329963D01*
X315913Y329971D01*
X315890Y329969D01*
X315849Y329973D01*
X312762Y329973D01*
X309653Y333082D01*
X309653Y337478D01*
X312762Y340587D01*
X317158Y340587D01*
X317415Y340330D01*
X317489Y340277D01*
X317559Y340217D01*
X317589Y340205D01*
X317615Y340186D01*
X317702Y340159D01*
X317787Y340125D01*
X317828Y340121D01*
X317850Y340114D01*
X317882Y340115D01*
X317953Y340107D01*
X324667Y340107D01*
X324757Y340121D01*
X324848Y340129D01*
X324877Y340141D01*
X324909Y340146D01*
X324990Y340189D01*
X325074Y340225D01*
X325106Y340251D01*
X325127Y340262D01*
X325149Y340285D01*
X325205Y340330D01*
X328002Y343127D01*
X329982Y343127D01*
X330052Y343138D01*
X330124Y343140D01*
X330173Y343158D01*
X330224Y343166D01*
X330288Y343200D01*
X330355Y343225D01*
X330396Y343257D01*
X330442Y343282D01*
X330491Y343334D01*
X330547Y343378D01*
X330575Y343422D01*
X330611Y343460D01*
X330641Y343525D01*
X330680Y343585D01*
X330693Y343636D01*
X330715Y343683D01*
X330723Y343754D01*
X330740Y343824D01*
X330736Y343876D01*
X330742Y343927D01*
X330727Y343998D01*
X330721Y344069D01*
X330701Y344117D01*
X330690Y344168D01*
X330653Y344229D01*
X330625Y344295D01*
X330580Y344351D01*
X330563Y344379D01*
X330546Y344394D01*
X330520Y344426D01*
X327794Y347152D01*
X327778Y347164D01*
X327765Y347180D01*
X327678Y347236D01*
X327594Y347296D01*
X327575Y347302D01*
X327558Y347313D01*
X327458Y347338D01*
X327359Y347368D01*
X327339Y347368D01*
X327320Y347373D01*
X327217Y347365D01*
X327113Y347362D01*
X327094Y347355D01*
X327074Y347353D01*
X326979Y347313D01*
X326882Y347277D01*
X326866Y347265D01*
X326848Y347257D01*
X326717Y347152D01*
X325259Y345694D01*
X320863Y345694D01*
X317754Y348803D01*
X317754Y353199D01*
X320863Y356307D01*
X325259Y356307D01*
X328392Y353174D01*
X328402Y353151D01*
X328407Y353119D01*
X328450Y353038D01*
X328486Y352954D01*
X328511Y352922D01*
X328522Y352902D01*
X328546Y352879D01*
X328590Y352823D01*
X339814Y341600D01*
X341377Y340037D01*
X341377Y337058D01*
X341380Y337038D01*
X341378Y337019D01*
X341400Y336917D01*
X341416Y336815D01*
X341426Y336798D01*
X341430Y336778D01*
X341483Y336689D01*
X341532Y336598D01*
X341546Y336584D01*
X341556Y336567D01*
X341635Y336500D01*
X341710Y336428D01*
X341728Y336420D01*
X341743Y336407D01*
X341839Y336368D01*
X341933Y336325D01*
X341953Y336323D01*
X341971Y336315D01*
X342138Y336297D01*
X345117Y336297D01*
X346680Y334734D01*
X376228Y305186D01*
X376302Y305133D01*
X376371Y305074D01*
X376401Y305062D01*
X376427Y305043D01*
X376514Y305016D01*
X376599Y304982D01*
X376640Y304977D01*
X376662Y304970D01*
X376695Y304971D01*
X376766Y304963D01*
X403506Y304963D01*
X403596Y304978D01*
X403687Y304985D01*
X403716Y304998D01*
X403748Y305003D01*
X403829Y305046D01*
X403913Y305081D01*
X403945Y305107D01*
X403966Y305118D01*
X403988Y305141D01*
X404044Y305186D01*
X406841Y307983D01*
X408286Y307983D01*
X408306Y307987D01*
X408325Y307984D01*
X408427Y308006D01*
X408529Y308023D01*
X408546Y308032D01*
X408566Y308037D01*
X408655Y308090D01*
X408746Y308138D01*
X408760Y308153D01*
X408777Y308163D01*
X408844Y308241D01*
X408916Y308316D01*
X408924Y308335D01*
X408937Y308350D01*
X408976Y308446D01*
X409019Y308540D01*
X409021Y308559D01*
X409029Y308578D01*
X409047Y308745D01*
X409047Y312412D01*
X410194Y313559D01*
X410205Y313575D01*
X410221Y313587D01*
X410277Y313675D01*
X410337Y313758D01*
X410343Y313777D01*
X410354Y313794D01*
X410379Y313895D01*
X410410Y313994D01*
X410409Y314013D01*
X410414Y314033D01*
X410406Y314136D01*
X410403Y314239D01*
X410397Y314258D01*
X410395Y314278D01*
X410355Y314373D01*
X410319Y314470D01*
X410306Y314486D01*
X410299Y314504D01*
X410194Y314635D01*
X407725Y317104D01*
X407725Y321500D01*
X410834Y324609D01*
X415230Y324609D01*
X418027Y321812D01*
X418101Y321759D01*
X418171Y321699D01*
X418201Y321687D01*
X418227Y321668D01*
X418314Y321641D01*
X418399Y321607D01*
X418440Y321603D01*
X418462Y321596D01*
X418494Y321597D01*
X418565Y321589D01*
X439704Y321589D01*
X439794Y321603D01*
X439885Y321611D01*
X439915Y321623D01*
X439947Y321628D01*
X440028Y321671D01*
X440112Y321707D01*
X440144Y321733D01*
X440164Y321744D01*
X440187Y321767D01*
X440243Y321812D01*
X443021Y324590D01*
X446064Y324590D01*
X446135Y324601D01*
X446207Y324603D01*
X446255Y324621D01*
X446307Y324630D01*
X446370Y324663D01*
X446438Y324688D01*
X446478Y324720D01*
X446524Y324745D01*
X446574Y324797D01*
X446630Y324841D01*
X446658Y324885D01*
X446694Y324923D01*
X446724Y324988D01*
X446763Y325048D01*
X446775Y325099D01*
X446797Y325146D01*
X446805Y325217D01*
X446823Y325287D01*
X446819Y325339D01*
X446824Y325391D01*
X446809Y325461D01*
X446804Y325532D01*
X446783Y325580D01*
X446772Y325631D01*
X446735Y325693D01*
X446707Y325758D01*
X446662Y325814D01*
X446658Y325821D01*
X446658Y328677D01*
X455677Y328677D01*
X455677Y319658D01*
X452833Y319658D01*
X451825Y320667D01*
X451767Y320709D01*
X451715Y320758D01*
X451668Y320780D01*
X451625Y320810D01*
X451557Y320831D01*
X451492Y320862D01*
X451440Y320867D01*
X451390Y320883D01*
X451319Y320881D01*
X451247Y320889D01*
X451196Y320878D01*
X451144Y320876D01*
X451077Y320852D01*
X451007Y320836D01*
X450962Y320810D01*
X450913Y320792D01*
X450857Y320747D01*
X450796Y320710D01*
X450762Y320671D01*
X450721Y320638D01*
X450683Y320578D01*
X450636Y320523D01*
X450616Y320475D01*
X450588Y320431D01*
X450571Y320362D01*
X450544Y320295D01*
X450536Y320224D01*
X450528Y320193D01*
X450530Y320169D01*
X450526Y320128D01*
X450526Y317085D01*
X447417Y313976D01*
X443021Y313976D01*
X440205Y316792D01*
X440131Y316845D01*
X440061Y316905D01*
X440031Y316917D01*
X440005Y316936D01*
X439918Y316963D01*
X439833Y316997D01*
X439792Y317001D01*
X439770Y317008D01*
X439738Y317007D01*
X439666Y317015D01*
X418565Y317015D01*
X418476Y317001D01*
X418384Y316993D01*
X418355Y316981D01*
X418323Y316976D01*
X418242Y316933D01*
X418158Y316897D01*
X418126Y316871D01*
X418105Y316860D01*
X418083Y316837D01*
X418027Y316792D01*
X417192Y315957D01*
X417181Y315941D01*
X417165Y315929D01*
X417136Y315884D01*
X417104Y315850D01*
X417083Y315806D01*
X417049Y315758D01*
X417043Y315739D01*
X417032Y315722D01*
X417017Y315664D01*
X417000Y315627D01*
X416996Y315586D01*
X416976Y315522D01*
X416977Y315503D01*
X416972Y315483D01*
X416977Y315417D01*
X416973Y315383D01*
X416981Y315348D01*
X416983Y315277D01*
X416989Y315258D01*
X416991Y315238D01*
X417019Y315173D01*
X417025Y315142D01*
X417042Y315115D01*
X417067Y315046D01*
X417080Y315030D01*
X417087Y315012D01*
X417151Y314932D01*
X417152Y314931D01*
X417152Y314930D01*
X417192Y314881D01*
X419661Y312412D01*
X419661Y308016D01*
X417617Y305972D01*
X417564Y305898D01*
X417504Y305828D01*
X417492Y305798D01*
X417473Y305772D01*
X417446Y305685D01*
X417412Y305600D01*
X417408Y305559D01*
X417401Y305537D01*
X417402Y305505D01*
X417394Y305434D01*
X417394Y299216D01*
X412500Y294322D01*
X395418Y294322D01*
X392621Y297119D01*
X392547Y297172D01*
X392478Y297231D01*
X392448Y297244D01*
X392422Y297262D01*
X392335Y297289D01*
X392250Y297323D01*
X392209Y297328D01*
X392187Y297335D01*
X392154Y297334D01*
X392083Y297342D01*
X296410Y297342D01*
X296340Y297330D01*
X296268Y297328D01*
X296219Y297310D01*
X296168Y297302D01*
X296104Y297269D01*
X296037Y297244D01*
X295996Y297211D01*
X295950Y297187D01*
X295901Y297135D01*
X295845Y297090D01*
X295817Y297046D01*
X295781Y297009D01*
X295751Y296944D01*
X295712Y296883D01*
X295699Y296833D01*
X295677Y296786D01*
X295669Y296714D01*
X295652Y296645D01*
X295656Y296593D01*
X295650Y296541D01*
X295665Y296471D01*
X295671Y296400D01*
X295691Y296352D01*
X295702Y296301D01*
X295739Y296239D01*
X295767Y296173D01*
X295812Y296117D01*
X295829Y296090D01*
X295846Y296074D01*
X295872Y296042D01*
X315898Y276017D01*
X315972Y275964D01*
X316041Y275904D01*
X316071Y275892D01*
X316097Y275873D01*
X316184Y275847D01*
X316269Y275812D01*
X316310Y275808D01*
X316332Y275801D01*
X316365Y275802D01*
X316436Y275794D01*
X319345Y275794D01*
X320849Y274290D01*
X320923Y274237D01*
X320993Y274177D01*
X321023Y274165D01*
X321049Y274146D01*
X321136Y274119D01*
X321221Y274085D01*
X321262Y274081D01*
X321284Y274074D01*
X321316Y274075D01*
X321388Y274067D01*
X352607Y274067D01*
X352697Y274081D01*
X352788Y274089D01*
X352817Y274101D01*
X352849Y274106D01*
X352930Y274149D01*
X353014Y274185D01*
X353046Y274211D01*
X353067Y274222D01*
X353089Y274245D01*
X353145Y274290D01*
X355942Y277087D01*
X360338Y277087D01*
X363135Y274290D01*
X363209Y274237D01*
X363279Y274177D01*
X363309Y274165D01*
X363335Y274146D01*
X363422Y274119D01*
X363507Y274085D01*
X363548Y274081D01*
X363570Y274074D01*
X363602Y274075D01*
X363673Y274067D01*
X411027Y274067D01*
X411117Y274081D01*
X411208Y274089D01*
X411237Y274101D01*
X411269Y274106D01*
X411350Y274149D01*
X411434Y274185D01*
X411466Y274211D01*
X411487Y274222D01*
X411509Y274245D01*
X411565Y274290D01*
X414362Y277087D01*
X415648Y277087D01*
X415668Y277090D01*
X415688Y277088D01*
X415789Y277110D01*
X415891Y277126D01*
X415909Y277136D01*
X415928Y277140D01*
X416017Y277193D01*
X416108Y277242D01*
X416122Y277256D01*
X416139Y277266D01*
X416206Y277345D01*
X416278Y277420D01*
X416286Y277438D01*
X416299Y277453D01*
X416338Y277549D01*
X416381Y277643D01*
X416384Y277663D01*
X416391Y277681D01*
X416409Y277848D01*
X416409Y281674D01*
X419518Y284783D01*
X423914Y284783D01*
X426711Y281986D01*
X426785Y281933D01*
X426855Y281873D01*
X426885Y281861D01*
X426911Y281842D01*
X426998Y281816D01*
X427083Y281781D01*
X427124Y281777D01*
X427146Y281770D01*
X427178Y281771D01*
X427250Y281763D01*
X446913Y281763D01*
X446933Y281766D01*
X446952Y281764D01*
X447054Y281786D01*
X447156Y281803D01*
X447173Y281812D01*
X447193Y281816D01*
X447282Y281869D01*
X447373Y281918D01*
X447387Y281932D01*
X447404Y281942D01*
X447471Y282021D01*
X447543Y282096D01*
X447551Y282114D01*
X447564Y282129D01*
X447603Y282226D01*
X447646Y282319D01*
X447648Y282339D01*
X447656Y282357D01*
X447674Y282524D01*
X447674Y283346D01*
X453254Y288926D01*
X461146Y288926D01*
X465658Y284413D01*
X465717Y284371D01*
X465769Y284322D01*
X465816Y284300D01*
X465858Y284269D01*
X465927Y284248D01*
X465992Y284218D01*
X466043Y284212D01*
X466093Y284197D01*
X466165Y284199D01*
X466236Y284191D01*
X466287Y284202D01*
X466339Y284203D01*
X466406Y284228D01*
X466477Y284243D01*
X466521Y284270D01*
X466570Y284288D01*
X466626Y284333D01*
X466688Y284369D01*
X466721Y284409D01*
X466762Y284442D01*
X466801Y284502D01*
X466848Y284556D01*
X466867Y284605D01*
X466895Y284649D01*
X466913Y284718D01*
X466939Y284785D01*
X466947Y284856D01*
X466955Y284887D01*
X466953Y284910D01*
X466958Y284951D01*
X466958Y299249D01*
X466946Y299319D01*
X466945Y299391D01*
X466927Y299440D01*
X466918Y299491D01*
X466885Y299555D01*
X466860Y299622D01*
X466828Y299663D01*
X466803Y299709D01*
X466751Y299758D01*
X466706Y299814D01*
X466663Y299842D01*
X466625Y299878D01*
X466560Y299908D01*
X466499Y299947D01*
X466449Y299960D01*
X466402Y299982D01*
X466330Y299990D01*
X466261Y300007D01*
X466209Y300003D01*
X466157Y300009D01*
X466087Y299994D01*
X466016Y299988D01*
X465968Y299968D01*
X465917Y299957D01*
X465855Y299920D01*
X465789Y299892D01*
X465733Y299847D01*
X465706Y299831D01*
X465691Y299813D01*
X465658Y299787D01*
X461146Y295274D01*
X453254Y295274D01*
X447674Y300854D01*
X447674Y308746D01*
X453254Y314326D01*
X461146Y314326D01*
X465658Y309813D01*
X465717Y309771D01*
X465769Y309722D01*
X465816Y309700D01*
X465858Y309669D01*
X465927Y309648D01*
X465992Y309618D01*
X466043Y309612D01*
X466093Y309597D01*
X466165Y309599D01*
X466236Y309591D01*
X466287Y309602D01*
X466339Y309603D01*
X466406Y309628D01*
X466477Y309643D01*
X466521Y309670D01*
X466570Y309688D01*
X466626Y309733D01*
X466688Y309769D01*
X466721Y309809D01*
X466762Y309842D01*
X466801Y309902D01*
X466848Y309956D01*
X466867Y310005D01*
X466895Y310049D01*
X466913Y310118D01*
X466939Y310185D01*
X466947Y310256D01*
X466955Y310287D01*
X466953Y310310D01*
X466958Y310351D01*
X466958Y323212D01*
X466946Y323283D01*
X466945Y323354D01*
X466927Y323403D01*
X466918Y323455D01*
X466885Y323518D01*
X466860Y323585D01*
X466828Y323626D01*
X466803Y323672D01*
X466751Y323721D01*
X466706Y323777D01*
X466663Y323806D01*
X466625Y323841D01*
X466560Y323872D01*
X466499Y323910D01*
X466449Y323923D01*
X466402Y323945D01*
X466330Y323953D01*
X466261Y323970D01*
X466209Y323966D01*
X466157Y323972D01*
X466087Y323957D01*
X466016Y323951D01*
X465968Y323931D01*
X465917Y323920D01*
X465855Y323883D01*
X465789Y323855D01*
X465733Y323810D01*
X465706Y323794D01*
X465691Y323776D01*
X465658Y323750D01*
X461567Y319658D01*
X458723Y319658D01*
X458723Y329438D01*
X458720Y329458D01*
X458722Y329477D01*
X458700Y329579D01*
X458683Y329681D01*
X458674Y329698D01*
X458670Y329718D01*
X458617Y329807D01*
X458568Y329898D01*
X458554Y329912D01*
X458544Y329929D01*
X458465Y329996D01*
X458390Y330067D01*
X458372Y330076D01*
X458357Y330089D01*
X458261Y330127D01*
X458167Y330171D01*
X458147Y330173D01*
X458129Y330181D01*
X457962Y330199D01*
X457199Y330199D01*
X457199Y330201D01*
X457962Y330201D01*
X457982Y330204D01*
X458001Y330202D01*
X458103Y330224D01*
X458205Y330241D01*
X458222Y330250D01*
X458242Y330254D01*
X458331Y330307D01*
X458422Y330356D01*
X458436Y330370D01*
X458453Y330380D01*
X458520Y330459D01*
X458591Y330534D01*
X458600Y330552D01*
X458613Y330567D01*
X458652Y330663D01*
X458695Y330757D01*
X458697Y330777D01*
X458705Y330795D01*
X458723Y330962D01*
X458723Y340742D01*
X461567Y340742D01*
X465658Y336650D01*
X465717Y336608D01*
X465769Y336559D01*
X465816Y336537D01*
X465858Y336506D01*
X465927Y336485D01*
X465992Y336455D01*
X466043Y336449D01*
X466093Y336434D01*
X466165Y336436D01*
X466236Y336428D01*
X466287Y336439D01*
X466339Y336440D01*
X466406Y336465D01*
X466477Y336480D01*
X466521Y336507D01*
X466570Y336525D01*
X466626Y336570D01*
X466688Y336606D01*
X466721Y336646D01*
X466762Y336678D01*
X466801Y336739D01*
X466848Y336793D01*
X466867Y336842D01*
X466895Y336885D01*
X466913Y336955D01*
X466939Y337021D01*
X466947Y337093D01*
X466955Y337124D01*
X466953Y337147D01*
X466958Y337188D01*
X466958Y350049D01*
X466946Y350119D01*
X466945Y350191D01*
X466927Y350240D01*
X466918Y350291D01*
X466885Y350355D01*
X466860Y350422D01*
X466828Y350463D01*
X466803Y350509D01*
X466751Y350558D01*
X466706Y350614D01*
X466663Y350642D01*
X466625Y350678D01*
X466560Y350708D01*
X466499Y350747D01*
X466449Y350760D01*
X466402Y350782D01*
X466330Y350790D01*
X466261Y350807D01*
X466209Y350803D01*
X466157Y350809D01*
X466087Y350794D01*
X466016Y350788D01*
X465968Y350768D01*
X465917Y350757D01*
X465855Y350720D01*
X465789Y350692D01*
X465733Y350647D01*
X465706Y350631D01*
X465691Y350613D01*
X465658Y350587D01*
X461146Y346074D01*
X453254Y346074D01*
X447674Y351654D01*
X447674Y352552D01*
X447671Y352572D01*
X447673Y352591D01*
X447651Y352693D01*
X447635Y352795D01*
X447625Y352812D01*
X447621Y352832D01*
X447568Y352921D01*
X447519Y353012D01*
X447505Y353026D01*
X447495Y353043D01*
X447416Y353110D01*
X447341Y353182D01*
X447323Y353190D01*
X447308Y353203D01*
X447212Y353242D01*
X447118Y353285D01*
X447098Y353287D01*
X447080Y353295D01*
X446913Y353313D01*
X442893Y353313D01*
X441330Y354876D01*
X427900Y368306D01*
X427842Y368348D01*
X427790Y368397D01*
X427743Y368419D01*
X427701Y368449D01*
X427632Y368470D01*
X427567Y368501D01*
X427515Y368506D01*
X427465Y368522D01*
X427394Y368520D01*
X427323Y368528D01*
X427272Y368517D01*
X427220Y368515D01*
X427152Y368491D01*
X427082Y368476D01*
X427037Y368449D01*
X426989Y368431D01*
X426933Y368386D01*
X426871Y368349D01*
X426837Y368310D01*
X426797Y368277D01*
X426758Y368217D01*
X426711Y368162D01*
X426692Y368114D01*
X426664Y368070D01*
X426646Y368001D01*
X426619Y367934D01*
X426611Y367863D01*
X426603Y367832D01*
X426605Y367808D01*
X426601Y367768D01*
X426601Y365403D01*
X418083Y365403D01*
X418083Y372921D01*
X421448Y372921D01*
X421518Y372932D01*
X421590Y372934D01*
X421639Y372952D01*
X421690Y372960D01*
X421754Y372994D01*
X421821Y373019D01*
X421862Y373051D01*
X421908Y373076D01*
X421957Y373127D01*
X422013Y373172D01*
X422041Y373216D01*
X422077Y373254D01*
X422107Y373319D01*
X422146Y373379D01*
X422159Y373430D01*
X422181Y373477D01*
X422189Y373548D01*
X422206Y373618D01*
X422202Y373670D01*
X422208Y373721D01*
X422193Y373792D01*
X422187Y373863D01*
X422167Y373911D01*
X422156Y373962D01*
X422119Y374023D01*
X422091Y374089D01*
X422046Y374145D01*
X422029Y374173D01*
X422012Y374188D01*
X421986Y374220D01*
X421574Y374632D01*
X421500Y374686D01*
X421430Y374745D01*
X421400Y374757D01*
X421374Y374776D01*
X421287Y374803D01*
X421202Y374837D01*
X421161Y374841D01*
X421139Y374848D01*
X421107Y374847D01*
X421035Y374855D01*
X408428Y374855D01*
X407535Y375748D01*
X407535Y379832D01*
X407532Y379852D01*
X407534Y379871D01*
X407512Y379973D01*
X407496Y380075D01*
X407486Y380092D01*
X407482Y380112D01*
X407429Y380201D01*
X407380Y380292D01*
X407366Y380306D01*
X407356Y380323D01*
X407277Y380390D01*
X407202Y380462D01*
X407184Y380470D01*
X407169Y380483D01*
X407073Y380522D01*
X406979Y380565D01*
X406959Y380567D01*
X406941Y380575D01*
X406774Y380593D01*
X389882Y380593D01*
X389792Y380579D01*
X389701Y380571D01*
X389672Y380559D01*
X389640Y380554D01*
X389559Y380511D01*
X389475Y380475D01*
X389443Y380449D01*
X389422Y380438D01*
X389400Y380415D01*
X389344Y380370D01*
X386050Y377076D01*
X385997Y377002D01*
X385937Y376932D01*
X385925Y376902D01*
X385906Y376876D01*
X385879Y376789D01*
X385845Y376704D01*
X385841Y376663D01*
X385834Y376641D01*
X385835Y376609D01*
X385827Y376538D01*
X385827Y362273D01*
X371290Y347736D01*
X371237Y347662D01*
X371177Y347592D01*
X371165Y347562D01*
X371146Y347536D01*
X371119Y347449D01*
X371085Y347364D01*
X371081Y347323D01*
X371074Y347301D01*
X371075Y347269D01*
X371067Y347197D01*
X371067Y343242D01*
X367958Y340133D01*
X363562Y340133D01*
X360453Y343242D01*
X360453Y347638D01*
X363562Y350747D01*
X367517Y350747D01*
X367608Y350761D01*
X367698Y350769D01*
X367728Y350781D01*
X367760Y350786D01*
X367841Y350829D01*
X367925Y350865D01*
X367957Y350891D01*
X367978Y350902D01*
X368000Y350925D01*
X368056Y350970D01*
X381030Y363944D01*
X381083Y364018D01*
X381143Y364088D01*
X381155Y364118D01*
X381174Y364144D01*
X381201Y364231D01*
X381235Y364316D01*
X381239Y364357D01*
X381246Y364379D01*
X381245Y364411D01*
X381253Y364483D01*
X381253Y378747D01*
X382816Y380310D01*
X385178Y382672D01*
X385189Y382688D01*
X385205Y382700D01*
X385261Y382787D01*
X385321Y382871D01*
X385327Y382891D01*
X385338Y382907D01*
X385363Y383008D01*
X385394Y383107D01*
X385393Y383126D01*
X385398Y383146D01*
X385390Y383249D01*
X385387Y383352D01*
X385380Y383371D01*
X385379Y383391D01*
X385338Y383486D01*
X385303Y383583D01*
X385290Y383599D01*
X385283Y383617D01*
X385178Y383748D01*
X382816Y386110D01*
X381253Y387673D01*
X381253Y410217D01*
X381239Y410308D01*
X381231Y410398D01*
X381219Y410428D01*
X381214Y410460D01*
X381171Y410541D01*
X381135Y410625D01*
X381109Y410657D01*
X381098Y410678D01*
X381075Y410700D01*
X381030Y410756D01*
X380276Y411510D01*
X380202Y411563D01*
X380132Y411623D01*
X380102Y411635D01*
X380076Y411654D01*
X379989Y411681D01*
X379904Y411715D01*
X379863Y411719D01*
X379841Y411726D01*
X379809Y411725D01*
X379737Y411733D01*
X347033Y411733D01*
X345978Y412788D01*
X345962Y412799D01*
X345950Y412815D01*
X345862Y412871D01*
X345779Y412931D01*
X345760Y412937D01*
X345743Y412948D01*
X345642Y412973D01*
X345543Y413004D01*
X345524Y413003D01*
X345504Y413008D01*
X345401Y413000D01*
X345298Y412997D01*
X345279Y412990D01*
X345259Y412989D01*
X345164Y412949D01*
X345067Y412913D01*
X345051Y412900D01*
X345033Y412893D01*
X344902Y412788D01*
X343847Y411733D01*
X301189Y411733D01*
X301119Y411722D01*
X301047Y411720D01*
X300998Y411702D01*
X300947Y411694D01*
X300883Y411660D01*
X300816Y411635D01*
X300775Y411603D01*
X300729Y411578D01*
X300680Y411526D01*
X300624Y411482D01*
X300596Y411438D01*
X300560Y411400D01*
X300530Y411335D01*
X300491Y411275D01*
X300478Y411224D01*
X300456Y411177D01*
X300448Y411106D01*
X300431Y411036D01*
X300435Y410984D01*
X300429Y410933D01*
X300444Y410862D01*
X300450Y410791D01*
X300470Y410743D01*
X300481Y410692D01*
X300518Y410631D01*
X300546Y410565D01*
X300591Y410509D01*
X300608Y410481D01*
X300625Y410466D01*
X300651Y410434D01*
X302487Y408598D01*
X302487Y404202D01*
X299378Y401093D01*
X294982Y401093D01*
X291873Y404202D01*
X291873Y407924D01*
X291870Y407944D01*
X291872Y407963D01*
X291850Y408065D01*
X291834Y408167D01*
X291824Y408184D01*
X291820Y408204D01*
X291767Y408293D01*
X291718Y408384D01*
X291704Y408398D01*
X291694Y408415D01*
X291615Y408482D01*
X291540Y408554D01*
X291522Y408562D01*
X291507Y408575D01*
X291411Y408614D01*
X291317Y408657D01*
X291297Y408659D01*
X291279Y408667D01*
X291112Y408685D01*
X191255Y408685D01*
X191164Y408671D01*
X191074Y408663D01*
X191044Y408651D01*
X191012Y408646D01*
X190931Y408603D01*
X190847Y408567D01*
X190815Y408541D01*
X190794Y408530D01*
X190772Y408507D01*
X190716Y408462D01*
X88870Y306616D01*
X88817Y306542D01*
X88757Y306472D01*
X88745Y306442D01*
X88726Y306416D01*
X88699Y306329D01*
X88665Y306244D01*
X88661Y306203D01*
X88654Y306181D01*
X88655Y306149D01*
X88647Y306077D01*
X88647Y204463D01*
X88661Y204372D01*
X88669Y204282D01*
X88681Y204252D01*
X88686Y204220D01*
X88729Y204139D01*
X88765Y204055D01*
X88791Y204023D01*
X88802Y204002D01*
X88825Y203980D01*
X88870Y203924D01*
X91684Y201110D01*
X91758Y201057D01*
X91828Y200997D01*
X91858Y200985D01*
X91884Y200966D01*
X91971Y200939D01*
X92056Y200905D01*
X92097Y200901D01*
X92119Y200894D01*
X92151Y200895D01*
X92223Y200887D01*
X96178Y200887D01*
X99287Y197778D01*
X99287Y193382D01*
X96178Y190273D01*
X95777Y190273D01*
X95706Y190262D01*
X95635Y190260D01*
X95586Y190242D01*
X95534Y190234D01*
X95471Y190200D01*
X95404Y190175D01*
X95363Y190143D01*
X95317Y190118D01*
X95268Y190067D01*
X95211Y190022D01*
X95183Y189978D01*
X95147Y189940D01*
X95117Y189875D01*
X95078Y189815D01*
X95066Y189764D01*
X95044Y189717D01*
X95036Y189646D01*
X95018Y189576D01*
X95022Y189524D01*
X95017Y189473D01*
X95032Y189402D01*
X95038Y189331D01*
X95058Y189283D01*
X95069Y189232D01*
X95106Y189171D01*
X95134Y189105D01*
X95179Y189049D01*
X95195Y189021D01*
X95213Y189006D01*
X95239Y188974D01*
X155691Y128522D01*
X155765Y128469D01*
X155834Y128409D01*
X155864Y128397D01*
X155890Y128378D01*
X155977Y128351D01*
X156062Y128317D01*
X156103Y128313D01*
X156126Y128306D01*
X156158Y128307D01*
X156229Y128299D01*
X207799Y128299D01*
X207869Y128310D01*
X207941Y128312D01*
X207990Y128330D01*
X208041Y128338D01*
X208105Y128372D01*
X208172Y128397D01*
X208213Y128429D01*
X208259Y128454D01*
X208308Y128506D01*
X208364Y128550D01*
X208392Y128594D01*
X208428Y128632D01*
X208458Y128697D01*
X208497Y128757D01*
X208510Y128808D01*
X208532Y128855D01*
X208540Y128926D01*
X208557Y128996D01*
X208553Y129048D01*
X208559Y129099D01*
X208544Y129170D01*
X208538Y129241D01*
X208518Y129289D01*
X208507Y129340D01*
X208470Y129401D01*
X208442Y129467D01*
X208397Y129523D01*
X208380Y129551D01*
X208363Y129566D01*
X208337Y129598D01*
X208053Y129882D01*
X208053Y134278D01*
X211162Y137387D01*
X215117Y137387D01*
X215208Y137401D01*
X215298Y137409D01*
X215328Y137421D01*
X215360Y137426D01*
X215441Y137469D01*
X215525Y137505D01*
X215557Y137531D01*
X215578Y137542D01*
X215600Y137565D01*
X215656Y137610D01*
X242893Y164847D01*
X421187Y164847D01*
X421277Y164861D01*
X421368Y164869D01*
X421397Y164881D01*
X421429Y164886D01*
X421510Y164929D01*
X421594Y164965D01*
X421626Y164991D01*
X421647Y165002D01*
X421669Y165025D01*
X421725Y165070D01*
X424522Y167867D01*
X428918Y167867D01*
X432027Y164758D01*
X432027Y160362D01*
X428918Y157253D01*
X424522Y157253D01*
X421725Y160050D01*
X421651Y160103D01*
X421581Y160163D01*
X421551Y160175D01*
X421525Y160194D01*
X421438Y160221D01*
X421353Y160255D01*
X421312Y160259D01*
X421290Y160266D01*
X421258Y160265D01*
X421187Y160273D01*
X245103Y160273D01*
X245012Y160259D01*
X244922Y160251D01*
X244892Y160239D01*
X244860Y160234D01*
X244779Y160191D01*
X244695Y160155D01*
X244663Y160129D01*
X244642Y160118D01*
X244620Y160095D01*
X244564Y160050D01*
X218890Y134376D01*
X218837Y134302D01*
X218777Y134232D01*
X218765Y134202D01*
X218746Y134176D01*
X218719Y134089D01*
X218685Y134004D01*
X218681Y133963D01*
X218674Y133941D01*
X218675Y133909D01*
X218667Y133837D01*
X218667Y129882D01*
X218383Y129598D01*
X218341Y129540D01*
X218292Y129488D01*
X218270Y129441D01*
X218240Y129399D01*
X218218Y129330D01*
X218188Y129265D01*
X218183Y129213D01*
X218167Y129163D01*
X218169Y129092D01*
X218161Y129021D01*
X218172Y128970D01*
X218174Y128918D01*
X218198Y128850D01*
X218213Y128780D01*
X218240Y128735D01*
X218258Y128687D01*
X218303Y128631D01*
X218340Y128569D01*
X218379Y128535D01*
X218412Y128495D01*
X218472Y128456D01*
X218527Y128409D01*
X218575Y128390D01*
X218619Y128362D01*
X218688Y128344D01*
X218755Y128317D01*
X218826Y128309D01*
X218857Y128301D01*
X218880Y128303D01*
X218921Y128299D01*
X254974Y128299D01*
X313434Y69839D01*
X313492Y69797D01*
X313544Y69747D01*
X313591Y69725D01*
X313633Y69695D01*
X313702Y69674D01*
X313767Y69644D01*
X313819Y69638D01*
X313869Y69623D01*
X313940Y69625D01*
X314011Y69617D01*
X314062Y69628D01*
X314114Y69629D01*
X314182Y69654D01*
X314252Y69669D01*
X314297Y69696D01*
X314345Y69714D01*
X314401Y69758D01*
X314463Y69795D01*
X314497Y69835D01*
X314537Y69867D01*
X314576Y69928D01*
X314623Y69982D01*
X314642Y70030D01*
X314670Y70074D01*
X314688Y70144D01*
X314715Y70210D01*
X314723Y70282D01*
X314731Y70313D01*
X314729Y70336D01*
X314733Y70377D01*
X314733Y70778D01*
X317530Y73575D01*
X317573Y73635D01*
X317614Y73678D01*
X317621Y73693D01*
X317643Y73719D01*
X317655Y73749D01*
X317674Y73775D01*
X317701Y73862D01*
X317709Y73882D01*
X317717Y73901D01*
X317718Y73905D01*
X317735Y73947D01*
X317739Y73988D01*
X317746Y74010D01*
X317745Y74042D01*
X317753Y74113D01*
X317753Y79687D01*
X319316Y81250D01*
X336588Y98522D01*
X336630Y98580D01*
X336679Y98632D01*
X336701Y98679D01*
X336731Y98721D01*
X336752Y98790D01*
X336783Y98855D01*
X336788Y98907D01*
X336804Y98957D01*
X336802Y99028D01*
X336810Y99099D01*
X336799Y99150D01*
X336797Y99202D01*
X336773Y99270D01*
X336758Y99340D01*
X336731Y99385D01*
X336713Y99433D01*
X336668Y99489D01*
X336631Y99551D01*
X336592Y99585D01*
X336559Y99625D01*
X336499Y99664D01*
X336444Y99711D01*
X336396Y99730D01*
X336352Y99758D01*
X336283Y99776D01*
X336216Y99803D01*
X336145Y99811D01*
X336114Y99819D01*
X336090Y99817D01*
X336050Y99821D01*
X329431Y99821D01*
X329340Y99807D01*
X329250Y99799D01*
X329220Y99787D01*
X329188Y99782D01*
X329107Y99739D01*
X329023Y99703D01*
X328991Y99677D01*
X328970Y99666D01*
X328948Y99643D01*
X328892Y99598D01*
X325570Y96276D01*
X325517Y96202D01*
X325457Y96132D01*
X325445Y96102D01*
X325426Y96076D01*
X325399Y95989D01*
X325365Y95904D01*
X325361Y95863D01*
X325354Y95841D01*
X325355Y95809D01*
X325347Y95737D01*
X325347Y91782D01*
X322238Y88673D01*
X317842Y88673D01*
X314733Y91782D01*
X314733Y96178D01*
X317842Y99287D01*
X321797Y99287D01*
X321888Y99301D01*
X321978Y99309D01*
X322008Y99321D01*
X322040Y99326D01*
X322121Y99369D01*
X322205Y99405D01*
X322237Y99431D01*
X322258Y99442D01*
X322280Y99465D01*
X322336Y99510D01*
X327221Y104395D01*
X329954Y104395D01*
X330024Y104406D01*
X330096Y104408D01*
X330145Y104426D01*
X330196Y104434D01*
X330260Y104468D01*
X330327Y104493D01*
X330368Y104525D01*
X330414Y104550D01*
X330463Y104601D01*
X330519Y104646D01*
X330547Y104690D01*
X330583Y104728D01*
X330613Y104793D01*
X330652Y104853D01*
X330665Y104904D01*
X330687Y104951D01*
X330695Y105022D01*
X330712Y105092D01*
X330708Y105144D01*
X330714Y105195D01*
X330699Y105266D01*
X330693Y105337D01*
X330673Y105385D01*
X330662Y105436D01*
X330625Y105497D01*
X330597Y105563D01*
X330552Y105619D01*
X330535Y105647D01*
X330518Y105662D01*
X330492Y105694D01*
X322336Y113850D01*
X322262Y113903D01*
X322192Y113963D01*
X322162Y113975D01*
X322136Y113994D01*
X322049Y114021D01*
X321964Y114055D01*
X321923Y114059D01*
X321901Y114066D01*
X321869Y114065D01*
X321798Y114073D01*
X317842Y114073D01*
X314733Y117182D01*
X314733Y121578D01*
X317842Y124687D01*
X322238Y124687D01*
X325347Y121578D01*
X325347Y117622D01*
X325361Y117532D01*
X325369Y117441D01*
X325381Y117412D01*
X325386Y117380D01*
X325429Y117299D01*
X325465Y117215D01*
X325491Y117183D01*
X325502Y117162D01*
X325525Y117140D01*
X325570Y117084D01*
X334988Y107666D01*
X335062Y107613D01*
X335132Y107553D01*
X335162Y107541D01*
X335188Y107522D01*
X335275Y107495D01*
X335360Y107461D01*
X335401Y107457D01*
X335423Y107450D01*
X335455Y107451D01*
X335526Y107443D01*
X463557Y107443D01*
X463648Y107457D01*
X463738Y107465D01*
X463768Y107477D01*
X463800Y107482D01*
X463881Y107525D01*
X463965Y107561D01*
X463997Y107587D01*
X464018Y107598D01*
X464040Y107621D01*
X464096Y107666D01*
X466755Y110325D01*
X466808Y110399D01*
X466868Y110469D01*
X466880Y110499D01*
X466899Y110525D01*
X466926Y110612D01*
X466960Y110697D01*
X466964Y110738D01*
X466971Y110760D01*
X466970Y110792D01*
X466978Y110864D01*
X466978Y121469D01*
X466967Y121540D01*
X466965Y121611D01*
X466947Y121660D01*
X466939Y121712D01*
X466905Y121775D01*
X466880Y121842D01*
X466848Y121883D01*
X466823Y121929D01*
X466771Y121979D01*
X466727Y122035D01*
X466683Y122063D01*
X466645Y122099D01*
X466580Y122129D01*
X466520Y122168D01*
X466469Y122180D01*
X466422Y122202D01*
X466351Y122210D01*
X466281Y122228D01*
X466229Y122224D01*
X466178Y122229D01*
X466107Y122214D01*
X466036Y122208D01*
X465988Y122188D01*
X465937Y122177D01*
X465876Y122140D01*
X465810Y122112D01*
X465754Y122067D01*
X465726Y122051D01*
X465711Y122033D01*
X465679Y122007D01*
X461146Y117474D01*
X453254Y117474D01*
X447674Y123054D01*
X447674Y130946D01*
X453254Y136526D01*
X460383Y136526D01*
X460453Y136537D01*
X460525Y136539D01*
X460574Y136557D01*
X460625Y136565D01*
X460689Y136599D01*
X460756Y136624D01*
X460797Y136656D01*
X460843Y136681D01*
X460892Y136732D01*
X460948Y136777D01*
X460976Y136821D01*
X461012Y136859D01*
X461042Y136924D01*
X461081Y136984D01*
X461094Y137035D01*
X461116Y137082D01*
X461124Y137153D01*
X461141Y137223D01*
X461137Y137275D01*
X461143Y137326D01*
X461128Y137397D01*
X461122Y137468D01*
X461102Y137516D01*
X461091Y137567D01*
X461054Y137628D01*
X461026Y137694D01*
X460981Y137750D01*
X460964Y137778D01*
X460962Y137780D01*
X460946Y137794D01*
X460921Y137825D01*
X456095Y142651D01*
X456021Y142704D01*
X455951Y142764D01*
X455921Y142776D01*
X455895Y142795D01*
X455808Y142822D01*
X455723Y142856D01*
X455682Y142860D01*
X455660Y142867D01*
X455628Y142866D01*
X455557Y142874D01*
X453254Y142874D01*
X447674Y148454D01*
X447674Y156346D01*
X453254Y161926D01*
X461146Y161926D01*
X466726Y156346D01*
X466726Y148454D01*
X462281Y144010D01*
X462269Y143993D01*
X462254Y143981D01*
X462198Y143894D01*
X462137Y143810D01*
X462132Y143791D01*
X462121Y143774D01*
X462095Y143674D01*
X462065Y143575D01*
X462066Y143555D01*
X462061Y143535D01*
X462069Y143432D01*
X462071Y143329D01*
X462078Y143310D01*
X462080Y143290D01*
X462120Y143195D01*
X462156Y143098D01*
X462168Y143082D01*
X462176Y143064D01*
X462281Y142933D01*
X463004Y142210D01*
X463078Y142157D01*
X463148Y142097D01*
X463178Y142085D01*
X463204Y142066D01*
X463291Y142039D01*
X463376Y142005D01*
X463417Y142001D01*
X463439Y141994D01*
X463471Y141995D01*
X463543Y141987D01*
X470212Y141987D01*
X470314Y141885D01*
X470330Y141873D01*
X470343Y141858D01*
X470430Y141802D01*
X470514Y141741D01*
X470533Y141735D01*
X470550Y141725D01*
X470650Y141699D01*
X470749Y141669D01*
X470769Y141669D01*
X470788Y141664D01*
X470891Y141672D01*
X470995Y141675D01*
X471014Y141682D01*
X471033Y141684D01*
X471129Y141724D01*
X471226Y141760D01*
X471242Y141772D01*
X471260Y141780D01*
X471391Y141885D01*
X471493Y141987D01*
X476257Y141987D01*
X476347Y142001D01*
X476438Y142009D01*
X476468Y142021D01*
X476500Y142026D01*
X476581Y142069D01*
X476665Y142105D01*
X476697Y142131D01*
X476718Y142142D01*
X476740Y142165D01*
X476796Y142210D01*
X477519Y142933D01*
X477531Y142949D01*
X477546Y142962D01*
X477602Y143049D01*
X477663Y143133D01*
X477668Y143152D01*
X477679Y143168D01*
X477705Y143269D01*
X477735Y143368D01*
X477734Y143388D01*
X477739Y143407D01*
X477731Y143510D01*
X477729Y143614D01*
X477722Y143632D01*
X477720Y143652D01*
X477680Y143747D01*
X477644Y143845D01*
X477632Y143860D01*
X477624Y143879D01*
X477519Y144010D01*
X473074Y148454D01*
X473074Y156346D01*
X478654Y161926D01*
X486546Y161926D01*
X492126Y156346D01*
X492126Y148454D01*
X486546Y142874D01*
X484243Y142874D01*
X484153Y142860D01*
X484062Y142852D01*
X484033Y142840D01*
X484001Y142835D01*
X483920Y142792D01*
X483836Y142756D01*
X483804Y142730D01*
X483783Y142719D01*
X483761Y142696D01*
X483705Y142651D01*
X478879Y137825D01*
X478837Y137767D01*
X478788Y137715D01*
X478766Y137668D01*
X478736Y137626D01*
X478715Y137557D01*
X478684Y137492D01*
X478679Y137440D01*
X478663Y137390D01*
X478665Y137319D01*
X478657Y137248D01*
X478668Y137197D01*
X478670Y137145D01*
X478694Y137077D01*
X478709Y137007D01*
X478736Y136963D01*
X478754Y136914D01*
X478799Y136858D01*
X478836Y136796D01*
X478875Y136762D01*
X478908Y136722D01*
X478968Y136683D01*
X479023Y136636D01*
X479071Y136617D01*
X479115Y136589D01*
X479184Y136571D01*
X479251Y136544D01*
X479322Y136536D01*
X479353Y136528D01*
X479377Y136530D01*
X479417Y136526D01*
X486546Y136526D01*
X492126Y130946D01*
X492126Y123054D01*
X486546Y117474D01*
X485648Y117474D01*
X485628Y117471D01*
X485609Y117473D01*
X485507Y117451D01*
X485405Y117435D01*
X485388Y117425D01*
X485368Y117421D01*
X485279Y117368D01*
X485188Y117319D01*
X485174Y117305D01*
X485157Y117295D01*
X485090Y117216D01*
X485018Y117141D01*
X485010Y117123D01*
X484997Y117108D01*
X484958Y117012D01*
X484915Y116918D01*
X484913Y116898D01*
X484905Y116880D01*
X484887Y116713D01*
X484887Y112090D01*
X469570Y96773D01*
X341623Y96773D01*
X341532Y96759D01*
X341442Y96751D01*
X341412Y96739D01*
X341380Y96734D01*
X341299Y96691D01*
X341215Y96655D01*
X341183Y96629D01*
X341162Y96618D01*
X341140Y96595D01*
X341084Y96550D01*
X322550Y78016D01*
X322497Y77942D01*
X322437Y77872D01*
X322425Y77842D01*
X322406Y77816D01*
X322379Y77729D01*
X322345Y77644D01*
X322341Y77603D01*
X322334Y77581D01*
X322335Y77549D01*
X322327Y77477D01*
X322327Y74113D01*
X322341Y74023D01*
X322349Y73932D01*
X322361Y73903D01*
X322366Y73871D01*
X322386Y73834D01*
X322388Y73826D01*
X322409Y73790D01*
X322445Y73706D01*
X322471Y73674D01*
X322482Y73653D01*
X322503Y73633D01*
X322514Y73615D01*
X322527Y73604D01*
X322550Y73575D01*
X325347Y70778D01*
X325347Y70377D01*
X325358Y70306D01*
X325360Y70235D01*
X325378Y70186D01*
X325386Y70134D01*
X325420Y70071D01*
X325445Y70004D01*
X325477Y69963D01*
X325502Y69917D01*
X325554Y69867D01*
X325598Y69811D01*
X325642Y69783D01*
X325680Y69747D01*
X325745Y69717D01*
X325805Y69678D01*
X325856Y69666D01*
X325903Y69644D01*
X325974Y69636D01*
X326044Y69618D01*
X326096Y69622D01*
X326147Y69617D01*
X326218Y69632D01*
X326289Y69638D01*
X326337Y69658D01*
X326388Y69669D01*
X326449Y69706D01*
X326515Y69734D01*
X326571Y69779D01*
X326599Y69795D01*
X326614Y69813D01*
X326646Y69839D01*
X330214Y73407D01*
X389567Y73407D01*
X394714Y68260D01*
X394772Y68218D01*
X394824Y68169D01*
X394871Y68147D01*
X394913Y68117D01*
X394982Y68096D01*
X395047Y68065D01*
X395099Y68060D01*
X395149Y68044D01*
X395220Y68046D01*
X395291Y68038D01*
X395342Y68049D01*
X395394Y68051D01*
X395462Y68075D01*
X395532Y68090D01*
X395577Y68117D01*
X395625Y68135D01*
X395681Y68180D01*
X395743Y68217D01*
X395777Y68256D01*
X395817Y68289D01*
X395856Y68349D01*
X395903Y68404D01*
X395922Y68452D01*
X395950Y68496D01*
X395968Y68565D01*
X395995Y68632D01*
X396003Y68703D01*
X396011Y68734D01*
X396009Y68758D01*
X396013Y68798D01*
X396013Y70778D01*
X399122Y73887D01*
X403518Y73887D01*
X406315Y71090D01*
X406389Y71037D01*
X406459Y70977D01*
X406489Y70965D01*
X406515Y70946D01*
X406602Y70919D01*
X406687Y70885D01*
X406728Y70881D01*
X406750Y70874D01*
X406782Y70875D01*
X406853Y70867D01*
X412757Y70867D01*
X412848Y70881D01*
X412938Y70889D01*
X412968Y70901D01*
X413000Y70906D01*
X413081Y70949D01*
X413165Y70985D01*
X413197Y71011D01*
X413218Y71022D01*
X413240Y71045D01*
X413296Y71090D01*
X416110Y73904D01*
X416163Y73978D01*
X416223Y74048D01*
X416235Y74078D01*
X416254Y74104D01*
X416281Y74191D01*
X416315Y74276D01*
X416319Y74317D01*
X416326Y74339D01*
X416325Y74371D01*
X416333Y74443D01*
X416333Y75858D01*
X419442Y78967D01*
X423838Y78967D01*
X426947Y75858D01*
X426947Y71462D01*
X423838Y68353D01*
X419442Y68353D01*
X418773Y69022D01*
X418757Y69034D01*
X418744Y69050D01*
X418657Y69106D01*
X418573Y69166D01*
X418554Y69172D01*
X418537Y69183D01*
X418437Y69208D01*
X418338Y69238D01*
X418318Y69238D01*
X418299Y69243D01*
X418196Y69235D01*
X418092Y69232D01*
X418073Y69225D01*
X418054Y69223D01*
X417959Y69183D01*
X417861Y69147D01*
X417845Y69135D01*
X417827Y69127D01*
X417696Y69022D01*
X414967Y66293D01*
X406853Y66293D01*
X406763Y66279D01*
X406672Y66271D01*
X406643Y66259D01*
X406611Y66254D01*
X406530Y66211D01*
X406446Y66175D01*
X406414Y66149D01*
X406393Y66138D01*
X406371Y66115D01*
X406315Y66070D01*
X403491Y63246D01*
X403479Y63242D01*
X403428Y63234D01*
X403365Y63200D01*
X403297Y63175D01*
X403257Y63143D01*
X403211Y63118D01*
X403161Y63066D01*
X403105Y63022D01*
X403077Y62978D01*
X403041Y62940D01*
X403011Y62875D01*
X402972Y62815D01*
X402960Y62764D01*
X402938Y62717D01*
X402930Y62646D01*
X402912Y62576D01*
X402916Y62524D01*
X402911Y62473D01*
X402926Y62402D01*
X402931Y62331D01*
X402952Y62283D01*
X402963Y62232D01*
X403000Y62171D01*
X403028Y62105D01*
X403073Y62049D01*
X403089Y62021D01*
X403107Y62006D01*
X403133Y61974D01*
X403322Y61785D01*
X403338Y61773D01*
X403350Y61757D01*
X403437Y61701D01*
X403522Y61641D01*
X403540Y61635D01*
X403557Y61624D01*
X403658Y61599D01*
X403757Y61569D01*
X403776Y61569D01*
X403796Y61564D01*
X403899Y61572D01*
X404002Y61575D01*
X404021Y61582D01*
X404041Y61583D01*
X404136Y61624D01*
X404234Y61660D01*
X404249Y61672D01*
X404267Y61680D01*
X404398Y61785D01*
X405478Y62865D01*
X414742Y62865D01*
X415822Y61785D01*
X415838Y61773D01*
X415850Y61757D01*
X415938Y61701D01*
X416021Y61641D01*
X416040Y61635D01*
X416057Y61624D01*
X416158Y61599D01*
X416257Y61569D01*
X416276Y61569D01*
X416296Y61564D01*
X416399Y61572D01*
X416502Y61575D01*
X416521Y61582D01*
X416541Y61583D01*
X416636Y61624D01*
X416733Y61659D01*
X416749Y61672D01*
X416767Y61680D01*
X416898Y61785D01*
X417978Y62865D01*
X427242Y62865D01*
X427691Y62416D01*
X427787Y62346D01*
X427883Y62276D01*
X427887Y62274D01*
X427890Y62272D01*
X428003Y62237D01*
X428117Y62201D01*
X428122Y62201D01*
X428126Y62200D01*
X428244Y62203D01*
X428363Y62205D01*
X428367Y62206D01*
X428371Y62206D01*
X428483Y62247D01*
X428595Y62286D01*
X428599Y62289D01*
X428602Y62290D01*
X428695Y62365D01*
X428789Y62438D01*
X428792Y62442D01*
X428794Y62444D01*
X428802Y62456D01*
X428888Y62573D01*
X429077Y62900D01*
X429550Y63373D01*
X430129Y63708D01*
X430776Y63881D01*
X433587Y63881D01*
X433587Y54102D01*
X433590Y54082D01*
X433588Y54063D01*
X433610Y53961D01*
X433627Y53859D01*
X433636Y53842D01*
X433640Y53822D01*
X433693Y53733D01*
X433742Y53642D01*
X433756Y53628D01*
X433766Y53611D01*
X433845Y53544D01*
X433920Y53473D01*
X433938Y53464D01*
X433953Y53451D01*
X434049Y53412D01*
X434143Y53369D01*
X434163Y53367D01*
X434181Y53359D01*
X434348Y53341D01*
X435872Y53341D01*
X435892Y53344D01*
X435911Y53342D01*
X436013Y53364D01*
X436115Y53381D01*
X436132Y53390D01*
X436152Y53394D01*
X436241Y53447D01*
X436332Y53496D01*
X436346Y53510D01*
X436363Y53520D01*
X436430Y53599D01*
X436501Y53674D01*
X436510Y53692D01*
X436523Y53707D01*
X436562Y53803D01*
X436605Y53897D01*
X436607Y53917D01*
X436615Y53935D01*
X436633Y54102D01*
X436633Y63881D01*
X439444Y63881D01*
X440091Y63708D01*
X440670Y63373D01*
X441143Y62900D01*
X441332Y62573D01*
X441406Y62482D01*
X441481Y62388D01*
X441485Y62386D01*
X441488Y62383D01*
X441587Y62320D01*
X441688Y62255D01*
X441692Y62254D01*
X441696Y62252D01*
X441811Y62224D01*
X441927Y62195D01*
X441931Y62196D01*
X441935Y62195D01*
X442054Y62205D01*
X442172Y62214D01*
X442176Y62216D01*
X442180Y62216D01*
X442289Y62264D01*
X442398Y62311D01*
X442402Y62314D01*
X442405Y62315D01*
X442415Y62324D01*
X442529Y62416D01*
X442978Y62865D01*
X452242Y62865D01*
X453322Y61785D01*
X453338Y61773D01*
X453350Y61757D01*
X453438Y61701D01*
X453521Y61641D01*
X453540Y61635D01*
X453557Y61624D01*
X453658Y61599D01*
X453757Y61569D01*
X453776Y61569D01*
X453796Y61564D01*
X453899Y61572D01*
X454002Y61575D01*
X454021Y61582D01*
X454041Y61583D01*
X454136Y61624D01*
X454233Y61659D01*
X454249Y61672D01*
X454267Y61680D01*
X454398Y61785D01*
X455478Y62865D01*
X464742Y62865D01*
X465635Y61972D01*
X465635Y44708D01*
X464742Y43815D01*
X455478Y43815D01*
X454398Y44895D01*
X454382Y44907D01*
X454370Y44923D01*
X454282Y44979D01*
X454199Y45039D01*
X454180Y45045D01*
X454163Y45056D01*
X454062Y45081D01*
X453963Y45111D01*
X453944Y45111D01*
X453924Y45116D01*
X453821Y45108D01*
X453718Y45105D01*
X453699Y45098D01*
X453679Y45097D01*
X453584Y45056D01*
X453487Y45021D01*
X453471Y45008D01*
X453453Y45000D01*
X453322Y44895D01*
X452242Y43815D01*
X450088Y43815D01*
X450068Y43812D01*
X450049Y43814D01*
X449947Y43792D01*
X449845Y43776D01*
X449828Y43766D01*
X449808Y43762D01*
X449719Y43709D01*
X449628Y43660D01*
X449614Y43646D01*
X449597Y43636D01*
X449530Y43557D01*
X449458Y43482D01*
X449450Y43464D01*
X449437Y43449D01*
X449398Y43353D01*
X449355Y43259D01*
X449353Y43239D01*
X449345Y43221D01*
X449327Y43054D01*
X449327Y41093D01*
X449341Y41003D01*
X449349Y40912D01*
X449361Y40883D01*
X449366Y40851D01*
X449409Y40770D01*
X449445Y40686D01*
X449471Y40654D01*
X449482Y40633D01*
X449505Y40611D01*
X449550Y40555D01*
X452347Y37758D01*
X452347Y33362D01*
X449238Y30253D01*
X444842Y30253D01*
G37*
%LPD*%
%LPC*%
G36*
X402939Y431347D02*
X402939Y431347D01*
X378205Y456081D01*
X378205Y536173D01*
X378191Y536264D01*
X378183Y536354D01*
X378171Y536384D01*
X378166Y536416D01*
X378142Y536461D01*
X378141Y536464D01*
X378133Y536478D01*
X378123Y536497D01*
X378087Y536581D01*
X378061Y536613D01*
X378050Y536634D01*
X378027Y536656D01*
X378025Y536659D01*
X378015Y536675D01*
X378004Y536685D01*
X377982Y536712D01*
X375676Y539018D01*
X375602Y539071D01*
X375532Y539131D01*
X375502Y539143D01*
X375476Y539162D01*
X375389Y539189D01*
X375304Y539223D01*
X375263Y539227D01*
X375241Y539234D01*
X375209Y539233D01*
X375137Y539241D01*
X371182Y539241D01*
X368073Y542350D01*
X368073Y546746D01*
X371182Y549855D01*
X375578Y549855D01*
X378687Y546746D01*
X378687Y542791D01*
X378701Y542701D01*
X378709Y542610D01*
X378721Y542580D01*
X378726Y542548D01*
X378769Y542467D01*
X378805Y542383D01*
X378831Y542351D01*
X378842Y542330D01*
X378865Y542308D01*
X378910Y542252D01*
X379954Y541208D01*
X380012Y541166D01*
X380064Y541117D01*
X380111Y541095D01*
X380153Y541065D01*
X380222Y541044D01*
X380287Y541013D01*
X380339Y541008D01*
X380389Y540992D01*
X380460Y540994D01*
X380531Y540986D01*
X380582Y540997D01*
X380634Y540999D01*
X380702Y541023D01*
X380772Y541038D01*
X380817Y541065D01*
X380865Y541083D01*
X380921Y541128D01*
X380983Y541165D01*
X381017Y541204D01*
X381057Y541237D01*
X381096Y541297D01*
X381143Y541352D01*
X381162Y541400D01*
X381190Y541444D01*
X381208Y541513D01*
X381235Y541580D01*
X381243Y541651D01*
X381251Y541682D01*
X381249Y541706D01*
X381253Y541746D01*
X381253Y559087D01*
X388652Y566486D01*
X388705Y566560D01*
X388765Y566630D01*
X388777Y566660D01*
X388796Y566686D01*
X388823Y566773D01*
X388857Y566858D01*
X388861Y566899D01*
X388868Y566921D01*
X388867Y566953D01*
X388875Y567025D01*
X388875Y579632D01*
X389768Y580525D01*
X399590Y580525D01*
X399610Y580528D01*
X399629Y580526D01*
X399731Y580548D01*
X399833Y580564D01*
X399850Y580574D01*
X399870Y580578D01*
X399959Y580631D01*
X400050Y580680D01*
X400064Y580694D01*
X400081Y580704D01*
X400148Y580783D01*
X400220Y580858D01*
X400228Y580876D01*
X400241Y580891D01*
X400280Y580987D01*
X400323Y581081D01*
X400325Y581101D01*
X400333Y581119D01*
X400351Y581286D01*
X400351Y584433D01*
X401914Y585996D01*
X403890Y587972D01*
X405453Y589535D01*
X435618Y589535D01*
X435708Y589549D01*
X435799Y589557D01*
X435828Y589569D01*
X435860Y589574D01*
X435941Y589617D01*
X436025Y589653D01*
X436057Y589679D01*
X436078Y589690D01*
X436100Y589713D01*
X436156Y589758D01*
X439450Y593052D01*
X439503Y593126D01*
X439563Y593196D01*
X439575Y593226D01*
X439594Y593252D01*
X439621Y593339D01*
X439655Y593424D01*
X439659Y593465D01*
X439666Y593487D01*
X439665Y593519D01*
X439673Y593590D01*
X439673Y616790D01*
X441236Y618353D01*
X443395Y620512D01*
X444958Y622075D01*
X459557Y622075D01*
X461119Y620512D01*
X461902Y619730D01*
X463464Y618167D01*
X463464Y617346D01*
X463468Y617326D01*
X463465Y617307D01*
X463487Y617205D01*
X463504Y617103D01*
X463513Y617086D01*
X463518Y617066D01*
X463571Y616977D01*
X463619Y616886D01*
X463634Y616872D01*
X463644Y616855D01*
X463723Y616788D01*
X463798Y616716D01*
X463816Y616708D01*
X463831Y616695D01*
X463927Y616656D01*
X464021Y616613D01*
X464040Y616611D01*
X464059Y616603D01*
X464226Y616585D01*
X465542Y616585D01*
X466435Y615692D01*
X466435Y598428D01*
X465542Y597535D01*
X456278Y597535D01*
X455198Y598615D01*
X455182Y598627D01*
X455170Y598643D01*
X455082Y598699D01*
X454999Y598759D01*
X454980Y598765D01*
X454963Y598776D01*
X454862Y598801D01*
X454763Y598831D01*
X454744Y598831D01*
X454724Y598836D01*
X454621Y598828D01*
X454518Y598825D01*
X454499Y598818D01*
X454479Y598817D01*
X454384Y598776D01*
X454287Y598741D01*
X454271Y598728D01*
X454253Y598720D01*
X454122Y598615D01*
X453042Y597535D01*
X451458Y597535D01*
X451438Y597532D01*
X451419Y597534D01*
X451317Y597512D01*
X451215Y597496D01*
X451198Y597486D01*
X451178Y597482D01*
X451089Y597429D01*
X450998Y597380D01*
X450984Y597366D01*
X450967Y597356D01*
X450900Y597277D01*
X450828Y597202D01*
X450820Y597184D01*
X450807Y597169D01*
X450768Y597073D01*
X450725Y596979D01*
X450723Y596959D01*
X450715Y596941D01*
X450697Y596774D01*
X450697Y593520D01*
X439090Y581913D01*
X423481Y581913D01*
X423410Y581902D01*
X423338Y581900D01*
X423289Y581882D01*
X423238Y581874D01*
X423175Y581840D01*
X423107Y581815D01*
X423067Y581783D01*
X423021Y581758D01*
X422971Y581706D01*
X422915Y581662D01*
X422887Y581618D01*
X422851Y581580D01*
X422821Y581515D01*
X422782Y581455D01*
X422770Y581404D01*
X422748Y581357D01*
X422740Y581286D01*
X422722Y581216D01*
X422726Y581164D01*
X422721Y581113D01*
X422736Y581042D01*
X422741Y580971D01*
X422762Y580923D01*
X422773Y580872D01*
X422810Y580811D01*
X422838Y580745D01*
X422883Y580689D01*
X422899Y580661D01*
X422917Y580646D01*
X422943Y580614D01*
X423925Y579632D01*
X423925Y574548D01*
X423928Y574528D01*
X423926Y574509D01*
X423948Y574407D01*
X423964Y574305D01*
X423974Y574288D01*
X423978Y574268D01*
X424031Y574179D01*
X424080Y574088D01*
X424094Y574074D01*
X424104Y574057D01*
X424183Y573990D01*
X424258Y573918D01*
X424276Y573910D01*
X424291Y573897D01*
X424387Y573858D01*
X424481Y573815D01*
X424501Y573813D01*
X424519Y573805D01*
X424686Y573787D01*
X438914Y573787D01*
X438934Y573790D01*
X438953Y573788D01*
X439055Y573810D01*
X439157Y573826D01*
X439174Y573836D01*
X439194Y573840D01*
X439283Y573893D01*
X439374Y573942D01*
X439388Y573956D01*
X439405Y573966D01*
X439472Y574045D01*
X439544Y574120D01*
X439552Y574138D01*
X439565Y574153D01*
X439604Y574249D01*
X439647Y574343D01*
X439649Y574363D01*
X439657Y574381D01*
X439675Y574548D01*
X439675Y579632D01*
X440568Y580525D01*
X454832Y580525D01*
X455725Y579632D01*
X455725Y563368D01*
X454832Y562475D01*
X440568Y562475D01*
X439675Y563368D01*
X439675Y568452D01*
X439672Y568472D01*
X439674Y568491D01*
X439652Y568593D01*
X439636Y568695D01*
X439626Y568712D01*
X439622Y568732D01*
X439569Y568821D01*
X439520Y568912D01*
X439506Y568926D01*
X439496Y568943D01*
X439417Y569010D01*
X439342Y569082D01*
X439324Y569090D01*
X439309Y569103D01*
X439213Y569142D01*
X439119Y569185D01*
X439099Y569187D01*
X439081Y569195D01*
X438914Y569213D01*
X424686Y569213D01*
X424666Y569210D01*
X424647Y569212D01*
X424545Y569190D01*
X424443Y569174D01*
X424426Y569164D01*
X424406Y569160D01*
X424317Y569107D01*
X424226Y569058D01*
X424212Y569044D01*
X424195Y569034D01*
X424128Y568955D01*
X424056Y568880D01*
X424048Y568862D01*
X424035Y568847D01*
X423996Y568751D01*
X423953Y568657D01*
X423951Y568637D01*
X423943Y568619D01*
X423925Y568452D01*
X423925Y563368D01*
X423032Y562475D01*
X408657Y562475D01*
X408567Y562461D01*
X408476Y562453D01*
X408447Y562441D01*
X408415Y562436D01*
X408334Y562393D01*
X408250Y562357D01*
X408218Y562331D01*
X408197Y562320D01*
X408175Y562297D01*
X408119Y562252D01*
X406410Y560543D01*
X399751Y553884D01*
X399709Y553826D01*
X399660Y553774D01*
X399638Y553727D01*
X399608Y553685D01*
X399586Y553616D01*
X399556Y553551D01*
X399550Y553499D01*
X399535Y553449D01*
X399537Y553378D01*
X399529Y553307D01*
X399540Y553256D01*
X399542Y553204D01*
X399566Y553136D01*
X399581Y553066D01*
X399608Y553021D01*
X399626Y552973D01*
X399671Y552917D01*
X399708Y552855D01*
X399747Y552821D01*
X399780Y552781D01*
X399840Y552742D01*
X399894Y552695D01*
X399943Y552676D01*
X399987Y552648D01*
X400056Y552630D01*
X400123Y552603D01*
X400194Y552595D01*
X400225Y552587D01*
X400248Y552589D01*
X400289Y552585D01*
X404032Y552585D01*
X404925Y551692D01*
X404925Y539085D01*
X404939Y538994D01*
X404947Y538904D01*
X404959Y538874D01*
X404964Y538842D01*
X405007Y538761D01*
X405043Y538677D01*
X405069Y538645D01*
X405080Y538624D01*
X405103Y538602D01*
X405148Y538546D01*
X406576Y537118D01*
X406634Y537076D01*
X406686Y537027D01*
X406733Y537005D01*
X406775Y536975D01*
X406844Y536954D01*
X406909Y536923D01*
X406961Y536918D01*
X407011Y536902D01*
X407082Y536904D01*
X407153Y536896D01*
X407204Y536907D01*
X407256Y536909D01*
X407324Y536933D01*
X407394Y536948D01*
X407439Y536975D01*
X407487Y536993D01*
X407543Y537038D01*
X407605Y537075D01*
X407639Y537114D01*
X407679Y537147D01*
X407718Y537207D01*
X407765Y537262D01*
X407784Y537310D01*
X407812Y537354D01*
X407830Y537423D01*
X407857Y537490D01*
X407865Y537561D01*
X407873Y537592D01*
X407871Y537616D01*
X407875Y537656D01*
X407875Y551692D01*
X408768Y552585D01*
X423032Y552585D01*
X423925Y551692D01*
X423925Y546608D01*
X423928Y546588D01*
X423926Y546569D01*
X423948Y546467D01*
X423964Y546365D01*
X423974Y546348D01*
X423978Y546328D01*
X424031Y546239D01*
X424080Y546148D01*
X424094Y546134D01*
X424104Y546117D01*
X424183Y546050D01*
X424258Y545978D01*
X424276Y545970D01*
X424291Y545957D01*
X424387Y545918D01*
X424481Y545875D01*
X424501Y545873D01*
X424519Y545865D01*
X424686Y545847D01*
X438914Y545847D01*
X438934Y545850D01*
X438953Y545848D01*
X439055Y545870D01*
X439157Y545886D01*
X439174Y545896D01*
X439194Y545900D01*
X439283Y545953D01*
X439374Y546002D01*
X439388Y546016D01*
X439405Y546026D01*
X439472Y546105D01*
X439544Y546180D01*
X439552Y546198D01*
X439565Y546213D01*
X439604Y546309D01*
X439647Y546403D01*
X439649Y546423D01*
X439657Y546441D01*
X439675Y546608D01*
X439675Y551692D01*
X440568Y552585D01*
X454832Y552585D01*
X455725Y551692D01*
X455725Y535428D01*
X454832Y534535D01*
X440568Y534535D01*
X439675Y535428D01*
X439675Y540512D01*
X439672Y540532D01*
X439674Y540551D01*
X439652Y540653D01*
X439636Y540755D01*
X439626Y540772D01*
X439622Y540792D01*
X439569Y540881D01*
X439520Y540972D01*
X439506Y540986D01*
X439496Y541003D01*
X439417Y541070D01*
X439342Y541142D01*
X439324Y541150D01*
X439309Y541163D01*
X439213Y541202D01*
X439119Y541245D01*
X439099Y541247D01*
X439081Y541255D01*
X438914Y541273D01*
X424686Y541273D01*
X424666Y541270D01*
X424647Y541272D01*
X424545Y541250D01*
X424443Y541234D01*
X424426Y541224D01*
X424406Y541220D01*
X424317Y541167D01*
X424226Y541118D01*
X424212Y541104D01*
X424195Y541094D01*
X424128Y541015D01*
X424056Y540940D01*
X424048Y540922D01*
X424035Y540907D01*
X423996Y540811D01*
X423953Y540717D01*
X423951Y540697D01*
X423943Y540679D01*
X423925Y540512D01*
X423925Y535428D01*
X423032Y534535D01*
X410996Y534535D01*
X410926Y534524D01*
X410854Y534522D01*
X410805Y534504D01*
X410754Y534496D01*
X410690Y534462D01*
X410623Y534437D01*
X410582Y534405D01*
X410536Y534380D01*
X410487Y534328D01*
X410431Y534284D01*
X410403Y534240D01*
X410367Y534202D01*
X410337Y534137D01*
X410298Y534077D01*
X410285Y534026D01*
X410263Y533979D01*
X410255Y533908D01*
X410238Y533838D01*
X410242Y533786D01*
X410236Y533735D01*
X410251Y533664D01*
X410257Y533593D01*
X410277Y533545D01*
X410288Y533494D01*
X410325Y533433D01*
X410353Y533367D01*
X410398Y533311D01*
X410415Y533283D01*
X410432Y533268D01*
X410458Y533236D01*
X418187Y525507D01*
X418187Y525406D01*
X418190Y525386D01*
X418188Y525367D01*
X418210Y525265D01*
X418226Y525163D01*
X418236Y525146D01*
X418240Y525126D01*
X418293Y525037D01*
X418342Y524946D01*
X418356Y524932D01*
X418366Y524915D01*
X418445Y524848D01*
X418520Y524776D01*
X418538Y524768D01*
X418553Y524755D01*
X418649Y524716D01*
X418743Y524673D01*
X418763Y524671D01*
X418781Y524663D01*
X418948Y524645D01*
X423032Y524645D01*
X423925Y523752D01*
X423925Y513653D01*
X423939Y513562D01*
X423947Y513472D01*
X423959Y513442D01*
X423964Y513410D01*
X424007Y513329D01*
X424043Y513245D01*
X424069Y513213D01*
X424080Y513192D01*
X424103Y513170D01*
X424148Y513114D01*
X441549Y495713D01*
X441607Y495671D01*
X441659Y495622D01*
X441706Y495600D01*
X441748Y495570D01*
X441817Y495549D01*
X441882Y495518D01*
X441934Y495513D01*
X441984Y495497D01*
X442055Y495499D01*
X442126Y495491D01*
X442177Y495502D01*
X442229Y495504D01*
X442297Y495528D01*
X442367Y495544D01*
X442412Y495570D01*
X442460Y495588D01*
X442516Y495633D01*
X442578Y495670D01*
X442612Y495709D01*
X442652Y495742D01*
X442691Y495802D01*
X442738Y495857D01*
X442757Y495905D01*
X442785Y495949D01*
X442803Y496018D01*
X442830Y496085D01*
X442838Y496156D01*
X442846Y496187D01*
X442844Y496211D01*
X442848Y496252D01*
X442848Y505834D01*
X442845Y505854D01*
X442847Y505873D01*
X442825Y505975D01*
X442809Y506077D01*
X442799Y506094D01*
X442795Y506114D01*
X442742Y506203D01*
X442693Y506294D01*
X442679Y506308D01*
X442669Y506325D01*
X442590Y506392D01*
X442515Y506464D01*
X442497Y506472D01*
X442482Y506485D01*
X442386Y506524D01*
X442292Y506567D01*
X442272Y506569D01*
X442254Y506577D01*
X442087Y506595D01*
X440568Y506595D01*
X439675Y507488D01*
X439675Y523752D01*
X440568Y524645D01*
X454832Y524645D01*
X455725Y523752D01*
X455725Y507488D01*
X454832Y506595D01*
X448183Y506595D01*
X448163Y506592D01*
X448144Y506594D01*
X448042Y506572D01*
X447940Y506556D01*
X447923Y506546D01*
X447903Y506542D01*
X447814Y506489D01*
X447723Y506440D01*
X447709Y506426D01*
X447692Y506416D01*
X447625Y506337D01*
X447553Y506262D01*
X447545Y506244D01*
X447532Y506229D01*
X447493Y506133D01*
X447450Y506039D01*
X447448Y506019D01*
X447440Y506001D01*
X447422Y505834D01*
X447422Y474227D01*
X444470Y471275D01*
X444417Y471201D01*
X444357Y471132D01*
X444345Y471102D01*
X444326Y471075D01*
X444299Y470989D01*
X444265Y470904D01*
X444261Y470863D01*
X444254Y470840D01*
X444255Y470808D01*
X444247Y470737D01*
X444247Y470255D01*
X444261Y470165D01*
X444269Y470074D01*
X444281Y470044D01*
X444286Y470012D01*
X444329Y469931D01*
X444365Y469848D01*
X444391Y469815D01*
X444402Y469795D01*
X444425Y469773D01*
X444470Y469717D01*
X445215Y468972D01*
X445215Y455708D01*
X444322Y454815D01*
X437058Y454815D01*
X436165Y455708D01*
X436165Y465444D01*
X436154Y465514D01*
X436152Y465586D01*
X436134Y465635D01*
X436126Y465686D01*
X436092Y465750D01*
X436067Y465817D01*
X436035Y465858D01*
X436010Y465904D01*
X435959Y465953D01*
X435914Y466009D01*
X435870Y466037D01*
X435832Y466073D01*
X435767Y466103D01*
X435707Y466142D01*
X435656Y466155D01*
X435609Y466177D01*
X435538Y466185D01*
X435468Y466202D01*
X435416Y466198D01*
X435365Y466204D01*
X435294Y466189D01*
X435223Y466183D01*
X435175Y466163D01*
X435124Y466152D01*
X435063Y466115D01*
X434997Y466087D01*
X434941Y466042D01*
X434913Y466025D01*
X434898Y466008D01*
X434866Y465982D01*
X432738Y463854D01*
X432685Y463780D01*
X432625Y463710D01*
X432613Y463680D01*
X432594Y463654D01*
X432567Y463567D01*
X432533Y463482D01*
X432529Y463441D01*
X432522Y463419D01*
X432523Y463387D01*
X432515Y463316D01*
X432515Y455708D01*
X431622Y454815D01*
X424358Y454815D01*
X423465Y455708D01*
X423465Y465444D01*
X423454Y465514D01*
X423452Y465586D01*
X423434Y465635D01*
X423426Y465686D01*
X423392Y465750D01*
X423367Y465817D01*
X423335Y465858D01*
X423310Y465904D01*
X423258Y465953D01*
X423214Y466009D01*
X423170Y466037D01*
X423132Y466073D01*
X423067Y466103D01*
X423007Y466142D01*
X422956Y466155D01*
X422909Y466177D01*
X422838Y466185D01*
X422768Y466202D01*
X422716Y466198D01*
X422665Y466204D01*
X422594Y466189D01*
X422523Y466183D01*
X422475Y466163D01*
X422424Y466152D01*
X422363Y466115D01*
X422297Y466087D01*
X422241Y466042D01*
X422213Y466025D01*
X422198Y466008D01*
X422166Y465982D01*
X420038Y463854D01*
X419985Y463780D01*
X419925Y463710D01*
X419913Y463680D01*
X419894Y463654D01*
X419867Y463567D01*
X419833Y463482D01*
X419829Y463441D01*
X419822Y463419D01*
X419823Y463387D01*
X419815Y463315D01*
X419815Y455708D01*
X418922Y454815D01*
X415654Y454815D01*
X415583Y454804D01*
X415511Y454802D01*
X415462Y454784D01*
X415411Y454776D01*
X415348Y454742D01*
X415280Y454717D01*
X415239Y454685D01*
X415193Y454660D01*
X415144Y454609D01*
X415088Y454564D01*
X415060Y454520D01*
X415024Y454482D01*
X414994Y454417D01*
X414955Y454357D01*
X414942Y454306D01*
X414920Y454259D01*
X414913Y454188D01*
X414895Y454118D01*
X414899Y454066D01*
X414893Y454015D01*
X414909Y453944D01*
X414914Y453873D01*
X414935Y453825D01*
X414946Y453774D01*
X414982Y453713D01*
X415010Y453647D01*
X415055Y453591D01*
X415072Y453563D01*
X415090Y453548D01*
X415115Y453516D01*
X416212Y452419D01*
X417775Y450856D01*
X417775Y445235D01*
X417789Y445145D01*
X417797Y445054D01*
X417809Y445025D01*
X417814Y444993D01*
X417857Y444912D01*
X417893Y444828D01*
X417919Y444796D01*
X417930Y444775D01*
X417953Y444753D01*
X417998Y444697D01*
X419635Y443060D01*
X419651Y443049D01*
X419663Y443033D01*
X419751Y442977D01*
X419834Y442917D01*
X419853Y442911D01*
X419870Y442900D01*
X419971Y442875D01*
X420070Y442844D01*
X420089Y442845D01*
X420109Y442840D01*
X420212Y442848D01*
X420315Y442851D01*
X420334Y442857D01*
X420354Y442859D01*
X420449Y442899D01*
X420546Y442935D01*
X420562Y442948D01*
X420580Y442955D01*
X420711Y443060D01*
X422378Y444727D01*
X426774Y444727D01*
X429883Y441618D01*
X429883Y437222D01*
X426774Y434113D01*
X423129Y434113D01*
X423038Y434099D01*
X422948Y434091D01*
X422918Y434079D01*
X422886Y434074D01*
X422805Y434031D01*
X422721Y433995D01*
X422689Y433969D01*
X422668Y433958D01*
X422646Y433935D01*
X422590Y433890D01*
X420047Y431347D01*
X402939Y431347D01*
G37*
%LPD*%
%LPC*%
G36*
X67633Y28193D02*
X67633Y28193D01*
X63256Y32570D01*
X63182Y32623D01*
X63112Y32683D01*
X63082Y32695D01*
X63056Y32714D01*
X62969Y32741D01*
X62884Y32775D01*
X62843Y32779D01*
X62821Y32786D01*
X62789Y32785D01*
X62717Y32793D01*
X58762Y32793D01*
X55653Y35902D01*
X55653Y40298D01*
X57871Y42516D01*
X57913Y42574D01*
X57962Y42626D01*
X57984Y42673D01*
X58014Y42715D01*
X58036Y42784D01*
X58066Y42849D01*
X58071Y42901D01*
X58087Y42951D01*
X58085Y43022D01*
X58093Y43093D01*
X58082Y43144D01*
X58080Y43196D01*
X58056Y43264D01*
X58041Y43334D01*
X58014Y43379D01*
X57996Y43427D01*
X57951Y43483D01*
X57914Y43545D01*
X57875Y43579D01*
X57842Y43619D01*
X57782Y43658D01*
X57727Y43705D01*
X57679Y43724D01*
X57635Y43752D01*
X57566Y43770D01*
X57499Y43797D01*
X57428Y43805D01*
X57397Y43813D01*
X57374Y43811D01*
X57333Y43815D01*
X55758Y43815D01*
X54678Y44895D01*
X54662Y44907D01*
X54650Y44923D01*
X54562Y44979D01*
X54479Y45039D01*
X54460Y45045D01*
X54443Y45056D01*
X54342Y45081D01*
X54243Y45111D01*
X54224Y45111D01*
X54204Y45116D01*
X54101Y45108D01*
X53998Y45105D01*
X53979Y45098D01*
X53959Y45097D01*
X53864Y45056D01*
X53767Y45021D01*
X53751Y45008D01*
X53733Y45000D01*
X53602Y44895D01*
X52522Y43815D01*
X43258Y43815D01*
X42365Y44708D01*
X42365Y61972D01*
X43258Y62865D01*
X52522Y62865D01*
X53602Y61785D01*
X53618Y61773D01*
X53630Y61757D01*
X53718Y61701D01*
X53801Y61641D01*
X53820Y61635D01*
X53837Y61624D01*
X53938Y61599D01*
X54037Y61569D01*
X54056Y61569D01*
X54076Y61564D01*
X54179Y61572D01*
X54282Y61575D01*
X54301Y61582D01*
X54321Y61583D01*
X54416Y61624D01*
X54513Y61659D01*
X54529Y61672D01*
X54547Y61680D01*
X54678Y61785D01*
X55758Y62865D01*
X65022Y62865D01*
X66102Y61785D01*
X66118Y61773D01*
X66130Y61757D01*
X66218Y61701D01*
X66301Y61641D01*
X66320Y61635D01*
X66337Y61624D01*
X66438Y61599D01*
X66537Y61569D01*
X66556Y61569D01*
X66576Y61564D01*
X66679Y61572D01*
X66782Y61575D01*
X66801Y61582D01*
X66821Y61583D01*
X66916Y61624D01*
X67013Y61659D01*
X67029Y61672D01*
X67047Y61680D01*
X67178Y61785D01*
X68258Y62865D01*
X69842Y62865D01*
X69862Y62868D01*
X69881Y62866D01*
X69983Y62888D01*
X70085Y62904D01*
X70102Y62914D01*
X70122Y62918D01*
X70211Y62971D01*
X70302Y63020D01*
X70316Y63034D01*
X70333Y63044D01*
X70400Y63123D01*
X70472Y63198D01*
X70480Y63216D01*
X70493Y63231D01*
X70532Y63327D01*
X70575Y63421D01*
X70577Y63441D01*
X70585Y63459D01*
X70603Y63626D01*
X70603Y129047D01*
X70589Y129138D01*
X70581Y129228D01*
X70569Y129258D01*
X70564Y129290D01*
X70521Y129371D01*
X70485Y129455D01*
X70459Y129487D01*
X70448Y129508D01*
X70425Y129530D01*
X70380Y129586D01*
X56457Y143509D01*
X56441Y143521D01*
X56428Y143536D01*
X56341Y143592D01*
X56257Y143653D01*
X56238Y143658D01*
X56222Y143669D01*
X56121Y143695D01*
X56022Y143725D01*
X56002Y143724D01*
X55983Y143729D01*
X55880Y143721D01*
X55776Y143719D01*
X55758Y143712D01*
X55738Y143710D01*
X55643Y143670D01*
X55545Y143634D01*
X55530Y143622D01*
X55511Y143614D01*
X55380Y143509D01*
X54746Y142874D01*
X46854Y142874D01*
X41274Y148454D01*
X41274Y156346D01*
X46854Y161926D01*
X54746Y161926D01*
X60326Y156346D01*
X60326Y148454D01*
X59691Y147820D01*
X59679Y147803D01*
X59664Y147791D01*
X59608Y147704D01*
X59547Y147620D01*
X59542Y147601D01*
X59531Y147584D01*
X59505Y147483D01*
X59475Y147385D01*
X59476Y147365D01*
X59471Y147345D01*
X59479Y147242D01*
X59481Y147139D01*
X59488Y147120D01*
X59490Y147100D01*
X59530Y147005D01*
X59566Y146908D01*
X59578Y146892D01*
X59586Y146874D01*
X59691Y146743D01*
X72352Y134082D01*
X72410Y134040D01*
X72462Y133991D01*
X72509Y133969D01*
X72551Y133939D01*
X72620Y133918D01*
X72685Y133887D01*
X72737Y133882D01*
X72787Y133866D01*
X72858Y133868D01*
X72929Y133860D01*
X72980Y133871D01*
X73032Y133873D01*
X73100Y133897D01*
X73170Y133912D01*
X73214Y133939D01*
X73263Y133957D01*
X73319Y134002D01*
X73381Y134039D01*
X73415Y134078D01*
X73455Y134111D01*
X73494Y134171D01*
X73541Y134226D01*
X73560Y134274D01*
X73588Y134318D01*
X73606Y134387D01*
X73633Y134454D01*
X73641Y134525D01*
X73649Y134556D01*
X73647Y134580D01*
X73651Y134620D01*
X73651Y151399D01*
X73637Y151490D01*
X73629Y151580D01*
X73617Y151610D01*
X73612Y151642D01*
X73569Y151723D01*
X73533Y151807D01*
X73507Y151839D01*
X73496Y151860D01*
X73473Y151882D01*
X73428Y151938D01*
X56457Y168909D01*
X56441Y168921D01*
X56428Y168936D01*
X56341Y168992D01*
X56257Y169053D01*
X56238Y169058D01*
X56222Y169069D01*
X56121Y169095D01*
X56022Y169125D01*
X56002Y169124D01*
X55983Y169129D01*
X55880Y169121D01*
X55776Y169119D01*
X55758Y169112D01*
X55738Y169110D01*
X55643Y169070D01*
X55545Y169034D01*
X55530Y169022D01*
X55511Y169014D01*
X55380Y168909D01*
X54746Y168274D01*
X46854Y168274D01*
X41274Y173854D01*
X41274Y181746D01*
X46854Y187326D01*
X54746Y187326D01*
X60326Y181746D01*
X60326Y173854D01*
X59691Y173220D01*
X59679Y173203D01*
X59664Y173191D01*
X59608Y173104D01*
X59547Y173020D01*
X59542Y173001D01*
X59531Y172984D01*
X59505Y172883D01*
X59475Y172785D01*
X59476Y172765D01*
X59471Y172745D01*
X59479Y172642D01*
X59481Y172539D01*
X59488Y172520D01*
X59490Y172500D01*
X59530Y172405D01*
X59566Y172308D01*
X59578Y172292D01*
X59586Y172274D01*
X59691Y172143D01*
X76662Y155172D01*
X78225Y153609D01*
X78225Y79287D01*
X78239Y79197D01*
X78247Y79106D01*
X78259Y79077D01*
X78264Y79045D01*
X78307Y78964D01*
X78343Y78880D01*
X78369Y78848D01*
X78380Y78827D01*
X78403Y78805D01*
X78448Y78749D01*
X94109Y63088D01*
X94183Y63035D01*
X94253Y62975D01*
X94283Y62963D01*
X94309Y62944D01*
X94396Y62917D01*
X94481Y62883D01*
X94522Y62879D01*
X94544Y62872D01*
X94576Y62873D01*
X94647Y62865D01*
X102522Y62865D01*
X103602Y61785D01*
X103618Y61773D01*
X103630Y61757D01*
X103718Y61701D01*
X103801Y61641D01*
X103820Y61635D01*
X103837Y61624D01*
X103938Y61599D01*
X104037Y61569D01*
X104056Y61569D01*
X104076Y61564D01*
X104179Y61572D01*
X104282Y61575D01*
X104301Y61582D01*
X104321Y61583D01*
X104416Y61624D01*
X104513Y61659D01*
X104529Y61672D01*
X104547Y61680D01*
X104678Y61785D01*
X105758Y62865D01*
X115022Y62865D01*
X116102Y61785D01*
X116118Y61773D01*
X116130Y61757D01*
X116218Y61701D01*
X116301Y61641D01*
X116320Y61635D01*
X116337Y61624D01*
X116438Y61599D01*
X116537Y61569D01*
X116556Y61569D01*
X116576Y61564D01*
X116679Y61572D01*
X116782Y61575D01*
X116801Y61582D01*
X116821Y61583D01*
X116916Y61624D01*
X117013Y61659D01*
X117029Y61672D01*
X117047Y61680D01*
X117178Y61785D01*
X118258Y62865D01*
X127522Y62865D01*
X127971Y62416D01*
X128066Y62347D01*
X128163Y62276D01*
X128167Y62274D01*
X128170Y62272D01*
X128282Y62238D01*
X128397Y62201D01*
X128402Y62201D01*
X128406Y62200D01*
X128524Y62203D01*
X128643Y62205D01*
X128647Y62206D01*
X128651Y62206D01*
X128764Y62247D01*
X128875Y62287D01*
X128878Y62289D01*
X128882Y62291D01*
X128976Y62365D01*
X129069Y62438D01*
X129072Y62442D01*
X129074Y62444D01*
X129082Y62456D01*
X129168Y62573D01*
X129357Y62900D01*
X129830Y63373D01*
X130409Y63708D01*
X131056Y63881D01*
X133867Y63881D01*
X133867Y54102D01*
X133870Y54082D01*
X133868Y54063D01*
X133890Y53961D01*
X133907Y53859D01*
X133916Y53842D01*
X133920Y53822D01*
X133973Y53733D01*
X134022Y53642D01*
X134036Y53628D01*
X134046Y53611D01*
X134125Y53544D01*
X134200Y53473D01*
X134218Y53464D01*
X134233Y53451D01*
X134329Y53412D01*
X134423Y53369D01*
X134443Y53367D01*
X134461Y53359D01*
X134628Y53341D01*
X136152Y53341D01*
X136172Y53344D01*
X136191Y53342D01*
X136293Y53364D01*
X136395Y53381D01*
X136412Y53390D01*
X136432Y53394D01*
X136521Y53447D01*
X136612Y53496D01*
X136626Y53510D01*
X136643Y53520D01*
X136710Y53599D01*
X136781Y53674D01*
X136790Y53692D01*
X136803Y53707D01*
X136842Y53803D01*
X136885Y53897D01*
X136887Y53917D01*
X136895Y53935D01*
X136913Y54102D01*
X136913Y63881D01*
X139724Y63881D01*
X140371Y63708D01*
X140950Y63373D01*
X141423Y62900D01*
X141612Y62573D01*
X141686Y62482D01*
X141761Y62388D01*
X141765Y62386D01*
X141768Y62383D01*
X141867Y62320D01*
X141968Y62255D01*
X141972Y62254D01*
X141976Y62252D01*
X142091Y62224D01*
X142207Y62195D01*
X142211Y62196D01*
X142215Y62195D01*
X142334Y62205D01*
X142452Y62214D01*
X142456Y62216D01*
X142460Y62216D01*
X142569Y62264D01*
X142678Y62311D01*
X142682Y62314D01*
X142685Y62315D01*
X142695Y62324D01*
X142809Y62416D01*
X143258Y62865D01*
X152522Y62865D01*
X153602Y61785D01*
X153618Y61773D01*
X153630Y61757D01*
X153718Y61701D01*
X153801Y61641D01*
X153820Y61635D01*
X153837Y61624D01*
X153938Y61599D01*
X154037Y61569D01*
X154056Y61569D01*
X154076Y61564D01*
X154179Y61572D01*
X154282Y61575D01*
X154301Y61582D01*
X154321Y61583D01*
X154416Y61624D01*
X154513Y61659D01*
X154529Y61672D01*
X154547Y61680D01*
X154678Y61785D01*
X155758Y62865D01*
X165022Y62865D01*
X165915Y61972D01*
X165915Y44708D01*
X165022Y43815D01*
X155758Y43815D01*
X154678Y44895D01*
X154662Y44907D01*
X154650Y44923D01*
X154562Y44979D01*
X154479Y45039D01*
X154460Y45045D01*
X154443Y45056D01*
X154342Y45081D01*
X154243Y45111D01*
X154224Y45111D01*
X154204Y45116D01*
X154101Y45108D01*
X153998Y45105D01*
X153979Y45098D01*
X153959Y45097D01*
X153864Y45056D01*
X153767Y45021D01*
X153751Y45008D01*
X153733Y45000D01*
X153602Y44895D01*
X152522Y43815D01*
X150938Y43815D01*
X150918Y43812D01*
X150899Y43814D01*
X150797Y43792D01*
X150695Y43776D01*
X150678Y43766D01*
X150658Y43762D01*
X150569Y43709D01*
X150478Y43660D01*
X150464Y43646D01*
X150447Y43636D01*
X150380Y43557D01*
X150308Y43482D01*
X150300Y43464D01*
X150287Y43449D01*
X150248Y43353D01*
X150205Y43259D01*
X150203Y43239D01*
X150195Y43221D01*
X150177Y43054D01*
X150177Y35183D01*
X143187Y28193D01*
X67633Y28193D01*
G37*
%LPD*%
%LPC*%
G36*
X152742Y441733D02*
X152742Y441733D01*
X149633Y444842D01*
X149633Y449238D01*
X152742Y452347D01*
X156697Y452347D01*
X156788Y452361D01*
X156878Y452369D01*
X156908Y452381D01*
X156940Y452386D01*
X157021Y452429D01*
X157105Y452465D01*
X157137Y452491D01*
X157158Y452502D01*
X157180Y452525D01*
X157236Y452570D01*
X157764Y453098D01*
X157817Y453172D01*
X157877Y453242D01*
X157889Y453272D01*
X157908Y453298D01*
X157935Y453385D01*
X157969Y453470D01*
X157973Y453511D01*
X157980Y453533D01*
X157979Y453565D01*
X157987Y453637D01*
X157987Y517453D01*
X157973Y517543D01*
X157965Y517634D01*
X157953Y517663D01*
X157948Y517695D01*
X157905Y517776D01*
X157869Y517860D01*
X157843Y517892D01*
X157832Y517913D01*
X157809Y517935D01*
X157764Y517991D01*
X154713Y521042D01*
X154713Y521443D01*
X154702Y521514D01*
X154700Y521585D01*
X154682Y521634D01*
X154674Y521686D01*
X154640Y521749D01*
X154615Y521817D01*
X154583Y521857D01*
X154558Y521903D01*
X154506Y521953D01*
X154462Y522009D01*
X154418Y522037D01*
X154380Y522073D01*
X154315Y522103D01*
X154255Y522142D01*
X154204Y522154D01*
X154157Y522176D01*
X154086Y522184D01*
X154016Y522202D01*
X153964Y522198D01*
X153913Y522203D01*
X153842Y522188D01*
X153771Y522182D01*
X153723Y522162D01*
X153672Y522151D01*
X153611Y522114D01*
X153545Y522086D01*
X153489Y522041D01*
X153461Y522025D01*
X153446Y522007D01*
X153414Y521981D01*
X152850Y521417D01*
X152796Y521343D01*
X152737Y521274D01*
X152725Y521244D01*
X152706Y521218D01*
X152679Y521130D01*
X152645Y521046D01*
X152641Y521005D01*
X152634Y520982D01*
X152635Y520950D01*
X152627Y520879D01*
X152627Y520150D01*
X149518Y517041D01*
X145122Y517041D01*
X142013Y520150D01*
X142013Y524546D01*
X143821Y526354D01*
X143832Y526370D01*
X143848Y526382D01*
X143904Y526470D01*
X143964Y526553D01*
X143970Y526572D01*
X143981Y526589D01*
X144006Y526690D01*
X144037Y526789D01*
X144036Y526808D01*
X144041Y526828D01*
X144033Y526931D01*
X144030Y527034D01*
X144024Y527053D01*
X144022Y527073D01*
X143982Y527168D01*
X143946Y527265D01*
X143933Y527281D01*
X143926Y527299D01*
X143821Y527430D01*
X142013Y529238D01*
X142013Y533634D01*
X143644Y535265D01*
X143686Y535323D01*
X143735Y535375D01*
X143757Y535422D01*
X143787Y535464D01*
X143808Y535533D01*
X143839Y535598D01*
X143844Y535650D01*
X143860Y535699D01*
X143858Y535771D01*
X143866Y535842D01*
X143855Y535893D01*
X143853Y535945D01*
X143829Y536013D01*
X143813Y536083D01*
X143787Y536127D01*
X143769Y536176D01*
X143724Y536232D01*
X143687Y536294D01*
X143648Y536328D01*
X143615Y536368D01*
X143555Y536407D01*
X143500Y536454D01*
X143452Y536473D01*
X143408Y536501D01*
X143339Y536519D01*
X143272Y536546D01*
X143201Y536554D01*
X143170Y536561D01*
X143146Y536560D01*
X143105Y536564D01*
X139925Y536564D01*
X139925Y570348D01*
X172058Y570348D01*
X172058Y538770D01*
X171885Y538124D01*
X171550Y537545D01*
X171077Y537072D01*
X170498Y536737D01*
X169852Y536564D01*
X151535Y536564D01*
X151464Y536553D01*
X151392Y536551D01*
X151343Y536533D01*
X151292Y536524D01*
X151228Y536491D01*
X151161Y536466D01*
X151120Y536434D01*
X151074Y536409D01*
X151025Y536357D01*
X150969Y536312D01*
X150941Y536269D01*
X150905Y536231D01*
X150875Y536166D01*
X150836Y536106D01*
X150823Y536055D01*
X150801Y536008D01*
X150794Y535937D01*
X150776Y535867D01*
X150780Y535815D01*
X150774Y535763D01*
X150790Y535693D01*
X150795Y535622D01*
X150816Y535574D01*
X150827Y535523D01*
X150863Y535461D01*
X150891Y535396D01*
X150936Y535340D01*
X150953Y535312D01*
X150971Y535297D01*
X150996Y535265D01*
X151395Y534866D01*
X151469Y534812D01*
X151539Y534753D01*
X151569Y534741D01*
X151595Y534722D01*
X151682Y534695D01*
X151767Y534661D01*
X151808Y534657D01*
X151830Y534650D01*
X151862Y534651D01*
X151933Y534643D01*
X173942Y534643D01*
X182835Y525750D01*
X182909Y525697D01*
X182978Y525637D01*
X183008Y525625D01*
X183035Y525606D01*
X183121Y525579D01*
X183206Y525545D01*
X183247Y525541D01*
X183270Y525534D01*
X183302Y525535D01*
X183373Y525527D01*
X204300Y525527D01*
X205862Y523964D01*
X214592Y515234D01*
X216155Y513672D01*
X216155Y492443D01*
X216169Y492352D01*
X216177Y492262D01*
X216189Y492232D01*
X216194Y492200D01*
X216237Y492119D01*
X216273Y492035D01*
X216299Y492003D01*
X216310Y491982D01*
X216333Y491960D01*
X216378Y491904D01*
X217612Y490670D01*
X217686Y490617D01*
X217756Y490557D01*
X217786Y490545D01*
X217812Y490526D01*
X217899Y490499D01*
X217984Y490465D01*
X218025Y490461D01*
X218047Y490454D01*
X218079Y490455D01*
X218151Y490447D01*
X222106Y490447D01*
X225215Y487338D01*
X225215Y482942D01*
X222106Y479833D01*
X217710Y479833D01*
X215902Y481641D01*
X215886Y481652D01*
X215874Y481668D01*
X215786Y481724D01*
X215703Y481784D01*
X215684Y481790D01*
X215667Y481801D01*
X215566Y481826D01*
X215467Y481857D01*
X215448Y481856D01*
X215428Y481861D01*
X215325Y481853D01*
X215222Y481850D01*
X215203Y481844D01*
X215183Y481842D01*
X215088Y481802D01*
X214991Y481766D01*
X214975Y481753D01*
X214957Y481746D01*
X214826Y481641D01*
X213018Y479833D01*
X208622Y479833D01*
X205513Y482942D01*
X205513Y487338D01*
X208310Y490135D01*
X208363Y490209D01*
X208423Y490279D01*
X208435Y490309D01*
X208454Y490335D01*
X208481Y490422D01*
X208515Y490507D01*
X208519Y490548D01*
X208526Y490570D01*
X208525Y490602D01*
X208533Y490673D01*
X208533Y510199D01*
X208519Y510289D01*
X208511Y510380D01*
X208499Y510410D01*
X208494Y510442D01*
X208451Y510523D01*
X208415Y510607D01*
X208389Y510639D01*
X208378Y510659D01*
X208355Y510682D01*
X208310Y510738D01*
X201366Y517682D01*
X201292Y517735D01*
X201222Y517795D01*
X201192Y517807D01*
X201166Y517826D01*
X201079Y517853D01*
X200994Y517887D01*
X200953Y517891D01*
X200931Y517898D01*
X200899Y517897D01*
X200827Y517905D01*
X179901Y517905D01*
X178338Y519468D01*
X177076Y520730D01*
X177002Y520783D01*
X176932Y520843D01*
X176902Y520855D01*
X176876Y520874D01*
X176798Y520898D01*
X175714Y521981D01*
X175656Y522023D01*
X175604Y522073D01*
X175557Y522094D01*
X175515Y522125D01*
X175446Y522146D01*
X175381Y522176D01*
X175329Y522182D01*
X175279Y522197D01*
X175208Y522195D01*
X175137Y522203D01*
X175086Y522192D01*
X175034Y522191D01*
X174966Y522166D01*
X174896Y522151D01*
X174851Y522124D01*
X174803Y522106D01*
X174747Y522062D01*
X174685Y522025D01*
X174651Y521985D01*
X174611Y521953D01*
X174572Y521892D01*
X174525Y521838D01*
X174506Y521790D01*
X174478Y521746D01*
X174460Y521676D01*
X174433Y521610D01*
X174425Y521538D01*
X174417Y521507D01*
X174419Y521484D01*
X174415Y521443D01*
X174415Y521042D01*
X171306Y517933D01*
X167351Y517933D01*
X167260Y517919D01*
X167170Y517911D01*
X167140Y517899D01*
X167108Y517894D01*
X167027Y517851D01*
X166943Y517815D01*
X166911Y517789D01*
X166890Y517778D01*
X166874Y517761D01*
X166872Y517760D01*
X166864Y517752D01*
X166812Y517710D01*
X165832Y516730D01*
X165779Y516656D01*
X165719Y516586D01*
X165707Y516556D01*
X165688Y516530D01*
X165661Y516443D01*
X165627Y516358D01*
X165623Y516317D01*
X165616Y516295D01*
X165617Y516263D01*
X165609Y516191D01*
X165609Y478021D01*
X165623Y477930D01*
X165631Y477840D01*
X165643Y477810D01*
X165648Y477778D01*
X165691Y477697D01*
X165727Y477613D01*
X165753Y477581D01*
X165764Y477560D01*
X165787Y477538D01*
X165832Y477482D01*
X167506Y475808D01*
X167522Y475796D01*
X167535Y475780D01*
X167622Y475724D01*
X167706Y475664D01*
X167725Y475658D01*
X167742Y475647D01*
X167842Y475622D01*
X167941Y475592D01*
X167961Y475592D01*
X167980Y475587D01*
X168083Y475595D01*
X168187Y475598D01*
X168206Y475605D01*
X168226Y475607D01*
X168320Y475647D01*
X168418Y475683D01*
X168434Y475695D01*
X168452Y475703D01*
X168583Y475808D01*
X170522Y477747D01*
X174918Y477747D01*
X178027Y474638D01*
X178027Y470242D01*
X174918Y467133D01*
X170522Y467133D01*
X167725Y469930D01*
X167651Y469983D01*
X167581Y470043D01*
X167551Y470055D01*
X167525Y470074D01*
X167438Y470101D01*
X167353Y470135D01*
X167312Y470139D01*
X167290Y470146D01*
X167258Y470145D01*
X167187Y470153D01*
X166693Y470153D01*
X163860Y472986D01*
X163802Y473028D01*
X163750Y473077D01*
X163703Y473099D01*
X163661Y473129D01*
X163592Y473150D01*
X163527Y473181D01*
X163475Y473186D01*
X163425Y473202D01*
X163354Y473200D01*
X163283Y473208D01*
X163232Y473197D01*
X163180Y473195D01*
X163112Y473171D01*
X163042Y473156D01*
X162997Y473129D01*
X162949Y473111D01*
X162893Y473066D01*
X162831Y473029D01*
X162797Y472990D01*
X162757Y472957D01*
X162718Y472897D01*
X162671Y472842D01*
X162652Y472794D01*
X162624Y472750D01*
X162606Y472681D01*
X162579Y472614D01*
X162571Y472543D01*
X162563Y472512D01*
X162565Y472488D01*
X162561Y472448D01*
X162561Y451427D01*
X160470Y449336D01*
X160417Y449262D01*
X160357Y449192D01*
X160345Y449162D01*
X160326Y449136D01*
X160299Y449049D01*
X160265Y448964D01*
X160261Y448923D01*
X160254Y448901D01*
X160255Y448869D01*
X160247Y448797D01*
X160247Y444842D01*
X157138Y441733D01*
X152742Y441733D01*
G37*
%LPD*%
%LPC*%
G36*
X343242Y441733D02*
X343242Y441733D01*
X340133Y444842D01*
X340133Y449238D01*
X342930Y452035D01*
X342983Y452109D01*
X343043Y452179D01*
X343055Y452209D01*
X343074Y452235D01*
X343101Y452322D01*
X343135Y452407D01*
X343139Y452448D01*
X343146Y452470D01*
X343145Y452502D01*
X343153Y452573D01*
X343153Y578667D01*
X343139Y578757D01*
X343131Y578848D01*
X343119Y578877D01*
X343114Y578909D01*
X343071Y578990D01*
X343035Y579074D01*
X343009Y579106D01*
X342998Y579127D01*
X342975Y579149D01*
X342930Y579205D01*
X340133Y582002D01*
X340133Y586398D01*
X343242Y589507D01*
X347638Y589507D01*
X350747Y586398D01*
X350747Y581878D01*
X350758Y581808D01*
X350760Y581736D01*
X350778Y581687D01*
X350786Y581636D01*
X350820Y581572D01*
X350845Y581505D01*
X350877Y581464D01*
X350902Y581418D01*
X350954Y581369D01*
X350998Y581313D01*
X351042Y581285D01*
X351080Y581249D01*
X351145Y581219D01*
X351205Y581180D01*
X351256Y581167D01*
X351303Y581145D01*
X351374Y581137D01*
X351444Y581120D01*
X351496Y581124D01*
X351547Y581118D01*
X351618Y581133D01*
X351689Y581139D01*
X351737Y581159D01*
X351788Y581170D01*
X351849Y581207D01*
X351915Y581235D01*
X351971Y581280D01*
X351999Y581297D01*
X352014Y581314D01*
X352046Y581340D01*
X355630Y584924D01*
X355683Y584998D01*
X355743Y585068D01*
X355755Y585098D01*
X355774Y585124D01*
X355801Y585211D01*
X355835Y585296D01*
X355839Y585337D01*
X355846Y585359D01*
X355845Y585391D01*
X355853Y585463D01*
X355853Y586287D01*
X355839Y586377D01*
X355831Y586468D01*
X355819Y586497D01*
X355814Y586529D01*
X355771Y586610D01*
X355735Y586694D01*
X355709Y586726D01*
X355698Y586747D01*
X355675Y586769D01*
X355630Y586825D01*
X352833Y589622D01*
X352833Y594018D01*
X355942Y597127D01*
X360338Y597127D01*
X363447Y594018D01*
X363447Y589622D01*
X360650Y586825D01*
X360597Y586751D01*
X360537Y586681D01*
X360525Y586651D01*
X360506Y586625D01*
X360479Y586538D01*
X360445Y586453D01*
X360441Y586412D01*
X360434Y586390D01*
X360435Y586358D01*
X360427Y586287D01*
X360427Y583253D01*
X350998Y573824D01*
X350945Y573750D01*
X350885Y573680D01*
X350873Y573650D01*
X350854Y573624D01*
X350827Y573537D01*
X350793Y573452D01*
X350789Y573411D01*
X350782Y573389D01*
X350783Y573357D01*
X350775Y573285D01*
X350775Y465808D01*
X350778Y465788D01*
X350776Y465769D01*
X350798Y465667D01*
X350814Y465565D01*
X350824Y465548D01*
X350828Y465528D01*
X350881Y465439D01*
X350930Y465348D01*
X350944Y465334D01*
X350954Y465317D01*
X351033Y465250D01*
X351108Y465178D01*
X351126Y465170D01*
X351141Y465157D01*
X351237Y465118D01*
X351331Y465075D01*
X351351Y465073D01*
X351369Y465065D01*
X351536Y465047D01*
X355258Y465047D01*
X358367Y461938D01*
X358367Y457542D01*
X355258Y454433D01*
X350862Y454433D01*
X349026Y456269D01*
X348968Y456311D01*
X348916Y456360D01*
X348869Y456382D01*
X348827Y456412D01*
X348758Y456434D01*
X348693Y456464D01*
X348641Y456469D01*
X348591Y456485D01*
X348520Y456483D01*
X348449Y456491D01*
X348398Y456480D01*
X348346Y456478D01*
X348278Y456454D01*
X348208Y456439D01*
X348163Y456412D01*
X348115Y456394D01*
X348059Y456349D01*
X347997Y456312D01*
X347963Y456273D01*
X347923Y456240D01*
X347884Y456180D01*
X347837Y456125D01*
X347818Y456077D01*
X347790Y456033D01*
X347772Y455964D01*
X347745Y455897D01*
X347737Y455826D01*
X347729Y455795D01*
X347731Y455772D01*
X347727Y455731D01*
X347727Y452573D01*
X347741Y452483D01*
X347749Y452392D01*
X347761Y452363D01*
X347766Y452331D01*
X347809Y452250D01*
X347845Y452166D01*
X347871Y452134D01*
X347882Y452113D01*
X347905Y452091D01*
X347950Y452035D01*
X350747Y449238D01*
X350747Y444842D01*
X347638Y441733D01*
X343242Y441733D01*
G37*
%LPD*%
G36*
X371264Y301927D02*
X371264Y301927D01*
X371335Y301929D01*
X371384Y301947D01*
X371436Y301955D01*
X371499Y301989D01*
X371566Y302013D01*
X371607Y302046D01*
X371653Y302070D01*
X371702Y302122D01*
X371758Y302167D01*
X371787Y302211D01*
X371822Y302248D01*
X371853Y302313D01*
X371891Y302374D01*
X371904Y302424D01*
X371926Y302472D01*
X371934Y302543D01*
X371952Y302612D01*
X371947Y302664D01*
X371953Y302716D01*
X371938Y302786D01*
X371932Y302858D01*
X371912Y302905D01*
X371901Y302956D01*
X371864Y303018D01*
X371836Y303084D01*
X371791Y303140D01*
X371775Y303167D01*
X371757Y303183D01*
X371731Y303215D01*
X343446Y331500D01*
X343372Y331553D01*
X343302Y331613D01*
X343272Y331625D01*
X343246Y331644D01*
X343159Y331671D01*
X343074Y331705D01*
X343033Y331709D01*
X343011Y331716D01*
X342979Y331715D01*
X342908Y331723D01*
X340353Y331723D01*
X340262Y331709D01*
X340172Y331701D01*
X340142Y331689D01*
X340110Y331684D01*
X340029Y331641D01*
X339945Y331605D01*
X339913Y331579D01*
X339892Y331568D01*
X339870Y331545D01*
X339814Y331500D01*
X337215Y328901D01*
X323398Y328901D01*
X323308Y328887D01*
X323217Y328879D01*
X323187Y328867D01*
X323155Y328862D01*
X323075Y328819D01*
X322991Y328783D01*
X322958Y328757D01*
X322938Y328746D01*
X322916Y328723D01*
X322860Y328678D01*
X319179Y324998D01*
X319137Y324940D01*
X319088Y324888D01*
X319066Y324840D01*
X319036Y324798D01*
X319015Y324730D01*
X318984Y324665D01*
X318979Y324613D01*
X318963Y324563D01*
X318965Y324491D01*
X318957Y324420D01*
X318968Y324369D01*
X318970Y324317D01*
X318994Y324250D01*
X319009Y324180D01*
X319036Y324135D01*
X319054Y324086D01*
X319099Y324030D01*
X319136Y323969D01*
X319175Y323935D01*
X319208Y323894D01*
X319268Y323855D01*
X319323Y323809D01*
X319371Y323789D01*
X319415Y323761D01*
X319484Y323744D01*
X319551Y323717D01*
X319622Y323709D01*
X319653Y323701D01*
X319676Y323703D01*
X319717Y323698D01*
X320602Y323698D01*
X323711Y320590D01*
X323711Y316193D01*
X320602Y313085D01*
X316206Y313085D01*
X314430Y314861D01*
X314414Y314873D01*
X314401Y314888D01*
X314314Y314944D01*
X314230Y315005D01*
X314211Y315011D01*
X314194Y315021D01*
X314094Y315047D01*
X313995Y315077D01*
X313975Y315077D01*
X313956Y315081D01*
X313853Y315073D01*
X313749Y315071D01*
X313730Y315064D01*
X313710Y315062D01*
X313616Y315022D01*
X313518Y314986D01*
X313502Y314974D01*
X313484Y314966D01*
X313353Y314861D01*
X304755Y306263D01*
X304713Y306205D01*
X304664Y306153D01*
X304642Y306105D01*
X304611Y306063D01*
X304590Y305995D01*
X304560Y305930D01*
X304554Y305878D01*
X304539Y305828D01*
X304541Y305756D01*
X304533Y305685D01*
X304544Y305634D01*
X304545Y305582D01*
X304570Y305515D01*
X304585Y305445D01*
X304612Y305400D01*
X304630Y305351D01*
X304675Y305295D01*
X304711Y305234D01*
X304751Y305200D01*
X304783Y305159D01*
X304844Y305120D01*
X304898Y305074D01*
X304946Y305054D01*
X304990Y305026D01*
X305060Y305009D01*
X305126Y304982D01*
X305198Y304974D01*
X305229Y304966D01*
X305252Y304968D01*
X305293Y304963D01*
X308892Y304963D01*
X308912Y304967D01*
X308931Y304964D01*
X309033Y304986D01*
X309135Y305003D01*
X309152Y305012D01*
X309172Y305017D01*
X309261Y305070D01*
X309352Y305118D01*
X309366Y305133D01*
X309383Y305143D01*
X309450Y305221D01*
X309522Y305296D01*
X309530Y305315D01*
X309543Y305330D01*
X309582Y305426D01*
X309625Y305520D01*
X309627Y305539D01*
X309635Y305558D01*
X309653Y305725D01*
X309653Y307895D01*
X312762Y311003D01*
X317158Y311003D01*
X320267Y307895D01*
X320267Y303498D01*
X319983Y303215D01*
X319941Y303157D01*
X319892Y303105D01*
X319870Y303057D01*
X319840Y303015D01*
X319818Y302947D01*
X319788Y302882D01*
X319783Y302830D01*
X319767Y302780D01*
X319769Y302708D01*
X319761Y302637D01*
X319772Y302586D01*
X319774Y302534D01*
X319798Y302467D01*
X319813Y302397D01*
X319840Y302352D01*
X319858Y302303D01*
X319903Y302247D01*
X319940Y302186D01*
X319979Y302152D01*
X320012Y302111D01*
X320072Y302072D01*
X320127Y302026D01*
X320175Y302006D01*
X320219Y301978D01*
X320288Y301961D01*
X320355Y301934D01*
X320426Y301926D01*
X320457Y301918D01*
X320480Y301920D01*
X320521Y301915D01*
X371193Y301915D01*
X371264Y301927D01*
G37*
%LPC*%
G36*
X139925Y573394D02*
X139925Y573394D01*
X139925Y607178D01*
X169852Y607178D01*
X170498Y607004D01*
X171077Y606670D01*
X171550Y606197D01*
X171885Y605618D01*
X172058Y604971D01*
X172058Y573394D01*
X139925Y573394D01*
G37*
%LPD*%
%LPC*%
G36*
X104746Y573394D02*
X104746Y573394D01*
X104746Y604971D01*
X104919Y605618D01*
X105254Y606197D01*
X105727Y606670D01*
X106306Y607004D01*
X106953Y607178D01*
X136879Y607178D01*
X136879Y573394D01*
X104746Y573394D01*
G37*
%LPD*%
%LPC*%
G36*
X106953Y536564D02*
X106953Y536564D01*
X106306Y536737D01*
X105727Y537072D01*
X105254Y537545D01*
X104919Y538124D01*
X104746Y538770D01*
X104746Y570348D01*
X136879Y570348D01*
X136879Y536564D01*
X106953Y536564D01*
G37*
%LPD*%
G36*
X446933Y357890D02*
X446933Y357890D01*
X446952Y357888D01*
X447054Y357910D01*
X447156Y357926D01*
X447173Y357936D01*
X447193Y357940D01*
X447282Y357993D01*
X447373Y358042D01*
X447387Y358056D01*
X447404Y358066D01*
X447471Y358145D01*
X447543Y358220D01*
X447551Y358238D01*
X447564Y358253D01*
X447603Y358349D01*
X447646Y358443D01*
X447648Y358463D01*
X447656Y358481D01*
X447674Y358648D01*
X447674Y359546D01*
X453254Y365126D01*
X461146Y365126D01*
X465658Y360613D01*
X465717Y360571D01*
X465769Y360522D01*
X465816Y360500D01*
X465858Y360469D01*
X465927Y360448D01*
X465992Y360418D01*
X466043Y360412D01*
X466093Y360397D01*
X466165Y360399D01*
X466236Y360391D01*
X466287Y360402D01*
X466339Y360403D01*
X466406Y360428D01*
X466477Y360443D01*
X466521Y360470D01*
X466570Y360488D01*
X466626Y360533D01*
X466688Y360569D01*
X466721Y360609D01*
X466762Y360642D01*
X466801Y360702D01*
X466848Y360756D01*
X466867Y360805D01*
X466895Y360849D01*
X466913Y360918D01*
X466939Y360985D01*
X466947Y361056D01*
X466955Y361087D01*
X466953Y361110D01*
X466958Y361151D01*
X466958Y363382D01*
X466955Y363401D01*
X466957Y363420D01*
X466942Y363489D01*
X466936Y363563D01*
X466923Y363593D01*
X466918Y363625D01*
X466908Y363644D01*
X466905Y363661D01*
X466870Y363719D01*
X466840Y363790D01*
X466814Y363822D01*
X466803Y363842D01*
X466787Y363858D01*
X466778Y363872D01*
X466764Y363884D01*
X466735Y363921D01*
X433056Y397600D01*
X433033Y397643D01*
X432995Y397730D01*
X432976Y397751D01*
X432962Y397776D01*
X432893Y397842D01*
X432829Y397912D01*
X432805Y397926D01*
X432784Y397945D01*
X432697Y397986D01*
X432614Y398032D01*
X432587Y398037D01*
X432561Y398049D01*
X432466Y398060D01*
X432372Y398077D01*
X432345Y398073D01*
X432317Y398076D01*
X432223Y398056D01*
X432129Y398042D01*
X432097Y398028D01*
X432076Y398024D01*
X432048Y398007D01*
X431975Y397975D01*
X431971Y397972D01*
X431324Y397799D01*
X429489Y397799D01*
X429489Y405602D01*
X429486Y405621D01*
X429488Y405641D01*
X429466Y405743D01*
X429450Y405845D01*
X429440Y405862D01*
X429436Y405882D01*
X429383Y405971D01*
X429334Y406062D01*
X429320Y406076D01*
X429310Y406093D01*
X429231Y406160D01*
X429156Y406231D01*
X429138Y406240D01*
X429123Y406253D01*
X429027Y406291D01*
X428933Y406335D01*
X428913Y406337D01*
X428895Y406345D01*
X428728Y406363D01*
X428013Y406363D01*
X428013Y407078D01*
X428010Y407098D01*
X428012Y407117D01*
X427990Y407219D01*
X427973Y407321D01*
X427964Y407338D01*
X427960Y407358D01*
X427907Y407447D01*
X427858Y407538D01*
X427844Y407552D01*
X427834Y407569D01*
X427755Y407636D01*
X427680Y407708D01*
X427662Y407716D01*
X427647Y407729D01*
X427550Y407768D01*
X427457Y407811D01*
X427437Y407813D01*
X427419Y407821D01*
X427252Y407839D01*
X422449Y407839D01*
X422449Y412674D01*
X422622Y413321D01*
X422863Y413737D01*
X422897Y413827D01*
X422937Y413913D01*
X422940Y413941D01*
X422950Y413967D01*
X422954Y414063D01*
X422964Y414157D01*
X422958Y414185D01*
X422959Y414213D01*
X422932Y414305D01*
X422912Y414398D01*
X422897Y414422D01*
X422889Y414449D01*
X422834Y414527D01*
X422786Y414609D01*
X422764Y414627D01*
X422748Y414650D01*
X422671Y414707D01*
X422599Y414769D01*
X422572Y414779D01*
X422550Y414796D01*
X422459Y414825D01*
X422370Y414861D01*
X422335Y414865D01*
X422315Y414871D01*
X422283Y414871D01*
X422204Y414879D01*
X419745Y414879D01*
X419674Y414868D01*
X419602Y414866D01*
X419553Y414848D01*
X419502Y414840D01*
X419439Y414806D01*
X419371Y414781D01*
X419331Y414749D01*
X419285Y414724D01*
X419235Y414672D01*
X419179Y414628D01*
X419151Y414584D01*
X419115Y414546D01*
X419085Y414481D01*
X419046Y414421D01*
X419034Y414370D01*
X419012Y414323D01*
X419004Y414252D01*
X418986Y414182D01*
X418990Y414130D01*
X418985Y414079D01*
X419000Y414008D01*
X419005Y413937D01*
X419026Y413889D01*
X419037Y413838D01*
X419074Y413777D01*
X419102Y413711D01*
X419147Y413655D01*
X419163Y413627D01*
X419181Y413612D01*
X419207Y413580D01*
X419815Y412972D01*
X419815Y399708D01*
X418922Y398815D01*
X418338Y398815D01*
X418318Y398812D01*
X418299Y398814D01*
X418197Y398792D01*
X418095Y398776D01*
X418078Y398766D01*
X418058Y398762D01*
X417969Y398709D01*
X417878Y398660D01*
X417864Y398646D01*
X417847Y398636D01*
X417780Y398557D01*
X417708Y398482D01*
X417700Y398464D01*
X417687Y398449D01*
X417648Y398353D01*
X417605Y398259D01*
X417603Y398239D01*
X417595Y398221D01*
X417577Y398054D01*
X417577Y391666D01*
X417580Y391646D01*
X417578Y391627D01*
X417600Y391525D01*
X417616Y391423D01*
X417626Y391406D01*
X417630Y391386D01*
X417683Y391297D01*
X417732Y391206D01*
X417746Y391192D01*
X417756Y391175D01*
X417835Y391108D01*
X417910Y391036D01*
X417928Y391028D01*
X417943Y391015D01*
X418039Y390976D01*
X418133Y390933D01*
X418153Y390931D01*
X418171Y390923D01*
X418338Y390905D01*
X424692Y390905D01*
X425585Y390012D01*
X425585Y377405D01*
X425599Y377314D01*
X425607Y377224D01*
X425619Y377194D01*
X425624Y377162D01*
X425667Y377081D01*
X425703Y376997D01*
X425729Y376965D01*
X425740Y376944D01*
X425763Y376922D01*
X425808Y376866D01*
X444564Y358110D01*
X444638Y358057D01*
X444708Y357997D01*
X444738Y357985D01*
X444764Y357966D01*
X444851Y357939D01*
X444936Y357905D01*
X444977Y357901D01*
X444999Y357894D01*
X445031Y357895D01*
X445103Y357887D01*
X446913Y357887D01*
X446933Y357890D01*
G37*
G36*
X141068Y32781D02*
X141068Y32781D01*
X141158Y32789D01*
X141188Y32801D01*
X141220Y32806D01*
X141301Y32849D01*
X141385Y32885D01*
X141417Y32911D01*
X141438Y32922D01*
X141460Y32945D01*
X141516Y32990D01*
X145380Y36854D01*
X145433Y36928D01*
X145493Y36998D01*
X145505Y37028D01*
X145524Y37054D01*
X145551Y37141D01*
X145585Y37226D01*
X145589Y37267D01*
X145596Y37289D01*
X145595Y37321D01*
X145603Y37393D01*
X145603Y43054D01*
X145600Y43074D01*
X145602Y43093D01*
X145580Y43195D01*
X145564Y43297D01*
X145554Y43314D01*
X145550Y43334D01*
X145497Y43423D01*
X145448Y43514D01*
X145434Y43528D01*
X145424Y43545D01*
X145345Y43612D01*
X145270Y43684D01*
X145252Y43692D01*
X145237Y43705D01*
X145141Y43744D01*
X145047Y43787D01*
X145027Y43789D01*
X145009Y43797D01*
X144842Y43815D01*
X143258Y43815D01*
X142809Y44264D01*
X142713Y44334D01*
X142617Y44404D01*
X142613Y44406D01*
X142610Y44408D01*
X142497Y44443D01*
X142383Y44479D01*
X142378Y44479D01*
X142374Y44480D01*
X142256Y44477D01*
X142137Y44475D01*
X142133Y44474D01*
X142129Y44474D01*
X142017Y44433D01*
X141905Y44394D01*
X141901Y44391D01*
X141898Y44390D01*
X141805Y44315D01*
X141711Y44242D01*
X141708Y44238D01*
X141706Y44236D01*
X141698Y44224D01*
X141612Y44107D01*
X141423Y43780D01*
X140950Y43307D01*
X140371Y42972D01*
X139724Y42799D01*
X136913Y42799D01*
X136913Y52578D01*
X136910Y52598D01*
X136912Y52617D01*
X136890Y52719D01*
X136873Y52821D01*
X136864Y52838D01*
X136860Y52858D01*
X136807Y52947D01*
X136758Y53038D01*
X136744Y53052D01*
X136734Y53069D01*
X136655Y53136D01*
X136580Y53207D01*
X136562Y53216D01*
X136547Y53229D01*
X136451Y53268D01*
X136357Y53311D01*
X136337Y53313D01*
X136319Y53321D01*
X136152Y53339D01*
X134628Y53339D01*
X134608Y53336D01*
X134589Y53338D01*
X134487Y53316D01*
X134385Y53299D01*
X134368Y53290D01*
X134348Y53286D01*
X134259Y53233D01*
X134168Y53184D01*
X134154Y53170D01*
X134137Y53160D01*
X134070Y53081D01*
X133999Y53006D01*
X133990Y52988D01*
X133977Y52973D01*
X133938Y52877D01*
X133895Y52783D01*
X133893Y52763D01*
X133885Y52745D01*
X133867Y52578D01*
X133867Y42799D01*
X131056Y42799D01*
X130409Y42972D01*
X129830Y43307D01*
X129357Y43780D01*
X129168Y44107D01*
X129093Y44199D01*
X129019Y44292D01*
X129015Y44294D01*
X129012Y44297D01*
X128911Y44361D01*
X128812Y44425D01*
X128808Y44426D01*
X128804Y44428D01*
X128688Y44456D01*
X128573Y44485D01*
X128569Y44484D01*
X128565Y44485D01*
X128446Y44475D01*
X128328Y44466D01*
X128324Y44464D01*
X128320Y44464D01*
X128210Y44415D01*
X128102Y44369D01*
X128098Y44366D01*
X128095Y44365D01*
X128084Y44355D01*
X127971Y44264D01*
X127522Y43815D01*
X118258Y43815D01*
X117178Y44895D01*
X117162Y44907D01*
X117150Y44923D01*
X117062Y44979D01*
X116979Y45039D01*
X116960Y45045D01*
X116943Y45056D01*
X116842Y45081D01*
X116743Y45111D01*
X116724Y45111D01*
X116704Y45116D01*
X116601Y45108D01*
X116498Y45105D01*
X116479Y45098D01*
X116459Y45097D01*
X116364Y45056D01*
X116267Y45021D01*
X116251Y45008D01*
X116233Y45000D01*
X116102Y44895D01*
X115022Y43815D01*
X105758Y43815D01*
X104678Y44895D01*
X104662Y44907D01*
X104650Y44923D01*
X104562Y44979D01*
X104479Y45039D01*
X104460Y45045D01*
X104443Y45056D01*
X104342Y45081D01*
X104243Y45111D01*
X104224Y45111D01*
X104204Y45116D01*
X104101Y45108D01*
X103998Y45105D01*
X103979Y45098D01*
X103959Y45097D01*
X103864Y45056D01*
X103767Y45021D01*
X103751Y45008D01*
X103733Y45000D01*
X103602Y44895D01*
X102522Y43815D01*
X93258Y43815D01*
X92178Y44895D01*
X92162Y44907D01*
X92150Y44923D01*
X92062Y44979D01*
X91979Y45039D01*
X91960Y45045D01*
X91943Y45056D01*
X91842Y45081D01*
X91743Y45111D01*
X91724Y45111D01*
X91704Y45116D01*
X91601Y45108D01*
X91498Y45105D01*
X91479Y45098D01*
X91459Y45097D01*
X91364Y45056D01*
X91267Y45021D01*
X91251Y45008D01*
X91233Y45000D01*
X91102Y44895D01*
X90022Y43815D01*
X80758Y43815D01*
X79678Y44895D01*
X79662Y44907D01*
X79650Y44923D01*
X79562Y44979D01*
X79479Y45039D01*
X79460Y45045D01*
X79443Y45056D01*
X79342Y45081D01*
X79243Y45111D01*
X79224Y45111D01*
X79204Y45116D01*
X79101Y45108D01*
X78998Y45105D01*
X78979Y45098D01*
X78959Y45097D01*
X78864Y45056D01*
X78767Y45021D01*
X78751Y45008D01*
X78733Y45000D01*
X78602Y44895D01*
X77522Y43815D01*
X68258Y43815D01*
X67178Y44895D01*
X67162Y44907D01*
X67150Y44923D01*
X67062Y44979D01*
X66979Y45039D01*
X66960Y45045D01*
X66943Y45056D01*
X66842Y45081D01*
X66743Y45111D01*
X66724Y45111D01*
X66704Y45116D01*
X66601Y45108D01*
X66498Y45105D01*
X66479Y45098D01*
X66459Y45097D01*
X66364Y45056D01*
X66267Y45021D01*
X66251Y45008D01*
X66233Y45000D01*
X66102Y44895D01*
X65022Y43815D01*
X64587Y43815D01*
X64517Y43804D01*
X64445Y43802D01*
X64396Y43784D01*
X64345Y43776D01*
X64281Y43742D01*
X64214Y43717D01*
X64173Y43685D01*
X64127Y43660D01*
X64078Y43608D01*
X64022Y43564D01*
X63994Y43520D01*
X63958Y43482D01*
X63928Y43417D01*
X63889Y43357D01*
X63876Y43306D01*
X63854Y43259D01*
X63846Y43188D01*
X63829Y43118D01*
X63833Y43066D01*
X63827Y43015D01*
X63842Y42944D01*
X63848Y42873D01*
X63868Y42825D01*
X63879Y42774D01*
X63916Y42713D01*
X63944Y42647D01*
X63989Y42591D01*
X64006Y42563D01*
X64023Y42548D01*
X64049Y42516D01*
X66267Y40298D01*
X66267Y36343D01*
X66281Y36252D01*
X66289Y36162D01*
X66301Y36132D01*
X66306Y36100D01*
X66349Y36019D01*
X66385Y35935D01*
X66411Y35903D01*
X66422Y35882D01*
X66445Y35860D01*
X66490Y35804D01*
X69304Y32990D01*
X69378Y32937D01*
X69448Y32877D01*
X69478Y32865D01*
X69504Y32846D01*
X69591Y32819D01*
X69676Y32785D01*
X69717Y32781D01*
X69739Y32774D01*
X69771Y32775D01*
X69843Y32767D01*
X140977Y32767D01*
X141068Y32781D01*
G37*
G36*
X437294Y254221D02*
X437294Y254221D01*
X437385Y254228D01*
X437415Y254241D01*
X437447Y254246D01*
X437527Y254289D01*
X437611Y254325D01*
X437643Y254350D01*
X437664Y254361D01*
X437686Y254385D01*
X437742Y254429D01*
X440399Y257087D01*
X444796Y257087D01*
X446375Y255508D01*
X446433Y255466D01*
X446485Y255416D01*
X446532Y255395D01*
X446574Y255364D01*
X446643Y255343D01*
X446708Y255313D01*
X446760Y255307D01*
X446810Y255292D01*
X446881Y255294D01*
X446952Y255286D01*
X447003Y255297D01*
X447055Y255298D01*
X447123Y255323D01*
X447193Y255338D01*
X447238Y255365D01*
X447286Y255383D01*
X447342Y255427D01*
X447404Y255464D01*
X447438Y255504D01*
X447478Y255536D01*
X447517Y255597D01*
X447564Y255651D01*
X447583Y255699D01*
X447611Y255743D01*
X447629Y255813D01*
X447656Y255879D01*
X447664Y255951D01*
X447672Y255982D01*
X447670Y256005D01*
X447674Y256046D01*
X447674Y257946D01*
X453254Y263526D01*
X461146Y263526D01*
X465658Y259013D01*
X465717Y258971D01*
X465769Y258922D01*
X465816Y258900D01*
X465858Y258869D01*
X465927Y258848D01*
X465992Y258818D01*
X466043Y258812D01*
X466093Y258797D01*
X466165Y258799D01*
X466236Y258791D01*
X466287Y258802D01*
X466339Y258803D01*
X466406Y258828D01*
X466477Y258843D01*
X466521Y258870D01*
X466570Y258888D01*
X466626Y258933D01*
X466688Y258969D01*
X466721Y259009D01*
X466762Y259042D01*
X466801Y259102D01*
X466848Y259156D01*
X466867Y259205D01*
X466895Y259249D01*
X466913Y259318D01*
X466939Y259385D01*
X466947Y259456D01*
X466955Y259487D01*
X466953Y259510D01*
X466958Y259551D01*
X466958Y273849D01*
X466946Y273919D01*
X466945Y273991D01*
X466927Y274040D01*
X466918Y274091D01*
X466885Y274155D01*
X466860Y274222D01*
X466828Y274263D01*
X466803Y274309D01*
X466751Y274358D01*
X466706Y274414D01*
X466663Y274442D01*
X466625Y274478D01*
X466560Y274508D01*
X466499Y274547D01*
X466449Y274560D01*
X466402Y274582D01*
X466330Y274590D01*
X466261Y274607D01*
X466209Y274603D01*
X466157Y274609D01*
X466087Y274594D01*
X466016Y274588D01*
X465968Y274568D01*
X465917Y274557D01*
X465855Y274520D01*
X465789Y274492D01*
X465733Y274447D01*
X465706Y274431D01*
X465691Y274413D01*
X465658Y274387D01*
X461146Y269874D01*
X453254Y269874D01*
X447674Y275454D01*
X447674Y276428D01*
X447671Y276448D01*
X447673Y276468D01*
X447651Y276569D01*
X447635Y276671D01*
X447625Y276689D01*
X447621Y276708D01*
X447568Y276797D01*
X447519Y276888D01*
X447505Y276902D01*
X447495Y276919D01*
X447416Y276986D01*
X447341Y277058D01*
X447323Y277066D01*
X447308Y277079D01*
X447212Y277118D01*
X447118Y277161D01*
X447098Y277164D01*
X447080Y277171D01*
X446913Y277189D01*
X427250Y277189D01*
X427160Y277175D01*
X427069Y277168D01*
X427039Y277155D01*
X427007Y277150D01*
X426926Y277107D01*
X426842Y277071D01*
X426810Y277046D01*
X426790Y277035D01*
X426767Y277011D01*
X426711Y276966D01*
X423914Y274169D01*
X422628Y274169D01*
X422608Y274166D01*
X422589Y274168D01*
X422487Y274146D01*
X422385Y274130D01*
X422368Y274120D01*
X422348Y274116D01*
X422259Y274063D01*
X422168Y274015D01*
X422154Y274000D01*
X422137Y273990D01*
X422070Y273911D01*
X421998Y273836D01*
X421990Y273818D01*
X421977Y273803D01*
X421938Y273707D01*
X421895Y273613D01*
X421893Y273593D01*
X421885Y273575D01*
X421867Y273408D01*
X421867Y269582D01*
X418758Y266473D01*
X417472Y266473D01*
X417452Y266470D01*
X417432Y266472D01*
X417331Y266450D01*
X417229Y266434D01*
X417211Y266424D01*
X417192Y266420D01*
X417103Y266367D01*
X417012Y266318D01*
X416998Y266304D01*
X416981Y266294D01*
X416914Y266215D01*
X416842Y266140D01*
X416834Y266122D01*
X416821Y266107D01*
X416782Y266011D01*
X416739Y265917D01*
X416736Y265897D01*
X416729Y265879D01*
X416711Y265712D01*
X416711Y264056D01*
X416714Y264036D01*
X416712Y264016D01*
X416734Y263915D01*
X416750Y263813D01*
X416760Y263795D01*
X416764Y263776D01*
X416817Y263687D01*
X416865Y263596D01*
X416880Y263582D01*
X416890Y263565D01*
X416969Y263497D01*
X417044Y263426D01*
X417062Y263418D01*
X417077Y263405D01*
X417173Y263366D01*
X417267Y263323D01*
X417287Y263320D01*
X417305Y263313D01*
X417472Y263294D01*
X420358Y263294D01*
X423467Y260186D01*
X423467Y255790D01*
X423183Y255506D01*
X423141Y255448D01*
X423092Y255396D01*
X423070Y255349D01*
X423040Y255306D01*
X423019Y255238D01*
X422988Y255173D01*
X422983Y255121D01*
X422967Y255071D01*
X422969Y254999D01*
X422961Y254928D01*
X422972Y254877D01*
X422974Y254825D01*
X422998Y254758D01*
X423014Y254688D01*
X423040Y254643D01*
X423058Y254594D01*
X423103Y254538D01*
X423140Y254477D01*
X423179Y254443D01*
X423212Y254402D01*
X423272Y254364D01*
X423327Y254317D01*
X423375Y254297D01*
X423419Y254269D01*
X423488Y254252D01*
X423555Y254225D01*
X423626Y254217D01*
X423657Y254209D01*
X423681Y254211D01*
X423722Y254206D01*
X437204Y254206D01*
X437294Y254221D01*
G37*
G36*
X419290Y469861D02*
X419290Y469861D01*
X419393Y469864D01*
X419412Y469871D01*
X419432Y469872D01*
X419527Y469912D01*
X419624Y469948D01*
X419640Y469961D01*
X419658Y469969D01*
X419789Y470073D01*
X427324Y477608D01*
X427336Y477624D01*
X427351Y477637D01*
X427407Y477724D01*
X427468Y477808D01*
X427473Y477827D01*
X427484Y477844D01*
X427510Y477944D01*
X427540Y478043D01*
X427539Y478063D01*
X427544Y478082D01*
X427536Y478185D01*
X427534Y478289D01*
X427527Y478307D01*
X427525Y478327D01*
X427485Y478422D01*
X427449Y478520D01*
X427437Y478535D01*
X427429Y478554D01*
X427324Y478685D01*
X422274Y483734D01*
X422274Y491626D01*
X422909Y492260D01*
X422921Y492277D01*
X422936Y492289D01*
X422965Y492334D01*
X422995Y492365D01*
X423014Y492406D01*
X423053Y492460D01*
X423058Y492479D01*
X423069Y492496D01*
X423085Y492560D01*
X423098Y492588D01*
X423102Y492621D01*
X423125Y492695D01*
X423124Y492715D01*
X423129Y492735D01*
X423123Y492812D01*
X423125Y492833D01*
X423121Y492854D01*
X423119Y492941D01*
X423112Y492960D01*
X423110Y492980D01*
X423076Y493060D01*
X423073Y493073D01*
X423066Y493085D01*
X423034Y493172D01*
X423022Y493188D01*
X423014Y493206D01*
X422909Y493337D01*
X415836Y500410D01*
X415762Y500463D01*
X415692Y500523D01*
X415662Y500535D01*
X415636Y500554D01*
X415549Y500581D01*
X415464Y500615D01*
X415423Y500619D01*
X415401Y500626D01*
X415369Y500625D01*
X415297Y500633D01*
X407993Y500633D01*
X404113Y504513D01*
X404113Y505834D01*
X404110Y505854D01*
X404112Y505873D01*
X404090Y505975D01*
X404074Y506077D01*
X404064Y506094D01*
X404060Y506114D01*
X404007Y506203D01*
X403958Y506294D01*
X403944Y506308D01*
X403934Y506325D01*
X403855Y506392D01*
X403780Y506464D01*
X403762Y506472D01*
X403747Y506485D01*
X403651Y506524D01*
X403557Y506567D01*
X403537Y506569D01*
X403519Y506577D01*
X403352Y506595D01*
X399948Y506595D01*
X399928Y506592D01*
X399909Y506594D01*
X399807Y506572D01*
X399705Y506556D01*
X399688Y506546D01*
X399668Y506542D01*
X399579Y506489D01*
X399488Y506440D01*
X399474Y506426D01*
X399457Y506416D01*
X399390Y506337D01*
X399318Y506262D01*
X399310Y506244D01*
X399297Y506229D01*
X399258Y506133D01*
X399215Y506039D01*
X399213Y506019D01*
X399205Y506001D01*
X399187Y505834D01*
X399187Y498443D01*
X399201Y498352D01*
X399209Y498262D01*
X399221Y498232D01*
X399226Y498200D01*
X399269Y498119D01*
X399305Y498035D01*
X399331Y498003D01*
X399342Y497982D01*
X399365Y497960D01*
X399410Y497904D01*
X400743Y496571D01*
X400759Y496559D01*
X400772Y496544D01*
X400859Y496488D01*
X400943Y496427D01*
X400962Y496422D01*
X400979Y496411D01*
X401079Y496385D01*
X401178Y496355D01*
X401198Y496356D01*
X401217Y496351D01*
X401320Y496359D01*
X401424Y496361D01*
X401442Y496368D01*
X401462Y496370D01*
X401557Y496410D01*
X401655Y496446D01*
X401670Y496458D01*
X401689Y496466D01*
X401820Y496571D01*
X402454Y497206D01*
X410346Y497206D01*
X415926Y491626D01*
X415926Y483734D01*
X410773Y478582D01*
X410761Y478565D01*
X410746Y478553D01*
X410690Y478466D01*
X410629Y478382D01*
X410624Y478363D01*
X410613Y478346D01*
X410587Y478246D01*
X410557Y478147D01*
X410558Y478127D01*
X410553Y478107D01*
X410561Y478004D01*
X410563Y477901D01*
X410570Y477882D01*
X410572Y477862D01*
X410612Y477767D01*
X410648Y477670D01*
X410660Y477654D01*
X410668Y477636D01*
X410773Y477505D01*
X411707Y476571D01*
X411707Y472615D01*
X411721Y472525D01*
X411729Y472434D01*
X411741Y472405D01*
X411746Y472373D01*
X411789Y472292D01*
X411825Y472208D01*
X411851Y472176D01*
X411862Y472155D01*
X411885Y472133D01*
X411930Y472077D01*
X412291Y471716D01*
X412291Y470626D01*
X412294Y470606D01*
X412292Y470587D01*
X412314Y470485D01*
X412330Y470383D01*
X412340Y470366D01*
X412344Y470346D01*
X412397Y470257D01*
X412446Y470166D01*
X412460Y470152D01*
X412470Y470135D01*
X412549Y470068D01*
X412624Y469996D01*
X412642Y469988D01*
X412657Y469975D01*
X412753Y469936D01*
X412847Y469893D01*
X412867Y469891D01*
X412885Y469883D01*
X413052Y469865D01*
X419124Y469865D01*
X419147Y469858D01*
X419167Y469858D01*
X419187Y469853D01*
X419290Y469861D01*
G37*
%LPC*%
G36*
X21454Y193674D02*
X21454Y193674D01*
X15874Y199254D01*
X15874Y207146D01*
X21454Y212726D01*
X29346Y212726D01*
X34926Y207146D01*
X34926Y199254D01*
X29346Y193674D01*
X21454Y193674D01*
G37*
%LPD*%
%LPC*%
G36*
X21454Y219074D02*
X21454Y219074D01*
X15874Y224654D01*
X15874Y232546D01*
X21454Y238126D01*
X29346Y238126D01*
X34926Y232546D01*
X34926Y224654D01*
X29346Y219074D01*
X21454Y219074D01*
G37*
%LPD*%
%LPC*%
G36*
X478654Y219074D02*
X478654Y219074D01*
X473074Y224654D01*
X473074Y232546D01*
X478654Y238126D01*
X486546Y238126D01*
X492126Y232546D01*
X492126Y224654D01*
X486546Y219074D01*
X478654Y219074D01*
G37*
%LPD*%
%LPC*%
G36*
X21454Y244474D02*
X21454Y244474D01*
X15874Y250054D01*
X15874Y257946D01*
X21454Y263526D01*
X29346Y263526D01*
X34926Y257946D01*
X34926Y250054D01*
X29346Y244474D01*
X21454Y244474D01*
G37*
%LPD*%
%LPC*%
G36*
X478654Y244474D02*
X478654Y244474D01*
X473074Y250054D01*
X473074Y257946D01*
X478654Y263526D01*
X486546Y263526D01*
X492126Y257946D01*
X492126Y250054D01*
X486546Y244474D01*
X478654Y244474D01*
G37*
%LPD*%
%LPC*%
G36*
X478654Y168274D02*
X478654Y168274D01*
X473074Y173854D01*
X473074Y181746D01*
X478654Y187326D01*
X486546Y187326D01*
X492126Y181746D01*
X492126Y173854D01*
X486546Y168274D01*
X478654Y168274D01*
G37*
%LPD*%
%LPC*%
G36*
X46854Y269874D02*
X46854Y269874D01*
X41274Y275454D01*
X41274Y283346D01*
X46854Y288926D01*
X54746Y288926D01*
X60326Y283346D01*
X60326Y275454D01*
X54746Y269874D01*
X46854Y269874D01*
G37*
%LPD*%
%LPC*%
G36*
X21541Y320763D02*
X21541Y320763D01*
X15961Y326343D01*
X15961Y334235D01*
X21541Y339815D01*
X29432Y339815D01*
X35012Y334235D01*
X35012Y326343D01*
X29432Y320763D01*
X21541Y320763D01*
G37*
%LPD*%
%LPC*%
G36*
X478654Y269874D02*
X478654Y269874D01*
X473074Y275454D01*
X473074Y283346D01*
X478654Y288926D01*
X486546Y288926D01*
X492126Y283346D01*
X492126Y275454D01*
X486546Y269874D01*
X478654Y269874D01*
G37*
%LPD*%
%LPC*%
G36*
X21528Y269935D02*
X21528Y269935D01*
X15948Y275515D01*
X15948Y283407D01*
X21528Y288987D01*
X29419Y288987D01*
X34999Y283407D01*
X34999Y275515D01*
X29419Y269935D01*
X21528Y269935D01*
G37*
%LPD*%
%LPC*%
G36*
X46854Y320674D02*
X46854Y320674D01*
X41274Y326254D01*
X41274Y334146D01*
X46854Y339726D01*
X54746Y339726D01*
X60326Y334146D01*
X60326Y326254D01*
X54746Y320674D01*
X46854Y320674D01*
G37*
%LPD*%
%LPC*%
G36*
X21564Y295185D02*
X21564Y295185D01*
X15983Y300765D01*
X15983Y308657D01*
X21564Y314237D01*
X29455Y314237D01*
X35035Y308657D01*
X35035Y300765D01*
X29455Y295185D01*
X21564Y295185D01*
G37*
%LPD*%
%LPC*%
G36*
X453254Y168274D02*
X453254Y168274D01*
X447674Y173854D01*
X447674Y181746D01*
X453254Y187326D01*
X461146Y187326D01*
X466726Y181746D01*
X466726Y173854D01*
X461146Y168274D01*
X453254Y168274D01*
G37*
%LPD*%
%LPC*%
G36*
X46854Y193674D02*
X46854Y193674D01*
X41274Y199254D01*
X41274Y207146D01*
X46854Y212726D01*
X54746Y212726D01*
X60326Y207146D01*
X60326Y199254D01*
X54746Y193674D01*
X46854Y193674D01*
G37*
%LPD*%
%LPC*%
G36*
X46854Y295274D02*
X46854Y295274D01*
X41274Y300854D01*
X41274Y308746D01*
X46854Y314326D01*
X54746Y314326D01*
X60326Y308746D01*
X60326Y300854D01*
X54746Y295274D01*
X46854Y295274D01*
G37*
%LPD*%
%LPC*%
G36*
X478654Y295274D02*
X478654Y295274D01*
X473074Y300854D01*
X473074Y308746D01*
X478654Y314326D01*
X486546Y314326D01*
X492126Y308746D01*
X492126Y300854D01*
X486546Y295274D01*
X478654Y295274D01*
G37*
%LPD*%
%LPC*%
G36*
X21454Y142874D02*
X21454Y142874D01*
X15874Y148454D01*
X15874Y156346D01*
X21454Y161926D01*
X29346Y161926D01*
X34926Y156346D01*
X34926Y148454D01*
X29346Y142874D01*
X21454Y142874D01*
G37*
%LPD*%
%LPC*%
G36*
X46854Y117474D02*
X46854Y117474D01*
X41274Y123054D01*
X41274Y130946D01*
X46854Y136526D01*
X54746Y136526D01*
X60326Y130946D01*
X60326Y123054D01*
X54746Y117474D01*
X46854Y117474D01*
G37*
%LPD*%
%LPC*%
G36*
X21454Y117474D02*
X21454Y117474D01*
X15874Y123054D01*
X15874Y130946D01*
X21454Y136526D01*
X29346Y136526D01*
X34926Y130946D01*
X34926Y123054D01*
X29346Y117474D01*
X21454Y117474D01*
G37*
%LPD*%
%LPC*%
G36*
X21454Y168274D02*
X21454Y168274D01*
X15874Y173854D01*
X15874Y181746D01*
X21454Y187326D01*
X29346Y187326D01*
X34926Y181746D01*
X34926Y173854D01*
X29346Y168274D01*
X21454Y168274D01*
G37*
%LPD*%
%LPC*%
G36*
X157822Y145089D02*
X157822Y145089D01*
X154713Y148198D01*
X154713Y152594D01*
X157510Y155391D01*
X157563Y155465D01*
X157623Y155535D01*
X157635Y155565D01*
X157654Y155591D01*
X157681Y155678D01*
X157715Y155763D01*
X157719Y155804D01*
X157726Y155826D01*
X157725Y155858D01*
X157733Y155929D01*
X157733Y162587D01*
X157719Y162677D01*
X157711Y162768D01*
X157699Y162797D01*
X157694Y162829D01*
X157651Y162910D01*
X157615Y162994D01*
X157589Y163026D01*
X157578Y163047D01*
X157555Y163069D01*
X157510Y163125D01*
X157253Y163382D01*
X157253Y167778D01*
X160362Y170887D01*
X164758Y170887D01*
X167867Y167778D01*
X167867Y163382D01*
X164758Y160273D01*
X163068Y160273D01*
X163048Y160270D01*
X163029Y160272D01*
X162927Y160250D01*
X162825Y160234D01*
X162808Y160224D01*
X162788Y160220D01*
X162699Y160167D01*
X162608Y160118D01*
X162594Y160104D01*
X162577Y160094D01*
X162510Y160015D01*
X162438Y159940D01*
X162430Y159922D01*
X162417Y159907D01*
X162378Y159811D01*
X162335Y159717D01*
X162333Y159697D01*
X162325Y159679D01*
X162307Y159512D01*
X162307Y155929D01*
X162321Y155839D01*
X162329Y155748D01*
X162341Y155719D01*
X162346Y155687D01*
X162389Y155606D01*
X162425Y155522D01*
X162451Y155490D01*
X162462Y155469D01*
X162485Y155447D01*
X162530Y155391D01*
X165327Y152594D01*
X165327Y148198D01*
X162218Y145089D01*
X157822Y145089D01*
G37*
%LPD*%
%LPC*%
G36*
X357494Y169953D02*
X357494Y169953D01*
X354385Y173062D01*
X354385Y177458D01*
X357494Y180567D01*
X361890Y180567D01*
X364687Y177770D01*
X364761Y177717D01*
X364831Y177657D01*
X364861Y177645D01*
X364887Y177626D01*
X364974Y177599D01*
X365059Y177565D01*
X365100Y177561D01*
X365122Y177554D01*
X365154Y177555D01*
X365225Y177547D01*
X367847Y177547D01*
X367937Y177561D01*
X368028Y177569D01*
X368057Y177581D01*
X368089Y177586D01*
X368170Y177629D01*
X368254Y177665D01*
X368286Y177691D01*
X368307Y177702D01*
X368329Y177725D01*
X368385Y177770D01*
X371182Y180567D01*
X375578Y180567D01*
X378687Y177458D01*
X378687Y173062D01*
X375578Y169953D01*
X371182Y169953D01*
X368385Y172750D01*
X368311Y172803D01*
X368241Y172863D01*
X368211Y172875D01*
X368185Y172894D01*
X368098Y172921D01*
X368013Y172955D01*
X367972Y172959D01*
X367950Y172966D01*
X367918Y172965D01*
X367847Y172973D01*
X365225Y172973D01*
X365135Y172959D01*
X365044Y172951D01*
X365015Y172939D01*
X364983Y172934D01*
X364902Y172891D01*
X364818Y172855D01*
X364786Y172829D01*
X364765Y172818D01*
X364743Y172795D01*
X364687Y172750D01*
X361890Y169953D01*
X357494Y169953D01*
G37*
%LPD*%
%LPC*%
G36*
X468223Y573023D02*
X468223Y573023D01*
X468223Y581541D01*
X473534Y581541D01*
X474181Y581368D01*
X474760Y581033D01*
X475233Y580560D01*
X475568Y579981D01*
X475741Y579334D01*
X475741Y573023D01*
X468223Y573023D01*
G37*
%LPD*%
%LPC*%
G36*
X468223Y517143D02*
X468223Y517143D01*
X468223Y525661D01*
X473534Y525661D01*
X474181Y525488D01*
X474760Y525153D01*
X475233Y524680D01*
X475568Y524101D01*
X475741Y523454D01*
X475741Y517143D01*
X468223Y517143D01*
G37*
%LPD*%
%LPC*%
G36*
X468223Y545083D02*
X468223Y545083D01*
X468223Y553601D01*
X473534Y553601D01*
X474181Y553428D01*
X474760Y553093D01*
X475233Y552620D01*
X475568Y552041D01*
X475741Y551394D01*
X475741Y545083D01*
X468223Y545083D01*
G37*
%LPD*%
%LPC*%
G36*
X406519Y365403D02*
X406519Y365403D01*
X406519Y370714D01*
X406692Y371361D01*
X407027Y371940D01*
X407500Y372413D01*
X408079Y372748D01*
X408726Y372921D01*
X415037Y372921D01*
X415037Y365403D01*
X406519Y365403D01*
G37*
%LPD*%
%LPC*%
G36*
X468223Y505579D02*
X468223Y505579D01*
X468223Y514097D01*
X475741Y514097D01*
X475741Y507786D01*
X475568Y507139D01*
X475233Y506560D01*
X474760Y506087D01*
X474181Y505752D01*
X473534Y505579D01*
X468223Y505579D01*
G37*
%LPD*%
%LPC*%
G36*
X468223Y533519D02*
X468223Y533519D01*
X468223Y542037D01*
X475741Y542037D01*
X475741Y535726D01*
X475568Y535079D01*
X475233Y534500D01*
X474760Y534027D01*
X474181Y533692D01*
X473534Y533519D01*
X468223Y533519D01*
G37*
%LPD*%
%LPC*%
G36*
X468223Y561459D02*
X468223Y561459D01*
X468223Y569977D01*
X475741Y569977D01*
X475741Y563666D01*
X475568Y563019D01*
X475233Y562440D01*
X474760Y561967D01*
X474181Y561632D01*
X473534Y561459D01*
X468223Y561459D01*
G37*
%LPD*%
%LPC*%
G36*
X457659Y517143D02*
X457659Y517143D01*
X457659Y523454D01*
X457832Y524101D01*
X458167Y524680D01*
X458640Y525153D01*
X459219Y525488D01*
X459866Y525661D01*
X465177Y525661D01*
X465177Y517143D01*
X457659Y517143D01*
G37*
%LPD*%
%LPC*%
G36*
X457659Y545083D02*
X457659Y545083D01*
X457659Y551394D01*
X457832Y552041D01*
X458167Y552620D01*
X458640Y553093D01*
X459219Y553428D01*
X459866Y553601D01*
X465177Y553601D01*
X465177Y545083D01*
X457659Y545083D01*
G37*
%LPD*%
%LPC*%
G36*
X457659Y573023D02*
X457659Y573023D01*
X457659Y579334D01*
X457832Y579981D01*
X458167Y580560D01*
X458640Y581033D01*
X459219Y581368D01*
X459866Y581541D01*
X465177Y581541D01*
X465177Y573023D01*
X457659Y573023D01*
G37*
%LPD*%
%LPC*%
G36*
X418083Y354839D02*
X418083Y354839D01*
X418083Y362357D01*
X426601Y362357D01*
X426601Y357046D01*
X426428Y356399D01*
X426093Y355820D01*
X425620Y355347D01*
X425041Y355012D01*
X424394Y354839D01*
X418083Y354839D01*
G37*
%LPD*%
%LPC*%
G36*
X459866Y533519D02*
X459866Y533519D01*
X459219Y533692D01*
X458640Y534027D01*
X458167Y534500D01*
X457832Y535079D01*
X457659Y535726D01*
X457659Y542037D01*
X465177Y542037D01*
X465177Y533519D01*
X459866Y533519D01*
G37*
%LPD*%
%LPC*%
G36*
X459866Y561459D02*
X459866Y561459D01*
X459219Y561632D01*
X458640Y561967D01*
X458167Y562440D01*
X457832Y563019D01*
X457659Y563666D01*
X457659Y569977D01*
X465177Y569977D01*
X465177Y561459D01*
X459866Y561459D01*
G37*
%LPD*%
%LPC*%
G36*
X459866Y505579D02*
X459866Y505579D01*
X459219Y505752D01*
X458640Y506087D01*
X458167Y506560D01*
X457832Y507139D01*
X457659Y507786D01*
X457659Y514097D01*
X465177Y514097D01*
X465177Y505579D01*
X459866Y505579D01*
G37*
%LPD*%
%LPC*%
G36*
X408726Y354839D02*
X408726Y354839D01*
X408079Y355012D01*
X407500Y355347D01*
X407027Y355820D01*
X406692Y356399D01*
X406519Y357046D01*
X406519Y362357D01*
X415037Y362357D01*
X415037Y354839D01*
X408726Y354839D01*
G37*
%LPD*%
%LPC*%
G36*
X26923Y357123D02*
X26923Y357123D01*
X26923Y366142D01*
X29767Y366142D01*
X35942Y359967D01*
X35942Y357123D01*
X26923Y357123D01*
G37*
%LPD*%
%LPC*%
G36*
X14858Y357123D02*
X14858Y357123D01*
X14858Y359967D01*
X21033Y366142D01*
X23877Y366142D01*
X23877Y357123D01*
X14858Y357123D01*
G37*
%LPD*%
%LPC*%
G36*
X26923Y345058D02*
X26923Y345058D01*
X26923Y354077D01*
X35942Y354077D01*
X35942Y351233D01*
X29767Y345058D01*
X26923Y345058D01*
G37*
%LPD*%
%LPC*%
G36*
X446658Y331723D02*
X446658Y331723D01*
X446658Y334567D01*
X452833Y340742D01*
X455677Y340742D01*
X455677Y331723D01*
X446658Y331723D01*
G37*
%LPD*%
%LPC*%
G36*
X21033Y345058D02*
X21033Y345058D01*
X14858Y351233D01*
X14858Y354077D01*
X23877Y354077D01*
X23877Y345058D01*
X21033Y345058D01*
G37*
%LPD*%
%LPC*%
G36*
X268023Y608583D02*
X268023Y608583D01*
X268023Y617601D01*
X270834Y617601D01*
X271481Y617428D01*
X272060Y617093D01*
X272533Y616620D01*
X272868Y616041D01*
X273041Y615394D01*
X273041Y608583D01*
X268023Y608583D01*
G37*
%LPD*%
%LPC*%
G36*
X268023Y596519D02*
X268023Y596519D01*
X268023Y605537D01*
X273041Y605537D01*
X273041Y598726D01*
X272868Y598079D01*
X272533Y597500D01*
X272060Y597027D01*
X271481Y596692D01*
X270834Y596519D01*
X268023Y596519D01*
G37*
%LPD*%
%LPC*%
G36*
X424656Y397799D02*
X424656Y397799D01*
X424009Y397972D01*
X423430Y398307D01*
X422957Y398780D01*
X422622Y399359D01*
X422449Y400006D01*
X422449Y404841D01*
X426491Y404841D01*
X426491Y397799D01*
X424656Y397799D01*
G37*
%LPD*%
%LPC*%
G36*
X25399Y355599D02*
X25399Y355599D01*
X25399Y355601D01*
X25401Y355601D01*
X25401Y355599D01*
X25399Y355599D01*
G37*
%LPD*%
%LPC*%
G36*
X416559Y363879D02*
X416559Y363879D01*
X416559Y363881D01*
X416561Y363881D01*
X416561Y363879D01*
X416559Y363879D01*
G37*
%LPD*%
%LPC*%
G36*
X466699Y515619D02*
X466699Y515619D01*
X466699Y515621D01*
X466701Y515621D01*
X466701Y515619D01*
X466699Y515619D01*
G37*
%LPD*%
%LPC*%
G36*
X466699Y543559D02*
X466699Y543559D01*
X466699Y543561D01*
X466701Y543561D01*
X466701Y543559D01*
X466699Y543559D01*
G37*
%LPD*%
%LPC*%
G36*
X466699Y571499D02*
X466699Y571499D01*
X466699Y571501D01*
X466701Y571501D01*
X466701Y571499D01*
X466699Y571499D01*
G37*
%LPD*%
%LPC*%
G36*
X138401Y571870D02*
X138401Y571870D01*
X138401Y571872D01*
X138403Y571872D01*
X138403Y571870D01*
X138401Y571870D01*
G37*
%LPD*%
D10*
X416560Y382880D03*
X416560Y363880D03*
D11*
X447700Y571500D03*
X466700Y571500D03*
X447700Y543560D03*
X466700Y543560D03*
D12*
X448410Y607060D03*
X460910Y607060D03*
D13*
X422810Y634560D03*
X486510Y634560D03*
D14*
X406400Y487680D03*
X431800Y487680D03*
D15*
X25400Y355600D03*
X25486Y330289D03*
X50800Y127000D03*
X50800Y152400D03*
X50800Y177800D03*
X50800Y203200D03*
X50800Y228600D03*
X50800Y254000D03*
X50800Y279400D03*
X50800Y304800D03*
X50800Y330200D03*
X50800Y355600D03*
X25509Y304711D03*
X457200Y355600D03*
X457200Y330200D03*
X457200Y304800D03*
X457200Y279400D03*
X457200Y254000D03*
X457200Y228600D03*
X457200Y203200D03*
X457200Y177800D03*
X457200Y152400D03*
X457200Y127000D03*
X25474Y279461D03*
X482600Y127000D03*
X482600Y152400D03*
X482600Y177800D03*
X482600Y203200D03*
X482600Y228600D03*
X482600Y254000D03*
X482600Y279400D03*
X482600Y304800D03*
X482600Y330200D03*
X482600Y355600D03*
X25400Y254000D03*
X25400Y228600D03*
X25400Y203200D03*
X25400Y177800D03*
X25400Y152400D03*
X25400Y127000D03*
D11*
X466700Y515620D03*
X447700Y515620D03*
X415900Y571500D03*
X396900Y571500D03*
X415900Y543560D03*
X396900Y543560D03*
X415900Y515620D03*
X396900Y515620D03*
D16*
X440690Y406340D03*
X427990Y406340D03*
X415290Y406340D03*
X402590Y406340D03*
X402590Y462340D03*
X415290Y462340D03*
X427990Y462340D03*
X440690Y462340D03*
D12*
X160390Y53340D03*
X147890Y53340D03*
X135390Y53340D03*
X122890Y53340D03*
X110390Y53340D03*
X97890Y53340D03*
X85390Y53340D03*
X72890Y53340D03*
X60390Y53340D03*
X47890Y53340D03*
D13*
X185990Y25840D03*
X22290Y25840D03*
D12*
X460110Y53340D03*
X447610Y53340D03*
X435110Y53340D03*
X422610Y53340D03*
X410110Y53340D03*
X397610Y53340D03*
X385110Y53340D03*
X372610Y53340D03*
X360110Y53340D03*
X347610Y53340D03*
D13*
X485710Y25840D03*
X322010Y25840D03*
D12*
X241500Y607060D03*
X254000Y607060D03*
X266500Y607060D03*
D13*
X215900Y634560D03*
X292100Y634560D03*
D17*
X205966Y594871D03*
D18*
X138402Y571871D03*
D17*
X205966Y548871D03*
D19*
X440690Y462340D02*
X441960Y463610D01*
X441960Y471999D01*
X445135Y475174D01*
X445135Y513055D01*
X447700Y515620D01*
D20*
X413032Y319302D03*
D19*
X445200Y319302D01*
X445219Y319283D01*
D20*
X445219Y319283D03*
X434340Y38100D03*
X93980Y149860D03*
X132080Y38100D03*
X93980Y220980D03*
X93980Y241300D03*
X93980Y276860D03*
X93980Y297180D03*
X20320Y370840D03*
X386080Y337820D03*
X431800Y350520D03*
X441960Y332740D03*
X284480Y548640D03*
X233680Y551180D03*
X270701Y593664D03*
X208280Y581660D03*
X345440Y635000D03*
X469900Y589280D03*
X469900Y467360D03*
X38100Y586740D03*
X96520Y589280D03*
X68580Y515620D03*
X106680Y500380D03*
X38100Y431800D03*
X335280Y238760D03*
X335280Y185420D03*
X350520Y144780D03*
X302260Y259080D03*
X302260Y187960D03*
X470088Y557421D03*
X459740Y500380D03*
X431800Y391160D03*
X383540Y35560D03*
X73660Y38100D03*
X431800Y289560D03*
X431800Y266700D03*
X418102Y475925D03*
X358140Y309880D03*
X317500Y287020D03*
X469900Y190500D03*
X76200Y449580D03*
X449580Y76200D03*
X281940Y137160D03*
X254000Y73660D03*
X182880Y88900D03*
X50800Y88900D03*
X22860Y96520D03*
X254000Y383540D03*
X93980Y535940D03*
D19*
X415900Y524560D02*
X415900Y515620D01*
X415900Y524560D02*
X396900Y543560D01*
X396900Y554267D01*
X405686Y563053D01*
X405686Y581660D01*
X442087Y476437D02*
X427990Y462340D01*
X442087Y476437D02*
X442087Y491941D01*
X418408Y515620D02*
X415900Y515620D01*
X418408Y515620D02*
X442087Y491941D01*
X438143Y584200D02*
X448410Y594467D01*
X448410Y607060D01*
X408226Y584200D02*
X405686Y581660D01*
X408226Y584200D02*
X438143Y584200D01*
X405289Y530860D02*
X383540Y530860D01*
X405289Y530860D02*
X406400Y529749D01*
X460910Y607060D02*
X461178Y607328D01*
X383540Y558140D02*
X383540Y530860D01*
X383540Y558140D02*
X396900Y571500D01*
X402638Y577238D01*
X406400Y587248D02*
X436880Y587248D01*
X461178Y607328D02*
X461178Y617220D01*
X431800Y478850D02*
X415290Y462340D01*
X431800Y478850D02*
X431800Y487680D01*
X416560Y502920D01*
X408940Y502920D01*
X406400Y505460D02*
X406400Y529749D01*
X436880Y587248D02*
X441960Y592328D01*
X441960Y615843D02*
X445905Y619788D01*
X441960Y615843D02*
X441960Y592328D01*
X461178Y617220D02*
X458610Y619788D01*
X445905Y619788D01*
X406400Y587248D02*
X402638Y583486D01*
X402638Y577238D01*
X406400Y505460D02*
X408940Y502920D01*
D20*
X448666Y241300D03*
X318356Y221684D03*
D19*
X318640Y221968D01*
X406374Y214348D02*
X409394Y211328D01*
X441960Y211328D01*
X441960Y234594D02*
X448666Y241300D01*
X441960Y234594D02*
X441960Y211328D01*
X406374Y214348D02*
X326260Y214348D01*
X318640Y221968D01*
X247750Y417730D02*
X247750Y511910D01*
X247750Y417730D02*
X251460Y414020D01*
X347980Y414020D02*
X381000Y414020D01*
X342900Y414020D02*
X251460Y414020D01*
X381000Y414020D02*
X383540Y411480D01*
X383540Y388620D01*
X388620Y382880D02*
X416560Y382880D01*
X415290Y384150D02*
X415290Y406340D01*
X415290Y384150D02*
X416560Y382880D01*
X443840Y355600D01*
X457200Y355600D01*
D20*
X345440Y421640D03*
D19*
X345440Y416560D01*
D20*
X254000Y518160D03*
X365760Y345440D03*
D19*
X383540Y363220D01*
X383540Y377800D01*
D20*
X160020Y150396D03*
D19*
X160020Y163040D01*
X162560Y165580D01*
D20*
X162560Y165580D03*
D19*
X383540Y388620D02*
X388620Y383540D01*
X388620Y382880D01*
X383540Y377800D01*
X345440Y416560D02*
X342900Y414020D01*
X345440Y416560D02*
X347980Y414020D01*
D20*
X60960Y38100D03*
D19*
X68580Y30480D01*
X142240Y30480D01*
X147890Y36130D01*
X147890Y53340D01*
D20*
X447040Y35560D03*
D19*
X447040Y52770D01*
X447610Y53340D01*
X247750Y523240D02*
X247750Y577950D01*
X254000Y584200D01*
X254000Y607060D01*
X254000Y518160D02*
X252830Y518160D01*
X247750Y523240D01*
X254000Y518160D02*
X247750Y511910D01*
X222119Y548871D02*
X205966Y548871D01*
X222119Y548871D02*
X247750Y523240D01*
D20*
X407942Y251920D03*
D19*
X442458Y251920D01*
X442598Y251780D01*
D20*
X442598Y251780D03*
D19*
X447700Y571500D02*
X415900Y571500D01*
X415900Y543560D02*
X447700Y543560D01*
X396900Y497180D02*
X406400Y487680D01*
X396900Y497180D02*
X396900Y515620D01*
D20*
X213360Y132080D03*
D19*
X243840Y162560D01*
X426720Y162560D01*
D20*
X426720Y162560D03*
X320040Y93980D03*
D19*
X482600Y144780D02*
X482600Y152400D01*
X328168Y102108D02*
X320040Y93980D01*
X328168Y102108D02*
X467360Y102108D01*
X472313Y107061D01*
X472313Y139573D02*
X472440Y139700D01*
X477520Y139700D01*
X472313Y139573D02*
X472313Y107061D01*
X477520Y139700D02*
X482600Y144780D01*
D20*
X330200Y337820D03*
D19*
X317500Y337820D01*
X314960Y335280D01*
D20*
X314960Y335280D03*
X129060Y508000D03*
D19*
X129060Y365062D01*
X129540Y364582D01*
D20*
X129540Y364582D03*
D19*
X72890Y130310D02*
X72890Y53340D01*
X72890Y130310D02*
X50800Y152400D01*
X75938Y152662D02*
X50800Y177800D01*
X75938Y152662D02*
X75938Y78025D01*
X97890Y56073D02*
X97890Y53340D01*
X97890Y56073D02*
X75938Y78025D01*
X50800Y225868D02*
X50800Y228600D01*
X50800Y225868D02*
X153704Y122964D01*
X252764Y122964D02*
X316264Y59464D01*
X332424Y68072D02*
X363220Y68072D01*
X323816Y59464D02*
X316264Y59464D01*
X323816Y59464D02*
X332424Y68072D01*
X363220Y68072D02*
X368046Y63246D01*
X252764Y122964D02*
X153704Y122964D01*
X368046Y63246D02*
X372610Y58682D01*
X372610Y53340D01*
X247368Y126012D02*
X246380Y126012D01*
X154967Y126012D01*
X61791Y219188D01*
X61791Y243009D02*
X50800Y254000D01*
X61791Y243009D02*
X61791Y219188D01*
X317527Y62512D02*
X322554Y62512D01*
X331162Y71120D02*
X388620Y71120D01*
X331162Y71120D02*
X322554Y62512D01*
X254027Y126012D02*
X247368Y126012D01*
X254027Y126012D02*
X317527Y62512D01*
X388620Y71120D02*
X397610Y62130D01*
X397610Y53340D01*
D20*
X68580Y223520D03*
D19*
X68580Y347980D01*
X60960Y355600D01*
X50800Y355600D01*
D20*
X373380Y544548D03*
D19*
X380492Y537436D01*
X403887Y433634D02*
X419100Y433634D01*
X403887Y433634D02*
X380492Y457029D01*
X380492Y537436D01*
X424576Y439420D02*
X424576Y439110D01*
D20*
X424576Y439420D03*
X421716Y279476D03*
D19*
X457124Y279476D01*
X457200Y279400D01*
X419100Y433634D02*
X424576Y439110D01*
D20*
X403860Y208280D03*
D19*
X431800Y208280D01*
X441960Y198120D01*
D20*
X441960Y198120D03*
X314348Y213360D03*
X403860Y198120D03*
D19*
X315558Y213360D02*
X314348Y213360D01*
X315558Y213360D02*
X320923Y207996D01*
X393984Y207996D02*
X403860Y198120D01*
X393984Y207996D02*
X320923Y207996D01*
D20*
X320040Y119380D03*
D19*
X334264Y105156D01*
X464820Y105156D01*
X469265Y109601D01*
X469265Y139700D01*
X462280Y139700D01*
X457200Y144780D02*
X457200Y152400D01*
X457200Y144780D02*
X462280Y139700D01*
X440690Y397510D02*
X440690Y406340D01*
X440690Y397510D02*
X472313Y365887D01*
X472313Y345844D01*
X472293Y345824D01*
X472293Y337820D01*
X479913Y330200D01*
X482600Y330200D01*
X403057Y406340D02*
X402590Y406340D01*
X403057Y406340D02*
X413883Y417166D01*
X435404Y411480D02*
X435404Y398485D01*
X469245Y364645D01*
X469245Y216555D01*
X482600Y203200D01*
X435404Y411480D02*
X429718Y417166D01*
X413883Y417166D01*
D20*
X320040Y68580D03*
D19*
X340360Y99060D02*
X468623Y99060D01*
X482600Y113037D02*
X482600Y127000D01*
X482600Y113037D02*
X468623Y99060D01*
X340360Y99060D02*
X320040Y78740D01*
X320040Y68580D01*
D20*
X353060Y459740D03*
D19*
X348488Y464312D01*
X348488Y574548D02*
X358140Y584200D01*
X358140Y591820D01*
D20*
X358140Y591820D03*
D19*
X348488Y574548D02*
X348488Y464312D01*
D20*
X345440Y447040D03*
D19*
X345440Y584200D01*
D20*
X345440Y584200D03*
X93980Y195580D03*
D19*
X86360Y203200D02*
X86360Y307340D01*
X86360Y203200D02*
X93980Y195580D01*
D20*
X297180Y406400D03*
D19*
X297180Y408940D01*
X189992Y410972D02*
X86360Y307340D01*
X295148Y410972D02*
X297180Y408940D01*
X295148Y410972D02*
X189992Y410972D01*
D20*
X154940Y447040D03*
D19*
X160274Y452374D01*
X160274Y522986D01*
X160020Y523240D01*
D20*
X160020Y523240D03*
X109220Y340360D03*
X175260Y419100D03*
D19*
X127374Y358514D02*
X109220Y340360D01*
X127374Y358514D02*
X132054Y358514D01*
X175260Y401721D01*
X175260Y419100D01*
D20*
X172720Y472440D03*
D19*
X167640Y472440D01*
X163322Y517454D02*
X169108Y523240D01*
D20*
X169108Y523240D03*
D19*
X163322Y476758D02*
X167640Y472440D01*
X163322Y476758D02*
X163322Y517454D01*
D20*
X316381Y235101D03*
X313525Y199192D03*
D19*
X308280Y203227D02*
X308280Y223494D01*
X316381Y231594D02*
X316381Y235101D01*
X313525Y199192D02*
X312315Y199192D01*
X308280Y203227D01*
X308280Y223494D02*
X316381Y231594D01*
D20*
X359692Y175260D03*
D19*
X373380Y175260D01*
D20*
X373380Y175260D03*
X406400Y439702D03*
D19*
X395404Y450698D01*
X395404Y471658D01*
D20*
X395404Y471658D03*
X193040Y233680D03*
D19*
X193040Y239529D01*
X243995Y290485D01*
D20*
X411404Y264084D03*
D19*
X329856Y264084D02*
X324603Y258831D01*
X329856Y264084D02*
X411404Y264084D01*
X288529Y290485D02*
X243995Y290485D01*
X307436Y266796D02*
X315401Y258831D01*
X324603Y258831D01*
X307436Y266796D02*
X307436Y271577D01*
X288529Y290485D01*
D20*
X418160Y257988D03*
D19*
X328071Y257988D02*
X325866Y255783D01*
X328071Y257988D02*
X418160Y257988D01*
D20*
X153662Y227289D03*
D19*
X199108Y231167D02*
X199108Y241287D01*
X199108Y231167D02*
X195231Y227289D01*
X153662Y227289D01*
X199108Y241287D02*
X245258Y287437D01*
X305281Y264641D02*
X314138Y255783D01*
X325866Y255783D01*
X304388Y265534D02*
X304388Y270315D01*
X304388Y265534D02*
X305281Y264641D01*
X305281Y264641D01*
X287266Y287437D02*
X245258Y287437D01*
X287266Y287437D02*
X304388Y270315D01*
D20*
X358140Y271780D03*
D19*
X416560Y271780D01*
D20*
X416560Y271780D03*
X415488Y439702D03*
X406400Y474373D03*
D19*
X415488Y449909D02*
X415488Y439702D01*
X410004Y470769D02*
X406400Y474373D01*
X410004Y455393D02*
X415488Y449909D01*
X410004Y455393D02*
X410004Y470769D01*
X358140Y271780D02*
X320125Y271780D01*
X199489Y255369D02*
X180340Y255369D01*
D20*
X180340Y255369D03*
D19*
X240701Y296581D02*
X292100Y296581D01*
X240701Y296581D02*
X199489Y255369D01*
X292100Y296581D02*
X315173Y273507D01*
X318398Y273507D01*
X320125Y271780D01*
D20*
X315885Y267439D03*
D19*
X196436Y247236D02*
X164366Y247236D01*
X196436Y247236D02*
X242733Y293533D01*
X289791Y293533D02*
X315885Y267439D01*
X289791Y293533D02*
X242733Y293533D01*
D20*
X159657Y255293D03*
D19*
X159657Y251945D01*
X164366Y247236D01*
D20*
X318404Y318392D03*
X152824Y283273D03*
D19*
X313650Y318392D02*
X318404Y318392D01*
X313650Y318392D02*
X301159Y305901D01*
X300983Y305725D01*
X175275Y305725D02*
X152824Y283273D01*
X175275Y305725D02*
X300983Y305725D01*
D20*
X414354Y310214D03*
X198120Y287020D03*
D19*
X393346Y299629D02*
X396366Y296609D01*
X213269Y299629D02*
X200660Y287020D01*
X198120Y287020D01*
X213269Y299629D02*
X393346Y299629D01*
X414354Y309570D02*
X414354Y310214D01*
X415107Y300163D02*
X411553Y296609D01*
X415107Y308817D02*
X414354Y309570D01*
X415107Y308817D02*
X415107Y300163D01*
X411553Y296609D02*
X396366Y296609D01*
D20*
X409039Y302677D03*
D19*
X375503Y302677D01*
X327179Y351001D02*
X323061Y351001D01*
D20*
X323061Y351001D03*
D19*
X344170Y334010D02*
X375503Y302677D01*
X339090Y339090D02*
X327179Y351001D01*
D20*
X219908Y485140D03*
D19*
X213868Y491180D01*
X213868Y512724D02*
X203352Y523240D01*
X213868Y512724D02*
X213868Y491180D01*
D20*
X147320Y531436D03*
D19*
X148240Y532356D02*
X172995Y532356D01*
X148240Y532356D02*
X147320Y531436D01*
X172995Y532356D02*
X182111Y523240D01*
X203352Y523240D01*
D20*
X211205Y288983D03*
D19*
X223524Y288983D01*
X228101Y293561D01*
D20*
X228101Y293561D03*
X208761Y312901D03*
D19*
X212889Y308773D01*
X299720Y308773D01*
X336268Y331188D02*
X339090Y334010D01*
X322135Y331188D02*
X299720Y308773D01*
X322135Y331188D02*
X336268Y331188D01*
X339090Y334010D02*
X339090Y339090D01*
X339090Y334010D02*
X344170Y334010D01*
D20*
X210820Y485140D03*
D19*
X210820Y511462D01*
X202090Y520192D01*
D20*
X147320Y522348D03*
D19*
X150547Y522348D01*
X157507Y529308D01*
X171622Y529308D01*
X177690Y523240D02*
X177800Y523240D01*
X177690Y523240D02*
X171622Y529308D01*
X177800Y523240D02*
X180848Y520192D01*
X202090Y520192D01*
D20*
X201834Y298354D03*
D19*
X207683Y298354D01*
X212006Y302677D01*
D20*
X314960Y305697D03*
D19*
X311940Y302677D01*
X212006Y302677D01*
D20*
X401320Y68580D03*
D19*
X414020Y68580D01*
X419100Y73660D01*
X421640Y73660D01*
D20*
X421640Y73660D03*
D19*
X239271Y594871D02*
X205966Y594871D01*
X241500Y597100D02*
X241500Y607060D01*
X241500Y597100D02*
X239271Y594871D01*
M02*
