M48
;GenerationSoftware,Autodesk,EAGLE,9.6.2*%
;CreationDate,2021-12-10T16:40:13Z*%
FMAT,2
ICI,OFF
METRIC,TZ,000.000
T2C0.350
T1C0.914
%
G90
M71
T1
X45720Y20320
X40640Y48768
X43180Y48768
X2540Y35560
X2549Y33029
X5080Y12700
X5080Y15240
X5080Y17780
X5080Y20320
X5080Y22860
X5080Y25400
X5080Y27940
X5080Y30480
X5080Y33020
X5080Y35560
X2551Y30471
X45720Y35560
X45720Y33020
X45720Y30480
X45720Y27940
X45720Y25400
X45720Y22860
X45720Y17780
X45720Y15240
X45720Y12700
X2547Y27946
X48260Y12700
X48260Y15240
X48260Y17780
X48260Y20320
X48260Y22860
X48260Y25400
X48260Y27940
X48260Y30480
X48260Y33020
X48260Y35560
X2540Y25400
X2540Y22860
X2540Y20320
X2540Y17780
X2540Y15240
X2540Y12700
T2
X44958Y7620
X28194Y13716
X25400Y7366
X18288Y8890
X5080Y8890
X2286Y9652
X25400Y38354
X9398Y53594
X44867Y24130
X31836Y22168
X34544Y42164
X25400Y51816
X36576Y34544
X16002Y15040
X16256Y16558
X6096Y3810
X44704Y3556
X40794Y25192
X44260Y25178
X21336Y13208
X42672Y16256
X32004Y9398
X33020Y33782
X31496Y33528
X12906Y50800
X12954Y36458
X6858Y22352
X37338Y54455
X42458Y43942
X42172Y27948
X40386Y20828
X44196Y19812
X31435Y21336
X40386Y19812
X32004Y11938
X32004Y6858
X35306Y45974
X35814Y59182
X34544Y44704
X34544Y58420
X9398Y19558
X3810Y58674
X15494Y44704
X16002Y52324
X10922Y34036
X17526Y41910
X17272Y47244
X16911Y52324
X31638Y23510
X31352Y19919
X35969Y17526
X37338Y17526
X40640Y43970
X39540Y47166
X19304Y23368
X41140Y26408
X41816Y25799
X15366Y22729
X35814Y27178
X41656Y27178
X41549Y43970
X40640Y47437
X18034Y25537
X31588Y26744
X15966Y25529
X31840Y31839
X15282Y28327
X41435Y31021
X19812Y28702
X40904Y30268
X32306Y35100
X21991Y48514
X14732Y53144
X21120Y28898
X22810Y29356
X20876Y31290
X21082Y48514
X14732Y52235
X20183Y29835
X31496Y30570
X40132Y6858
X42164Y7366
X41303Y31930
X44522Y31928
X43434Y3810
X9398Y14986
X13208Y3810
X9398Y22098
X9398Y24130
X9398Y27686
X9398Y29718
X2032Y37084
X38608Y33782
X43180Y35052
X44196Y33274
X28448Y54864
X23368Y55118
X27070Y59366
X20828Y58166
X34544Y63500
X46990Y58928
X46990Y46736
X9652Y58928
X29718Y40640
X6858Y51562
X10668Y50038
X3810Y43180
X33528Y23876
X33528Y18542
X35052Y14478
X30226Y25908
X30226Y18796
X47009Y55742
X45974Y50038
X43180Y39116
X38354Y3556
X7366Y3810
X43180Y28956
X43180Y26670
X41810Y47592
X35814Y30988
X31750Y28702
X46990Y19050
X7620Y44958
M30