G04 EAGLE Gerber RS-274X export*
G75*
%MOMM*%
%FSLAX34Y34*%
%LPD*%
%INSilkscreen Bottom*%
%IPPOS*%
%AMOC8*
5,1,8,0,0,1.08239X$1,22.5*%
G01*
%ADD10C,0.152400*%
%ADD11C,0.076200*%
%ADD12C,0.203200*%
%ADD13C,0.177800*%
%ADD14C,0.127000*%

G36*
X452510Y407420D02*
X452510Y407420D01*
X452512Y407422D01*
X452513Y407421D01*
X453184Y407656D01*
X453185Y407657D01*
X453186Y407657D01*
X453788Y408035D01*
X453789Y408037D01*
X453791Y408037D01*
X454293Y408539D01*
X454293Y408541D01*
X454295Y408542D01*
X454673Y409144D01*
X454673Y409145D01*
X454674Y409146D01*
X454909Y409817D01*
X454909Y409819D01*
X454910Y409820D01*
X454944Y410120D01*
X454944Y410121D01*
X454945Y410132D01*
X454981Y410455D01*
X454983Y410467D01*
X454989Y410526D01*
X454989Y410527D01*
X454988Y410528D01*
X454989Y410529D01*
X454910Y411235D01*
X454908Y411237D01*
X454909Y411238D01*
X454674Y411909D01*
X454673Y411910D01*
X454673Y411911D01*
X454295Y412513D01*
X454293Y412514D01*
X454293Y412516D01*
X453791Y413018D01*
X453789Y413018D01*
X453788Y413020D01*
X453186Y413398D01*
X453185Y413398D01*
X453184Y413399D01*
X452513Y413634D01*
X452511Y413634D01*
X452510Y413635D01*
X451804Y413714D01*
X451802Y413713D01*
X451801Y413714D01*
X451095Y413635D01*
X451093Y413633D01*
X451092Y413634D01*
X450421Y413399D01*
X450420Y413398D01*
X450419Y413398D01*
X449817Y413020D01*
X449816Y413018D01*
X449814Y413018D01*
X449312Y412516D01*
X449312Y412514D01*
X449310Y412513D01*
X448932Y411911D01*
X448932Y411910D01*
X448931Y411909D01*
X448696Y411238D01*
X448697Y411236D01*
X448695Y411235D01*
X448682Y411114D01*
X448680Y411102D01*
X448644Y410780D01*
X448643Y410768D01*
X448616Y410529D01*
X448617Y410527D01*
X448616Y410526D01*
X448695Y409820D01*
X448697Y409818D01*
X448696Y409817D01*
X448931Y409146D01*
X448932Y409145D01*
X448932Y409144D01*
X449310Y408542D01*
X449312Y408541D01*
X449312Y408539D01*
X449814Y408037D01*
X449816Y408037D01*
X449817Y408035D01*
X450419Y407657D01*
X450420Y407657D01*
X450421Y407656D01*
X451092Y407421D01*
X451094Y407422D01*
X451095Y407420D01*
X451801Y407341D01*
X451803Y407342D01*
X451804Y407341D01*
X452510Y407420D01*
G37*
G36*
X492527Y47931D02*
X492527Y47931D01*
X492553Y47928D01*
X492636Y47950D01*
X492721Y47965D01*
X492744Y47979D01*
X492770Y47986D01*
X492840Y48036D01*
X492914Y48080D01*
X492931Y48100D01*
X492953Y48116D01*
X493001Y48187D01*
X493055Y48254D01*
X493064Y48279D01*
X493079Y48301D01*
X493100Y48385D01*
X493127Y48466D01*
X493127Y48493D01*
X493133Y48519D01*
X493123Y48605D01*
X493121Y48691D01*
X493111Y48715D01*
X493108Y48742D01*
X493051Y48862D01*
X493036Y48898D01*
X493031Y48904D01*
X493028Y48912D01*
X490488Y52722D01*
X490434Y52778D01*
X490386Y52840D01*
X490361Y52856D01*
X490348Y52870D01*
X490343Y52872D01*
X490332Y52884D01*
X490262Y52917D01*
X490196Y52959D01*
X490162Y52966D01*
X490130Y52981D01*
X490053Y52988D01*
X489976Y53004D01*
X489941Y52999D01*
X489907Y53002D01*
X489831Y52982D01*
X489754Y52970D01*
X489737Y52960D01*
X489736Y52960D01*
X489731Y52957D01*
X489724Y52953D01*
X489690Y52944D01*
X489626Y52899D01*
X489558Y52861D01*
X489547Y52848D01*
X489543Y52846D01*
X489531Y52831D01*
X489507Y52814D01*
X489481Y52775D01*
X489432Y52722D01*
X486892Y48912D01*
X486882Y48887D01*
X486865Y48866D01*
X486837Y48785D01*
X486803Y48706D01*
X486801Y48679D01*
X486793Y48654D01*
X486795Y48568D01*
X486791Y48482D01*
X486799Y48456D01*
X486799Y48429D01*
X486832Y48350D01*
X486857Y48268D01*
X486874Y48246D01*
X486884Y48222D01*
X486942Y48158D01*
X486994Y48090D01*
X487017Y48076D01*
X487035Y48056D01*
X487112Y48017D01*
X487184Y47971D01*
X487211Y47966D01*
X487235Y47953D01*
X487365Y47934D01*
X487404Y47926D01*
X487411Y47927D01*
X487420Y47926D01*
X492500Y47926D01*
X492527Y47931D01*
G37*
G36*
X192807Y47931D02*
X192807Y47931D01*
X192833Y47928D01*
X192916Y47950D01*
X193001Y47965D01*
X193024Y47979D01*
X193050Y47986D01*
X193120Y48036D01*
X193194Y48080D01*
X193211Y48100D01*
X193233Y48116D01*
X193281Y48187D01*
X193335Y48254D01*
X193344Y48279D01*
X193359Y48301D01*
X193380Y48385D01*
X193407Y48466D01*
X193407Y48493D01*
X193413Y48519D01*
X193403Y48605D01*
X193401Y48691D01*
X193391Y48715D01*
X193388Y48742D01*
X193331Y48862D01*
X193316Y48898D01*
X193311Y48904D01*
X193308Y48912D01*
X190768Y52722D01*
X190714Y52778D01*
X190666Y52840D01*
X190641Y52856D01*
X190628Y52870D01*
X190623Y52872D01*
X190612Y52884D01*
X190542Y52917D01*
X190476Y52959D01*
X190442Y52966D01*
X190410Y52981D01*
X190333Y52988D01*
X190256Y53004D01*
X190221Y52999D01*
X190187Y53002D01*
X190111Y52982D01*
X190034Y52970D01*
X190017Y52960D01*
X190016Y52960D01*
X190011Y52957D01*
X190004Y52953D01*
X189970Y52944D01*
X189906Y52899D01*
X189838Y52861D01*
X189827Y52848D01*
X189823Y52846D01*
X189811Y52831D01*
X189787Y52814D01*
X189761Y52775D01*
X189712Y52722D01*
X187172Y48912D01*
X187162Y48887D01*
X187145Y48866D01*
X187117Y48785D01*
X187083Y48706D01*
X187081Y48679D01*
X187073Y48654D01*
X187075Y48568D01*
X187071Y48482D01*
X187079Y48456D01*
X187079Y48429D01*
X187112Y48350D01*
X187137Y48268D01*
X187154Y48246D01*
X187164Y48222D01*
X187222Y48158D01*
X187274Y48090D01*
X187297Y48076D01*
X187315Y48056D01*
X187392Y48017D01*
X187464Y47971D01*
X187491Y47966D01*
X187515Y47953D01*
X187645Y47934D01*
X187684Y47926D01*
X187691Y47927D01*
X187700Y47926D01*
X192780Y47926D01*
X192807Y47931D01*
G37*
G36*
X211669Y607401D02*
X211669Y607401D01*
X211703Y607398D01*
X211779Y607418D01*
X211856Y607430D01*
X211886Y607447D01*
X211920Y607456D01*
X211984Y607501D01*
X212052Y607539D01*
X212078Y607569D01*
X212103Y607586D01*
X212129Y607625D01*
X212178Y607678D01*
X214718Y611488D01*
X214728Y611511D01*
X214742Y611529D01*
X214743Y611531D01*
X214745Y611534D01*
X214773Y611615D01*
X214807Y611694D01*
X214809Y611721D01*
X214817Y611746D01*
X214815Y611832D01*
X214819Y611918D01*
X214811Y611944D01*
X214811Y611971D01*
X214778Y612050D01*
X214753Y612132D01*
X214736Y612154D01*
X214726Y612178D01*
X214668Y612242D01*
X214616Y612310D01*
X214593Y612324D01*
X214575Y612344D01*
X214498Y612383D01*
X214426Y612429D01*
X214399Y612434D01*
X214375Y612447D01*
X214245Y612466D01*
X214206Y612474D01*
X214199Y612473D01*
X214190Y612474D01*
X209110Y612474D01*
X209084Y612470D01*
X209057Y612472D01*
X208974Y612450D01*
X208889Y612435D01*
X208866Y612421D01*
X208840Y612414D01*
X208770Y612364D01*
X208696Y612320D01*
X208679Y612300D01*
X208657Y612284D01*
X208609Y612213D01*
X208555Y612146D01*
X208546Y612121D01*
X208531Y612099D01*
X208510Y612015D01*
X208483Y611934D01*
X208484Y611907D01*
X208477Y611881D01*
X208487Y611795D01*
X208489Y611709D01*
X208499Y611685D01*
X208502Y611658D01*
X208559Y611538D01*
X208574Y611502D01*
X208576Y611499D01*
X208577Y611497D01*
X208580Y611494D01*
X208582Y611488D01*
X211122Y607678D01*
X211176Y607622D01*
X211224Y607560D01*
X211254Y607542D01*
X211278Y607516D01*
X211348Y607483D01*
X211414Y607441D01*
X211449Y607434D01*
X211480Y607419D01*
X211557Y607412D01*
X211634Y607396D01*
X211669Y607401D01*
G37*
G36*
X418579Y607401D02*
X418579Y607401D01*
X418613Y607398D01*
X418689Y607418D01*
X418766Y607430D01*
X418796Y607447D01*
X418830Y607456D01*
X418894Y607501D01*
X418962Y607539D01*
X418988Y607569D01*
X419013Y607586D01*
X419039Y607625D01*
X419088Y607678D01*
X421628Y611488D01*
X421638Y611511D01*
X421652Y611529D01*
X421653Y611531D01*
X421655Y611534D01*
X421683Y611615D01*
X421717Y611694D01*
X421719Y611721D01*
X421727Y611746D01*
X421725Y611832D01*
X421729Y611918D01*
X421721Y611944D01*
X421721Y611971D01*
X421688Y612050D01*
X421663Y612132D01*
X421646Y612154D01*
X421636Y612178D01*
X421578Y612242D01*
X421526Y612310D01*
X421503Y612324D01*
X421485Y612344D01*
X421408Y612383D01*
X421336Y612429D01*
X421309Y612434D01*
X421285Y612447D01*
X421155Y612466D01*
X421116Y612474D01*
X421109Y612473D01*
X421100Y612474D01*
X416020Y612474D01*
X415994Y612470D01*
X415967Y612472D01*
X415884Y612450D01*
X415799Y612435D01*
X415776Y612421D01*
X415750Y612414D01*
X415680Y612364D01*
X415606Y612320D01*
X415589Y612300D01*
X415567Y612284D01*
X415519Y612213D01*
X415465Y612146D01*
X415456Y612121D01*
X415441Y612099D01*
X415420Y612015D01*
X415393Y611934D01*
X415394Y611907D01*
X415387Y611881D01*
X415397Y611795D01*
X415399Y611709D01*
X415409Y611685D01*
X415412Y611658D01*
X415469Y611538D01*
X415484Y611502D01*
X415486Y611499D01*
X415487Y611497D01*
X415490Y611494D01*
X415492Y611488D01*
X418032Y607678D01*
X418086Y607622D01*
X418134Y607560D01*
X418164Y607542D01*
X418188Y607516D01*
X418258Y607483D01*
X418324Y607441D01*
X418359Y607434D01*
X418390Y607419D01*
X418467Y607412D01*
X418544Y607396D01*
X418579Y607401D01*
G37*
D10*
X436880Y581660D02*
X436880Y533400D01*
X477520Y533400D01*
X477520Y581660D01*
X436880Y581660D01*
X426720Y581660D02*
X386080Y581660D01*
X426720Y581660D02*
X426720Y533400D01*
X386080Y533400D01*
X386080Y581660D01*
D11*
X380619Y553850D02*
X378982Y551804D01*
X380619Y553850D02*
X373253Y553850D01*
X373253Y551804D02*
X373253Y555896D01*
X376936Y559120D02*
X377089Y559122D01*
X377242Y559128D01*
X377394Y559137D01*
X377547Y559151D01*
X377699Y559168D01*
X377850Y559189D01*
X378001Y559214D01*
X378151Y559243D01*
X378301Y559275D01*
X378449Y559312D01*
X378597Y559352D01*
X378744Y559395D01*
X378889Y559443D01*
X379033Y559494D01*
X379176Y559548D01*
X379318Y559607D01*
X379457Y559668D01*
X379596Y559734D01*
X379666Y559760D01*
X379736Y559790D01*
X379803Y559823D01*
X379869Y559859D01*
X379933Y559898D01*
X379995Y559941D01*
X380054Y559987D01*
X380112Y560035D01*
X380166Y560086D01*
X380219Y560140D01*
X380268Y560197D01*
X380315Y560256D01*
X380358Y560317D01*
X380399Y560380D01*
X380436Y560445D01*
X380471Y560512D01*
X380501Y560581D01*
X380529Y560651D01*
X380552Y560722D01*
X380573Y560794D01*
X380589Y560867D01*
X380602Y560941D01*
X380612Y561016D01*
X380617Y561091D01*
X380619Y561166D01*
X380617Y561241D01*
X380612Y561316D01*
X380602Y561391D01*
X380589Y561465D01*
X380573Y561538D01*
X380552Y561610D01*
X380529Y561681D01*
X380501Y561751D01*
X380471Y561820D01*
X380436Y561887D01*
X380399Y561952D01*
X380358Y562015D01*
X380315Y562076D01*
X380268Y562135D01*
X380219Y562192D01*
X380166Y562246D01*
X380112Y562297D01*
X380054Y562346D01*
X379995Y562391D01*
X379933Y562434D01*
X379869Y562473D01*
X379803Y562510D01*
X379735Y562542D01*
X379666Y562572D01*
X379596Y562598D01*
X379458Y562663D01*
X379318Y562725D01*
X379176Y562783D01*
X379033Y562838D01*
X378889Y562889D01*
X378744Y562937D01*
X378597Y562980D01*
X378450Y563020D01*
X378301Y563057D01*
X378151Y563089D01*
X378001Y563118D01*
X377850Y563143D01*
X377699Y563164D01*
X377547Y563181D01*
X377394Y563195D01*
X377242Y563204D01*
X377089Y563210D01*
X376936Y563212D01*
X376936Y559119D02*
X376783Y559121D01*
X376630Y559127D01*
X376477Y559136D01*
X376325Y559150D01*
X376173Y559167D01*
X376022Y559188D01*
X375871Y559213D01*
X375720Y559242D01*
X375571Y559274D01*
X375422Y559311D01*
X375275Y559351D01*
X375128Y559394D01*
X374983Y559442D01*
X374838Y559493D01*
X374696Y559548D01*
X374554Y559606D01*
X374414Y559668D01*
X374276Y559733D01*
X374276Y559734D02*
X374205Y559760D01*
X374136Y559790D01*
X374069Y559823D01*
X374003Y559859D01*
X373939Y559898D01*
X373877Y559941D01*
X373818Y559987D01*
X373760Y560035D01*
X373706Y560086D01*
X373653Y560140D01*
X373604Y560197D01*
X373557Y560256D01*
X373514Y560317D01*
X373473Y560380D01*
X373436Y560445D01*
X373401Y560512D01*
X373371Y560581D01*
X373343Y560651D01*
X373320Y560722D01*
X373299Y560794D01*
X373283Y560867D01*
X373270Y560941D01*
X373260Y561016D01*
X373255Y561091D01*
X373253Y561166D01*
X374276Y562597D02*
X374414Y562662D01*
X374554Y562724D01*
X374696Y562782D01*
X374839Y562837D01*
X374983Y562888D01*
X375128Y562936D01*
X375275Y562979D01*
X375423Y563019D01*
X375571Y563056D01*
X375721Y563088D01*
X375871Y563117D01*
X376022Y563142D01*
X376173Y563163D01*
X376325Y563180D01*
X376478Y563194D01*
X376630Y563203D01*
X376783Y563209D01*
X376936Y563211D01*
X374276Y562598D02*
X374206Y562572D01*
X374136Y562542D01*
X374069Y562510D01*
X374003Y562473D01*
X373939Y562434D01*
X373877Y562391D01*
X373818Y562345D01*
X373760Y562297D01*
X373706Y562246D01*
X373653Y562192D01*
X373604Y562135D01*
X373557Y562076D01*
X373514Y562015D01*
X373473Y561952D01*
X373436Y561887D01*
X373401Y561820D01*
X373371Y561751D01*
X373343Y561681D01*
X373320Y561610D01*
X373299Y561538D01*
X373283Y561465D01*
X373270Y561391D01*
X373260Y561316D01*
X373255Y561241D01*
X373253Y561166D01*
X374890Y559529D02*
X378982Y562802D01*
X376936Y566435D02*
X377089Y566437D01*
X377242Y566443D01*
X377394Y566452D01*
X377547Y566466D01*
X377699Y566483D01*
X377850Y566504D01*
X378001Y566529D01*
X378151Y566558D01*
X378301Y566590D01*
X378449Y566627D01*
X378597Y566667D01*
X378744Y566710D01*
X378889Y566758D01*
X379033Y566809D01*
X379176Y566863D01*
X379318Y566922D01*
X379457Y566983D01*
X379596Y567049D01*
X379666Y567075D01*
X379736Y567105D01*
X379803Y567138D01*
X379869Y567174D01*
X379933Y567213D01*
X379995Y567256D01*
X380054Y567302D01*
X380112Y567350D01*
X380166Y567401D01*
X380219Y567455D01*
X380268Y567512D01*
X380315Y567571D01*
X380358Y567632D01*
X380399Y567695D01*
X380436Y567760D01*
X380471Y567827D01*
X380501Y567896D01*
X380529Y567966D01*
X380552Y568037D01*
X380573Y568109D01*
X380589Y568182D01*
X380602Y568256D01*
X380612Y568331D01*
X380617Y568406D01*
X380619Y568481D01*
X380617Y568556D01*
X380612Y568631D01*
X380602Y568706D01*
X380589Y568780D01*
X380573Y568853D01*
X380552Y568925D01*
X380529Y568996D01*
X380501Y569066D01*
X380471Y569135D01*
X380436Y569202D01*
X380399Y569267D01*
X380358Y569330D01*
X380315Y569391D01*
X380268Y569450D01*
X380219Y569507D01*
X380166Y569561D01*
X380112Y569612D01*
X380054Y569661D01*
X379995Y569706D01*
X379933Y569749D01*
X379869Y569788D01*
X379803Y569825D01*
X379735Y569857D01*
X379666Y569887D01*
X379596Y569913D01*
X379458Y569978D01*
X379318Y570040D01*
X379176Y570098D01*
X379033Y570153D01*
X378889Y570204D01*
X378744Y570252D01*
X378597Y570295D01*
X378450Y570335D01*
X378301Y570372D01*
X378151Y570404D01*
X378001Y570433D01*
X377850Y570458D01*
X377699Y570479D01*
X377547Y570496D01*
X377394Y570510D01*
X377242Y570519D01*
X377089Y570525D01*
X376936Y570527D01*
X376936Y566434D02*
X376783Y566436D01*
X376630Y566442D01*
X376477Y566451D01*
X376325Y566465D01*
X376173Y566482D01*
X376022Y566503D01*
X375871Y566528D01*
X375720Y566557D01*
X375571Y566589D01*
X375422Y566626D01*
X375275Y566666D01*
X375128Y566709D01*
X374983Y566757D01*
X374838Y566808D01*
X374696Y566863D01*
X374554Y566921D01*
X374414Y566983D01*
X374276Y567048D01*
X374276Y567049D02*
X374205Y567075D01*
X374136Y567105D01*
X374069Y567138D01*
X374003Y567174D01*
X373939Y567213D01*
X373877Y567256D01*
X373818Y567302D01*
X373760Y567350D01*
X373706Y567401D01*
X373653Y567455D01*
X373604Y567512D01*
X373557Y567571D01*
X373514Y567632D01*
X373473Y567695D01*
X373436Y567760D01*
X373401Y567827D01*
X373371Y567896D01*
X373343Y567966D01*
X373320Y568037D01*
X373299Y568109D01*
X373283Y568182D01*
X373270Y568256D01*
X373260Y568331D01*
X373255Y568406D01*
X373253Y568481D01*
X374276Y569913D02*
X374414Y569978D01*
X374554Y570040D01*
X374696Y570098D01*
X374839Y570153D01*
X374983Y570204D01*
X375128Y570252D01*
X375275Y570295D01*
X375423Y570335D01*
X375571Y570372D01*
X375721Y570404D01*
X375871Y570433D01*
X376022Y570458D01*
X376173Y570479D01*
X376325Y570496D01*
X376478Y570510D01*
X376630Y570519D01*
X376783Y570525D01*
X376936Y570527D01*
X374276Y569913D02*
X374206Y569887D01*
X374136Y569857D01*
X374069Y569825D01*
X374003Y569788D01*
X373939Y569749D01*
X373877Y569706D01*
X373818Y569660D01*
X373760Y569612D01*
X373706Y569561D01*
X373653Y569507D01*
X373604Y569450D01*
X373557Y569391D01*
X373514Y569330D01*
X373473Y569267D01*
X373436Y569202D01*
X373401Y569135D01*
X373371Y569066D01*
X373343Y568996D01*
X373320Y568925D01*
X373299Y568853D01*
X373283Y568780D01*
X373270Y568706D01*
X373260Y568631D01*
X373255Y568556D01*
X373253Y568481D01*
X374890Y566844D02*
X378982Y570118D01*
X378164Y573829D02*
X378260Y573831D01*
X378357Y573837D01*
X378453Y573846D01*
X378548Y573859D01*
X378643Y573876D01*
X378737Y573897D01*
X378830Y573921D01*
X378923Y573949D01*
X379014Y573981D01*
X379103Y574016D01*
X379192Y574055D01*
X379279Y574097D01*
X379364Y574142D01*
X379447Y574191D01*
X379528Y574243D01*
X379607Y574298D01*
X379684Y574356D01*
X379758Y574417D01*
X379830Y574481D01*
X379900Y574548D01*
X379967Y574618D01*
X380031Y574690D01*
X380092Y574764D01*
X380150Y574841D01*
X380205Y574920D01*
X380257Y575001D01*
X380306Y575084D01*
X380351Y575169D01*
X380393Y575256D01*
X380432Y575345D01*
X380467Y575434D01*
X380499Y575525D01*
X380527Y575618D01*
X380551Y575711D01*
X380572Y575805D01*
X380589Y575900D01*
X380602Y575995D01*
X380611Y576091D01*
X380617Y576188D01*
X380619Y576284D01*
X378164Y573828D02*
X377345Y573828D01*
X377252Y573830D01*
X377160Y573835D01*
X377067Y573845D01*
X376975Y573858D01*
X376884Y573874D01*
X376793Y573895D01*
X376704Y573918D01*
X376615Y573946D01*
X376527Y573977D01*
X376441Y574011D01*
X376357Y574049D01*
X376273Y574090D01*
X376192Y574135D01*
X376112Y574183D01*
X376035Y574234D01*
X375959Y574288D01*
X375886Y574345D01*
X375815Y574404D01*
X375746Y574467D01*
X375680Y574532D01*
X375617Y574600D01*
X375557Y574671D01*
X375499Y574743D01*
X375444Y574818D01*
X375393Y574896D01*
X375344Y574975D01*
X375299Y575056D01*
X373253Y575056D01*
X373253Y573828D01*
X378164Y578739D02*
X378260Y578737D01*
X378357Y578731D01*
X378453Y578722D01*
X378548Y578709D01*
X378643Y578692D01*
X378737Y578671D01*
X378830Y578647D01*
X378923Y578619D01*
X379014Y578587D01*
X379103Y578552D01*
X379192Y578513D01*
X379279Y578471D01*
X379364Y578426D01*
X379447Y578377D01*
X379528Y578325D01*
X379607Y578270D01*
X379684Y578212D01*
X379758Y578151D01*
X379830Y578087D01*
X379900Y578020D01*
X379967Y577950D01*
X380031Y577878D01*
X380092Y577804D01*
X380150Y577727D01*
X380205Y577648D01*
X380257Y577567D01*
X380306Y577484D01*
X380351Y577399D01*
X380393Y577312D01*
X380432Y577223D01*
X380467Y577134D01*
X380499Y577043D01*
X380527Y576950D01*
X380551Y576857D01*
X380572Y576763D01*
X380589Y576668D01*
X380602Y576573D01*
X380611Y576477D01*
X380617Y576380D01*
X380619Y576284D01*
X378164Y578739D02*
X377345Y578739D01*
X377252Y578737D01*
X377160Y578732D01*
X377067Y578722D01*
X376975Y578709D01*
X376884Y578693D01*
X376793Y578672D01*
X376704Y578649D01*
X376615Y578621D01*
X376527Y578590D01*
X376441Y578556D01*
X376357Y578518D01*
X376273Y578477D01*
X376192Y578432D01*
X376112Y578384D01*
X376035Y578333D01*
X375959Y578279D01*
X375886Y578222D01*
X375815Y578163D01*
X375746Y578100D01*
X375680Y578035D01*
X375617Y577967D01*
X375557Y577896D01*
X375499Y577824D01*
X375444Y577749D01*
X375393Y577671D01*
X375344Y577592D01*
X375299Y577511D01*
X373253Y577511D01*
X373253Y578739D01*
X482473Y541512D02*
X482473Y539056D01*
X482473Y541512D02*
X482475Y541592D01*
X482481Y541672D01*
X482491Y541752D01*
X482504Y541831D01*
X482522Y541910D01*
X482543Y541987D01*
X482569Y542063D01*
X482598Y542138D01*
X482630Y542212D01*
X482666Y542284D01*
X482706Y542354D01*
X482749Y542421D01*
X482795Y542487D01*
X482845Y542550D01*
X482897Y542611D01*
X482952Y542670D01*
X483011Y542725D01*
X483071Y542777D01*
X483135Y542827D01*
X483201Y542873D01*
X483268Y542916D01*
X483338Y542956D01*
X483410Y542992D01*
X483484Y543024D01*
X483558Y543053D01*
X483635Y543079D01*
X483712Y543100D01*
X483791Y543118D01*
X483870Y543131D01*
X483950Y543141D01*
X484030Y543147D01*
X484110Y543149D01*
X484928Y543149D01*
X485006Y543147D01*
X485084Y543142D01*
X485161Y543132D01*
X485238Y543119D01*
X485314Y543103D01*
X485389Y543083D01*
X485463Y543059D01*
X485536Y543032D01*
X485608Y543001D01*
X485678Y542967D01*
X485747Y542930D01*
X485813Y542889D01*
X485878Y542845D01*
X485940Y542799D01*
X486000Y542749D01*
X486058Y542697D01*
X486113Y542642D01*
X486165Y542584D01*
X486215Y542524D01*
X486261Y542462D01*
X486305Y542397D01*
X486346Y542331D01*
X486383Y542262D01*
X486417Y542192D01*
X486448Y542120D01*
X486475Y542047D01*
X486499Y541973D01*
X486519Y541898D01*
X486535Y541822D01*
X486548Y541745D01*
X486558Y541668D01*
X486563Y541590D01*
X486565Y541512D01*
X486565Y539056D01*
X489839Y539056D01*
X489839Y543149D01*
X486565Y546372D02*
X486565Y548827D01*
X486563Y548905D01*
X486558Y548983D01*
X486548Y549060D01*
X486535Y549137D01*
X486519Y549213D01*
X486499Y549288D01*
X486475Y549362D01*
X486448Y549435D01*
X486417Y549507D01*
X486383Y549577D01*
X486346Y549646D01*
X486305Y549712D01*
X486261Y549777D01*
X486215Y549839D01*
X486165Y549899D01*
X486113Y549957D01*
X486058Y550012D01*
X486000Y550064D01*
X485940Y550114D01*
X485878Y550160D01*
X485813Y550204D01*
X485747Y550245D01*
X485678Y550282D01*
X485608Y550316D01*
X485536Y550347D01*
X485463Y550374D01*
X485389Y550398D01*
X485314Y550418D01*
X485238Y550434D01*
X485161Y550447D01*
X485084Y550457D01*
X485006Y550462D01*
X484928Y550464D01*
X484519Y550464D01*
X484430Y550462D01*
X484341Y550456D01*
X484252Y550446D01*
X484164Y550433D01*
X484076Y550416D01*
X483989Y550394D01*
X483904Y550369D01*
X483819Y550341D01*
X483736Y550308D01*
X483654Y550272D01*
X483574Y550233D01*
X483496Y550190D01*
X483420Y550144D01*
X483345Y550094D01*
X483273Y550041D01*
X483204Y549985D01*
X483137Y549926D01*
X483072Y549865D01*
X483011Y549800D01*
X482952Y549733D01*
X482896Y549664D01*
X482843Y549592D01*
X482793Y549517D01*
X482747Y549441D01*
X482704Y549363D01*
X482665Y549283D01*
X482629Y549201D01*
X482596Y549118D01*
X482568Y549033D01*
X482543Y548948D01*
X482521Y548861D01*
X482504Y548773D01*
X482491Y548685D01*
X482481Y548596D01*
X482475Y548507D01*
X482473Y548418D01*
X482475Y548329D01*
X482481Y548240D01*
X482491Y548151D01*
X482504Y548063D01*
X482521Y547975D01*
X482543Y547888D01*
X482568Y547803D01*
X482596Y547718D01*
X482629Y547635D01*
X482665Y547553D01*
X482704Y547473D01*
X482747Y547395D01*
X482793Y547319D01*
X482843Y547244D01*
X482896Y547172D01*
X482952Y547103D01*
X483011Y547036D01*
X483072Y546971D01*
X483137Y546910D01*
X483204Y546851D01*
X483273Y546795D01*
X483345Y546742D01*
X483420Y546692D01*
X483496Y546646D01*
X483574Y546603D01*
X483654Y546564D01*
X483736Y546528D01*
X483819Y546495D01*
X483904Y546467D01*
X483989Y546442D01*
X484076Y546420D01*
X484164Y546403D01*
X484252Y546390D01*
X484341Y546380D01*
X484430Y546374D01*
X484519Y546372D01*
X486565Y546372D01*
X486565Y546371D02*
X486679Y546373D01*
X486793Y546379D01*
X486907Y546389D01*
X487021Y546403D01*
X487134Y546421D01*
X487246Y546443D01*
X487357Y546468D01*
X487467Y546498D01*
X487577Y546531D01*
X487685Y546568D01*
X487791Y546609D01*
X487897Y546654D01*
X488000Y546702D01*
X488102Y546754D01*
X488202Y546810D01*
X488300Y546868D01*
X488396Y546931D01*
X488489Y546996D01*
X488581Y547065D01*
X488669Y547137D01*
X488756Y547212D01*
X488839Y547290D01*
X488920Y547371D01*
X488998Y547454D01*
X489073Y547541D01*
X489145Y547629D01*
X489214Y547721D01*
X489279Y547814D01*
X489341Y547910D01*
X489400Y548008D01*
X489456Y548108D01*
X489508Y548210D01*
X489556Y548313D01*
X489601Y548419D01*
X489642Y548525D01*
X489679Y548633D01*
X489712Y548743D01*
X489742Y548853D01*
X489767Y548964D01*
X489789Y549076D01*
X489807Y549189D01*
X489821Y549303D01*
X489831Y549417D01*
X489837Y549531D01*
X489839Y549645D01*
X488816Y554301D02*
X488677Y554235D01*
X488538Y554174D01*
X488396Y554115D01*
X488253Y554061D01*
X488109Y554010D01*
X487964Y553962D01*
X487817Y553919D01*
X487669Y553879D01*
X487521Y553842D01*
X487371Y553810D01*
X487221Y553781D01*
X487070Y553756D01*
X486919Y553735D01*
X486767Y553718D01*
X486614Y553704D01*
X486462Y553695D01*
X486309Y553689D01*
X486156Y553687D01*
X488816Y554301D02*
X488886Y554327D01*
X488956Y554357D01*
X489023Y554390D01*
X489089Y554426D01*
X489153Y554465D01*
X489215Y554508D01*
X489274Y554554D01*
X489332Y554602D01*
X489386Y554653D01*
X489439Y554707D01*
X489488Y554764D01*
X489535Y554823D01*
X489578Y554884D01*
X489619Y554947D01*
X489656Y555012D01*
X489691Y555079D01*
X489721Y555148D01*
X489749Y555218D01*
X489772Y555289D01*
X489793Y555361D01*
X489809Y555434D01*
X489822Y555508D01*
X489832Y555583D01*
X489837Y555658D01*
X489839Y555733D01*
X489837Y555808D01*
X489832Y555883D01*
X489822Y555958D01*
X489809Y556032D01*
X489793Y556105D01*
X489772Y556177D01*
X489749Y556248D01*
X489721Y556318D01*
X489691Y556387D01*
X489656Y556454D01*
X489619Y556519D01*
X489578Y556582D01*
X489535Y556643D01*
X489488Y556702D01*
X489439Y556759D01*
X489386Y556813D01*
X489332Y556864D01*
X489274Y556913D01*
X489215Y556958D01*
X489153Y557001D01*
X489089Y557040D01*
X489023Y557077D01*
X488955Y557109D01*
X488886Y557139D01*
X488816Y557165D01*
X488678Y557230D01*
X488538Y557292D01*
X488396Y557350D01*
X488253Y557405D01*
X488109Y557456D01*
X487964Y557504D01*
X487817Y557547D01*
X487670Y557587D01*
X487521Y557624D01*
X487371Y557656D01*
X487221Y557685D01*
X487070Y557710D01*
X486919Y557731D01*
X486767Y557748D01*
X486614Y557762D01*
X486462Y557771D01*
X486309Y557777D01*
X486156Y557779D01*
X486156Y553686D02*
X486003Y553688D01*
X485850Y553694D01*
X485697Y553703D01*
X485545Y553717D01*
X485393Y553734D01*
X485242Y553755D01*
X485091Y553780D01*
X484940Y553809D01*
X484791Y553841D01*
X484642Y553878D01*
X484495Y553918D01*
X484348Y553961D01*
X484203Y554009D01*
X484058Y554060D01*
X483916Y554115D01*
X483774Y554173D01*
X483634Y554235D01*
X483496Y554300D01*
X483496Y554301D02*
X483425Y554327D01*
X483356Y554357D01*
X483289Y554390D01*
X483223Y554426D01*
X483159Y554465D01*
X483097Y554508D01*
X483038Y554554D01*
X482980Y554602D01*
X482926Y554653D01*
X482873Y554707D01*
X482824Y554764D01*
X482777Y554823D01*
X482734Y554884D01*
X482693Y554947D01*
X482656Y555012D01*
X482621Y555079D01*
X482591Y555148D01*
X482563Y555218D01*
X482540Y555289D01*
X482519Y555361D01*
X482503Y555434D01*
X482490Y555508D01*
X482480Y555583D01*
X482475Y555658D01*
X482473Y555733D01*
X483496Y557165D02*
X483634Y557230D01*
X483774Y557292D01*
X483916Y557350D01*
X484059Y557405D01*
X484203Y557456D01*
X484348Y557504D01*
X484495Y557547D01*
X484643Y557587D01*
X484791Y557624D01*
X484941Y557656D01*
X485091Y557685D01*
X485242Y557710D01*
X485393Y557731D01*
X485545Y557748D01*
X485698Y557762D01*
X485850Y557771D01*
X486003Y557777D01*
X486156Y557779D01*
X483496Y557165D02*
X483426Y557139D01*
X483356Y557109D01*
X483289Y557077D01*
X483223Y557040D01*
X483159Y557001D01*
X483097Y556958D01*
X483038Y556912D01*
X482980Y556864D01*
X482926Y556813D01*
X482873Y556759D01*
X482824Y556702D01*
X482777Y556643D01*
X482734Y556582D01*
X482693Y556519D01*
X482656Y556454D01*
X482621Y556387D01*
X482591Y556318D01*
X482563Y556248D01*
X482540Y556177D01*
X482519Y556105D01*
X482503Y556032D01*
X482490Y555958D01*
X482480Y555883D01*
X482475Y555808D01*
X482473Y555733D01*
X484110Y554096D02*
X488202Y557370D01*
X487384Y561208D02*
X480018Y561208D01*
X487384Y561208D02*
X487384Y563254D01*
X487382Y563323D01*
X487376Y563391D01*
X487367Y563460D01*
X487353Y563527D01*
X487336Y563594D01*
X487315Y563660D01*
X487291Y563724D01*
X487262Y563787D01*
X487231Y563848D01*
X487196Y563907D01*
X487158Y563965D01*
X487116Y564020D01*
X487072Y564072D01*
X487024Y564122D01*
X486974Y564170D01*
X486922Y564214D01*
X486867Y564256D01*
X486809Y564294D01*
X486750Y564329D01*
X486689Y564360D01*
X486626Y564389D01*
X486562Y564413D01*
X486496Y564434D01*
X486429Y564451D01*
X486362Y564465D01*
X486293Y564474D01*
X486225Y564480D01*
X486156Y564482D01*
X483701Y564482D01*
X483632Y564480D01*
X483564Y564474D01*
X483495Y564465D01*
X483428Y564451D01*
X483361Y564434D01*
X483295Y564413D01*
X483231Y564389D01*
X483168Y564360D01*
X483107Y564329D01*
X483048Y564294D01*
X482990Y564256D01*
X482935Y564214D01*
X482883Y564170D01*
X482833Y564122D01*
X482785Y564072D01*
X482741Y564020D01*
X482700Y563965D01*
X482661Y563907D01*
X482626Y563848D01*
X482595Y563787D01*
X482566Y563724D01*
X482542Y563660D01*
X482521Y563594D01*
X482504Y563527D01*
X482490Y563460D01*
X482481Y563392D01*
X482475Y563323D01*
X482473Y563254D01*
X482473Y561208D01*
X482473Y567845D02*
X489839Y567845D01*
X489839Y571119D01*
X486565Y571119D02*
X486565Y567845D01*
X417559Y338201D02*
X415471Y338201D01*
X417559Y338201D02*
X417648Y338203D01*
X417736Y338209D01*
X417824Y338218D01*
X417912Y338231D01*
X417999Y338248D01*
X418085Y338268D01*
X418170Y338293D01*
X418255Y338320D01*
X418338Y338352D01*
X418419Y338386D01*
X418499Y338425D01*
X418577Y338466D01*
X418654Y338511D01*
X418728Y338559D01*
X418801Y338610D01*
X418871Y338664D01*
X418938Y338722D01*
X419004Y338782D01*
X419066Y338844D01*
X419126Y338910D01*
X419184Y338977D01*
X419238Y339047D01*
X419289Y339120D01*
X419337Y339194D01*
X419382Y339271D01*
X419423Y339349D01*
X419462Y339429D01*
X419496Y339510D01*
X419528Y339593D01*
X419555Y339678D01*
X419580Y339763D01*
X419600Y339849D01*
X419617Y339936D01*
X419630Y340024D01*
X419639Y340112D01*
X419645Y340200D01*
X419647Y340289D01*
X419648Y340289D02*
X419648Y345511D01*
X419647Y345511D02*
X419645Y345600D01*
X419639Y345688D01*
X419630Y345776D01*
X419617Y345864D01*
X419600Y345951D01*
X419580Y346037D01*
X419555Y346122D01*
X419528Y346207D01*
X419496Y346290D01*
X419462Y346371D01*
X419423Y346451D01*
X419382Y346529D01*
X419337Y346606D01*
X419289Y346680D01*
X419238Y346753D01*
X419184Y346823D01*
X419126Y346890D01*
X419066Y346956D01*
X419004Y347018D01*
X418938Y347078D01*
X418871Y347136D01*
X418801Y347190D01*
X418728Y347241D01*
X418654Y347289D01*
X418577Y347334D01*
X418499Y347375D01*
X418419Y347414D01*
X418338Y347448D01*
X418255Y347480D01*
X418170Y347507D01*
X418085Y347532D01*
X417999Y347552D01*
X417912Y347569D01*
X417824Y347582D01*
X417736Y347591D01*
X417648Y347597D01*
X417559Y347599D01*
X415471Y347599D01*
X412002Y345511D02*
X409392Y347599D01*
X409392Y338201D01*
X412002Y338201D02*
X406781Y338201D01*
D12*
X435910Y647685D02*
X473410Y647685D01*
X482785Y616435D02*
X482785Y603934D01*
X467160Y603934D01*
X442160Y603934D02*
X426535Y603934D01*
X426535Y616435D01*
D13*
X400469Y605207D02*
X400469Y603344D01*
X400471Y603260D01*
X400476Y603177D01*
X400486Y603094D01*
X400499Y603011D01*
X400516Y602929D01*
X400536Y602848D01*
X400560Y602768D01*
X400588Y602689D01*
X400619Y602612D01*
X400653Y602536D01*
X400691Y602461D01*
X400733Y602388D01*
X400777Y602318D01*
X400825Y602249D01*
X400875Y602182D01*
X400929Y602118D01*
X400985Y602057D01*
X401045Y601997D01*
X401106Y601941D01*
X401170Y601887D01*
X401237Y601837D01*
X401306Y601789D01*
X401376Y601745D01*
X401449Y601703D01*
X401524Y601665D01*
X401600Y601631D01*
X401677Y601600D01*
X401756Y601572D01*
X401836Y601548D01*
X401917Y601528D01*
X401999Y601511D01*
X402082Y601498D01*
X402165Y601488D01*
X402248Y601483D01*
X402332Y601481D01*
X402332Y601482D02*
X406988Y601482D01*
X406988Y601481D02*
X407074Y601483D01*
X407160Y601489D01*
X407245Y601499D01*
X407330Y601513D01*
X407415Y601530D01*
X407498Y601552D01*
X407580Y601578D01*
X407661Y601607D01*
X407740Y601640D01*
X407818Y601676D01*
X407895Y601716D01*
X407969Y601760D01*
X408041Y601807D01*
X408111Y601857D01*
X408178Y601911D01*
X408243Y601967D01*
X408305Y602027D01*
X408365Y602089D01*
X408421Y602154D01*
X408475Y602221D01*
X408525Y602291D01*
X408572Y602363D01*
X408616Y602437D01*
X408656Y602514D01*
X408692Y602591D01*
X408725Y602671D01*
X408754Y602752D01*
X408780Y602834D01*
X408802Y602917D01*
X408819Y603002D01*
X408833Y603087D01*
X408843Y603172D01*
X408849Y603258D01*
X408851Y603344D01*
X408851Y605207D01*
X408851Y611472D02*
X400469Y608678D01*
X400469Y614266D02*
X408851Y611472D01*
X402565Y609377D02*
X402565Y613568D01*
X400469Y618593D02*
X408851Y618593D01*
X400469Y623249D01*
X408851Y623249D01*
X405126Y628562D02*
X405126Y630891D01*
X405125Y630891D02*
X405123Y630986D01*
X405117Y631081D01*
X405108Y631175D01*
X405094Y631269D01*
X405077Y631363D01*
X405056Y631455D01*
X405031Y631547D01*
X405002Y631637D01*
X404970Y631727D01*
X404934Y631815D01*
X404894Y631901D01*
X404852Y631986D01*
X404805Y632069D01*
X404755Y632150D01*
X404702Y632228D01*
X404646Y632305D01*
X404587Y632379D01*
X404525Y632451D01*
X404460Y632520D01*
X404392Y632587D01*
X404322Y632650D01*
X404248Y632711D01*
X404173Y632769D01*
X404095Y632823D01*
X404015Y632875D01*
X403933Y632923D01*
X403850Y632967D01*
X403764Y633009D01*
X403677Y633046D01*
X403588Y633080D01*
X403498Y633111D01*
X403407Y633138D01*
X403315Y633161D01*
X403222Y633180D01*
X403128Y633195D01*
X403034Y633207D01*
X402939Y633215D01*
X402844Y633219D01*
X402750Y633219D01*
X402655Y633215D01*
X402560Y633207D01*
X402466Y633195D01*
X402372Y633180D01*
X402279Y633161D01*
X402187Y633138D01*
X402096Y633111D01*
X402006Y633080D01*
X401917Y633046D01*
X401830Y633009D01*
X401744Y632967D01*
X401661Y632923D01*
X401579Y632875D01*
X401499Y632823D01*
X401421Y632769D01*
X401346Y632711D01*
X401272Y632650D01*
X401202Y632587D01*
X401134Y632520D01*
X401069Y632451D01*
X401007Y632379D01*
X400948Y632305D01*
X400892Y632228D01*
X400839Y632150D01*
X400789Y632069D01*
X400742Y631986D01*
X400700Y631901D01*
X400660Y631815D01*
X400624Y631727D01*
X400592Y631637D01*
X400563Y631547D01*
X400538Y631455D01*
X400517Y631363D01*
X400500Y631269D01*
X400486Y631175D01*
X400477Y631081D01*
X400471Y630986D01*
X400469Y630891D01*
X400469Y628562D01*
X408851Y628562D01*
X408851Y630891D01*
X408849Y630976D01*
X408843Y631060D01*
X408834Y631145D01*
X408820Y631228D01*
X408803Y631311D01*
X408782Y631394D01*
X408757Y631475D01*
X408729Y631555D01*
X408697Y631633D01*
X408661Y631710D01*
X408622Y631786D01*
X408580Y631859D01*
X408534Y631930D01*
X408485Y632000D01*
X408433Y632067D01*
X408378Y632131D01*
X408320Y632193D01*
X408260Y632253D01*
X408196Y632309D01*
X408131Y632363D01*
X408062Y632413D01*
X407992Y632460D01*
X407920Y632504D01*
X407845Y632545D01*
X407769Y632582D01*
X407691Y632616D01*
X407612Y632646D01*
X407531Y632673D01*
X407450Y632696D01*
X407367Y632715D01*
X407284Y632730D01*
X407200Y632742D01*
X407115Y632750D01*
X407030Y632754D01*
X406946Y632754D01*
X406861Y632750D01*
X406776Y632742D01*
X406692Y632730D01*
X406609Y632715D01*
X406526Y632696D01*
X406445Y632673D01*
X406364Y632646D01*
X406285Y632616D01*
X406207Y632582D01*
X406131Y632545D01*
X406057Y632504D01*
X405984Y632460D01*
X405914Y632413D01*
X405845Y632363D01*
X405780Y632309D01*
X405716Y632253D01*
X405656Y632193D01*
X405598Y632131D01*
X405543Y632067D01*
X405491Y632000D01*
X405442Y631930D01*
X405396Y631859D01*
X405354Y631786D01*
X405315Y631710D01*
X405279Y631633D01*
X405247Y631555D01*
X405219Y631475D01*
X405194Y631394D01*
X405173Y631311D01*
X405156Y631228D01*
X405142Y631145D01*
X405133Y631060D01*
X405127Y630976D01*
X405125Y630891D01*
X402797Y637490D02*
X408851Y637490D01*
X402797Y637491D02*
X402702Y637493D01*
X402607Y637499D01*
X402513Y637508D01*
X402419Y637522D01*
X402325Y637539D01*
X402233Y637560D01*
X402141Y637585D01*
X402051Y637614D01*
X401961Y637646D01*
X401873Y637682D01*
X401787Y637722D01*
X401702Y637764D01*
X401619Y637811D01*
X401538Y637861D01*
X401460Y637914D01*
X401383Y637970D01*
X401309Y638029D01*
X401237Y638091D01*
X401168Y638156D01*
X401101Y638224D01*
X401038Y638294D01*
X400977Y638368D01*
X400919Y638443D01*
X400865Y638521D01*
X400813Y638601D01*
X400765Y638683D01*
X400721Y638766D01*
X400679Y638852D01*
X400642Y638939D01*
X400608Y639028D01*
X400577Y639118D01*
X400550Y639209D01*
X400527Y639301D01*
X400508Y639394D01*
X400493Y639488D01*
X400481Y639582D01*
X400473Y639677D01*
X400469Y639772D01*
X400469Y639866D01*
X400473Y639961D01*
X400481Y640056D01*
X400493Y640150D01*
X400508Y640244D01*
X400527Y640337D01*
X400550Y640429D01*
X400577Y640520D01*
X400608Y640610D01*
X400642Y640699D01*
X400679Y640786D01*
X400721Y640872D01*
X400765Y640955D01*
X400813Y641037D01*
X400865Y641117D01*
X400919Y641195D01*
X400977Y641270D01*
X401038Y641344D01*
X401101Y641414D01*
X401168Y641482D01*
X401237Y641547D01*
X401309Y641609D01*
X401383Y641668D01*
X401460Y641724D01*
X401538Y641777D01*
X401619Y641827D01*
X401702Y641874D01*
X401787Y641916D01*
X401873Y641956D01*
X401961Y641992D01*
X402051Y642024D01*
X402141Y642053D01*
X402233Y642078D01*
X402325Y642099D01*
X402419Y642116D01*
X402513Y642130D01*
X402607Y642139D01*
X402702Y642145D01*
X402797Y642147D01*
X408851Y642147D01*
X400469Y649428D02*
X400471Y649514D01*
X400477Y649600D01*
X400487Y649685D01*
X400501Y649770D01*
X400518Y649855D01*
X400540Y649938D01*
X400566Y650020D01*
X400595Y650101D01*
X400628Y650181D01*
X400664Y650258D01*
X400704Y650335D01*
X400748Y650409D01*
X400795Y650481D01*
X400845Y650551D01*
X400899Y650618D01*
X400955Y650683D01*
X401015Y650745D01*
X401077Y650805D01*
X401142Y650861D01*
X401209Y650915D01*
X401279Y650965D01*
X401351Y651012D01*
X401425Y651056D01*
X401502Y651096D01*
X401580Y651132D01*
X401659Y651165D01*
X401740Y651194D01*
X401822Y651220D01*
X401905Y651242D01*
X401990Y651259D01*
X402075Y651273D01*
X402160Y651283D01*
X402246Y651289D01*
X402332Y651291D01*
X400469Y649428D02*
X400471Y649304D01*
X400477Y649180D01*
X400487Y649056D01*
X400500Y648932D01*
X400518Y648809D01*
X400539Y648687D01*
X400565Y648565D01*
X400594Y648444D01*
X400627Y648324D01*
X400664Y648206D01*
X400704Y648088D01*
X400748Y647972D01*
X400796Y647857D01*
X400847Y647744D01*
X400902Y647633D01*
X400961Y647523D01*
X401023Y647415D01*
X401088Y647309D01*
X401157Y647206D01*
X401228Y647104D01*
X401303Y647005D01*
X401381Y646909D01*
X401462Y646814D01*
X401546Y646723D01*
X401633Y646634D01*
X406988Y646867D02*
X407072Y646869D01*
X407155Y646874D01*
X407238Y646884D01*
X407321Y646897D01*
X407403Y646914D01*
X407484Y646934D01*
X407564Y646958D01*
X407643Y646986D01*
X407720Y647017D01*
X407796Y647051D01*
X407871Y647089D01*
X407944Y647131D01*
X408014Y647175D01*
X408083Y647223D01*
X408150Y647273D01*
X408214Y647327D01*
X408275Y647383D01*
X408335Y647443D01*
X408391Y647504D01*
X408445Y647568D01*
X408495Y647635D01*
X408543Y647704D01*
X408587Y647774D01*
X408629Y647847D01*
X408667Y647922D01*
X408701Y647998D01*
X408732Y648075D01*
X408760Y648154D01*
X408784Y648234D01*
X408804Y648315D01*
X408821Y648397D01*
X408834Y648480D01*
X408844Y648563D01*
X408849Y648646D01*
X408851Y648730D01*
X408852Y648730D02*
X408850Y648842D01*
X408845Y648955D01*
X408836Y649067D01*
X408823Y649178D01*
X408807Y649290D01*
X408787Y649400D01*
X408764Y649510D01*
X408737Y649619D01*
X408707Y649727D01*
X408673Y649835D01*
X408636Y649941D01*
X408595Y650045D01*
X408551Y650149D01*
X408504Y650251D01*
X408453Y650351D01*
X408399Y650450D01*
X408342Y650547D01*
X408282Y650642D01*
X408219Y650735D01*
X408153Y650826D01*
X405358Y647798D02*
X405403Y647726D01*
X405451Y647655D01*
X405503Y647587D01*
X405557Y647521D01*
X405614Y647458D01*
X405674Y647397D01*
X405737Y647339D01*
X405803Y647284D01*
X405870Y647232D01*
X405940Y647184D01*
X406012Y647138D01*
X406087Y647096D01*
X406163Y647057D01*
X406240Y647021D01*
X406319Y646989D01*
X406400Y646961D01*
X406482Y646936D01*
X406565Y646915D01*
X406648Y646898D01*
X406733Y646884D01*
X406817Y646875D01*
X406903Y646869D01*
X406988Y646867D01*
X403962Y650360D02*
X403917Y650432D01*
X403869Y650503D01*
X403817Y650571D01*
X403763Y650637D01*
X403706Y650700D01*
X403646Y650761D01*
X403583Y650819D01*
X403517Y650874D01*
X403450Y650926D01*
X403380Y650974D01*
X403308Y651020D01*
X403233Y651062D01*
X403157Y651101D01*
X403080Y651137D01*
X403001Y651169D01*
X402920Y651197D01*
X402838Y651222D01*
X402755Y651243D01*
X402672Y651260D01*
X402587Y651274D01*
X402503Y651283D01*
X402417Y651289D01*
X402332Y651291D01*
X403962Y650360D02*
X405359Y647799D01*
D11*
X496961Y520367D02*
X496961Y510969D01*
X496961Y520367D02*
X494351Y520367D01*
X494351Y520368D02*
X494250Y520366D01*
X494149Y520360D01*
X494048Y520350D01*
X493948Y520337D01*
X493848Y520319D01*
X493749Y520298D01*
X493651Y520272D01*
X493554Y520243D01*
X493458Y520211D01*
X493364Y520174D01*
X493271Y520134D01*
X493179Y520090D01*
X493090Y520043D01*
X493002Y519992D01*
X492916Y519938D01*
X492833Y519881D01*
X492751Y519821D01*
X492673Y519757D01*
X492596Y519691D01*
X492523Y519621D01*
X492452Y519549D01*
X492384Y519474D01*
X492319Y519396D01*
X492257Y519316D01*
X492198Y519234D01*
X492142Y519149D01*
X492090Y519063D01*
X492041Y518974D01*
X491995Y518883D01*
X491954Y518791D01*
X491915Y518697D01*
X491881Y518602D01*
X491850Y518506D01*
X491823Y518408D01*
X491799Y518310D01*
X491780Y518210D01*
X491764Y518110D01*
X491752Y518010D01*
X491744Y517909D01*
X491740Y517808D01*
X491740Y517706D01*
X491744Y517605D01*
X491752Y517504D01*
X491764Y517404D01*
X491780Y517304D01*
X491799Y517204D01*
X491823Y517106D01*
X491850Y517008D01*
X491881Y516912D01*
X491915Y516817D01*
X491954Y516723D01*
X491995Y516631D01*
X492041Y516540D01*
X492090Y516452D01*
X492142Y516365D01*
X492198Y516280D01*
X492257Y516198D01*
X492319Y516118D01*
X492384Y516040D01*
X492452Y515965D01*
X492523Y515893D01*
X492596Y515823D01*
X492673Y515757D01*
X492751Y515693D01*
X492833Y515633D01*
X492916Y515576D01*
X493002Y515522D01*
X493090Y515471D01*
X493179Y515424D01*
X493271Y515380D01*
X493364Y515340D01*
X493458Y515303D01*
X493554Y515271D01*
X493651Y515242D01*
X493749Y515216D01*
X493848Y515195D01*
X493948Y515177D01*
X494048Y515164D01*
X494149Y515154D01*
X494250Y515148D01*
X494351Y515146D01*
X496961Y515146D01*
X493829Y515146D02*
X491740Y510969D01*
X487874Y518279D02*
X485264Y520367D01*
X485264Y510969D01*
X487874Y510969D02*
X482653Y510969D01*
X381889Y513461D02*
X381889Y522859D01*
X379278Y522859D01*
X379177Y522857D01*
X379076Y522851D01*
X378975Y522841D01*
X378875Y522828D01*
X378775Y522810D01*
X378676Y522789D01*
X378578Y522763D01*
X378481Y522734D01*
X378385Y522702D01*
X378291Y522665D01*
X378198Y522625D01*
X378106Y522581D01*
X378017Y522534D01*
X377929Y522483D01*
X377843Y522429D01*
X377760Y522372D01*
X377678Y522312D01*
X377600Y522248D01*
X377523Y522182D01*
X377450Y522112D01*
X377379Y522040D01*
X377311Y521965D01*
X377246Y521887D01*
X377184Y521807D01*
X377125Y521725D01*
X377069Y521640D01*
X377017Y521554D01*
X376968Y521465D01*
X376922Y521374D01*
X376881Y521282D01*
X376842Y521188D01*
X376808Y521093D01*
X376777Y520997D01*
X376750Y520899D01*
X376726Y520801D01*
X376707Y520701D01*
X376691Y520601D01*
X376679Y520501D01*
X376671Y520400D01*
X376667Y520299D01*
X376667Y520197D01*
X376671Y520096D01*
X376679Y519995D01*
X376691Y519895D01*
X376707Y519795D01*
X376726Y519695D01*
X376750Y519597D01*
X376777Y519499D01*
X376808Y519403D01*
X376842Y519308D01*
X376881Y519214D01*
X376922Y519122D01*
X376968Y519031D01*
X377017Y518943D01*
X377069Y518856D01*
X377125Y518771D01*
X377184Y518689D01*
X377246Y518609D01*
X377311Y518531D01*
X377379Y518456D01*
X377450Y518384D01*
X377523Y518314D01*
X377600Y518248D01*
X377678Y518184D01*
X377760Y518124D01*
X377843Y518067D01*
X377929Y518013D01*
X378017Y517962D01*
X378106Y517915D01*
X378198Y517871D01*
X378291Y517831D01*
X378385Y517794D01*
X378481Y517762D01*
X378578Y517733D01*
X378676Y517707D01*
X378775Y517686D01*
X378875Y517668D01*
X378975Y517655D01*
X379076Y517645D01*
X379177Y517639D01*
X379278Y517637D01*
X379278Y517638D02*
X381889Y517638D01*
X378756Y517638D02*
X376668Y513461D01*
X372802Y515549D02*
X370714Y522859D01*
X372802Y515549D02*
X367581Y515549D01*
X369147Y517638D02*
X369147Y513461D01*
D12*
X398272Y453803D02*
X445008Y453803D01*
X394462Y418687D02*
X394446Y418574D01*
X394435Y418460D01*
X394428Y418346D01*
X394424Y418232D01*
X394425Y418117D01*
X394429Y418003D01*
X394437Y417889D01*
X394449Y417775D01*
X394465Y417662D01*
X394485Y417550D01*
X394509Y417438D01*
X394536Y417327D01*
X394568Y417217D01*
X394603Y417108D01*
X394641Y417000D01*
X394684Y416894D01*
X394730Y416790D01*
X394779Y416686D01*
X394832Y416585D01*
X394888Y416486D01*
X394948Y416388D01*
X395011Y416293D01*
X395078Y416200D01*
X395147Y416109D01*
X395219Y416021D01*
X395295Y415935D01*
X395373Y415851D01*
X395454Y415771D01*
X395538Y415693D01*
X395625Y415618D01*
X395714Y415547D01*
X395805Y415478D01*
X395899Y415412D01*
X395994Y415350D01*
X396092Y415291D01*
X396192Y415235D01*
X396294Y415183D01*
X396397Y415134D01*
X396502Y415089D01*
X396609Y415048D01*
X396717Y415010D01*
X396826Y414975D01*
X396936Y414945D01*
X397047Y414918D01*
X397159Y414896D01*
X397272Y414877D01*
X445008Y453803D02*
X445138Y453786D01*
X445267Y453765D01*
X445396Y453740D01*
X445524Y453712D01*
X445651Y453679D01*
X445777Y453643D01*
X445902Y453602D01*
X446025Y453558D01*
X446147Y453511D01*
X446268Y453459D01*
X446387Y453405D01*
X446504Y453346D01*
X446619Y453284D01*
X446733Y453219D01*
X446845Y453150D01*
X446954Y453077D01*
X447061Y453002D01*
X447166Y452923D01*
X447268Y452841D01*
X447368Y452756D01*
X447465Y452669D01*
X447560Y452578D01*
X447652Y452484D01*
X447741Y452388D01*
X447827Y452289D01*
X447909Y452188D01*
X447989Y452084D01*
X448066Y451977D01*
X448139Y451869D01*
X448209Y451758D01*
X448276Y451645D01*
X448339Y451530D01*
X448399Y451414D01*
X448455Y451295D01*
X448508Y451175D01*
X448557Y451054D01*
X448602Y450931D01*
X448644Y450806D01*
X448682Y450681D01*
X448715Y450554D01*
X448746Y450427D01*
X448772Y450298D01*
X448794Y450169D01*
X448813Y450039D01*
X448827Y449909D01*
X448838Y449778D01*
X448844Y449647D01*
X448847Y449516D01*
X448846Y449385D01*
X448840Y449254D01*
X448831Y449124D01*
X448818Y448993D01*
X398272Y453803D02*
X398150Y453801D01*
X398028Y453795D01*
X397906Y453785D01*
X397785Y453772D01*
X397664Y453754D01*
X397544Y453733D01*
X397424Y453708D01*
X397305Y453679D01*
X397188Y453646D01*
X397071Y453609D01*
X396956Y453569D01*
X396842Y453525D01*
X396730Y453477D01*
X396619Y453426D01*
X396510Y453371D01*
X396402Y453313D01*
X396297Y453251D01*
X396193Y453186D01*
X396092Y453118D01*
X395993Y453047D01*
X395896Y452972D01*
X395802Y452894D01*
X395710Y452814D01*
X395621Y452730D01*
X395535Y452644D01*
X395451Y452555D01*
X395371Y452463D01*
X395293Y452369D01*
X395218Y452272D01*
X395147Y452173D01*
X395079Y452072D01*
X395014Y451968D01*
X394952Y451863D01*
X394894Y451755D01*
X394839Y451646D01*
X394788Y451535D01*
X394740Y451423D01*
X394696Y451309D01*
X394656Y451194D01*
X394619Y451077D01*
X394586Y450960D01*
X394557Y450841D01*
X394532Y450721D01*
X394511Y450601D01*
X394493Y450480D01*
X394480Y450359D01*
X394470Y450237D01*
X394464Y450115D01*
X394462Y449993D01*
X445007Y414877D02*
X445121Y414862D01*
X445235Y414850D01*
X445349Y414843D01*
X445463Y414839D01*
X445577Y414840D01*
X445692Y414844D01*
X445806Y414852D01*
X445919Y414864D01*
X446032Y414880D01*
X446145Y414900D01*
X446257Y414924D01*
X446368Y414951D01*
X446478Y414982D01*
X446587Y415017D01*
X446694Y415056D01*
X446801Y415098D01*
X446905Y415144D01*
X447008Y415194D01*
X447110Y415247D01*
X447209Y415303D01*
X447307Y415363D01*
X447402Y415426D01*
X447495Y415492D01*
X447586Y415562D01*
X447674Y415634D01*
X447760Y415710D01*
X447843Y415788D01*
X447924Y415869D01*
X448002Y415953D01*
X448076Y416039D01*
X448148Y416128D01*
X448217Y416220D01*
X448283Y416313D01*
X448345Y416409D01*
X448404Y416507D01*
X448460Y416607D01*
X448512Y416709D01*
X448560Y416812D01*
X448606Y416917D01*
X448647Y417024D01*
X448685Y417132D01*
X448719Y417241D01*
X448749Y417351D01*
X448776Y417462D01*
X448799Y417574D01*
X448818Y417687D01*
X445008Y414877D02*
X397272Y414877D01*
X394462Y418687D02*
X394462Y449993D01*
X448310Y440436D02*
X448152Y440434D01*
X447993Y440428D01*
X447835Y440418D01*
X447678Y440404D01*
X447520Y440387D01*
X447364Y440365D01*
X447207Y440340D01*
X447052Y440310D01*
X446897Y440277D01*
X446743Y440240D01*
X446590Y440199D01*
X446438Y440154D01*
X446288Y440105D01*
X446138Y440053D01*
X445990Y439997D01*
X445843Y439937D01*
X445698Y439874D01*
X445555Y439807D01*
X445413Y439737D01*
X445273Y439663D01*
X445135Y439585D01*
X444999Y439504D01*
X444865Y439420D01*
X444733Y439333D01*
X444603Y439242D01*
X444476Y439148D01*
X444351Y439051D01*
X444228Y438950D01*
X444108Y438847D01*
X443991Y438741D01*
X443876Y438632D01*
X443764Y438520D01*
X443655Y438405D01*
X443549Y438288D01*
X443446Y438168D01*
X443345Y438045D01*
X443248Y437920D01*
X443154Y437793D01*
X443063Y437663D01*
X442976Y437531D01*
X442892Y437397D01*
X442811Y437261D01*
X442733Y437123D01*
X442659Y436983D01*
X442589Y436841D01*
X442522Y436698D01*
X442459Y436553D01*
X442399Y436406D01*
X442343Y436258D01*
X442291Y436108D01*
X442242Y435958D01*
X442197Y435806D01*
X442156Y435653D01*
X442119Y435499D01*
X442086Y435344D01*
X442056Y435189D01*
X442031Y435032D01*
X442009Y434876D01*
X441992Y434718D01*
X441978Y434561D01*
X441968Y434403D01*
X441962Y434244D01*
X441960Y434086D01*
X441962Y433928D01*
X441968Y433769D01*
X441978Y433611D01*
X441992Y433454D01*
X442009Y433296D01*
X442031Y433140D01*
X442056Y432983D01*
X442086Y432828D01*
X442119Y432673D01*
X442156Y432519D01*
X442197Y432366D01*
X442242Y432214D01*
X442291Y432064D01*
X442343Y431914D01*
X442399Y431766D01*
X442459Y431619D01*
X442522Y431474D01*
X442589Y431331D01*
X442659Y431189D01*
X442733Y431049D01*
X442811Y430911D01*
X442892Y430775D01*
X442976Y430641D01*
X443063Y430509D01*
X443154Y430379D01*
X443248Y430252D01*
X443345Y430127D01*
X443446Y430004D01*
X443549Y429884D01*
X443655Y429767D01*
X443764Y429652D01*
X443876Y429540D01*
X443991Y429431D01*
X444108Y429325D01*
X444228Y429222D01*
X444351Y429121D01*
X444476Y429024D01*
X444603Y428930D01*
X444733Y428839D01*
X444865Y428752D01*
X444999Y428668D01*
X445135Y428587D01*
X445273Y428509D01*
X445413Y428435D01*
X445555Y428365D01*
X445698Y428298D01*
X445843Y428235D01*
X445990Y428175D01*
X446138Y428119D01*
X446288Y428067D01*
X446438Y428018D01*
X446590Y427973D01*
X446743Y427932D01*
X446897Y427895D01*
X447052Y427862D01*
X447207Y427832D01*
X447364Y427807D01*
X447520Y427785D01*
X447678Y427768D01*
X447835Y427754D01*
X447993Y427744D01*
X448152Y427738D01*
X448310Y427736D01*
X448818Y440436D02*
X448818Y448866D01*
X448818Y427736D02*
X448818Y417687D01*
D14*
X455366Y430165D02*
X458851Y430165D01*
X455366Y430164D02*
X455295Y430166D01*
X455223Y430172D01*
X455153Y430181D01*
X455083Y430194D01*
X455013Y430211D01*
X454945Y430232D01*
X454878Y430256D01*
X454812Y430284D01*
X454748Y430315D01*
X454685Y430350D01*
X454625Y430388D01*
X454566Y430429D01*
X454510Y430473D01*
X454456Y430520D01*
X454405Y430569D01*
X454357Y430622D01*
X454311Y430677D01*
X454269Y430734D01*
X454229Y430794D01*
X454193Y430855D01*
X454160Y430919D01*
X454131Y430984D01*
X454105Y431050D01*
X454082Y431118D01*
X454063Y431187D01*
X454048Y431257D01*
X454037Y431327D01*
X454029Y431398D01*
X454025Y431469D01*
X454025Y431541D01*
X454029Y431612D01*
X454037Y431683D01*
X454048Y431753D01*
X454063Y431823D01*
X454082Y431892D01*
X454105Y431960D01*
X454131Y432026D01*
X454160Y432091D01*
X454193Y432155D01*
X454229Y432216D01*
X454269Y432276D01*
X454311Y432333D01*
X454357Y432388D01*
X454405Y432441D01*
X454456Y432490D01*
X454510Y432537D01*
X454566Y432581D01*
X454625Y432622D01*
X454685Y432660D01*
X454748Y432695D01*
X454812Y432726D01*
X454878Y432754D01*
X454945Y432778D01*
X455013Y432799D01*
X455083Y432816D01*
X455153Y432829D01*
X455223Y432838D01*
X455295Y432844D01*
X455366Y432846D01*
X458851Y432846D01*
X457779Y435834D02*
X458851Y437175D01*
X454025Y437175D01*
X454025Y438515D02*
X454025Y435834D01*
X389001Y416589D02*
X384175Y416589D01*
X386320Y418198D02*
X389001Y416589D01*
X386320Y418198D02*
X389001Y419807D01*
X384175Y419807D01*
X384175Y423936D02*
X384175Y425009D01*
X384175Y423936D02*
X384177Y423871D01*
X384183Y423807D01*
X384193Y423743D01*
X384206Y423679D01*
X384224Y423617D01*
X384245Y423556D01*
X384269Y423496D01*
X384298Y423438D01*
X384330Y423381D01*
X384365Y423327D01*
X384403Y423275D01*
X384445Y423225D01*
X384489Y423178D01*
X384536Y423134D01*
X384586Y423092D01*
X384638Y423054D01*
X384692Y423019D01*
X384749Y422987D01*
X384807Y422958D01*
X384867Y422934D01*
X384928Y422913D01*
X384990Y422895D01*
X385054Y422882D01*
X385118Y422872D01*
X385182Y422866D01*
X385247Y422864D01*
X387929Y422864D01*
X387994Y422866D01*
X388058Y422872D01*
X388122Y422882D01*
X388186Y422895D01*
X388248Y422913D01*
X388309Y422934D01*
X388369Y422958D01*
X388427Y422987D01*
X388484Y423019D01*
X388538Y423054D01*
X388590Y423092D01*
X388640Y423134D01*
X388687Y423178D01*
X388731Y423225D01*
X388773Y423275D01*
X388811Y423327D01*
X388846Y423381D01*
X388878Y423438D01*
X388907Y423496D01*
X388931Y423556D01*
X388952Y423617D01*
X388970Y423679D01*
X388983Y423743D01*
X388993Y423807D01*
X388999Y423871D01*
X389001Y423936D01*
X389001Y425009D01*
X389001Y427794D02*
X384175Y427794D01*
X389001Y427794D02*
X389001Y429134D01*
X388999Y429205D01*
X388993Y429277D01*
X388984Y429347D01*
X388971Y429417D01*
X388954Y429487D01*
X388933Y429555D01*
X388909Y429622D01*
X388881Y429688D01*
X388850Y429752D01*
X388815Y429815D01*
X388777Y429875D01*
X388736Y429934D01*
X388692Y429990D01*
X388645Y430044D01*
X388596Y430095D01*
X388543Y430143D01*
X388488Y430189D01*
X388431Y430231D01*
X388371Y430271D01*
X388310Y430307D01*
X388246Y430340D01*
X388181Y430369D01*
X388115Y430395D01*
X388047Y430418D01*
X387978Y430437D01*
X387908Y430452D01*
X387838Y430463D01*
X387767Y430471D01*
X387696Y430475D01*
X387624Y430475D01*
X387553Y430471D01*
X387482Y430463D01*
X387412Y430452D01*
X387342Y430437D01*
X387273Y430418D01*
X387205Y430395D01*
X387139Y430369D01*
X387074Y430340D01*
X387010Y430307D01*
X386949Y430271D01*
X386889Y430231D01*
X386832Y430189D01*
X386777Y430143D01*
X386724Y430095D01*
X386675Y430044D01*
X386628Y429990D01*
X386584Y429934D01*
X386543Y429875D01*
X386505Y429815D01*
X386470Y429752D01*
X386439Y429688D01*
X386411Y429622D01*
X386387Y429555D01*
X386366Y429487D01*
X386349Y429417D01*
X386336Y429347D01*
X386327Y429277D01*
X386321Y429205D01*
X386319Y429134D01*
X386320Y429134D02*
X386320Y427794D01*
X389001Y434425D02*
X388999Y434493D01*
X388993Y434560D01*
X388984Y434627D01*
X388971Y434694D01*
X388954Y434759D01*
X388933Y434824D01*
X388909Y434887D01*
X388881Y434949D01*
X388850Y435009D01*
X388816Y435067D01*
X388778Y435123D01*
X388738Y435178D01*
X388694Y435229D01*
X388647Y435278D01*
X388598Y435325D01*
X388547Y435369D01*
X388492Y435409D01*
X388436Y435447D01*
X388378Y435481D01*
X388318Y435512D01*
X388256Y435540D01*
X388193Y435564D01*
X388128Y435585D01*
X388063Y435602D01*
X387996Y435615D01*
X387929Y435624D01*
X387862Y435630D01*
X387794Y435632D01*
X389001Y434425D02*
X388999Y434347D01*
X388993Y434269D01*
X388983Y434192D01*
X388970Y434115D01*
X388952Y434039D01*
X388931Y433964D01*
X388906Y433890D01*
X388877Y433818D01*
X388845Y433747D01*
X388809Y433678D01*
X388770Y433610D01*
X388727Y433545D01*
X388681Y433482D01*
X388632Y433421D01*
X388580Y433363D01*
X388525Y433308D01*
X388468Y433255D01*
X388408Y433206D01*
X388345Y433159D01*
X388280Y433116D01*
X388214Y433076D01*
X388145Y433039D01*
X388074Y433006D01*
X388002Y432976D01*
X387929Y432950D01*
X386856Y435230D02*
X386905Y435279D01*
X386957Y435326D01*
X387012Y435369D01*
X387069Y435410D01*
X387128Y435448D01*
X387189Y435482D01*
X387252Y435513D01*
X387316Y435541D01*
X387382Y435565D01*
X387448Y435585D01*
X387516Y435602D01*
X387585Y435615D01*
X387654Y435624D01*
X387724Y435630D01*
X387794Y435632D01*
X386856Y435230D02*
X384175Y432951D01*
X384175Y435632D01*
X384175Y438437D02*
X384175Y440046D01*
X384177Y440111D01*
X384183Y440175D01*
X384193Y440239D01*
X384206Y440303D01*
X384224Y440365D01*
X384245Y440426D01*
X384269Y440486D01*
X384298Y440544D01*
X384330Y440601D01*
X384365Y440655D01*
X384403Y440707D01*
X384445Y440757D01*
X384489Y440804D01*
X384536Y440848D01*
X384586Y440890D01*
X384638Y440928D01*
X384692Y440963D01*
X384749Y440995D01*
X384807Y441024D01*
X384867Y441048D01*
X384928Y441069D01*
X384990Y441087D01*
X385054Y441100D01*
X385118Y441110D01*
X385182Y441116D01*
X385247Y441118D01*
X385784Y441118D01*
X385849Y441116D01*
X385913Y441110D01*
X385977Y441100D01*
X386041Y441087D01*
X386103Y441069D01*
X386164Y441048D01*
X386224Y441024D01*
X386282Y440995D01*
X386339Y440963D01*
X386393Y440928D01*
X386445Y440890D01*
X386495Y440848D01*
X386542Y440804D01*
X386586Y440757D01*
X386628Y440707D01*
X386666Y440655D01*
X386701Y440601D01*
X386733Y440544D01*
X386762Y440486D01*
X386786Y440426D01*
X386807Y440365D01*
X386825Y440303D01*
X386838Y440239D01*
X386848Y440175D01*
X386854Y440111D01*
X386856Y440046D01*
X386856Y438437D01*
X389001Y438437D01*
X389001Y441118D01*
X384175Y443923D02*
X384175Y445532D01*
X384177Y445597D01*
X384183Y445661D01*
X384193Y445725D01*
X384206Y445789D01*
X384224Y445851D01*
X384245Y445912D01*
X384269Y445972D01*
X384298Y446030D01*
X384330Y446087D01*
X384365Y446141D01*
X384403Y446193D01*
X384445Y446243D01*
X384489Y446290D01*
X384536Y446334D01*
X384586Y446376D01*
X384638Y446414D01*
X384692Y446449D01*
X384749Y446481D01*
X384807Y446510D01*
X384867Y446534D01*
X384928Y446555D01*
X384990Y446573D01*
X385054Y446586D01*
X385118Y446596D01*
X385182Y446602D01*
X385247Y446604D01*
X385784Y446604D01*
X385849Y446602D01*
X385913Y446596D01*
X385977Y446586D01*
X386041Y446573D01*
X386103Y446555D01*
X386164Y446534D01*
X386224Y446510D01*
X386282Y446481D01*
X386339Y446449D01*
X386393Y446414D01*
X386445Y446376D01*
X386495Y446334D01*
X386542Y446290D01*
X386586Y446243D01*
X386628Y446193D01*
X386666Y446141D01*
X386701Y446087D01*
X386733Y446030D01*
X386762Y445972D01*
X386786Y445912D01*
X386807Y445851D01*
X386825Y445789D01*
X386838Y445725D01*
X386848Y445661D01*
X386854Y445597D01*
X386856Y445532D01*
X386856Y443923D01*
X389001Y443923D01*
X389001Y446604D01*
X387929Y449410D02*
X389001Y450750D01*
X384175Y450750D01*
X384175Y449410D02*
X384175Y452091D01*
D12*
X172890Y12715D02*
X35390Y12715D01*
X26015Y43965D02*
X26015Y56466D01*
X41640Y56466D01*
X166640Y56466D02*
X182265Y56466D01*
X182265Y43965D01*
D13*
X185724Y67517D02*
X185724Y71243D01*
X185722Y71338D01*
X185716Y71433D01*
X185707Y71527D01*
X185693Y71621D01*
X185676Y71715D01*
X185655Y71807D01*
X185630Y71899D01*
X185601Y71989D01*
X185569Y72079D01*
X185533Y72167D01*
X185493Y72253D01*
X185451Y72338D01*
X185404Y72421D01*
X185354Y72502D01*
X185301Y72580D01*
X185245Y72657D01*
X185186Y72731D01*
X185124Y72803D01*
X185059Y72872D01*
X184991Y72939D01*
X184921Y73002D01*
X184847Y73063D01*
X184772Y73121D01*
X184694Y73175D01*
X184614Y73227D01*
X184532Y73275D01*
X184449Y73319D01*
X184363Y73361D01*
X184276Y73398D01*
X184187Y73432D01*
X184097Y73463D01*
X184006Y73490D01*
X183914Y73513D01*
X183821Y73532D01*
X183727Y73547D01*
X183633Y73559D01*
X183538Y73567D01*
X183443Y73571D01*
X183349Y73571D01*
X183254Y73567D01*
X183159Y73559D01*
X183065Y73547D01*
X182971Y73532D01*
X182878Y73513D01*
X182786Y73490D01*
X182695Y73463D01*
X182605Y73432D01*
X182516Y73398D01*
X182429Y73361D01*
X182343Y73319D01*
X182260Y73275D01*
X182178Y73227D01*
X182098Y73175D01*
X182020Y73121D01*
X181945Y73063D01*
X181871Y73002D01*
X181801Y72939D01*
X181733Y72872D01*
X181668Y72803D01*
X181606Y72731D01*
X181547Y72657D01*
X181491Y72580D01*
X181438Y72502D01*
X181388Y72421D01*
X181341Y72338D01*
X181299Y72253D01*
X181259Y72167D01*
X181223Y72079D01*
X181191Y71989D01*
X181162Y71899D01*
X181137Y71807D01*
X181116Y71715D01*
X181099Y71621D01*
X181085Y71527D01*
X181076Y71433D01*
X181070Y71338D01*
X181068Y71243D01*
X181067Y71243D02*
X181067Y67517D01*
X181068Y67517D02*
X181070Y67422D01*
X181076Y67327D01*
X181085Y67233D01*
X181099Y67139D01*
X181116Y67045D01*
X181137Y66953D01*
X181162Y66861D01*
X181191Y66771D01*
X181223Y66681D01*
X181259Y66593D01*
X181299Y66507D01*
X181341Y66422D01*
X181388Y66339D01*
X181438Y66258D01*
X181491Y66180D01*
X181547Y66103D01*
X181606Y66029D01*
X181668Y65957D01*
X181733Y65888D01*
X181801Y65821D01*
X181871Y65758D01*
X181945Y65697D01*
X182020Y65639D01*
X182098Y65585D01*
X182178Y65533D01*
X182260Y65485D01*
X182343Y65441D01*
X182429Y65399D01*
X182516Y65362D01*
X182605Y65328D01*
X182695Y65297D01*
X182786Y65270D01*
X182878Y65247D01*
X182971Y65228D01*
X183065Y65213D01*
X183159Y65201D01*
X183254Y65193D01*
X183349Y65189D01*
X183443Y65189D01*
X183538Y65193D01*
X183633Y65201D01*
X183727Y65213D01*
X183821Y65228D01*
X183914Y65247D01*
X184006Y65270D01*
X184097Y65297D01*
X184187Y65328D01*
X184276Y65362D01*
X184363Y65399D01*
X184449Y65441D01*
X184532Y65485D01*
X184614Y65533D01*
X184694Y65585D01*
X184772Y65639D01*
X184847Y65697D01*
X184921Y65758D01*
X184991Y65821D01*
X185059Y65888D01*
X185124Y65957D01*
X185186Y66029D01*
X185245Y66103D01*
X185301Y66180D01*
X185354Y66258D01*
X185404Y66339D01*
X185451Y66422D01*
X185493Y66507D01*
X185533Y66593D01*
X185569Y66681D01*
X185601Y66771D01*
X185630Y66861D01*
X185655Y66953D01*
X185676Y67045D01*
X185693Y67139D01*
X185707Y67233D01*
X185716Y67327D01*
X185722Y67422D01*
X185724Y67517D01*
X181999Y67052D02*
X180136Y65189D01*
X177125Y69380D02*
X177123Y69545D01*
X177117Y69710D01*
X177107Y69874D01*
X177094Y70039D01*
X177076Y70203D01*
X177054Y70366D01*
X177029Y70529D01*
X176999Y70691D01*
X176966Y70853D01*
X176929Y71013D01*
X176888Y71173D01*
X176843Y71332D01*
X176795Y71489D01*
X176743Y71646D01*
X176687Y71801D01*
X176627Y71955D01*
X176564Y72107D01*
X176497Y72258D01*
X176427Y72407D01*
X176398Y72484D01*
X176366Y72560D01*
X176331Y72634D01*
X176291Y72706D01*
X176249Y72776D01*
X176203Y72844D01*
X176154Y72910D01*
X176101Y72974D01*
X176046Y73035D01*
X175988Y73093D01*
X175928Y73148D01*
X175864Y73201D01*
X175798Y73250D01*
X175730Y73296D01*
X175660Y73339D01*
X175588Y73379D01*
X175514Y73415D01*
X175439Y73447D01*
X175362Y73476D01*
X175284Y73501D01*
X175204Y73522D01*
X175124Y73540D01*
X175043Y73553D01*
X174961Y73563D01*
X174879Y73569D01*
X174797Y73571D01*
X174715Y73569D01*
X174633Y73563D01*
X174551Y73553D01*
X174470Y73540D01*
X174390Y73522D01*
X174310Y73501D01*
X174232Y73476D01*
X174155Y73447D01*
X174080Y73415D01*
X174006Y73379D01*
X173934Y73339D01*
X173864Y73296D01*
X173796Y73250D01*
X173730Y73201D01*
X173667Y73148D01*
X173606Y73093D01*
X173548Y73035D01*
X173493Y72974D01*
X173440Y72910D01*
X173391Y72844D01*
X173345Y72776D01*
X173303Y72706D01*
X173264Y72634D01*
X173228Y72560D01*
X173196Y72484D01*
X173167Y72407D01*
X173097Y72258D01*
X173030Y72107D01*
X172967Y71955D01*
X172907Y71801D01*
X172851Y71646D01*
X172799Y71489D01*
X172751Y71332D01*
X172706Y71173D01*
X172665Y71013D01*
X172628Y70853D01*
X172595Y70691D01*
X172565Y70529D01*
X172540Y70366D01*
X172518Y70203D01*
X172500Y70039D01*
X172487Y69874D01*
X172477Y69710D01*
X172471Y69545D01*
X172469Y69380D01*
X177126Y69380D02*
X177124Y69215D01*
X177118Y69050D01*
X177108Y68886D01*
X177095Y68721D01*
X177077Y68557D01*
X177055Y68394D01*
X177030Y68231D01*
X177000Y68069D01*
X176967Y67907D01*
X176930Y67746D01*
X176889Y67587D01*
X176844Y67428D01*
X176796Y67270D01*
X176744Y67114D01*
X176688Y66959D01*
X176628Y66805D01*
X176565Y66653D01*
X176498Y66502D01*
X176427Y66353D01*
X176398Y66276D01*
X176366Y66200D01*
X176330Y66126D01*
X176291Y66054D01*
X176249Y65984D01*
X176203Y65916D01*
X176154Y65850D01*
X176101Y65786D01*
X176046Y65725D01*
X175988Y65667D01*
X175928Y65612D01*
X175864Y65559D01*
X175798Y65510D01*
X175730Y65464D01*
X175660Y65421D01*
X175588Y65381D01*
X175514Y65345D01*
X175439Y65313D01*
X175362Y65284D01*
X175284Y65259D01*
X175204Y65238D01*
X175124Y65220D01*
X175043Y65207D01*
X174961Y65197D01*
X174879Y65191D01*
X174797Y65189D01*
X173168Y66353D02*
X173097Y66502D01*
X173030Y66653D01*
X172967Y66805D01*
X172907Y66959D01*
X172851Y67114D01*
X172799Y67270D01*
X172751Y67428D01*
X172706Y67587D01*
X172665Y67746D01*
X172628Y67907D01*
X172595Y68069D01*
X172565Y68231D01*
X172540Y68394D01*
X172518Y68557D01*
X172500Y68721D01*
X172487Y68886D01*
X172477Y69050D01*
X172471Y69215D01*
X172469Y69380D01*
X173167Y66353D02*
X173196Y66276D01*
X173228Y66200D01*
X173264Y66126D01*
X173303Y66054D01*
X173345Y65984D01*
X173391Y65916D01*
X173440Y65850D01*
X173493Y65786D01*
X173548Y65725D01*
X173606Y65667D01*
X173667Y65612D01*
X173730Y65559D01*
X173796Y65510D01*
X173864Y65464D01*
X173934Y65421D01*
X174006Y65381D01*
X174080Y65345D01*
X174155Y65313D01*
X174232Y65284D01*
X174310Y65259D01*
X174390Y65238D01*
X174470Y65220D01*
X174551Y65207D01*
X174633Y65197D01*
X174715Y65191D01*
X174797Y65189D01*
X176660Y67052D02*
X172935Y71708D01*
D12*
X335110Y12715D02*
X472610Y12715D01*
X325735Y43965D02*
X325735Y56466D01*
X341360Y56466D01*
X466360Y56466D02*
X481985Y56466D01*
X481985Y43965D01*
D13*
X482851Y68457D02*
X482851Y72183D01*
X482849Y72278D01*
X482843Y72373D01*
X482834Y72467D01*
X482820Y72561D01*
X482803Y72655D01*
X482782Y72747D01*
X482757Y72839D01*
X482728Y72929D01*
X482696Y73019D01*
X482660Y73107D01*
X482620Y73193D01*
X482578Y73278D01*
X482531Y73361D01*
X482481Y73442D01*
X482428Y73520D01*
X482372Y73597D01*
X482313Y73671D01*
X482251Y73743D01*
X482186Y73812D01*
X482118Y73879D01*
X482048Y73942D01*
X481974Y74003D01*
X481899Y74061D01*
X481821Y74115D01*
X481741Y74167D01*
X481659Y74215D01*
X481576Y74259D01*
X481490Y74301D01*
X481403Y74338D01*
X481314Y74372D01*
X481224Y74403D01*
X481133Y74430D01*
X481041Y74453D01*
X480948Y74472D01*
X480854Y74487D01*
X480760Y74499D01*
X480665Y74507D01*
X480570Y74511D01*
X480476Y74511D01*
X480381Y74507D01*
X480286Y74499D01*
X480192Y74487D01*
X480098Y74472D01*
X480005Y74453D01*
X479913Y74430D01*
X479822Y74403D01*
X479732Y74372D01*
X479643Y74338D01*
X479556Y74301D01*
X479470Y74259D01*
X479387Y74215D01*
X479305Y74167D01*
X479225Y74115D01*
X479147Y74061D01*
X479072Y74003D01*
X478998Y73942D01*
X478928Y73879D01*
X478860Y73812D01*
X478795Y73743D01*
X478733Y73671D01*
X478674Y73597D01*
X478618Y73520D01*
X478565Y73442D01*
X478515Y73361D01*
X478468Y73278D01*
X478426Y73193D01*
X478386Y73107D01*
X478350Y73019D01*
X478318Y72929D01*
X478289Y72839D01*
X478264Y72747D01*
X478243Y72655D01*
X478226Y72561D01*
X478212Y72467D01*
X478203Y72373D01*
X478197Y72278D01*
X478195Y72183D01*
X478194Y72183D02*
X478194Y68457D01*
X478195Y68457D02*
X478197Y68362D01*
X478203Y68267D01*
X478212Y68173D01*
X478226Y68079D01*
X478243Y67985D01*
X478264Y67893D01*
X478289Y67801D01*
X478318Y67711D01*
X478350Y67621D01*
X478386Y67533D01*
X478426Y67447D01*
X478468Y67362D01*
X478515Y67279D01*
X478565Y67198D01*
X478618Y67120D01*
X478674Y67043D01*
X478733Y66969D01*
X478795Y66897D01*
X478860Y66828D01*
X478928Y66761D01*
X478998Y66698D01*
X479072Y66637D01*
X479147Y66579D01*
X479225Y66525D01*
X479305Y66473D01*
X479387Y66425D01*
X479470Y66381D01*
X479556Y66339D01*
X479643Y66302D01*
X479732Y66268D01*
X479822Y66237D01*
X479913Y66210D01*
X480005Y66187D01*
X480098Y66168D01*
X480192Y66153D01*
X480286Y66141D01*
X480381Y66133D01*
X480476Y66129D01*
X480570Y66129D01*
X480665Y66133D01*
X480760Y66141D01*
X480854Y66153D01*
X480948Y66168D01*
X481041Y66187D01*
X481133Y66210D01*
X481224Y66237D01*
X481314Y66268D01*
X481403Y66302D01*
X481490Y66339D01*
X481576Y66381D01*
X481659Y66425D01*
X481741Y66473D01*
X481821Y66525D01*
X481899Y66579D01*
X481974Y66637D01*
X482048Y66698D01*
X482118Y66761D01*
X482186Y66828D01*
X482251Y66897D01*
X482313Y66969D01*
X482372Y67043D01*
X482428Y67120D01*
X482481Y67198D01*
X482531Y67279D01*
X482578Y67362D01*
X482620Y67447D01*
X482660Y67533D01*
X482696Y67621D01*
X482728Y67711D01*
X482757Y67801D01*
X482782Y67893D01*
X482803Y67985D01*
X482820Y68079D01*
X482834Y68173D01*
X482843Y68267D01*
X482849Y68362D01*
X482851Y68457D01*
X479126Y67992D02*
X477263Y66129D01*
X474253Y72648D02*
X471924Y74511D01*
X471924Y66129D01*
X469596Y66129D02*
X474253Y66129D01*
D12*
X279000Y647685D02*
X229000Y647685D01*
X288375Y616435D02*
X288375Y603934D01*
X272750Y603934D01*
X235250Y603934D02*
X219625Y603934D01*
X219625Y616435D01*
D13*
X309029Y607591D02*
X317411Y607591D01*
X317411Y609920D01*
X317409Y610015D01*
X317403Y610110D01*
X317394Y610204D01*
X317380Y610298D01*
X317363Y610392D01*
X317342Y610484D01*
X317317Y610576D01*
X317288Y610666D01*
X317256Y610756D01*
X317220Y610844D01*
X317180Y610930D01*
X317138Y611015D01*
X317091Y611098D01*
X317041Y611179D01*
X316988Y611257D01*
X316932Y611334D01*
X316873Y611408D01*
X316811Y611480D01*
X316746Y611549D01*
X316678Y611616D01*
X316608Y611679D01*
X316534Y611740D01*
X316459Y611798D01*
X316381Y611852D01*
X316301Y611904D01*
X316219Y611952D01*
X316136Y611996D01*
X316050Y612038D01*
X315963Y612075D01*
X315874Y612109D01*
X315784Y612140D01*
X315693Y612167D01*
X315601Y612190D01*
X315508Y612209D01*
X315414Y612224D01*
X315320Y612236D01*
X315225Y612244D01*
X315130Y612248D01*
X315036Y612248D01*
X314941Y612244D01*
X314846Y612236D01*
X314752Y612224D01*
X314658Y612209D01*
X314565Y612190D01*
X314473Y612167D01*
X314382Y612140D01*
X314292Y612109D01*
X314203Y612075D01*
X314116Y612038D01*
X314030Y611996D01*
X313947Y611952D01*
X313865Y611904D01*
X313785Y611852D01*
X313707Y611798D01*
X313632Y611740D01*
X313558Y611679D01*
X313488Y611616D01*
X313420Y611549D01*
X313355Y611480D01*
X313293Y611408D01*
X313234Y611334D01*
X313178Y611257D01*
X313125Y611179D01*
X313075Y611098D01*
X313028Y611015D01*
X312986Y610930D01*
X312946Y610844D01*
X312910Y610756D01*
X312878Y610666D01*
X312849Y610576D01*
X312824Y610484D01*
X312803Y610392D01*
X312786Y610298D01*
X312772Y610204D01*
X312763Y610110D01*
X312757Y610015D01*
X312755Y609920D01*
X312754Y609920D02*
X312754Y607591D01*
X311357Y616215D02*
X315083Y616215D01*
X315178Y616217D01*
X315273Y616223D01*
X315367Y616232D01*
X315461Y616246D01*
X315555Y616263D01*
X315647Y616284D01*
X315739Y616309D01*
X315829Y616338D01*
X315919Y616370D01*
X316007Y616406D01*
X316093Y616446D01*
X316178Y616488D01*
X316261Y616535D01*
X316342Y616585D01*
X316420Y616638D01*
X316497Y616694D01*
X316571Y616753D01*
X316643Y616815D01*
X316712Y616880D01*
X316779Y616948D01*
X316842Y617018D01*
X316903Y617092D01*
X316961Y617167D01*
X317015Y617245D01*
X317067Y617325D01*
X317115Y617407D01*
X317159Y617490D01*
X317201Y617576D01*
X317238Y617663D01*
X317272Y617752D01*
X317303Y617842D01*
X317330Y617933D01*
X317353Y618025D01*
X317372Y618118D01*
X317387Y618212D01*
X317399Y618306D01*
X317407Y618401D01*
X317411Y618496D01*
X317411Y618590D01*
X317407Y618685D01*
X317399Y618780D01*
X317387Y618874D01*
X317372Y618968D01*
X317353Y619061D01*
X317330Y619153D01*
X317303Y619244D01*
X317272Y619334D01*
X317238Y619423D01*
X317201Y619510D01*
X317159Y619596D01*
X317115Y619679D01*
X317067Y619761D01*
X317015Y619841D01*
X316961Y619919D01*
X316903Y619994D01*
X316842Y620068D01*
X316779Y620138D01*
X316712Y620206D01*
X316643Y620271D01*
X316571Y620333D01*
X316497Y620392D01*
X316420Y620448D01*
X316342Y620501D01*
X316261Y620551D01*
X316178Y620598D01*
X316093Y620640D01*
X316007Y620680D01*
X315919Y620716D01*
X315829Y620748D01*
X315739Y620777D01*
X315647Y620802D01*
X315555Y620823D01*
X315461Y620840D01*
X315367Y620854D01*
X315273Y620863D01*
X315178Y620869D01*
X315083Y620871D01*
X311357Y620871D01*
X311262Y620869D01*
X311167Y620863D01*
X311073Y620854D01*
X310979Y620840D01*
X310885Y620823D01*
X310793Y620802D01*
X310701Y620777D01*
X310611Y620748D01*
X310521Y620716D01*
X310433Y620680D01*
X310347Y620640D01*
X310262Y620598D01*
X310179Y620551D01*
X310098Y620501D01*
X310020Y620448D01*
X309943Y620392D01*
X309869Y620333D01*
X309797Y620271D01*
X309728Y620206D01*
X309661Y620138D01*
X309598Y620068D01*
X309537Y619994D01*
X309479Y619919D01*
X309425Y619841D01*
X309373Y619761D01*
X309325Y619679D01*
X309281Y619596D01*
X309239Y619510D01*
X309202Y619423D01*
X309168Y619334D01*
X309137Y619244D01*
X309110Y619153D01*
X309087Y619061D01*
X309068Y618968D01*
X309053Y618874D01*
X309041Y618780D01*
X309033Y618685D01*
X309029Y618590D01*
X309029Y618496D01*
X309033Y618401D01*
X309041Y618306D01*
X309053Y618212D01*
X309068Y618118D01*
X309087Y618025D01*
X309110Y617933D01*
X309137Y617842D01*
X309168Y617752D01*
X309202Y617663D01*
X309239Y617576D01*
X309281Y617490D01*
X309325Y617407D01*
X309373Y617325D01*
X309425Y617245D01*
X309479Y617167D01*
X309537Y617092D01*
X309598Y617018D01*
X309661Y616948D01*
X309728Y616880D01*
X309797Y616815D01*
X309869Y616753D01*
X309943Y616694D01*
X310020Y616638D01*
X310098Y616585D01*
X310179Y616535D01*
X310262Y616488D01*
X310347Y616446D01*
X310433Y616406D01*
X310521Y616370D01*
X310611Y616338D01*
X310701Y616309D01*
X310793Y616284D01*
X310885Y616263D01*
X310979Y616246D01*
X311073Y616232D01*
X311167Y616223D01*
X311262Y616217D01*
X311357Y616215D01*
X317411Y625181D02*
X309029Y627043D01*
X314617Y628906D01*
X309029Y630769D01*
X317411Y632631D01*
X309029Y637275D02*
X309029Y641000D01*
X309029Y637275D02*
X317411Y637275D01*
X317411Y641000D01*
X313686Y640069D02*
X313686Y637275D01*
X317411Y645264D02*
X309029Y645264D01*
X317411Y645264D02*
X317411Y647593D01*
X317409Y647688D01*
X317403Y647783D01*
X317394Y647877D01*
X317380Y647971D01*
X317363Y648065D01*
X317342Y648157D01*
X317317Y648249D01*
X317288Y648339D01*
X317256Y648429D01*
X317220Y648517D01*
X317180Y648603D01*
X317138Y648688D01*
X317091Y648771D01*
X317041Y648852D01*
X316988Y648930D01*
X316932Y649007D01*
X316873Y649081D01*
X316811Y649153D01*
X316746Y649222D01*
X316678Y649289D01*
X316608Y649352D01*
X316534Y649413D01*
X316459Y649471D01*
X316381Y649525D01*
X316301Y649577D01*
X316219Y649625D01*
X316136Y649669D01*
X316050Y649711D01*
X315963Y649748D01*
X315874Y649782D01*
X315784Y649813D01*
X315693Y649840D01*
X315601Y649863D01*
X315508Y649882D01*
X315414Y649897D01*
X315320Y649909D01*
X315225Y649917D01*
X315130Y649921D01*
X315036Y649921D01*
X314941Y649917D01*
X314846Y649909D01*
X314752Y649897D01*
X314658Y649882D01*
X314565Y649863D01*
X314473Y649840D01*
X314382Y649813D01*
X314292Y649782D01*
X314203Y649748D01*
X314116Y649711D01*
X314030Y649669D01*
X313947Y649625D01*
X313865Y649577D01*
X313785Y649525D01*
X313707Y649471D01*
X313632Y649413D01*
X313558Y649352D01*
X313488Y649289D01*
X313420Y649222D01*
X313355Y649153D01*
X313293Y649081D01*
X313234Y649007D01*
X313178Y648930D01*
X313125Y648852D01*
X313075Y648771D01*
X313028Y648688D01*
X312986Y648603D01*
X312946Y648517D01*
X312910Y648429D01*
X312878Y648339D01*
X312849Y648249D01*
X312824Y648157D01*
X312803Y648065D01*
X312786Y647971D01*
X312772Y647877D01*
X312763Y647783D01*
X312757Y647688D01*
X312755Y647593D01*
X312754Y647593D02*
X312754Y645264D01*
X312754Y648058D02*
X309029Y649921D01*
D10*
X193774Y598287D02*
X172946Y598287D01*
X172946Y552059D02*
X193774Y552059D01*
X193774Y591683D02*
X172946Y591683D01*
X172946Y545455D02*
X193774Y545455D01*
D11*
X203313Y626008D02*
X207293Y626008D01*
X210277Y623687D01*
X207293Y626008D02*
X210277Y628329D01*
X207293Y626008D02*
X205966Y622360D01*
X207293Y626008D02*
X205966Y629656D01*
X131816Y619407D02*
X131816Y610785D01*
X131814Y610671D01*
X131808Y610556D01*
X131798Y610442D01*
X131784Y610329D01*
X131767Y610215D01*
X131745Y610103D01*
X131720Y609991D01*
X131690Y609881D01*
X131657Y609771D01*
X131620Y609663D01*
X131580Y609556D01*
X131535Y609450D01*
X131488Y609346D01*
X131436Y609244D01*
X131381Y609144D01*
X131323Y609045D01*
X131261Y608949D01*
X131196Y608854D01*
X131128Y608763D01*
X131056Y608673D01*
X130982Y608586D01*
X130905Y608502D01*
X130824Y608420D01*
X130741Y608341D01*
X130656Y608265D01*
X130567Y608192D01*
X130477Y608123D01*
X130384Y608056D01*
X130288Y607993D01*
X130191Y607933D01*
X130091Y607876D01*
X129990Y607823D01*
X129887Y607773D01*
X129782Y607727D01*
X129676Y607684D01*
X129568Y607646D01*
X129459Y607611D01*
X129349Y607580D01*
X129238Y607552D01*
X129126Y607529D01*
X129013Y607509D01*
X128900Y607493D01*
X128786Y607481D01*
X128672Y607473D01*
X128557Y607469D01*
X128443Y607469D01*
X128328Y607473D01*
X128214Y607481D01*
X128100Y607493D01*
X127987Y607509D01*
X127874Y607529D01*
X127762Y607552D01*
X127651Y607580D01*
X127541Y607611D01*
X127432Y607646D01*
X127324Y607684D01*
X127218Y607727D01*
X127113Y607773D01*
X127010Y607823D01*
X126909Y607876D01*
X126809Y607933D01*
X126712Y607993D01*
X126616Y608056D01*
X126523Y608123D01*
X126433Y608192D01*
X126344Y608265D01*
X126259Y608341D01*
X126176Y608420D01*
X126095Y608502D01*
X126018Y608586D01*
X125944Y608673D01*
X125872Y608763D01*
X125804Y608854D01*
X125739Y608949D01*
X125677Y609045D01*
X125619Y609144D01*
X125564Y609244D01*
X125512Y609346D01*
X125465Y609450D01*
X125420Y609556D01*
X125380Y609663D01*
X125343Y609771D01*
X125310Y609881D01*
X125280Y609991D01*
X125255Y610103D01*
X125233Y610215D01*
X125216Y610329D01*
X125202Y610442D01*
X125192Y610556D01*
X125186Y610671D01*
X125184Y610785D01*
X125184Y619407D01*
X120005Y619407D02*
X120005Y618080D01*
X120005Y619407D02*
X113373Y619407D01*
X116689Y607469D01*
M02*
