G04 EAGLE Gerber RS-274X export*
G75*
%MOMM*%
%FSLAX34Y34*%
%LPD*%
%INSolderpaste Top*%
%IPPOS*%
%AMOC8*
5,1,8,0,0,1.08239X$1,22.5*%
G01*
%ADD10R,1.500000X1.300000*%
%ADD11R,1.778000X0.431800*%
%ADD12R,1.300000X1.500000*%
%ADD13R,0.533400X1.981200*%
%ADD14R,1.600000X0.800000*%
%ADD15R,3.000000X2.100000*%
%ADD16R,0.800000X1.600000*%
%ADD17R,2.100000X3.000000*%
%ADD18R,2.500000X1.000000*%
%ADD19R,2.032000X0.762000*%
%ADD20R,3.302000X1.270000*%


D10*
X269240Y516280D03*
X269240Y535280D03*
X238760Y516280D03*
X238760Y535280D03*
D11*
X340233Y220570D03*
X340233Y214070D03*
X340233Y207570D03*
X340233Y201070D03*
X381127Y201070D03*
X381127Y207570D03*
X381127Y214070D03*
X381127Y220570D03*
D12*
X158140Y325120D03*
X177140Y325120D03*
X109880Y325120D03*
X128880Y325120D03*
X177140Y185420D03*
X158140Y185420D03*
X128880Y185420D03*
X109880Y185420D03*
X286360Y243840D03*
X267360Y243840D03*
X267360Y271780D03*
X286360Y271780D03*
X286360Y215900D03*
X267360Y215900D03*
X267360Y187960D03*
X286360Y187960D03*
D11*
X340233Y271370D03*
X340233Y264870D03*
X340233Y258370D03*
X340233Y251870D03*
X381127Y251870D03*
X381127Y258370D03*
X381127Y264870D03*
X381127Y271370D03*
D12*
X158140Y241300D03*
X177140Y241300D03*
X109880Y241300D03*
X128880Y241300D03*
X109880Y213360D03*
X128880Y213360D03*
X158140Y213360D03*
X177140Y213360D03*
D11*
X381127Y302670D03*
X381127Y309170D03*
X381127Y315670D03*
X381127Y322170D03*
X340233Y322170D03*
X340233Y315670D03*
X340233Y309170D03*
X340233Y302670D03*
D12*
X158140Y269240D03*
X177140Y269240D03*
X109880Y269240D03*
X128880Y269240D03*
X109880Y297180D03*
X128880Y297180D03*
X158140Y297180D03*
X177140Y297180D03*
D13*
X146050Y138938D03*
X133350Y138938D03*
X120650Y138938D03*
X107950Y138938D03*
X107950Y89662D03*
X120650Y89662D03*
X133350Y89662D03*
X146050Y89662D03*
X400050Y138938D03*
X387350Y138938D03*
X374650Y138938D03*
X361950Y138938D03*
X361950Y89662D03*
X374650Y89662D03*
X387350Y89662D03*
X400050Y89662D03*
D14*
X53340Y468330D03*
X53340Y455830D03*
X53340Y443330D03*
X53340Y430830D03*
D15*
X25840Y493930D03*
X25840Y405230D03*
D14*
X454660Y430830D03*
X454660Y443330D03*
X454660Y455830D03*
X454660Y468330D03*
D15*
X482160Y405230D03*
X482160Y493930D03*
D16*
X47690Y53340D03*
X60190Y53340D03*
X72690Y53340D03*
X85190Y53340D03*
X97690Y53340D03*
X110190Y53340D03*
X122690Y53340D03*
X135190Y53340D03*
D17*
X22090Y25840D03*
X160790Y25840D03*
D16*
X372810Y53340D03*
X385310Y53340D03*
X397810Y53340D03*
X410310Y53340D03*
X422810Y53340D03*
X435310Y53340D03*
X447810Y53340D03*
X460310Y53340D03*
D17*
X347210Y25840D03*
X485910Y25840D03*
D18*
X299920Y68500D03*
X299920Y93900D03*
X299920Y119300D03*
X208920Y68500D03*
X208920Y93900D03*
X208920Y119300D03*
D14*
X53340Y611740D03*
X53340Y599240D03*
X53340Y586740D03*
X53340Y574240D03*
X53340Y561740D03*
D15*
X25840Y637340D03*
X25840Y536140D03*
D14*
X454660Y561740D03*
X454660Y574240D03*
X454660Y586740D03*
X454660Y599240D03*
X454660Y611740D03*
D15*
X482160Y536140D03*
X482160Y637340D03*
D12*
X172060Y378460D03*
X153060Y378460D03*
X335940Y523240D03*
X354940Y523240D03*
D19*
X135128Y496570D03*
X135128Y483870D03*
X135128Y471170D03*
X135128Y458470D03*
X135128Y445770D03*
X135128Y433070D03*
X135128Y420370D03*
X135128Y407670D03*
X192532Y407670D03*
X192532Y420370D03*
X192532Y433070D03*
X192532Y445770D03*
X192532Y458470D03*
X192532Y471170D03*
X192532Y483870D03*
X192532Y496570D03*
X372872Y407670D03*
X372872Y420370D03*
X372872Y433070D03*
X372872Y445770D03*
X372872Y458470D03*
X372872Y471170D03*
X372872Y483870D03*
X372872Y496570D03*
X315468Y496570D03*
X315468Y483870D03*
X315468Y471170D03*
X315468Y458470D03*
X315468Y445770D03*
X315468Y433070D03*
X315468Y420370D03*
X315468Y407670D03*
D20*
X185412Y582996D03*
X185341Y633126D03*
X121636Y608437D03*
X322588Y636204D03*
X322659Y586075D03*
X386364Y610763D03*
M02*
