G04 EAGLE Gerber RS-274X export*
G75*
%MOMM*%
%FSLAX34Y34*%
%LPD*%
%INSoldermask Bottom*%
%IPPOS*%
%AMOC8*
5,1,8,0,0,1.08239X$1,22.5*%
G01*
%ADD10R,1.703200X1.503200*%
%ADD11R,1.503200X1.703200*%
%ADD12R,1.003200X1.803200*%
%ADD13R,2.303200X3.203200*%
%ADD14P,1.951982X8X112.500000*%
%ADD15P,1.951982X8X22.500000*%
%ADD16R,0.803200X1.403200*%
%ADD17R,1.905000X0.914400*%
%ADD18R,6.426200X6.756400*%
%ADD19R,1.473200X1.903200*%
%ADD20R,2.387600X0.762000*%
%ADD21C,0.959600*%


D10*
X416560Y382880D03*
X416560Y363880D03*
D11*
X447700Y571500D03*
X466700Y571500D03*
X447700Y543560D03*
X466700Y543560D03*
D12*
X448410Y607060D03*
X460910Y607060D03*
D13*
X422810Y634560D03*
X486510Y634560D03*
D14*
X406400Y487680D03*
X431800Y487680D03*
D15*
X25400Y355600D03*
X25486Y330289D03*
X50800Y127000D03*
X50800Y152400D03*
X50800Y177800D03*
X50800Y203200D03*
X50800Y228600D03*
X50800Y254000D03*
X50800Y279400D03*
X50800Y304800D03*
X50800Y330200D03*
X50800Y355600D03*
X25509Y304711D03*
X457200Y355600D03*
X457200Y330200D03*
X457200Y304800D03*
X457200Y279400D03*
X457200Y254000D03*
X457200Y228600D03*
X457200Y203200D03*
X457200Y177800D03*
X457200Y152400D03*
X457200Y127000D03*
X25474Y279461D03*
X482600Y127000D03*
X482600Y152400D03*
X482600Y177800D03*
X482600Y203200D03*
X482600Y228600D03*
X482600Y254000D03*
X482600Y279400D03*
X482600Y304800D03*
X482600Y330200D03*
X482600Y355600D03*
X25400Y254000D03*
X25400Y228600D03*
X25400Y203200D03*
X25400Y177800D03*
X25400Y152400D03*
X25400Y127000D03*
D11*
X466700Y515620D03*
X447700Y515620D03*
X415900Y571500D03*
X396900Y571500D03*
X415900Y543560D03*
X396900Y543560D03*
X415900Y515620D03*
X396900Y515620D03*
D16*
X440690Y406340D03*
X427990Y406340D03*
X415290Y406340D03*
X402590Y406340D03*
X402590Y462340D03*
X415290Y462340D03*
X427990Y462340D03*
X440690Y462340D03*
D12*
X160390Y53340D03*
X147890Y53340D03*
X135390Y53340D03*
X122890Y53340D03*
X110390Y53340D03*
X97890Y53340D03*
X85390Y53340D03*
X72890Y53340D03*
X60390Y53340D03*
X47890Y53340D03*
D13*
X185990Y25840D03*
X22290Y25840D03*
D12*
X460110Y53340D03*
X447610Y53340D03*
X435110Y53340D03*
X422610Y53340D03*
X410110Y53340D03*
X397610Y53340D03*
X385110Y53340D03*
X372610Y53340D03*
X360110Y53340D03*
X347610Y53340D03*
D13*
X485710Y25840D03*
X322010Y25840D03*
D12*
X241500Y607060D03*
X254000Y607060D03*
X266500Y607060D03*
D13*
X215900Y634560D03*
X292100Y634560D03*
D17*
X205966Y594871D03*
D18*
X138402Y571871D03*
D17*
X205966Y548871D03*
D10*
X76200Y489560D03*
X76200Y470560D03*
X50800Y489560D03*
X50800Y470560D03*
X25400Y489560D03*
X25400Y470560D03*
D19*
X54420Y594740D03*
X30420Y594740D03*
X54420Y559180D03*
X30420Y559180D03*
X54420Y523620D03*
X30420Y523620D03*
D20*
X233421Y28031D03*
X233421Y40731D03*
X233421Y53431D03*
X233421Y66131D03*
X233421Y78831D03*
X233421Y91531D03*
X233421Y104231D03*
X233421Y116931D03*
X280665Y116931D03*
X280665Y104231D03*
X280665Y91531D03*
X280665Y78831D03*
X280665Y66131D03*
X280665Y53431D03*
X280665Y40731D03*
X280665Y28031D03*
D21*
X433540Y327000D03*
X355460Y342486D03*
X434304Y36843D03*
X93980Y149860D03*
X132080Y38100D03*
X104140Y203200D03*
X93980Y231140D03*
X93980Y335280D03*
X170180Y266700D03*
X25400Y370840D03*
X434340Y353060D03*
X441960Y337820D03*
X284480Y548640D03*
X233680Y551180D03*
X268161Y591124D03*
X208280Y581660D03*
X345440Y635000D03*
X469900Y589280D03*
X469900Y467360D03*
X106680Y500380D03*
X38100Y431800D03*
X350520Y144780D03*
X304800Y271780D03*
X302260Y187960D03*
X470088Y557421D03*
X459740Y500380D03*
X433476Y390870D03*
X382125Y36266D03*
X73660Y38100D03*
X436880Y297180D03*
X431800Y266700D03*
X418102Y475925D03*
X317500Y287020D03*
X469900Y190500D03*
X76200Y449580D03*
X449580Y76200D03*
X281940Y137160D03*
X226146Y125959D03*
X167640Y93980D03*
X50800Y88900D03*
X22860Y96520D03*
X254000Y383540D03*
X360357Y184490D03*
X83820Y543560D03*
X254000Y35560D03*
X78740Y607060D03*
X25400Y614680D03*
X25400Y576580D03*
X261620Y294640D03*
X355600Y292100D03*
X330200Y116840D03*
X449580Y101600D03*
X360680Y330200D03*
X400136Y369387D03*
X248920Y279400D03*
X162560Y617220D03*
X342900Y612140D03*
X431800Y129540D03*
X185420Y320040D03*
X448666Y241300D03*
X363220Y213360D03*
X345440Y421640D03*
X254000Y518160D03*
X160020Y150396D03*
X162560Y165580D03*
X60960Y38100D03*
X447040Y35560D03*
X375920Y383540D03*
X184376Y344960D03*
X421160Y327124D03*
X381988Y348554D03*
X406400Y164112D03*
X297180Y124460D03*
X88900Y374234D03*
X93980Y359050D03*
X129060Y508000D03*
X129540Y364582D03*
X78740Y226060D03*
X74648Y253012D03*
X313594Y338994D03*
X381988Y336418D03*
X175260Y83284D03*
X254000Y53340D03*
X259080Y119380D03*
X185420Y150396D03*
X172720Y168628D03*
X347980Y72742D03*
X238760Y149860D03*
X197721Y150396D03*
X181808Y168628D03*
X68580Y223520D03*
X373380Y544548D03*
X424576Y439420D03*
X431876Y279476D03*
X309268Y213360D03*
X411480Y207292D03*
X251460Y142240D03*
X84892Y358140D03*
X312867Y322558D03*
X436880Y317500D03*
X73622Y358102D03*
X303779Y322558D03*
X436344Y307340D03*
X353060Y459740D03*
X358140Y591820D03*
X345440Y447040D03*
X345440Y584200D03*
X297180Y406400D03*
X190500Y195580D03*
X154940Y447040D03*
X160020Y523240D03*
X175260Y419100D03*
X186906Y261620D03*
X172720Y472440D03*
X169108Y523240D03*
X316381Y235101D03*
X317500Y220980D03*
X411480Y182880D03*
X284480Y168628D03*
X406400Y439702D03*
X395404Y471658D03*
X402872Y287020D03*
X383540Y373380D03*
X415488Y439702D03*
X406400Y474373D03*
X219908Y485140D03*
X147320Y531436D03*
X338808Y292100D03*
X312420Y360680D03*
X210820Y485140D03*
X147320Y522348D03*
X320040Y308892D03*
X320020Y332568D03*
X398432Y72006D03*
X421640Y73660D03*
X165100Y344960D03*
M02*
